<?xml version="1.0" standalone="no"?>
<!DOCTYPE svg PUBLIC "-//W3C//DTD SVG 20010904//EN"
 "http://www.w3.org/TR/2001/REC-SVG-20010904/DTD/svg10.dtd">
<svg version="1.0" xmlns="http://www.w3.org/2000/svg"
 width="3236.000000pt" height="4703.000000pt" viewBox="0 0 3236.000000 4703.000000"
 preserveAspectRatio="xMidYMid meet">
<metadata>
Created by potrace 1.15, written by Peter Selinger 2001-2017
</metadata>
<g transform="translate(0.000000,4703.000000) scale(0.100000,-0.100000)"
fill="#000000" stroke="none">
<path d="M15975 46665 c-33 -30 -65 -55 -71 -55 -37 0 -123 27 -150 47 -28 21
-43 23 -165 25 -97 2 -143 -1 -167 -11 -27 -11 -41 -12 -73 -2 -33 10 -45 9
-71 -3 -17 -9 -39 -16 -50 -16 -10 0 -44 -6 -76 -14 -123 -30 -154 -36 -198
-36 -25 0 -53 -4 -63 -9 -9 -5 -105 -14 -212 -20 -193 -11 -314 -24 -398 -42
-25 -6 -115 -13 -200 -15 -86 -3 -192 -12 -236 -19 -44 -8 -114 -17 -155 -20
-41 -3 -127 -10 -190 -15 -63 -5 -140 -14 -170 -20 -30 -6 -98 -17 -150 -25
-324 -48 -324 -48 -480 -60 -76 -6 -301 -38 -445 -64 -33 -6 -91 -16 -130 -22
-38 -6 -75 -16 -82 -21 -7 -5 -56 -14 -110 -19 -210 -18 -402 -53 -438 -79
-22 -16 -108 -30 -182 -30 -60 0 -89 -5 -128 -23 -27 -13 -77 -29 -110 -36
-56 -12 -101 -28 -150 -54 -11 -5 -40 -16 -65 -23 -25 -7 -72 -24 -105 -38
-33 -14 -74 -26 -91 -26 -17 0 -47 -7 -67 -15 -19 -8 -65 -19 -101 -25 -73
-12 -172 -40 -251 -71 -27 -11 -84 -32 -125 -45 -41 -14 -91 -36 -110 -49 -58
-39 -85 -49 -305 -109 -33 -9 -92 -32 -131 -51 -39 -19 -75 -35 -80 -35 -20 0
-202 -85 -282 -133 -139 -81 -207 -115 -279 -137 -37 -11 -78 -27 -90 -35 -12
-8 -31 -15 -41 -15 -11 0 -38 -13 -60 -30 -23 -16 -49 -30 -58 -30 -15 0 -46
-25 -154 -124 -19 -18 -51 -38 -70 -46 -34 -14 -117 -62 -172 -101 -15 -10
-36 -19 -48 -19 -12 0 -24 -9 -29 -22 -11 -30 -35 -50 -91 -78 -43 -22 -102
-63 -173 -121 -18 -14 -44 -29 -58 -32 -14 -4 -42 -22 -62 -42 -20 -19 -41
-35 -47 -35 -6 0 -36 -17 -67 -37 -30 -21 -69 -45 -85 -55 -16 -9 -55 -38 -86
-65 -31 -28 -68 -56 -82 -63 -14 -7 -37 -24 -52 -39 -37 -36 -84 -71 -97 -71
-6 0 -15 -8 -20 -19 -6 -10 -36 -31 -67 -47 -32 -16 -74 -44 -93 -62 -20 -19
-57 -49 -83 -69 -27 -19 -53 -44 -59 -54 -5 -10 -15 -19 -22 -19 -7 0 -31 -18
-52 -40 -21 -22 -43 -40 -47 -40 -8 0 -90 -77 -314 -294 -56 -54 -116 -108
-133 -118 -17 -11 -31 -26 -31 -34 0 -8 -32 -45 -70 -83 -38 -38 -70 -73 -70
-78 0 -4 -31 -40 -68 -79 -70 -73 -73 -78 -175 -208 -34 -44 -82 -103 -107
-130 -52 -58 -122 -150 -164 -216 -15 -25 -38 -56 -51 -70 -13 -14 -34 -44
-47 -67 -13 -24 -59 -99 -103 -169 -97 -152 -105 -165 -155 -261 -23 -42 -52
-89 -65 -105 -14 -16 -25 -35 -25 -42 0 -8 -10 -26 -22 -41 -13 -16 -35 -49
-49 -74 -30 -53 -148 -286 -159 -316 -4 -11 -19 -45 -33 -75 -14 -30 -39 -97
-57 -149 -17 -52 -35 -101 -39 -110 -70 -142 -91 -192 -91 -217 0 -34 -19
-104 -51 -189 -12 -33 -28 -87 -36 -120 -23 -97 -30 -126 -53 -205 -12 -41
-26 -104 -31 -140 -5 -36 -14 -83 -20 -105 -11 -41 -15 -62 -44 -270 -9 -66
-23 -156 -32 -200 -15 -79 -33 -193 -53 -349 -6 -44 -8 -97 -5 -117 4 -21 2
-46 -4 -57 -10 -19 -15 -66 -26 -287 -4 -60 -8 -112 -11 -116 -2 -4 -7 -122
-10 -261 -3 -139 -7 -345 -10 -458 -2 -113 -5 -209 -5 -215 0 -5 3 -57 6 -115
3 -58 7 -161 9 -230 3 -69 9 -137 15 -152 6 -15 10 -56 10 -92 -1 -35 4 -72 9
-83 6 -10 8 -29 6 -43 -5 -25 6 -105 26 -195 6 -27 13 -61 15 -75 9 -54 15
-107 19 -145 2 -22 11 -62 21 -89 9 -27 15 -63 12 -80 -7 -44 49 -336 64 -336
3 0 9 -24 12 -52 10 -89 23 -146 36 -162 7 -8 10 -20 6 -25 -7 -12 49 -270 66
-301 7 -14 39 -138 59 -237 5 -23 14 -50 19 -60 23 -44 41 -93 41 -112 0 -12
4 -29 9 -39 17 -30 58 -146 66 -182 4 -19 11 -41 15 -50 15 -28 44 -115 42
-123 -1 -4 7 -27 18 -52 11 -24 20 -50 20 -57 0 -8 13 -40 30 -73 16 -33 30
-71 30 -84 0 -13 11 -44 24 -70 31 -61 43 -89 55 -131 24 -82 51 -158 71 -205
12 -27 33 -88 46 -135 14 -46 29 -89 33 -95 5 -5 12 -26 16 -45 4 -19 18 -60
30 -90 13 -30 35 -109 50 -175 15 -66 40 -166 56 -221 16 -56 29 -113 29 -127
0 -14 5 -29 10 -32 6 -3 10 -27 10 -53 0 -27 6 -72 14 -102 20 -76 49 -353 44
-405 -3 -23 -2 -64 3 -91 11 -64 -8 -455 -26 -559 -20 -107 -32 -188 -40 -257
-3 -32 -11 -60 -16 -63 -5 -4 -9 -23 -9 -43 0 -20 -7 -46 -15 -56 -8 -11 -15
-34 -15 -50 0 -17 -11 -53 -25 -81 -13 -27 -25 -57 -25 -65 0 -9 -4 -20 -9
-25 -5 -6 -14 -26 -20 -46 -6 -20 -23 -47 -36 -59 -14 -13 -25 -34 -25 -46 0
-13 -4 -26 -10 -29 -5 -3 -10 -23 -10 -44 0 -20 -5 -42 -11 -48 -9 -9 -6 -19
10 -41 11 -17 21 -35 21 -42 0 -6 6 -10 12 -8 14 5 132 -54 161 -80 10 -9 15
-22 13 -29 -8 -19 10 -25 38 -12 20 10 30 9 50 -5 14 -9 45 -16 69 -16 24 0
93 -9 153 -20 60 -11 129 -19 154 -19 65 2 131 -7 163 -20 16 -6 40 -11 55
-11 15 0 65 -12 112 -26 47 -15 101 -29 120 -31 19 -3 42 -11 50 -18 19 -16
75 -40 170 -71 41 -14 87 -33 101 -42 65 -42 86 -57 109 -78 14 -12 36 -25 50
-29 14 -4 61 -34 105 -66 146 -105 210 -149 230 -158 11 -5 88 -76 170 -159
138 -138 232 -247 278 -325 10 -17 33 -49 51 -71 33 -41 79 -116 106 -171 8
-16 26 -48 41 -70 14 -22 48 -80 75 -130 26 -49 58 -108 71 -130 20 -37 82
-162 103 -210 33 -76 48 -114 54 -140 8 -36 41 -125 67 -180 29 -64 68 -176
80 -234 6 -30 18 -70 27 -90 14 -33 25 -77 38 -156 3 -16 11 -59 19 -95 12
-56 36 -277 75 -695 5 -55 10 -177 10 -272 0 -150 -2 -173 -16 -181 -14 -8
-15 -16 -6 -58 13 -59 18 -212 8 -236 -4 -9 -12 -97 -17 -195 -9 -192 -24
-380 -34 -428 -4 -16 -11 -70 -16 -120 -5 -49 -13 -129 -18 -177 -5 -48 -12
-91 -15 -96 -5 -9 -29 -147 -46 -263 -4 -31 -15 -78 -24 -105 -9 -27 -24 -105
-35 -174 -32 -209 -61 -362 -78 -420 -9 -30 -21 -84 -28 -120 -8 -44 -16 -64
-24 -62 -20 4 -43 -19 -35 -37 22 -51 22 -114 2 -189 -11 -42 -26 -108 -34
-147 -18 -98 -52 -222 -75 -274 -10 -24 -19 -51 -19 -60 0 -14 -159 -498 -180
-546 -47 -110 -65 -144 -89 -170 -16 -16 -32 -41 -36 -55 -4 -14 -13 -38 -20
-55 -7 -16 -25 -61 -40 -100 -15 -38 -45 -103 -66 -142 -22 -40 -58 -108 -80
-150 -23 -43 -51 -89 -64 -103 -12 -14 -34 -43 -47 -65 -82 -131 -276 -379
-426 -543 -237 -258 -351 -357 -479 -417 -17 -8 -35 -20 -38 -25 -4 -6 -17
-16 -28 -21 -24 -11 -41 -21 -104 -62 -24 -15 -46 -27 -49 -27 -4 0 -28 -13
-53 -29 -26 -15 -58 -32 -71 -36 -13 -4 -44 -20 -69 -35 -26 -16 -68 -36 -96
-45 -27 -9 -54 -20 -60 -25 -5 -4 -28 -11 -50 -15 -22 -4 -44 -11 -50 -15 -5
-4 -30 -11 -55 -15 -25 -4 -54 -12 -65 -18 -11 -6 -36 -14 -55 -18 -19 -4 -60
-15 -90 -24 -30 -9 -65 -16 -77 -16 -13 1 -78 -10 -145 -23 -152 -30 -285 -49
-297 -41 -5 3 -22 0 -38 -6 -59 -23 -395 -18 -773 11 -111 9 -127 13 -150 35
-17 16 -30 21 -39 16 -8 -6 -30 -3 -54 5 -22 8 -48 14 -58 14 -11 0 -42 11
-70 24 -27 14 -73 28 -102 31 -62 8 -70 2 -117 -93 -20 -41 -28 -68 -22 -75 5
-7 15 -41 22 -76 8 -36 23 -75 37 -91 13 -16 34 -53 48 -83 13 -30 41 -93 63
-138 21 -46 47 -111 57 -144 9 -33 28 -87 40 -120 87 -225 144 -691 113 -920
-5 -38 -13 -132 -18 -209 -9 -130 -21 -206 -56 -368 -8 -37 -14 -82 -14 -100
0 -19 -4 -38 -9 -44 -5 -5 -19 -52 -31 -104 -12 -52 -28 -108 -35 -125 -7 -16
-20 -61 -29 -100 -9 -38 -25 -86 -36 -105 -10 -19 -26 -58 -35 -85 -9 -28 -25
-68 -35 -90 -10 -22 -21 -47 -24 -55 -4 -8 -14 -28 -24 -45 -10 -16 -22 -43
-26 -60 -4 -16 -13 -37 -20 -45 -7 -8 -19 -35 -26 -60 -8 -25 -26 -63 -41 -85
-15 -23 -32 -59 -38 -82 -6 -22 -18 -46 -26 -53 -8 -7 -15 -19 -15 -27 0 -7
-17 -37 -38 -66 -22 -29 -45 -68 -52 -87 -8 -19 -22 -46 -32 -59 -10 -13 -18
-36 -18 -51 0 -15 -7 -33 -15 -40 -8 -7 -15 -17 -15 -21 0 -5 -16 -32 -35 -60
-19 -28 -35 -61 -35 -72 0 -11 -9 -30 -20 -42 -22 -24 -80 -132 -80 -150 0 -7
-8 -23 -19 -36 -10 -13 -22 -38 -25 -56 -4 -17 -14 -37 -22 -44 -8 -6 -14 -20
-14 -31 0 -10 -8 -22 -18 -25 -28 -11 -50 -44 -67 -100 -8 -28 -26 -65 -40
-81 -14 -17 -25 -37 -25 -45 0 -8 -9 -26 -20 -40 -11 -14 -20 -35 -20 -47 0
-12 -11 -35 -25 -52 -14 -16 -25 -35 -25 -43 0 -7 -7 -19 -16 -26 -21 -17 -64
-85 -64 -100 0 -7 -14 -41 -30 -76 -17 -34 -30 -71 -30 -82 0 -10 -12 -36 -26
-57 -15 -21 -35 -61 -45 -89 -10 -27 -26 -70 -35 -95 -9 -25 -16 -60 -15 -78
1 -26 -3 -34 -22 -41 -32 -12 -67 -85 -67 -138 0 -24 -6 -46 -15 -53 -8 -7
-15 -22 -15 -33 0 -11 -11 -35 -25 -53 -14 -18 -25 -43 -25 -57 0 -13 -13 -48
-30 -78 -16 -30 -30 -63 -30 -73 0 -11 -7 -27 -15 -36 -8 -8 -22 -52 -32 -95
-9 -44 -22 -84 -29 -90 -6 -5 -17 -39 -25 -75 -7 -36 -19 -76 -26 -90 -7 -14
-13 -35 -13 -47 0 -12 -5 -25 -10 -28 -6 -3 -10 -17 -10 -30 0 -13 -5 -27 -10
-30 -6 -4 -8 -15 -5 -25 4 -12 0 -19 -12 -22 -15 -4 -23 -29 -40 -125 -13 -67
-29 -134 -38 -149 -21 -42 -42 -96 -48 -124 -3 -14 -11 -43 -17 -65 -6 -22
-15 -58 -19 -80 -16 -77 -39 -150 -58 -185 -11 -19 -18 -41 -15 -48 2 -7 -1
-19 -8 -27 -6 -8 -9 -19 -5 -24 3 -6 -1 -22 -10 -35 -9 -14 -21 -49 -25 -78
-23 -138 -40 -208 -61 -249 -4 -9 -9 -45 -10 -80 -2 -35 -11 -83 -21 -107 -10
-24 -18 -58 -18 -76 0 -18 -4 -36 -9 -42 -12 -12 -32 -120 -25 -138 3 -8 -1
-27 -9 -43 -8 -15 -12 -34 -10 -41 3 -7 0 -19 -6 -26 -8 -9 -9 -26 -3 -54 12
-50 5 -112 -13 -132 -9 -10 -11 -21 -5 -30 5 -8 5 -21 1 -29 -4 -9 -8 -39 -9
-67 -1 -28 -9 -64 -17 -80 -8 -16 -15 -48 -15 -71 0 -23 -4 -44 -9 -47 -5 -4
-7 -36 -4 -74 6 -75 6 -75 -1 -190 -3 -45 -10 -91 -16 -102 -5 -10 -12 -99
-15 -197 -3 -98 -10 -203 -15 -234 -6 -30 -9 -71 -8 -90 2 -49 -21 -268 -34
-307 -6 -23 -7 -42 0 -60 15 -40 24 -272 11 -288 -7 -9 -7 -35 0 -89 6 -42 11
-118 11 -168 0 -51 5 -121 10 -157 5 -36 12 -101 15 -145 3 -44 8 -87 10 -95
3 -8 7 -53 10 -100 3 -47 9 -110 14 -140 5 -30 17 -125 26 -210 10 -85 20
-162 23 -170 3 -8 6 -22 7 -30 6 -91 19 -187 27 -197 5 -7 7 -16 4 -22 -3 -5
-1 -22 5 -38 6 -15 12 -46 14 -68 6 -74 16 -140 25 -160 12 -29 38 -143 44
-195 8 -59 55 -260 67 -282 5 -10 9 -33 9 -51 0 -18 7 -43 16 -55 8 -12 13
-26 9 -31 -3 -5 1 -27 10 -48 8 -21 21 -65 29 -98 8 -33 26 -90 39 -127 14
-37 30 -95 37 -130 6 -35 15 -81 20 -103 8 -41 35 -101 50 -110 5 -3 14 -31
20 -63 7 -31 20 -73 30 -92 10 -19 21 -51 24 -70 4 -19 11 -44 15 -55 12 -29
39 -88 50 -105 22 -38 51 -103 51 -115 0 -8 18 -49 39 -92 42 -84 126 -263
143 -303 5 -14 19 -43 29 -65 10 -22 30 -65 44 -95 32 -69 87 -161 123 -209
25 -32 72 -121 72 -137 0 -3 15 -24 34 -47 36 -45 125 -187 166 -266 14 -26
35 -60 46 -77 12 -16 25 -39 29 -52 3 -13 21 -37 38 -55 18 -18 45 -57 61 -87
16 -30 36 -63 45 -72 51 -54 181 -231 181 -246 0 -4 20 -28 45 -52 25 -24 45
-48 45 -53 0 -18 65 -104 114 -152 53 -51 106 -117 106 -132 0 -4 25 -30 55
-58 30 -27 55 -53 55 -58 0 -4 16 -25 36 -45 20 -20 51 -60 69 -87 32 -50 178
-207 368 -396 53 -53 97 -102 97 -108 0 -6 17 -19 38 -30 20 -10 53 -35 72
-55 19 -20 41 -36 47 -36 7 0 18 -9 25 -21 7 -11 46 -45 86 -75 39 -30 72 -60
72 -67 1 -21 87 -107 108 -107 11 0 44 -22 74 -48 29 -26 64 -55 78 -65 14 -9
45 -33 70 -52 25 -20 70 -52 100 -73 57 -38 113 -82 180 -139 21 -18 40 -33
43 -33 2 0 32 -18 65 -40 33 -22 63 -40 67 -40 3 0 39 -24 78 -53 109 -80 135
-97 146 -97 5 0 22 -10 38 -23 15 -12 40 -28 55 -34 14 -7 52 -32 85 -56 32
-24 76 -54 98 -66 22 -12 47 -26 55 -31 8 -5 31 -16 50 -25 40 -17 106 -54
141 -78 13 -10 30 -17 38 -17 8 0 29 -11 46 -24 18 -14 45 -28 61 -32 16 -4
40 -15 53 -26 13 -10 29 -18 36 -18 6 0 20 -9 30 -20 10 -11 28 -20 39 -21 23
0 81 -32 177 -97 35 -23 70 -42 78 -43 9 0 30 -9 46 -19 17 -10 50 -28 75 -40
25 -12 52 -26 60 -31 8 -5 22 -12 30 -15 15 -6 71 -33 119 -58 14 -8 46 -22
71 -31 25 -9 52 -21 60 -26 68 -38 205 -101 252 -114 32 -9 60 -21 63 -26 4
-5 15 -9 25 -9 16 0 111 -41 160 -69 44 -25 172 -72 208 -75 13 -2 27 -7 30
-13 4 -6 18 -14 32 -18 14 -4 32 -13 40 -20 8 -7 45 -22 82 -34 37 -13 70 -27
73 -32 4 -5 17 -9 29 -9 13 0 39 -11 58 -24 20 -13 55 -27 79 -31 24 -4 49
-14 55 -23 7 -9 33 -17 67 -20 31 -2 62 -11 68 -18 6 -8 19 -14 29 -14 10 0
23 -7 30 -15 7 -8 25 -15 41 -15 32 0 106 -26 130 -47 8 -7 26 -13 40 -13 13
0 37 -7 53 -15 15 -8 36 -15 45 -15 9 0 28 -6 42 -14 15 -7 38 -12 52 -9 13 3
28 0 31 -6 4 -6 20 -11 36 -11 16 0 31 -4 34 -9 3 -4 32 -14 65 -20 33 -7 63
-16 66 -21 4 -6 30 -10 59 -10 38 0 61 -6 79 -20 14 -11 32 -17 41 -14 9 3 22
2 29 -4 6 -5 28 -12 47 -15 61 -10 154 -33 183 -45 16 -7 46 -12 67 -12 21 0
42 -5 45 -10 4 -6 30 -10 58 -9 48 2 99 -8 172 -33 17 -5 44 -11 60 -13 17 -2
47 -8 67 -13 20 -5 39 -7 42 -5 3 3 20 -1 38 -10 18 -8 52 -18 76 -21 24 -3
48 -8 53 -12 6 -3 41 -10 77 -16 107 -15 116 -17 140 -22 12 -3 26 -7 31 -11
13 -8 109 -26 156 -30 55 -5 229 -40 245 -50 8 -5 46 -8 85 -7 50 2 88 -4 131
-19 32 -11 82 -22 110 -24 28 -2 86 -11 128 -20 43 -8 81 -13 85 -11 4 3 55
-2 112 -10 57 -8 115 -16 129 -18 14 -2 25 -4 25 -6 0 -1 47 -4 105 -6 58 -2
134 -7 170 -11 36 -3 69 -6 73 -5 5 2 25 -2 46 -8 35 -9 114 -17 256 -26 224
-13 350 -24 401 -34 64 -13 80 -15 319 -29 88 -6 180 -13 205 -16 75 -10 440
-13 446 -4 6 11 142 3 158 -9 12 -9 275 -7 312 2 13 4 25 2 28 -2 7 -11 406
-9 424 1 6 5 17 5 22 2 10 -6 301 -15 550 -16 47 -1 94 -1 105 0 99 3 242 -2
295 -9 157 -23 650 -30 770 -11 129 20 205 23 550 26 184 2 376 6 425 9 139 9
441 16 892 21 332 3 418 7 440 18 33 17 269 39 465 43 75 1 144 7 155 12 10 5
70 13 133 16 63 4 140 11 170 17 31 5 114 11 185 13 72 3 155 10 185 17 89 19
150 29 230 37 41 5 84 13 95 19 11 6 54 14 95 17 41 3 103 10 136 15 34 6 112
15 175 20 168 15 249 28 293 46 27 11 53 15 79 11 25 -4 83 3 165 20 175 36
169 35 248 42 39 4 77 12 85 18 8 6 36 12 63 13 26 1 60 8 75 16 42 23 162 49
214 46 28 -1 61 4 79 13 17 9 45 16 62 16 31 0 100 20 112 33 4 4 22 7 39 7
46 0 145 20 183 37 18 8 42 11 53 8 12 -4 33 -2 48 5 72 33 90 39 144 44 32 2
64 9 70 14 7 6 44 18 82 28 39 10 78 24 87 32 11 9 27 12 44 8 14 -4 31 -2 38
3 7 6 37 17 67 25 30 8 67 19 82 25 16 6 44 11 62 11 19 0 54 9 77 19 24 11
77 30 118 42 41 12 84 25 95 29 56 21 150 41 188 40 20 0 38 10 61 35 21 22
43 35 58 35 14 0 31 7 38 15 7 8 21 15 32 15 10 0 31 6 46 14 15 8 46 17 67
21 39 7 120 39 242 96 34 15 89 37 122 49 33 11 76 31 97 45 20 14 43 25 50
25 7 0 48 20 90 45 41 25 79 45 84 45 4 0 34 14 65 30 31 17 61 30 67 30 5 0
37 20 69 45 33 25 63 45 68 45 5 0 14 7 21 15 7 8 27 17 45 21 19 3 41 15 51
25 9 10 27 19 40 19 13 0 26 5 29 10 9 14 82 52 128 66 21 7 64 29 95 49 31
20 92 59 135 86 42 27 77 54 77 58 0 5 41 32 90 61 50 29 93 57 96 61 3 5 14
9 26 9 11 0 33 11 50 25 16 14 35 25 42 25 7 0 21 9 31 20 11 12 42 32 69 46
28 14 60 34 71 44 11 10 30 21 42 24 12 4 32 21 44 37 12 17 31 35 43 40 11 5
41 25 66 43 25 19 50 35 56 35 6 1 21 12 33 25 13 13 60 45 104 72 133 76 195
117 243 157 25 20 51 37 57 37 7 0 35 27 62 60 28 33 54 60 58 60 5 0 34 21
65 48 31 26 69 56 83 67 70 52 159 125 219 178 124 110 145 128 180 155 41 31
110 105 110 118 0 5 32 41 71 79 39 39 78 85 86 103 7 18 22 36 32 40 22 9
164 163 199 217 39 58 134 174 181 220 23 21 41 45 41 52 0 8 7 16 15 19 9 4
28 27 42 53 45 77 88 136 126 175 20 20 37 45 37 56 0 10 15 28 33 40 17 11
49 42 70 68 50 62 166 238 184 280 7 17 18 32 23 32 5 0 18 17 28 38 46 89 57
109 78 137 12 17 25 41 29 55 4 14 27 47 51 75 24 27 44 57 44 66 0 23 36 105
49 114 6 3 9 10 6 15 -3 5 4 14 15 20 11 6 20 19 20 30 0 10 5 22 10 25 5 3
10 14 10 24 0 10 7 24 15 31 8 7 21 24 28 39 23 44 58 105 77 131 9 14 21 36
25 50 11 37 76 170 86 176 5 3 9 18 9 33 0 15 9 36 19 45 11 10 23 31 26 47 4
16 11 31 16 34 5 4 9 15 9 26 0 10 4 27 9 37 6 9 26 52 46 94 20 43 41 80 46
83 4 3 6 12 3 19 -3 7 2 19 11 26 8 7 15 19 15 27 0 8 9 33 20 55 11 23 20 52
20 65 0 13 10 37 22 54 17 22 20 34 12 46 -7 12 -3 23 18 45 15 17 28 38 28
48 0 9 9 25 20 35 11 10 20 26 20 36 0 10 4 20 8 23 12 7 82 143 82 159 0 7 9
33 21 56 11 24 23 58 26 77 3 18 14 41 24 50 11 9 19 28 19 41 0 13 9 43 19
66 11 23 29 85 41 137 12 52 28 110 36 128 8 18 14 56 14 85 0 32 7 63 18 82
10 17 24 56 32 88 7 32 17 60 21 63 5 3 6 18 2 34 -3 18 0 36 7 45 6 8 13 38
15 67 3 48 26 182 42 248 8 33 11 55 22 175 15 167 53 402 70 430 3 6 6 37 7
70 1 33 7 87 12 120 6 33 13 103 16 155 2 52 11 120 20 150 9 30 18 105 20
165 2 61 14 149 25 196 19 80 20 110 16 477 -2 224 -8 407 -14 429 -6 21 -10
52 -10 68 2 37 -29 324 -35 334 -3 4 -10 54 -15 111 -6 57 -16 109 -22 117 -7
8 -9 34 -6 66 3 29 -1 79 -9 115 -8 35 -12 77 -9 95 4 19 0 47 -8 67 -8 19
-20 78 -27 130 -7 52 -21 130 -31 172 -18 72 -38 189 -43 248 -2 14 -8 35 -15
48 -7 13 -10 30 -7 38 3 8 -3 31 -13 52 -11 20 -22 62 -26 92 -4 30 -13 74
-21 98 -8 23 -14 56 -14 72 0 17 -4 38 -9 48 -5 9 -14 44 -21 77 -6 33 -16 74
-22 90 -11 33 -26 92 -35 140 -3 17 -12 38 -20 47 -10 11 -13 26 -9 42 3 14 2
28 -4 31 -5 3 -10 16 -10 28 0 12 -11 44 -25 71 -14 27 -25 56 -25 64 0 8 -6
28 -13 45 -22 50 -37 102 -37 123 0 11 -9 37 -20 59 -11 22 -20 50 -20 62 0
13 -11 50 -24 82 -14 32 -35 87 -47 122 -12 35 -25 69 -29 74 -3 6 -17 39 -29
75 -12 36 -26 74 -31 85 -5 11 -20 54 -35 95 -36 101 -65 173 -77 187 -5 6
-18 41 -28 78 -11 37 -26 75 -33 84 -8 9 -20 34 -27 56 -7 22 -23 57 -36 77
-13 21 -24 42 -24 47 0 5 -13 36 -29 68 -16 32 -37 76 -46 98 -20 45 -52 112
-64 135 -5 8 -13 26 -18 40 -15 40 -125 261 -155 310 -14 25 -43 86 -63 135
-31 75 -89 193 -125 255 -16 28 -108 225 -135 290 -15 36 -31 70 -35 75 -4 6
-11 21 -15 35 -4 14 -34 81 -67 150 -33 69 -64 136 -70 150 -6 14 -14 32 -19
40 -5 8 -13 24 -18 35 -5 11 -40 90 -79 175 -39 86 -74 169 -78 185 -4 17 -21
58 -39 91 -18 34 -35 74 -39 89 -4 15 -22 60 -41 102 -19 41 -35 80 -35 88 0
7 -6 18 -14 24 -8 6 -16 26 -19 44 -8 52 -44 167 -73 237 -46 111 -81 215 -89
261 -4 24 -16 71 -27 104 -22 67 -28 101 -57 290 -24 157 -40 363 -36 465 4
94 40 428 53 496 6 27 18 70 27 95 9 24 21 64 26 89 5 25 14 52 19 61 4 9 14
45 21 80 11 55 37 125 67 179 24 42 32 61 32 77 0 24 42 106 74 144 14 17 26
34 26 39 0 5 12 22 26 39 25 30 25 33 13 86 -15 70 -42 113 -76 126 -16 6 -35
16 -43 24 -19 17 -136 30 -153 17 -6 -5 -45 -13 -86 -16 -41 -4 -92 -14 -112
-23 -31 -12 -45 -13 -74 -3 -28 9 -43 9 -68 0 -84 -32 -312 -52 -592 -52 -321
0 -516 19 -690 67 -33 9 -85 23 -115 30 -57 13 -74 19 -199 67 -40 15 -78 28
-83 28 -9 0 -163 71 -243 112 -22 11 -67 34 -100 50 -72 35 -65 31 -151 90
-38 27 -80 56 -94 65 -101 69 -193 145 -260 215 -106 113 -234 262 -274 323
-63 95 -111 168 -156 235 -62 92 -65 97 -106 170 -20 36 -44 76 -53 90 -42 65
-168 315 -261 520 -24 52 -52 102 -61 110 -10 8 -22 33 -28 55 -6 22 -18 49
-26 59 -8 11 -15 27 -15 36 0 8 -13 49 -29 91 -21 54 -29 92 -28 135 0 34 -7
74 -16 94 -8 19 -18 51 -20 70 -8 59 -39 164 -53 181 -8 8 -14 23 -14 32 0 9
-4 19 -10 22 -5 3 -10 19 -10 35 0 16 -6 47 -14 67 -8 21 -19 61 -26 88 -6 28
-16 59 -20 70 -4 11 -15 52 -23 90 -47 214 -70 311 -77 320 -4 6 -10 28 -13
50 -2 22 -9 54 -15 70 -6 17 -23 86 -37 155 -27 128 -31 144 -60 240 -9 30
-21 80 -25 110 -19 126 -34 198 -52 255 -25 78 -48 176 -58 245 -24 157 -40
288 -39 315 1 17 -3 86 -9 155 -19 211 -17 1105 3 1240 3 19 7 96 10 171 4 75
12 190 20 255 38 330 67 525 84 579 11 33 27 94 36 135 9 41 26 95 36 119 10
24 19 49 19 55 0 12 52 150 76 203 8 17 14 35 14 40 0 5 24 55 54 110 30 56
57 111 61 123 4 13 25 50 46 84 21 33 39 69 39 78 0 9 17 37 38 62 20 24 50
65 65 90 16 25 43 64 60 85 18 22 49 66 70 98 110 171 330 413 470 519 34 27
96 77 138 113 42 36 89 74 105 83 16 10 69 42 117 71 94 58 167 93 262 127 63
23 96 38 155 70 77 41 355 120 585 166 57 11 291 25 467 28 197 3 192 2 280
84 54 50 59 73 29 131 -10 20 -24 50 -31 66 -13 31 -20 46 -37 80 -119 232
-194 467 -274 852 -32 153 -54 445 -40 516 9 44 9 62 1 72 -7 9 -10 38 -7 77
6 76 26 306 31 368 3 25 7 76 11 114 3 38 10 77 15 87 6 10 10 29 10 43 0 25
28 144 38 160 5 9 7 21 15 86 2 14 8 38 15 53 7 16 12 36 12 45 0 10 11 33 24
53 14 20 26 54 29 77 2 22 8 46 13 54 25 35 44 78 44 100 0 13 11 40 25 60 14
20 25 46 25 56 0 11 11 40 25 63 14 24 25 52 25 61 0 9 6 21 14 25 7 4 24 33
36 63 12 30 35 82 51 115 16 33 34 83 39 110 7 30 20 58 34 70 13 11 28 38 34
60 23 84 49 143 90 200 23 33 42 68 42 77 0 9 22 58 49 110 26 51 51 111 55
132 4 21 13 48 21 60 7 12 16 37 20 56 4 19 14 43 23 53 9 10 15 33 14 57 -1
28 4 46 18 60 11 11 22 36 24 55 3 19 14 48 25 64 12 16 21 36 21 44 0 9 11
38 25 65 14 28 25 56 25 63 0 8 10 50 21 94 22 86 33 130 44 185 4 19 13 41
19 49 6 7 9 26 8 41 -2 15 4 32 12 40 9 7 16 21 16 31 0 10 8 41 19 68 10 28
16 52 13 55 -6 7 35 166 58 221 33 81 48 154 54 265 2 52 11 115 20 140 8 25
20 90 27 145 6 55 18 131 26 170 9 38 15 92 14 120 0 27 3 75 9 105 15 87 20
153 25 335 3 94 8 190 10 215 3 25 -1 106 -9 180 -8 74 -18 202 -20 283 -3 82
-8 152 -11 157 -2 4 -6 27 -8 51 -6 66 -27 196 -44 266 -7 35 -18 99 -23 144
-5 45 -14 86 -19 93 -5 6 -15 49 -21 96 -6 46 -20 109 -30 140 -10 30 -22 78
-26 105 -4 28 -12 61 -19 75 -7 14 -18 61 -24 105 -15 101 -41 217 -52 230 -5
5 -9 19 -9 30 0 12 -3 25 -7 29 -5 4 -8 15 -8 24 0 10 -8 51 -18 92 -10 41
-23 95 -29 120 -12 53 -44 153 -57 178 -5 9 -15 37 -22 62 -7 25 -21 65 -32
90 -42 99 -72 181 -72 200 0 8 -19 53 -42 100 -41 86 -73 169 -73 194 0 8 -7
19 -15 26 -9 7 -22 27 -30 44 -29 64 -65 156 -65 166 0 5 -16 30 -35 55 -19
25 -39 64 -45 87 -7 22 -15 48 -20 57 -5 9 -21 43 -36 76 -15 33 -48 93 -72
133 -24 41 -57 99 -73 130 -16 31 -38 71 -47 87 -10 17 -24 49 -32 73 -7 23
-19 47 -27 53 -7 7 -29 39 -50 73 -20 33 -49 75 -64 91 -15 17 -35 46 -44 65
-14 33 -41 72 -142 204 -24 30 -43 58 -43 61 0 3 -28 38 -62 78 -33 39 -70 86
-80 103 -10 18 -25 35 -33 38 -8 3 -15 12 -15 20 0 7 -11 21 -25 30 -14 9 -25
22 -25 29 0 7 -16 29 -35 47 -20 19 -56 65 -81 101 -24 37 -76 98 -114 137
-39 39 -70 74 -70 77 0 13 -104 131 -122 137 -11 4 -17 12 -13 17 3 6 -8 17
-25 26 -16 8 -30 20 -30 25 0 10 -125 140 -134 140 -7 0 -162 147 -205 193
-68 74 -166 167 -176 167 -7 0 -36 25 -66 55 -30 31 -64 58 -76 61 -13 4 -23
11 -23 18 0 6 -30 34 -67 61 -37 28 -88 70 -114 95 -26 25 -66 59 -89 75 -23
17 -52 39 -63 50 -12 11 -51 43 -86 70 -35 28 -78 62 -95 76 -17 14 -44 34
-61 43 -16 9 -57 37 -90 61 -33 24 -83 60 -111 79 -29 19 -55 39 -58 45 -4 5
-30 21 -60 35 -29 14 -60 36 -69 49 -8 12 -33 31 -56 42 -23 10 -41 22 -41 26
0 4 -30 22 -67 40 -38 18 -84 46 -102 62 -19 17 -58 40 -86 52 -28 13 -57 30
-64 38 -23 29 -342 187 -375 187 -7 0 -30 14 -51 30 -21 17 -43 30 -49 30 -6
0 -28 11 -48 25 -20 14 -43 25 -51 25 -8 0 -25 8 -38 18 -13 11 -37 22 -54 26
-16 4 -39 16 -50 25 -11 10 -46 26 -77 36 -32 10 -63 24 -69 31 -6 8 -17 14
-24 14 -7 0 -18 6 -24 14 -11 13 -23 17 -116 32 -22 4 -53 17 -70 30 -16 12
-43 26 -60 30 -16 4 -39 13 -50 20 -11 8 -31 14 -45 14 -14 0 -36 9 -50 20
-14 11 -38 20 -53 20 -16 0 -48 12 -72 26 -25 14 -49 22 -56 19 -6 -4 -23 1
-37 12 -15 11 -45 24 -67 30 -22 6 -76 25 -120 41 -119 44 -146 53 -189 63
-22 6 -51 16 -65 24 -31 17 -195 67 -231 70 -46 4 -95 17 -110 30 -8 7 -55 25
-105 39 -49 15 -101 31 -115 36 -14 5 -50 12 -80 16 -30 3 -59 10 -65 14 -5 5
-44 15 -85 24 -41 8 -95 22 -119 31 -24 8 -53 15 -65 15 -11 0 -48 11 -81 25
-33 13 -75 25 -94 25 -19 0 -69 12 -110 26 -42 15 -101 32 -131 39 -30 7 -113
26 -185 43 -71 16 -152 33 -180 38 -27 4 -52 8 -55 9 -3 1 -23 5 -45 9 -22 4
-58 11 -80 16 -46 10 -248 46 -315 55 -24 4 -48 9 -52 11 -12 8 -47 14 -108
21 -30 3 -60 10 -67 15 -7 5 -21 7 -33 3 -12 -4 -26 -2 -33 3 -7 5 -34 12 -62
15 -27 4 -95 13 -150 21 -93 15 -224 32 -435 57 -47 5 -137 12 -200 15 -109 4
-319 18 -460 30 -36 3 -70 10 -76 15 -5 4 -48 11 -95 14 -46 4 -98 10 -114 14
-17 5 -46 7 -65 5 -19 -1 -96 2 -170 8 -74 6 -173 12 -220 14 -136 6 -274 15
-445 29 -112 9 -191 10 -263 4 -57 -5 -108 -7 -113 -3 -5 3 -9 15 -7 27 5 39
-27 29 -87 -28z m580 -45 c193 -24 272 -30 460 -36 141 -5 208 -11 228 -21 19
-10 33 -11 46 -4 12 7 38 7 77 -1 33 -6 91 -12 129 -13 39 -1 117 -9 175 -18
94 -15 206 -23 425 -31 61 -3 124 -12 225 -32 24 -5 167 -21 255 -29 22 -2 65
-9 95 -15 30 -6 64 -11 74 -11 11 0 51 -7 90 -16 39 -8 93 -14 119 -14 27 1
54 -2 60 -7 13 -10 90 -22 144 -22 17 0 34 -4 37 -9 3 -5 34 -12 68 -16 35 -4
98 -16 141 -27 43 -10 102 -20 131 -22 29 -1 56 -5 62 -8 5 -3 41 -11 79 -17
39 -7 79 -17 90 -22 11 -5 45 -13 75 -18 30 -5 72 -14 94 -19 21 -6 44 -8 51
-6 7 3 16 1 20 -5 3 -6 21 -11 39 -11 17 0 36 -4 41 -9 6 -6 52 -19 103 -30
51 -11 98 -23 104 -27 13 -8 115 -33 168 -41 19 -3 40 -9 45 -13 6 -4 35 -13
65 -19 30 -7 64 -16 75 -21 51 -21 117 -41 200 -60 50 -11 124 -31 165 -45 41
-13 109 -34 150 -46 41 -12 95 -30 120 -39 25 -10 60 -21 77 -25 18 -3 35 -11
38 -16 4 -5 14 -9 24 -9 10 0 54 -12 97 -26 44 -14 104 -32 134 -40 80 -21
174 -59 327 -131 29 -13 72 -26 95 -28 24 -2 62 -13 85 -25 23 -11 51 -20 61
-20 10 0 27 -9 36 -19 10 -10 33 -22 52 -26 20 -3 50 -15 67 -26 18 -10 43
-19 56 -19 25 0 104 -33 131 -55 8 -7 33 -18 55 -24 35 -10 137 -58 280 -130
22 -11 78 -38 124 -61 46 -23 97 -50 112 -61 15 -10 36 -19 46 -19 10 0 23 -4
29 -9 5 -5 43 -26 84 -46 41 -21 83 -45 93 -53 10 -9 34 -25 52 -37 32 -19
104 -63 184 -112 20 -12 47 -27 61 -34 60 -27 85 -44 119 -78 20 -20 52 -43
71 -51 19 -7 55 -30 80 -50 25 -21 59 -44 75 -53 17 -8 39 -25 50 -37 11 -12
33 -29 50 -37 16 -9 51 -33 76 -54 26 -22 51 -39 56 -39 6 0 18 -9 29 -21 10
-11 49 -41 86 -65 37 -25 68 -50 68 -55 0 -5 17 -19 38 -32 20 -14 66 -51 102
-83 66 -60 103 -90 198 -164 28 -22 52 -45 52 -50 0 -5 13 -16 30 -25 33 -17
49 -31 269 -236 272 -254 451 -438 582 -599 33 -41 72 -86 85 -100 28 -28 79
-91 139 -170 22 -30 56 -70 75 -89 19 -20 51 -61 69 -91 19 -30 53 -75 76
-100 23 -25 62 -77 88 -117 26 -39 51 -75 57 -78 12 -8 150 -215 150 -226 0
-4 13 -27 29 -51 16 -24 50 -83 75 -133 26 -49 51 -94 56 -101 6 -6 22 -33 36
-60 15 -27 39 -71 53 -99 33 -61 66 -118 94 -165 12 -19 34 -69 48 -110 15
-41 38 -95 53 -120 14 -25 33 -61 41 -80 31 -68 80 -165 102 -202 13 -21 23
-44 23 -53 0 -8 13 -44 30 -80 33 -72 54 -132 99 -281 31 -102 77 -244 91
-279 13 -34 30 -101 30 -121 0 -11 9 -35 19 -55 11 -19 19 -51 18 -70 0 -19 6
-49 15 -67 9 -17 19 -46 23 -64 3 -18 14 -69 25 -113 10 -44 23 -105 29 -135
21 -115 51 -236 65 -265 13 -29 22 -75 46 -250 6 -44 25 -170 42 -280 17 -110
33 -227 37 -260 4 -33 12 -69 18 -80 7 -13 10 -74 8 -170 -1 -103 2 -158 10
-175 13 -26 13 -170 -1 -570 -9 -287 -10 -302 -44 -510 -6 -41 -15 -102 -20
-135 -4 -33 -14 -82 -20 -110 -7 -27 -14 -72 -15 -100 -4 -53 -29 -167 -50
-225 -26 -71 -45 -147 -55 -219 -6 -40 -13 -77 -16 -82 -3 -5 -7 -18 -9 -29
-2 -12 -11 -35 -20 -52 -8 -17 -15 -41 -15 -54 0 -13 -6 -38 -14 -56 -8 -18
-22 -60 -32 -93 -9 -33 -20 -64 -24 -70 -4 -5 -13 -28 -19 -50 -7 -22 -16 -49
-20 -60 -5 -11 -19 -51 -31 -90 -13 -38 -37 -106 -55 -150 -18 -44 -43 -114
-55 -155 -12 -41 -33 -93 -46 -116 -13 -22 -24 -48 -24 -57 0 -17 -21 -69 -65
-162 -13 -27 -27 -61 -30 -75 -4 -14 -15 -36 -25 -50 -9 -14 -22 -41 -30 -60
-7 -19 -33 -76 -57 -126 -23 -50 -43 -96 -43 -101 0 -6 -18 -44 -40 -84 -22
-41 -52 -99 -66 -129 -80 -170 -93 -198 -104 -230 -8 -19 -19 -42 -26 -50 -8
-9 -20 -36 -29 -60 -8 -24 -20 -49 -26 -56 -13 -16 -57 -135 -71 -192 -5 -23
-22 -66 -38 -96 -16 -29 -32 -69 -35 -90 -4 -20 -11 -39 -16 -42 -5 -3 -9 -23
-9 -44 0 -43 -15 -114 -35 -170 -17 -45 -36 -146 -35 -185 1 -16 -4 -59 -10
-95 -11 -68 -27 -253 -35 -399 -3 -47 -9 -100 -15 -119 -7 -26 -5 -40 7 -58 8
-13 16 -50 18 -81 11 -237 33 -408 71 -533 9 -30 20 -79 25 -109 6 -30 23 -96
39 -145 17 -50 37 -113 46 -141 9 -27 22 -63 29 -80 7 -16 20 -50 30 -75 20
-52 73 -168 86 -190 46 -76 82 -186 69 -211 -5 -9 -26 -29 -47 -44 -21 -16
-41 -33 -44 -37 -3 -5 -28 -11 -55 -13 -132 -12 -306 -26 -364 -30 -36 -2 -65
-4 -65 -5 0 -1 -36 -4 -80 -6 -113 -6 -125 -8 -125 -17 0 -5 -9 -5 -20 -2 -12
4 -20 2 -20 -6 0 -9 -4 -8 -15 1 -12 10 -15 10 -15 0 0 -7 -7 -10 -15 -6 -9 3
-32 -1 -53 -9 -33 -13 -83 -27 -304 -85 -37 -10 -82 -27 -100 -39 -51 -32
-103 -56 -233 -106 -66 -26 -129 -55 -140 -64 -11 -10 -33 -25 -50 -33 -105
-54 -156 -87 -205 -133 -30 -29 -75 -67 -99 -84 -93 -66 -267 -224 -344 -313
-101 -116 -235 -300 -267 -364 -11 -23 -44 -71 -75 -108 -30 -37 -55 -71 -55
-76 0 -5 -11 -21 -24 -37 -25 -30 -86 -140 -86 -155 0 -5 -25 -60 -55 -123
-30 -62 -55 -120 -55 -128 0 -8 -9 -26 -20 -40 -11 -14 -20 -30 -20 -36 0 -6
-13 -40 -30 -74 -16 -35 -30 -71 -30 -80 0 -20 -49 -159 -61 -172 -5 -5 -9
-26 -9 -46 0 -21 -4 -41 -10 -44 -5 -3 -10 -21 -10 -40 0 -19 -9 -56 -19 -83
-10 -26 -17 -59 -14 -74 3 -15 -2 -36 -11 -50 -9 -14 -16 -40 -16 -59 1 -61
-2 -83 -17 -154 -8 -38 -16 -103 -18 -143 -3 -41 -9 -126 -14 -190 -5 -65 -9
-151 -7 -192 1 -41 -4 -102 -11 -134 -8 -32 -10 -68 -7 -80 19 -57 -1 -276
-28 -312 -8 -11 -4 -229 7 -334 3 -30 8 -149 11 -265 3 -115 7 -230 9 -255 1
-25 6 -110 9 -189 4 -89 12 -157 21 -179 8 -19 15 -45 15 -59 0 -13 8 -59 17
-101 9 -42 16 -100 15 -129 -2 -28 2 -54 8 -58 5 -3 10 -15 10 -27 0 -11 6
-34 14 -51 19 -44 33 -102 41 -167 4 -30 13 -68 20 -85 17 -37 41 -134 50
-200 4 -27 14 -60 21 -73 13 -19 26 -81 51 -242 3 -19 10 -41 15 -47 6 -7 7
-24 4 -37 -3 -14 -2 -28 4 -31 5 -3 10 -17 10 -31 0 -13 4 -32 9 -42 5 -9 16
-46 26 -82 32 -122 41 -152 51 -158 5 -4 10 -31 11 -60 2 -29 9 -65 17 -80 8
-15 17 -50 21 -77 4 -28 13 -59 19 -70 7 -11 18 -42 25 -70 6 -27 18 -72 26
-100 7 -27 21 -81 31 -118 9 -38 25 -85 34 -105 10 -21 26 -62 36 -92 31 -100
95 -255 113 -275 10 -11 24 -36 31 -55 8 -19 33 -73 56 -120 23 -47 56 -116
73 -155 18 -38 36 -77 41 -86 5 -9 37 -70 71 -135 35 -66 77 -139 94 -164 18
-25 48 -74 69 -110 56 -99 119 -196 143 -222 11 -13 31 -42 42 -64 12 -23 31
-50 42 -60 12 -11 45 -53 74 -94 67 -96 199 -236 289 -309 111 -89 199 -155
226 -169 14 -7 52 -30 85 -52 33 -22 87 -53 120 -70 33 -17 76 -39 95 -49 19
-11 46 -24 60 -30 14 -5 45 -19 70 -29 126 -54 282 -111 335 -122 33 -7 64
-17 69 -22 6 -4 20 -8 32 -8 12 0 38 -7 58 -15 20 -9 40 -13 45 -11 4 3 32 -1
62 -9 30 -8 72 -15 95 -15 22 0 45 -5 51 -11 15 -15 657 -23 715 -9 24 6 97
12 163 13 108 2 124 5 154 26 29 21 37 23 84 14 48 -10 124 -6 315 13 47 5 58
2 102 -26 29 -18 53 -42 56 -55 5 -21 -46 -135 -130 -290 -9 -16 -16 -35 -16
-40 0 -6 -15 -47 -34 -91 -18 -43 -37 -95 -41 -114 -4 -19 -11 -41 -15 -50 -9
-17 -57 -190 -65 -235 -4 -16 -10 -48 -16 -70 -5 -22 -13 -78 -18 -125 -5 -47
-18 -130 -28 -185 -29 -160 -22 -383 21 -620 15 -84 49 -264 66 -350 19 -95
32 -140 55 -190 13 -27 29 -70 36 -95 6 -25 20 -64 30 -87 11 -24 19 -49 19
-57 0 -7 7 -19 15 -26 8 -7 15 -22 15 -34 0 -12 9 -47 20 -79 11 -31 20 -68
20 -81 0 -14 4 -27 9 -31 5 -3 12 -18 16 -34 3 -15 21 -51 39 -79 19 -28 39
-73 45 -100 6 -27 22 -71 36 -98 15 -27 40 -83 57 -124 16 -41 33 -84 38 -95
4 -11 14 -36 21 -55 7 -19 21 -45 30 -58 10 -13 23 -40 30 -60 6 -20 20 -47
30 -60 10 -13 21 -37 24 -55 4 -18 15 -48 25 -67 10 -19 26 -53 36 -75 9 -22
34 -76 54 -120 21 -44 41 -91 45 -105 4 -14 27 -63 51 -108 24 -46 44 -90 44
-98 0 -8 11 -32 25 -54 14 -22 25 -46 25 -54 0 -8 4 -17 9 -20 10 -7 86 -161
96 -196 4 -14 20 -50 35 -80 15 -30 31 -62 34 -70 4 -8 16 -32 29 -52 12 -21
37 -66 56 -100 18 -35 39 -70 46 -78 7 -8 22 -42 34 -75 12 -33 26 -69 31 -80
5 -11 23 -55 40 -97 17 -43 40 -88 51 -102 10 -13 19 -32 19 -41 0 -8 17 -46
37 -83 55 -102 70 -134 78 -172 7 -33 35 -99 54 -130 9 -14 43 -89 61 -135 4
-11 20 -60 35 -108 15 -49 34 -91 41 -94 8 -3 14 -20 14 -41 0 -19 6 -43 13
-51 13 -15 47 -112 47 -134 0 -6 7 -18 15 -27 9 -9 22 -46 30 -81 17 -77 37
-135 53 -151 7 -7 12 -27 12 -45 0 -19 9 -53 20 -75 11 -23 20 -49 20 -57 0
-8 20 -76 44 -151 24 -74 49 -160 56 -190 17 -83 41 -183 50 -205 16 -43 53
-202 55 -238 2 -20 7 -43 12 -50 5 -6 15 -37 22 -67 6 -30 16 -75 22 -100 6
-25 15 -76 19 -115 5 -38 18 -113 30 -165 12 -52 26 -117 30 -145 5 -27 14
-72 20 -100 6 -27 15 -81 20 -120 5 -38 18 -119 29 -180 11 -60 25 -168 31
-240 12 -144 35 -370 50 -485 6 -41 11 -154 11 -250 0 -96 2 -240 2 -320 1
-80 -3 -192 -10 -250 -19 -169 -25 -232 -28 -285 -1 -27 -10 -113 -19 -190
-24 -211 -36 -315 -40 -365 -13 -143 -31 -243 -67 -358 -6 -18 -13 -75 -15
-125 -2 -51 -8 -114 -13 -142 -5 -27 -19 -108 -30 -180 -23 -137 -23 -138 -65
-305 -15 -58 -33 -141 -39 -185 -7 -44 -21 -96 -30 -115 -18 -35 -32 -82 -46
-155 -5 -22 -16 -60 -25 -85 -10 -25 -22 -61 -27 -80 -11 -38 -15 -47 -53
-132 -14 -31 -33 -81 -42 -110 -9 -29 -22 -60 -29 -68 -15 -19 -45 -85 -45
-98 0 -5 -20 -48 -44 -94 -24 -47 -47 -99 -51 -116 -3 -18 -11 -34 -16 -37 -5
-4 -9 -19 -9 -35 0 -16 -4 -32 -10 -35 -5 -3 -14 -24 -21 -47 -6 -23 -21 -55
-34 -72 -13 -17 -34 -56 -48 -86 -14 -30 -39 -86 -56 -124 -17 -37 -31 -73
-31 -80 0 -6 -9 -22 -20 -36 -11 -14 -20 -31 -20 -38 0 -7 -11 -28 -25 -46
-14 -18 -25 -42 -25 -53 0 -11 -11 -37 -25 -58 -14 -20 -29 -51 -32 -68 -3
-16 -21 -53 -39 -80 -18 -28 -36 -62 -39 -76 -3 -14 -19 -44 -35 -66 -17 -22
-38 -56 -48 -75 -9 -19 -30 -54 -45 -77 -15 -24 -27 -48 -27 -54 0 -6 -16 -33
-35 -59 -19 -26 -35 -51 -35 -56 0 -4 -6 -15 -14 -23 -7 -9 -28 -44 -46 -79
-18 -34 -36 -65 -42 -68 -5 -3 -20 -30 -32 -59 -13 -29 -29 -56 -35 -59 -6 -4
-25 -34 -41 -66 -16 -32 -35 -62 -41 -65 -6 -4 -39 -51 -73 -104 -35 -53 -83
-116 -107 -141 -54 -56 -82 -93 -113 -150 -13 -25 -34 -53 -45 -62 -12 -10
-21 -23 -21 -30 0 -7 -17 -31 -38 -54 -20 -22 -67 -79 -104 -125 -94 -116
-152 -187 -189 -231 -17 -21 -45 -58 -61 -83 -17 -25 -52 -64 -79 -87 -27 -23
-49 -45 -49 -50 0 -10 -141 -178 -150 -178 -3 0 -37 -30 -76 -66 -134 -128
-270 -251 -325 -296 -30 -24 -65 -53 -75 -64 -11 -10 -49 -40 -85 -66 -35 -27
-100 -77 -144 -113 -44 -35 -112 -86 -150 -114 -39 -27 -77 -56 -85 -66 -7 -9
-57 -46 -109 -81 -53 -36 -114 -78 -136 -95 -72 -53 -177 -123 -246 -164 -37
-22 -76 -48 -86 -58 -11 -9 -23 -17 -26 -17 -4 0 -41 -24 -83 -53 -41 -28 -94
-62 -117 -75 -23 -13 -61 -36 -83 -50 -51 -33 -131 -83 -157 -99 -11 -6 -24
-18 -28 -26 -5 -7 -27 -19 -51 -27 -24 -7 -60 -26 -80 -42 -20 -15 -42 -28
-49 -28 -17 0 -115 -48 -176 -87 -29 -18 -55 -33 -59 -33 -4 0 -15 -6 -23 -14
-9 -8 -49 -32 -89 -53 -102 -53 -122 -65 -159 -91 -17 -12 -36 -22 -42 -22
-23 0 -160 -69 -192 -98 -19 -16 -54 -35 -79 -42 -24 -7 -57 -22 -72 -35 -15
-12 -50 -28 -79 -35 -28 -7 -64 -19 -78 -26 -14 -8 -34 -14 -43 -14 -9 0 -19
-4 -22 -9 -3 -5 -17 -12 -31 -15 -14 -4 -47 -20 -74 -36 -26 -17 -59 -30 -71
-30 -13 0 -42 -9 -64 -19 -23 -11 -68 -26 -101 -35 -33 -9 -82 -27 -110 -40
-57 -27 -104 -44 -155 -56 -78 -19 -248 -68 -266 -78 -10 -5 -44 -15 -74 -22
-30 -6 -64 -15 -75 -19 -84 -34 -176 -61 -211 -61 -8 0 -34 -9 -56 -20 -23
-11 -54 -20 -68 -20 -15 0 -53 -9 -86 -19 -32 -11 -78 -22 -102 -26 -24 -4
-56 -13 -70 -21 -15 -8 -40 -14 -56 -14 -16 0 -43 -4 -60 -10 -65 -20 -144
-39 -211 -50 -38 -6 -99 -19 -135 -30 -36 -10 -101 -24 -145 -30 -95 -14 -211
-45 -231 -61 -8 -6 -42 -13 -77 -14 -70 -3 -276 -38 -353 -61 -28 -8 -84 -17
-125 -20 -41 -4 -82 -10 -91 -15 -9 -5 -38 -9 -65 -9 -26 0 -82 -7 -123 -16
-41 -9 -104 -17 -140 -19 -64 -3 -167 -19 -225 -35 -16 -5 -59 -11 -95 -15
-36 -4 -130 -17 -210 -30 -189 -31 -215 -35 -276 -40 -28 -2 -80 -9 -114 -14
-35 -6 -66 -9 -69 -7 -3 2 -31 0 -61 -5 -55 -9 -89 -12 -250 -24 -47 -4 -98
-10 -115 -15 -16 -5 -91 -12 -165 -15 -74 -3 -177 -10 -228 -15 -52 -6 -111
-7 -132 -4 -31 5 -48 1 -83 -19 -44 -26 -45 -26 -293 -27 -137 -1 -307 -1
-379 1 -144 2 -214 1 -355 -5 -328 -14 -431 -19 -475 -22 -53 -5 -57 -5 -355
-5 -117 0 -208 -5 -227 -11 -24 -9 -45 -8 -87 2 -45 11 -72 11 -139 1 -45 -6
-125 -12 -177 -12 -52 -1 -117 -1 -145 -1 -27 -1 -153 4 -280 10 -293 15 -827
24 -2105 36 -162 2 -351 6 -420 10 -69 3 -170 8 -225 11 -55 2 -116 9 -135 15
-19 5 -55 10 -80 10 -25 0 -61 4 -79 10 -19 5 -96 12 -170 15 -75 4 -163 8
-196 11 -33 2 -118 8 -190 13 -244 17 -400 31 -445 41 -40 9 -181 28 -375 50
-38 4 -113 15 -165 24 -184 30 -406 65 -460 72 -30 4 -60 10 -65 15 -10 7 -48
15 -195 39 -30 5 -100 18 -155 30 -55 11 -141 27 -191 35 -50 8 -110 22 -133
31 -22 9 -48 13 -56 10 -9 -3 -23 -1 -33 4 -20 11 -226 50 -262 50 -15 0 -31
5 -36 10 -6 6 -48 17 -95 24 -46 8 -97 19 -113 25 -16 6 -49 16 -75 21 -25 6
-68 16 -96 24 -27 8 -82 24 -120 36 -39 11 -83 20 -98 20 -15 0 -46 9 -70 19
-23 11 -67 24 -97 31 -30 6 -77 20 -105 30 -27 10 -90 31 -140 48 -49 16 -121
42 -160 57 -38 15 -101 36 -140 47 -38 11 -104 33 -145 50 -41 16 -93 34 -115
40 -22 5 -47 15 -55 22 -8 8 -26 17 -40 21 -32 10 -292 120 -316 134 -11 6
-57 25 -103 41 -46 17 -95 39 -108 50 -14 11 -30 20 -35 20 -10 0 -43 15 -218
98 -58 27 -116 53 -130 57 -24 7 -188 81 -240 108 -14 7 -43 22 -65 34 -22 11
-96 48 -165 82 -69 34 -161 80 -205 104 -44 23 -111 57 -150 75 -38 18 -81 39
-95 47 -14 8 -41 21 -60 30 -19 8 -42 19 -50 25 -8 5 -71 43 -140 84 -185 110
-334 203 -442 277 -15 11 -31 19 -36 19 -5 0 -17 9 -27 20 -10 11 -22 20 -27
20 -39 0 -666 493 -885 696 -48 45 -110 101 -138 124 -27 24 -59 55 -70 70
-11 14 -99 105 -195 202 -96 96 -200 205 -230 242 -30 37 -89 107 -131 155
-42 48 -94 112 -116 142 -22 30 -51 63 -63 74 -37 32 -247 301 -380 485 -43
59 -196 287 -236 352 -16 26 -59 93 -95 150 -91 142 -201 330 -259 440 -68
132 -240 479 -240 485 0 3 -10 27 -21 52 -12 25 -25 55 -30 66 -18 44 -57 133
-77 175 -22 47 -60 150 -143 385 -110 310 -159 469 -219 710 -67 272 -83 346
-120 545 -11 63 -25 133 -30 155 -5 22 -12 58 -15 80 -3 22 -12 81 -20 130
-85 556 -138 1184 -131 1562 3 137 6 167 22 190 19 30 18 38 -6 38 -18 0 -18
23 0 320 13 223 31 435 55 630 20 156 29 234 44 380 7 61 19 143 26 183 8 40
15 90 15 112 0 21 4 41 9 44 4 3 11 25 15 48 23 162 75 436 100 531 14 54 26
107 26 118 0 11 8 36 19 57 10 20 26 78 35 127 17 90 38 164 61 220 7 17 20
64 30 105 18 78 20 83 54 164 12 27 21 62 21 78 0 16 5 39 12 51 6 12 15 38
19 57 8 33 24 87 71 225 11 33 28 87 38 120 10 33 39 119 65 190 26 72 55 153
65 181 10 28 23 60 28 70 6 10 23 51 37 89 14 39 35 91 46 117 10 26 19 58 19
71 0 14 7 30 15 37 9 7 13 20 10 28 -3 8 5 29 18 46 32 42 57 95 57 118 0 11
8 32 18 46 10 15 26 47 36 72 10 25 26 61 36 80 10 19 20 51 24 71 4 21 15 48
25 60 25 33 71 130 71 149 0 9 11 27 25 40 14 13 25 31 25 40 0 9 13 36 30 58
17 23 30 49 30 57 0 9 15 38 34 65 19 27 42 71 52 97 10 27 36 77 58 113 36
59 115 210 233 444 24 50 53 101 64 114 10 14 19 32 19 41 0 9 18 43 40 76 22
33 40 67 40 76 0 9 9 24 20 34 11 10 20 25 20 33 0 7 8 26 18 40 44 68 72 125
72 147 0 7 7 18 15 25 8 7 15 18 15 25 0 7 9 24 21 39 11 14 30 52 41 83 10
31 35 89 54 129 19 40 34 77 34 83 0 9 14 45 39 101 4 8 15 42 25 75 10 33 29
83 42 110 13 28 24 57 24 64 0 17 14 65 41 136 26 71 49 167 49 204 0 17 4 39
10 49 10 19 26 124 41 272 5 52 14 138 20 190 21 184 11 547 -21 710 -32 169
-140 519 -172 557 -6 7 -7 20 -4 29 4 10 -4 35 -19 60 -14 23 -25 56 -25 73 0
22 -7 35 -26 47 -24 16 -64 81 -64 103 0 6 -14 30 -31 55 -28 38 -30 49 -24
86 5 27 19 55 39 76 l31 33 50 -23 c28 -13 70 -30 93 -37 29 -9 47 -20 53 -36
4 -12 20 -25 34 -29 14 -3 29 -14 34 -22 9 -15 11 -15 29 1 17 16 27 17 83 7
67 -12 253 -26 496 -38 166 -8 375 2 568 27 220 29 551 103 675 150 30 12 62
21 70 21 26 0 391 189 474 245 43 29 90 59 105 66 14 8 57 39 95 69 38 30 80
64 95 75 78 58 444 438 491 510 8 12 42 55 75 95 33 40 65 81 71 91 6 11 20
30 32 42 11 12 28 38 39 57 10 19 34 57 53 85 31 44 84 139 136 245 10 19 25
46 34 60 9 14 22 45 29 70 7 25 19 52 26 60 14 17 38 69 54 118 5 18 19 46 31
61 11 16 20 33 20 39 0 5 7 15 15 22 9 7 22 27 29 44 8 17 28 62 45 100 17 37
38 96 46 130 9 33 28 97 44 141 34 97 110 340 152 490 14 49 50 194 69 276 10
42 20 82 24 87 4 6 15 51 26 99 10 48 33 151 50 228 17 77 36 163 41 190 22
119 51 296 60 365 21 175 28 218 43 280 13 55 22 118 41 280 1 14 10 59 19
100 20 95 36 275 41 455 2 77 6 147 8 155 22 66 27 814 7 1090 -17 237 -39
442 -49 454 -5 6 -14 43 -20 81 -6 39 -18 102 -26 140 -8 39 -19 90 -24 115
-14 68 -42 164 -51 175 -5 6 -12 28 -16 50 -8 44 -44 146 -74 210 -10 22 -28
65 -40 95 -47 117 -64 156 -76 170 -7 8 -16 29 -20 45 -4 17 -23 59 -42 95
-20 36 -56 106 -82 155 -74 143 -84 160 -123 207 -20 25 -37 49 -37 55 0 33
-235 346 -339 451 -133 134 -322 302 -339 302 -5 0 -44 27 -88 60 -43 33 -95
67 -114 76 -19 9 -48 26 -65 38 -136 98 -383 216 -450 216 -13 0 -26 4 -30 9
-3 5 -20 12 -38 16 -17 4 -68 17 -112 30 -96 28 -188 45 -273 50 -65 4 -120
13 -136 23 -6 3 -45 7 -89 8 -43 2 -84 7 -90 12 -7 5 -29 12 -50 16 -21 4 -54
18 -74 32 -20 13 -40 24 -45 24 -5 0 -13 12 -18 26 -9 24 -14 26 -50 21 -49
-6 -81 13 -64 40 7 11 20 17 34 15 19 -3 22 0 17 19 -4 16 0 30 14 45 l21 22
-21 7 c-38 12 -43 38 -20 107 12 35 30 77 39 93 8 17 26 66 39 110 13 44 32
104 43 133 10 30 16 57 14 60 -2 4 0 27 5 52 37 179 60 372 65 550 5 144 10
199 20 211 18 20 18 34 -1 49 -11 9 -15 36 -16 104 -1 106 -6 148 -43 351 -52
282 -96 485 -113 526 -6 14 -23 74 -38 133 -29 119 -85 281 -110 319 -9 14
-17 40 -19 59 -2 18 -6 40 -9 48 -6 15 -18 47 -52 145 -10 28 -26 69 -36 93
-11 23 -19 49 -19 57 0 9 -4 23 -9 33 -33 64 -72 154 -77 181 -4 17 -11 34
-15 37 -5 3 -9 13 -9 22 -1 9 -9 35 -20 57 -11 22 -19 46 -20 53 0 7 -4 20
-10 30 -9 17 -47 137 -70 222 -6 25 -20 63 -31 85 -10 22 -28 72 -38 110 -11
39 -24 84 -30 100 -41 123 -86 284 -117 420 -20 88 -43 187 -50 220 -16 66
-55 271 -80 410 -9 50 -23 122 -31 160 -8 39 -21 117 -28 175 -7 58 -20 143
-28 190 -25 137 -47 353 -53 520 -3 85 -8 171 -10 190 -7 68 -3 486 5 570 4
47 5 128 1 180 -4 52 -3 133 1 180 5 47 15 168 24 270 8 102 19 232 25 290 5
58 9 112 8 120 0 8 7 49 16 90 17 74 24 123 46 335 6 61 20 153 31 207 10 53
19 112 19 132 0 20 9 62 19 94 11 31 24 89 30 127 15 94 65 292 95 370 8 22
15 54 15 70 1 33 23 104 82 265 21 58 41 120 44 138 4 17 17 53 31 78 13 25
24 52 24 60 0 8 4 22 9 32 5 9 23 47 40 84 17 36 35 69 41 73 5 3 10 17 10 31
0 29 21 74 59 124 14 19 42 69 62 110 21 42 44 82 53 89 9 7 16 22 16 32 0 10
13 33 28 51 16 18 48 72 71 120 24 47 51 94 62 104 10 9 19 21 19 26 0 12 48
86 82 126 15 18 28 39 28 46 0 8 7 19 15 26 8 7 24 31 34 54 10 22 42 69 70
104 28 35 51 68 51 73 0 16 92 142 137 188 24 24 43 50 43 57 0 13 64 90 218
260 50 57 92 108 92 115 0 14 30 45 313 329 186 186 267 260 283 260 5 0 27
18 49 40 22 22 65 60 95 85 30 25 97 80 149 122 51 43 110 89 130 102 19 13
42 30 49 38 7 7 17 13 22 13 5 0 23 12 40 26 17 15 48 36 68 46 20 11 49 27
64 34 14 8 59 44 98 79 40 36 76 65 81 65 5 0 23 13 41 29 18 16 60 43 93 61
33 17 74 44 90 59 17 15 46 39 65 52 19 13 43 32 52 41 10 10 25 18 34 18 8 0
29 14 46 30 16 17 38 30 48 30 10 0 20 6 23 14 6 14 109 66 132 66 7 0 20 11
28 23 8 13 42 37 74 53 32 15 70 38 84 49 14 11 36 27 49 35 12 8 33 23 45 33
13 9 29 17 35 17 7 0 25 11 42 25 16 14 40 25 53 25 13 0 27 5 30 10 3 6 15
10 25 10 10 0 23 8 29 17 5 10 18 18 28 18 10 0 22 10 28 23 5 12 17 22 25 22
8 0 31 10 50 22 59 37 82 48 101 48 10 0 26 11 35 25 9 14 24 25 33 25 9 0 33
9 54 20 20 11 44 20 52 20 8 0 25 5 38 12 12 6 29 14 37 18 9 5 14 18 12 33
-1 14 2 28 8 32 5 3 10 -3 10 -14 0 -24 17 -36 33 -23 7 5 30 16 52 24 22 9
85 38 140 64 96 46 197 86 260 103 17 4 44 15 60 23 17 8 35 13 41 11 6 -2 17
3 24 12 7 8 19 15 27 15 21 0 128 38 186 65 28 14 57 25 64 25 8 0 38 11 66
24 29 12 71 29 95 36 24 8 50 23 59 34 9 13 17 16 19 10 5 -11 51 0 82 19 7 5
38 11 70 14 31 3 73 14 92 24 19 11 50 22 70 25 19 4 40 10 45 14 10 7 78 31
105 37 8 1 32 6 53 9 20 3 43 15 51 25 9 13 28 20 68 22 54 4 118 17 213 43
28 7 78 18 113 25 34 6 65 16 68 20 3 5 45 9 94 9 65 0 100 5 134 19 25 11 69
22 98 25 29 2 86 12 126 20 40 9 88 16 107 16 19 0 37 5 40 10 4 6 15 8 25 5
11 -3 27 -2 37 3 10 6 43 13 73 17 30 3 79 13 109 22 29 8 74 17 100 19 143
12 168 15 191 24 14 5 57 11 95 14 39 3 86 10 105 16 19 6 73 15 120 20 47 5
114 14 150 20 36 7 90 14 120 16 93 5 164 15 175 23 12 10 137 26 310 41 72 7
168 16 215 20 47 5 131 12 186 15 56 4 128 11 160 16 33 5 70 11 84 14 41 6
259 26 335 30 39 2 133 6 210 10 91 4 152 12 174 22 18 8 52 17 75 19 104 10
245 25 281 30 92 13 168 13 232 0 63 -13 72 -19 119 -70 50 -55 50 -55 85 -43
20 7 50 29 69 50 49 57 78 67 223 81 143 13 286 12 412 -4z m-7135 -1190 c0
-5 -8 -10 -17 -10 -15 0 -16 2 -3 10 19 12 20 12 20 0z"/>
</g>
</svg>
