<?xml version="1.0" standalone="no"?>
<!DOCTYPE svg PUBLIC "-//W3C//DTD SVG 20010904//EN"
 "http://www.w3.org/TR/2001/REC-SVG-20010904/DTD/svg10.dtd">
<svg version="1.0" xmlns="http://www.w3.org/2000/svg"
 width="2740.000000pt" height="3982.000000pt" viewBox="0 0 2740.000000 3982.000000"
 preserveAspectRatio="xMidYMid meet">
<metadata>
Created by potrace 1.15, written by Peter Selinger 2001-2017
</metadata>
<g transform="translate(0.000000,3982.000000) scale(.1000000,-.1000000)"
fill="#000000" stroke="none">
<path d="M13524 39509 l-52 -51 -53 13 c-30 7 -65 21 -79 31 -19 13 -49 17
-130 19 -184 3 -280 -7 -392 -41 -21 -6 -75 -15 -120 -20 -46 -5 -121 -14
-168 -19 -128 -15 -341 -33 -376 -32 -17 1 -44 -3 -59 -9 -15 -6 -89 -13 -164
-16 -75 -3 -170 -12 -211 -19 -41 -7 -136 -16 -210 -20 -74 -4 -166 -13 -205
-22 -38 -8 -104 -19 -145 -23 -41 -5 -118 -15 -170 -24 -114 -20 -147 -23
-265 -31 -49 -3 -110 -10 -135 -15 -25 -5 -70 -12 -100 -16 -30 -3 -63 -10
-72 -15 -9 -5 -60 -14 -114 -19 -53 -6 -103 -15 -111 -22 -8 -6 -80 -17 -161
-24 -112 -10 -175 -22 -266 -49 -82 -24 -139 -35 -183 -35 -39 0 -83 -7 -111
-19 -69 -27 -116 -41 -138 -41 -11 0 -28 -6 -39 -13 -11 -8 -42 -22 -70 -32
-27 -10 -78 -28 -112 -41 -34 -13 -71 -24 -83 -24 -12 0 -43 -6 -69 -14 -25
-8 -68 -19 -96 -25 -77 -15 -196 -50 -209 -60 -14 -12 -96 -41 -116 -41 -9 0
-40 -16 -69 -35 -49 -31 -164 -75 -198 -75 -21 0 -135 -40 -168 -59 -16 -9
-52 -25 -80 -35 -62 -23 -194 -87 -260 -126 -74 -44 -185 -97 -233 -109 -22
-7 -44 -16 -47 -21 -3 -6 -17 -10 -30 -10 -13 0 -37 -11 -53 -25 -17 -14 -38
-25 -47 -25 -10 0 -52 -31 -94 -69 -42 -37 -87 -72 -101 -76 -14 -4 -58 -30
-98 -56 -40 -27 -81 -49 -90 -49 -10 0 -22 -10 -27 -22 -6 -12 -42 -42 -82
-67 -39 -25 -90 -59 -114 -76 -23 -16 -62 -41 -87 -55 -24 -14 -48 -33 -53
-43 -6 -9 -17 -17 -25 -17 -9 0 -41 -18 -73 -40 -31 -22 -61 -40 -67 -40 -5 0
-28 -18 -49 -41 -22 -22 -57 -49 -77 -60 -20 -10 -41 -25 -45 -31 -4 -7 -28
-27 -53 -43 -25 -16 -48 -35 -53 -42 -4 -6 -28 -22 -53 -35 -25 -12 -62 -37
-82 -54 -21 -18 -76 -66 -124 -108 -47 -42 -89 -76 -93 -76 -6 0 -54 -45 -267
-249 -48 -47 -99 -92 -113 -100 -14 -9 -25 -21 -25 -28 0 -7 -26 -38 -58 -70
-33 -32 -61 -63 -63 -70 -2 -6 -29 -38 -59 -70 -30 -33 -86 -99 -125 -147 -38
-48 -90 -112 -115 -142 -80 -95 -101 -123 -141 -182 -21 -31 -46 -68 -55 -82
-10 -14 -27 -41 -39 -60 -12 -19 -50 -79 -83 -133 -34 -53 -62 -100 -62 -103
0 -3 -11 -20 -25 -38 -14 -18 -25 -40 -25 -48 0 -8 -18 -39 -40 -68 -22 -29
-40 -58 -40 -63 0 -5 -20 -40 -45 -77 -25 -38 -50 -82 -56 -99 -6 -17 -15 -31
-19 -31 -4 0 -11 -12 -14 -26 -4 -14 -18 -43 -31 -65 -14 -21 -25 -45 -25 -52
0 -8 -13 -40 -28 -73 -15 -32 -39 -90 -51 -129 -13 -38 -43 -112 -67 -163 -24
-51 -44 -104 -44 -117 0 -13 -14 -66 -31 -117 -34 -103 -60 -195 -61 -218 0
-8 -13 -53 -28 -100 -15 -47 -30 -114 -33 -150 -4 -36 -11 -78 -16 -95 -16
-51 -39 -197 -40 -255 -1 -30 -10 -86 -20 -125 -17 -62 -48 -308 -49 -390 0
-16 -5 -59 -10 -95 -16 -105 -24 -231 -28 -445 -2 -110 -7 -294 -10 -410 -6
-250 -6 -191 1 -420 3 -104 9 -197 12 -205 6 -17 20 -132 27 -238 3 -39 10
-80 15 -90 5 -9 12 -40 15 -67 3 -28 8 -66 11 -85 3 -19 7 -51 9 -70 2 -19 9
-48 16 -65 6 -16 13 -64 14 -105 1 -41 14 -122 28 -180 15 -58 32 -132 38
-165 7 -33 17 -71 22 -85 6 -14 12 -38 14 -55 2 -16 6 -41 9 -55 3 -14 8 -41
11 -60 8 -44 26 -102 36 -114 4 -6 8 -21 8 -35 1 -31 23 -117 33 -127 4 -4 7
-18 7 -30 0 -22 6 -40 36 -111 8 -17 14 -40 14 -50 0 -11 3 -23 6 -26 9 -9 40
-95 65 -181 11 -38 25 -78 32 -90 6 -12 10 -24 9 -29 -1 -4 5 -24 13 -43 8
-20 15 -43 15 -51 0 -8 9 -28 21 -44 11 -16 23 -46 26 -66 3 -21 16 -58 29
-83 13 -25 42 -101 65 -170 22 -69 45 -131 51 -138 6 -7 15 -33 19 -59 5 -26
18 -65 28 -87 28 -62 61 -162 81 -251 30 -130 82 -338 90 -360 15 -39 53 -342
56 -454 3 -62 7 -117 10 -122 8 -13 -15 -364 -27 -424 -6 -27 -17 -101 -24
-163 -8 -62 -18 -119 -23 -125 -5 -7 -12 -29 -16 -49 -3 -21 -9 -55 -12 -75
-4 -21 -12 -47 -19 -58 -7 -11 -25 -52 -39 -91 -15 -40 -36 -80 -46 -89 -11
-10 -20 -28 -20 -41 0 -13 -4 -25 -9 -28 -4 -3 -11 -24 -14 -47 -6 -43 17
-104 38 -104 17 -1 123 -56 135 -70 6 -7 9 -17 8 -23 -4 -14 3 -16 30 -8 15 5
32 2 47 -8 15 -10 46 -16 80 -16 31 0 88 -7 128 -15 40 -8 88 -14 107 -14 52
2 118 -6 126 -14 4 -4 22 -7 39 -7 18 0 73 -13 123 -30 50 -16 98 -30 105 -30
7 0 39 -14 70 -31 31 -17 57 -28 57 -25 0 14 115 -37 170 -75 34 -24 69 -48
78 -54 44 -25 164 -105 229 -152 40 -29 76 -53 81 -53 9 0 262 -245 262 -254
0 -3 21 -33 48 -67 84 -109 164 -227 192 -284 8 -16 27 -49 43 -72 53 -81 217
-400 217 -424 0 -8 6 -24 14 -35 8 -11 17 -37 21 -57 4 -21 11 -40 16 -43 5
-3 9 -13 9 -22 0 -10 9 -33 19 -53 20 -37 64 -169 101 -299 12 -41 25 -89 30
-106 6 -17 10 -43 10 -59 0 -15 4 -44 9 -64 10 -37 43 -334 61 -551 13 -158
13 -393 0 -406 -6 -6 -6 -51 -1 -124 5 -63 5 -120 0 -125 -4 -6 -10 -78 -12
-160 -5 -159 -20 -324 -36 -390 -5 -22 -12 -89 -16 -150 -3 -60 -13 -132 -20
-160 -8 -27 -19 -90 -25 -140 -7 -49 -23 -128 -36 -175 -13 -47 -27 -110 -30
-140 -7 -72 -50 -310 -70 -380 -8 -30 -18 -73 -23 -95 -4 -22 -13 -39 -18 -38
-18 4 -37 -25 -25 -39 19 -24 18 -91 -1 -157 -11 -36 -23 -91 -27 -122 -4 -30
-12 -71 -18 -90 -6 -19 -23 -70 -36 -114 -21 -66 -71 -216 -157 -475 -30 -90
-66 -168 -90 -195 -14 -16 -32 -48 -39 -70 -7 -22 -16 -42 -19 -45 -3 -3 -15
-30 -25 -60 -19 -55 -106 -227 -155 -306 -49 -79 -201 -289 -282 -389 -77 -95
-156 -184 -286 -322 -56 -60 -175 -155 -217 -174 -33 -15 -64 -34 -83 -51 -10
-8 -33 -21 -50 -29 -18 -8 -33 -18 -33 -22 0 -4 -24 -19 -52 -32 -29 -13 -64
-31 -78 -39 -14 -8 -38 -21 -55 -29 -16 -8 -43 -21 -60 -30 -66 -36 -143 -67
-168 -67 -14 0 -29 -4 -32 -10 -3 -5 -14 -10 -24 -10 -10 0 -41 -6 -67 -14
-137 -40 -196 -55 -264 -65 -41 -7 -95 -16 -120 -21 -39 -9 -81 -15 -205 -31
-16 -2 -156 -3 -310 -3 -317 2 -458 14 -491 45 -11 10 -23 16 -27 12 -9 -9
-114 16 -158 38 -20 10 -60 19 -90 21 l-53 3 -38 -64 c-22 -38 -34 -69 -29
-75 5 -6 14 -35 21 -63 6 -29 21 -64 31 -77 11 -14 31 -51 45 -83 14 -32 38
-85 54 -118 15 -33 35 -85 45 -115 10 -30 28 -82 40 -115 12 -33 37 -132 55
-220 31 -149 33 -174 34 -365 1 -214 -13 -416 -38 -535 -24 -120 -36 -190 -36
-218 0 -14 -4 -28 -8 -31 -5 -3 -17 -45 -27 -93 -10 -48 -24 -97 -31 -108 -7
-11 -18 -49 -24 -84 -6 -36 -20 -76 -31 -89 -10 -14 -19 -33 -19 -44 0 -10
-23 -67 -51 -126 -60 -126 -73 -155 -90 -202 -7 -19 -23 -52 -36 -72 -13 -21
-23 -41 -23 -45 0 -13 -44 -98 -66 -128 -31 -42 -94 -164 -94 -181 0 -15 -12
-37 -58 -107 -14 -21 -26 -46 -27 -56 0 -9 -13 -33 -28 -52 -15 -20 -27 -39
-27 -42 0 -4 -15 -39 -33 -79 -19 -40 -37 -80 -41 -88 -13 -29 -34 -63 -43
-69 -22 -15 -53 -66 -53 -87 0 -12 -11 -36 -25 -52 -14 -17 -25 -37 -25 -45 0
-8 -9 -26 -20 -40 -11 -14 -20 -34 -20 -45 0 -11 -7 -25 -15 -32 -8 -6 -17
-22 -21 -33 -4 -12 -22 -40 -40 -61 -19 -22 -34 -46 -34 -53 0 -8 -11 -39 -25
-69 -14 -30 -25 -60 -25 -66 0 -6 -11 -30 -24 -52 -34 -59 -79 -186 -77 -219
1 -21 -4 -30 -18 -34 -26 -7 -61 -79 -61 -126 0 -20 -5 -39 -10 -42 -6 -3 -10
-14 -10 -23 0 -9 -9 -28 -20 -42 -11 -14 -20 -35 -20 -47 0 -13 -14 -45 -30
-71 -17 -27 -30 -58 -30 -69 0 -10 -5 -24 -10 -29 -6 -6 -18 -39 -26 -75 -9
-35 -20 -68 -24 -74 -4 -5 -14 -36 -21 -68 -7 -32 -16 -60 -21 -63 -4 -3 -8
-18 -8 -34 0 -16 -5 -32 -10 -35 -6 -3 -10 -17 -10 -30 0 -13 -4 -26 -10 -30
-5 -3 -7 -12 -3 -20 3 -9 -1 -15 -9 -15 -9 0 -20 -33 -35 -105 -12 -57 -33
-128 -46 -157 -22 -47 -29 -69 -41 -128 -17 -82 -44 -174 -64 -220 -9 -19 -15
-42 -14 -52 2 -9 -2 -19 -8 -23 -6 -3 -8 -11 -4 -16 3 -5 0 -17 -7 -25 -7 -9
-16 -37 -20 -62 -11 -68 -26 -134 -43 -189 -8 -26 -17 -73 -19 -103 -2 -31
-11 -71 -19 -90 -15 -34 -39 -146 -44 -205 -4 -42 -15 -88 -25 -100 -4 -6 -4
-28 1 -49 8 -36 6 -74 -6 -106 -4 -8 -8 -45 -10 -81 -2 -37 -11 -79 -19 -95
-8 -16 -15 -46 -15 -66 0 -20 -4 -39 -8 -42 -5 -3 -5 -35 -1 -73 4 -37 5 -71
2 -75 -2 -4 -6 -31 -8 -60 -2 -29 -8 -95 -14 -146 -6 -51 -9 -97 -7 -101 3 -4
0 -59 -6 -122 -6 -63 -12 -134 -14 -159 -2 -25 -8 -97 -14 -160 -6 -63 -10
-124 -9 -135 0 -11 2 -139 4 -285 3 -146 9 -296 15 -335 6 -38 13 -97 16 -130
3 -33 7 -66 9 -73 3 -7 7 -52 10 -100 8 -121 42 -393 52 -422 3 -8 8 -51 10
-95 3 -44 9 -85 15 -92 5 -7 7 -17 3 -22 -3 -6 -1 -20 6 -32 6 -12 13 -38 14
-58 6 -65 24 -169 39 -213 7 -24 19 -79 26 -123 11 -76 33 -166 51 -210 4 -11
10 -36 14 -55 3 -19 7 -42 8 -50 4 -23 45 -157 69 -225 11 -33 24 -82 29 -110
17 -97 26 -130 47 -168 12 -20 27 -59 33 -85 7 -26 15 -51 19 -57 5 -5 13 -30
19 -55 11 -43 23 -75 42 -112 5 -10 13 -26 18 -35 5 -10 18 -37 30 -59 11 -23
21 -48 21 -55 0 -11 97 -219 121 -259 5 -8 12 -22 15 -30 25 -64 64 -151 84
-190 50 -93 64 -117 86 -142 12 -15 35 -53 50 -85 15 -32 40 -74 56 -94 15
-20 28 -41 28 -45 0 -5 11 -22 25 -38 14 -16 25 -33 25 -39 0 -5 10 -23 22
-40 21 -29 47 -75 84 -147 10 -19 33 -52 51 -72 18 -20 42 -56 54 -79 11 -23
34 -56 51 -73 16 -17 59 -75 95 -128 36 -54 68 -98 72 -98 4 0 27 -30 51 -67
24 -38 62 -86 84 -108 23 -22 54 -58 70 -80 16 -22 49 -58 72 -81 24 -22 44
-44 44 -50 0 -5 17 -25 36 -44 20 -19 44 -52 55 -72 10 -20 100 -119 199 -220
98 -101 185 -190 192 -199 7 -8 31 -28 53 -44 22 -16 46 -37 53 -47 7 -10 20
-18 28 -18 8 0 17 -7 20 -15 3 -8 35 -35 70 -60 35 -25 64 -51 64 -58 1 -21
77 -97 97 -97 11 0 32 -14 49 -31 16 -17 45 -42 64 -55 74 -51 177 -126 265
-194 32 -25 68 -52 80 -60 65 -44 105 -70 109 -70 7 0 79 -50 86 -59 7 -10 99
-71 107 -71 7 0 33 -17 153 -97 66 -45 208 -125 325 -183 22 -11 47 -24 55
-29 8 -6 40 -22 71 -36 32 -14 62 -32 69 -40 7 -8 22 -15 34 -16 22 0 37 -9
128 -72 30 -20 61 -37 69 -38 8 0 28 -9 44 -19 34 -22 94 -50 105 -50 4 0 13
-7 20 -15 7 -8 19 -15 28 -15 8 0 36 -13 61 -28 25 -15 66 -34 91 -42 25 -7
52 -19 60 -25 24 -18 141 -71 197 -90 29 -9 55 -21 58 -26 4 -5 15 -9 26 -9
23 0 107 -37 132 -58 9 -8 17 -12 17 -7 0 4 6 3 13 -2 6 -6 44 -20 82 -33 75
-24 131 -48 155 -66 8 -6 36 -17 62 -24 26 -7 53 -19 59 -26 6 -8 24 -14 40
-14 16 0 37 -8 48 -19 10 -10 36 -22 57 -26 21 -4 42 -11 45 -17 4 -6 28 -13
55 -15 27 -3 56 -11 64 -17 32 -24 61 -36 85 -36 14 0 48 -11 77 -25 28 -14
58 -25 66 -25 8 0 28 -6 45 -14 56 -25 95 -35 115 -29 11 2 23 0 26 -6 4 -6
16 -11 27 -11 10 0 27 -4 37 -10 29 -16 128 -40 164 -40 18 0 44 -7 57 -17 13
-9 44 -18 69 -20 25 -2 52 -8 61 -12 9 -5 35 -12 59 -16 23 -4 56 -13 72 -22
16 -8 65 -16 109 -17 43 -2 84 -7 91 -11 8 -5 32 -12 54 -17 84 -18 142 -29
166 -31 14 -1 30 -6 37 -10 15 -9 88 -25 173 -38 90 -14 89 -13 145 -32 28
-10 78 -19 110 -22 33 -2 101 -14 150 -26 50 -12 128 -25 175 -28 47 -4 102
-14 122 -23 20 -9 39 -14 41 -12 3 3 31 0 63 -5 33 -6 88 -13 124 -15 107 -7
184 -18 197 -28 7 -5 17 -7 23 -3 5 3 15 3 22 -1 6 -4 50 -9 97 -11 75 -3 155
-10 341 -29 25 -3 72 -7 105 -9 209 -15 335 -25 365 -32 19 -4 53 -8 75 -10
22 -1 65 -4 95 -7 276 -27 616 -40 626 -24 3 5 31 5 62 1 60 -6 513 -12 1123
-14 202 0 393 -5 425 -10 33 -5 68 -10 79 -11 364 -17 386 -16 675 11 63 6
266 12 450 15 184 2 409 6 500 10 91 3 326 8 522 11 267 3 363 7 380 17 24 13
190 28 382 33 59 1 124 7 145 14 41 12 467 44 481 36 5 -3 43 4 86 15 42 12
113 23 158 27 44 3 95 11 111 19 17 7 57 16 90 19 360 33 473 48 505 65 10 6
47 10 82 10 35 0 101 9 148 21 47 11 119 23 160 26 41 3 85 12 97 19 12 8 39
14 58 14 20 0 46 6 58 12 32 18 135 39 185 38 23 0 57 6 75 14 17 8 53 17 79
20 26 3 56 10 65 15 23 12 189 44 227 44 17 0 50 10 74 23 29 15 62 24 91 24
26 0 51 4 56 9 6 5 37 16 70 26 33 9 69 21 80 26 11 5 29 9 40 8 11 0 47 9 79
21 33 12 82 24 110 27 28 3 61 12 72 20 12 7 55 23 95 33 41 11 83 25 94 30
26 12 123 32 156 31 16 0 37 11 54 30 16 16 38 29 49 29 10 0 27 6 35 13 17
14 113 47 137 47 14 0 66 22 159 66 28 13 79 35 115 48 55 21 207 95 275 133
11 7 47 24 80 39 33 15 80 42 105 58 57 39 79 52 110 67 14 6 32 15 40 20 8 5
22 12 30 15 8 3 22 9 30 14 27 16 94 48 147 70 29 12 58 29 64 37 7 8 26 20
44 27 17 7 55 33 85 58 61 49 203 138 222 139 7 0 33 16 58 35 25 19 56 39 70
46 54 26 156 97 168 117 7 12 17 21 22 21 12 0 102 62 148 102 18 15 36 28 41
28 5 0 43 21 85 47 42 27 91 56 108 65 17 9 43 28 57 42 15 14 31 26 37 26 5
0 27 22 49 49 22 26 47 52 56 57 26 14 110 81 225 179 59 50 120 100 137 112
17 13 35 30 40 38 4 8 21 22 37 30 33 17 120 104 120 120 1 5 28 37 60 69 33
33 60 63 60 68 0 5 44 54 98 109 53 55 104 112 112 127 24 43 85 120 155 194
35 38 77 92 92 120 15 28 49 75 76 104 26 28 47 59 47 68 0 8 10 21 23 27 28
15 84 80 117 134 27 45 98 154 127 195 10 14 29 48 42 75 13 28 31 59 41 70
10 11 21 31 25 45 4 14 24 45 45 70 20 25 42 64 48 86 7 23 19 47 27 54 8 7
12 16 9 21 -3 5 2 12 10 15 9 3 16 14 17 23 0 9 9 30 19 46 19 30 35 59 61
105 8 14 24 39 35 55 12 17 27 47 33 68 7 20 26 62 42 92 16 30 29 63 29 73 0
11 8 26 18 36 11 9 25 35 32 59 7 23 32 83 55 132 24 50 51 108 60 130 9 22
23 53 31 69 8 16 14 38 14 48 0 10 7 30 16 43 9 13 14 30 11 37 -2 7 4 24 14
37 11 13 19 29 19 36 0 6 9 20 20 30 11 10 20 24 20 30 0 14 13 40 48 95 12
19 22 42 22 51 0 8 9 34 20 57 11 23 23 55 26 72 4 16 13 35 20 41 8 6 14 20
14 31 0 11 7 34 15 51 8 18 19 50 24 72 6 22 18 67 27 100 9 33 19 87 23 121
3 33 14 72 23 86 9 14 20 43 24 64 3 21 11 44 16 51 5 7 7 21 3 33 -4 12 -2
27 5 35 6 7 13 39 15 70 3 31 7 60 10 65 3 5 10 40 15 77 6 37 13 79 15 93 3
14 9 63 14 110 26 252 43 352 61 373 4 5 6 26 3 48 -3 21 0 51 6 66 6 16 13
80 15 143 3 65 11 133 20 157 8 23 17 88 20 145 6 111 12 156 26 203 13 41 4
683 -10 735 -6 22 -9 44 -6 48 2 4 0 50 -5 102 -8 86 -16 140 -51 351 -6 37
-8 79 -6 94 3 15 -1 52 -9 82 -8 30 -11 68 -8 83 4 18 0 40 -9 58 -9 17 -20
74 -25 128 -5 55 -17 118 -25 142 -9 24 -20 82 -26 129 -6 47 -16 95 -21 105
-6 11 -8 25 -6 33 3 7 -2 23 -10 35 -9 12 -19 50 -24 84 -4 33 -15 90 -24 126
-9 36 -22 94 -29 130 -7 36 -17 76 -23 90 -18 43 -33 96 -33 118 0 11 -5 24
-11 28 -6 3 -8 17 -5 29 3 13 2 27 -4 30 -5 3 -10 14 -10 23 0 10 -9 35 -20
57 -11 22 -20 46 -20 55 0 9 -6 24 -14 35 -7 11 -18 49 -24 84 -6 35 -18 71
-25 80 -8 9 -17 34 -19 56 -3 22 -15 60 -26 85 -11 25 -25 61 -32 80 -7 19
-18 49 -25 65 -7 17 -18 48 -25 70 -7 22 -21 58 -30 80 -10 22 -25 63 -33 91
-8 28 -26 73 -40 100 -13 27 -30 67 -36 89 -14 44 -53 133 -89 200 -5 11 -25
52 -42 90 -62 134 -122 261 -210 440 -49 99 -109 223 -134 275 -26 52 -50 102
-56 110 -12 21 -100 209 -100 216 0 5 -23 57 -87 194 -20 41 -49 104 -65 140
-16 36 -36 76 -43 90 -28 53 -142 316 -149 343 -4 16 -18 46 -31 68 -14 21
-25 45 -25 54 0 8 -13 44 -30 80 -16 36 -30 72 -30 79 0 7 -6 19 -14 25 -8 6
-16 24 -19 39 -15 77 -31 131 -47 167 -37 81 -82 206 -86 243 -2 20 -15 69
-28 107 -13 39 -29 108 -35 155 -6 47 -18 128 -26 180 -9 52 -15 154 -15 225
0 193 42 530 73 592 8 16 25 73 37 128 21 88 39 140 69 195 25 46 31 61 31 77
0 20 28 68 101 175 24 35 24 72 -1 126 -12 27 -29 46 -47 53 -15 6 -35 16 -43
23 -19 17 -106 30 -122 19 -18 -11 -162 -35 -233 -38 -33 -1 -87 -8 -120 -14
-131 -25 -239 -33 -430 -33 -266 -1 -423 15 -610 63 -142 37 -332 101 -390
132 -16 9 -66 33 -110 52 -44 20 -87 43 -95 50 -8 7 -28 17 -45 21 -16 4 -48
21 -70 39 -22 17 -67 49 -100 70 -59 38 -104 73 -176 139 -69 63 -249 268
-289 329 -22 34 -62 94 -88 132 -27 39 -73 111 -102 160 -30 50 -61 101 -69
115 -33 52 -112 206 -225 440 -25 52 -53 109 -62 125 -30 54 -44 86 -44 100 0
7 -11 38 -25 69 -18 41 -25 74 -25 119 0 37 -6 71 -14 82 -7 11 -16 36 -19 55
-13 81 -29 146 -41 160 -19 24 -34 62 -40 100 -2 19 -27 121 -54 225 -27 105
-52 211 -56 237 -4 26 -11 50 -17 53 -5 4 -9 21 -9 40 0 19 -4 37 -10 40 -5 3
-10 16 -10 28 0 26 -54 257 -80 342 -18 58 -23 84 -39 205 -4 30 -16 75 -25
100 -18 45 -27 85 -45 190 -6 30 -15 82 -21 115 -6 33 -13 105 -15 160 -2 55
-6 141 -10 190 -8 129 -10 570 -2 770 3 94 9 238 12 320 5 148 13 220 40 405
7 52 18 141 25 197 6 57 18 119 26 138 8 19 16 52 19 73 3 21 14 65 25 98 12
32 25 73 29 89 5 17 19 55 31 85 12 30 23 60 25 65 6 28 52 127 96 210 33 63
50 95 84 163 18 34 41 73 52 85 11 12 26 33 33 47 7 14 29 45 50 70 20 25 49
68 65 95 15 28 44 68 64 91 20 23 56 68 81 100 62 81 197 213 283 278 40 29
90 72 112 95 21 22 45 41 51 41 7 0 25 10 41 23 58 48 216 131 298 158 33 11
68 24 79 30 61 35 86 46 126 58 25 7 72 23 105 36 33 12 101 30 150 39 50 10
101 22 113 27 31 12 279 30 459 33 154 3 157 4 234 73 42 38 49 66 25 111 -49
97 -66 133 -66 145 0 7 -10 28 -23 47 -114 175 -273 901 -237 1083 8 44 8 62
0 73 -7 8 -10 32 -7 61 3 26 10 95 16 153 5 58 13 130 16 160 3 30 7 71 9 90
9 81 19 140 41 220 12 47 28 110 35 140 7 30 20 69 30 85 10 17 21 47 24 68 4
21 16 54 27 73 10 19 19 44 19 55 0 11 11 35 25 53 14 18 25 42 25 54 0 12 9
36 20 54 11 18 20 39 20 47 0 8 6 19 13 25 7 6 22 31 31 56 10 25 29 67 43 94
13 27 28 69 34 94 5 24 18 52 28 61 10 9 29 50 42 91 14 46 38 94 61 124 21
27 38 56 38 66 0 10 18 52 40 94 22 42 40 84 40 94 0 9 9 34 20 55 11 20 20
47 20 59 0 12 7 30 17 40 9 10 16 33 15 53 -1 19 5 40 12 48 8 7 17 29 21 48
4 19 16 46 26 61 11 14 19 32 19 40 0 8 9 32 19 54 11 22 22 57 26 79 4 22 13
65 21 95 9 30 20 73 26 95 6 22 13 47 16 55 3 8 4 23 3 33 -2 10 4 26 12 35
15 18 39 92 42 132 3 36 13 72 53 190 24 74 37 135 43 205 4 55 11 111 15 125
3 14 13 63 21 110 7 47 19 114 25 150 6 36 11 87 10 115 0 27 3 68 8 90 13 60
20 136 25 290 3 77 7 157 10 178 3 22 -1 89 -9 150 -8 62 -17 164 -20 227 -9
187 -22 290 -57 435 -10 44 -18 99 -18 123 1 23 -3 48 -9 55 -6 7 -16 44 -22
82 -12 78 -44 214 -61 260 -6 17 -12 41 -14 55 -2 13 -7 47 -11 74 -3 27 -17
88 -31 135 -13 48 -26 95 -28 106 -3 19 -33 145 -54 225 -11 44 -57 173 -79
220 -23 51 -62 161 -66 191 -3 14 -18 49 -35 78 -17 28 -31 60 -31 71 0 10 -4
22 -10 25 -5 3 -10 14 -10 23 0 9 -7 28 -15 42 -24 44 -52 103 -71 155 -10 28
-27 62 -39 76 -12 15 -27 42 -34 60 -29 78 -108 248 -126 269 -18 22 -90 155
-127 235 -19 42 -86 145 -114 175 -13 14 -30 42 -38 62 -9 20 -37 63 -63 95
-57 69 -93 120 -93 129 0 3 -25 33 -55 66 -30 33 -62 73 -70 89 -9 16 -20 29
-25 29 -6 0 -10 7 -10 15 0 8 -9 19 -20 25 -11 6 -20 17 -20 24 0 7 -10 21
-21 32 -12 10 -48 54 -80 96 -33 42 -82 99 -109 126 -28 27 -50 54 -50 60 0 6
-37 49 -82 96 -46 47 -92 96 -104 108 -11 13 -70 68 -129 123 -60 55 -118 111
-129 123 -51 58 -140 142 -150 142 -6 0 -34 21 -62 48 -75 70 -164 146 -183
156 -9 4 -32 25 -52 45 -20 20 -53 47 -73 61 -20 14 -47 34 -60 45 -91 78
-175 144 -196 155 -14 7 -49 32 -79 54 -29 23 -70 52 -91 66 -20 14 -56 37
-78 53 -23 15 -46 27 -52 27 -5 0 -15 9 -22 21 -7 11 -29 29 -48 40 -19 11
-55 33 -80 49 -25 15 -51 29 -59 29 -7 1 -29 15 -49 32 -20 17 -52 38 -71 46
-20 9 -49 26 -65 40 -32 27 -286 153 -309 153 -8 0 -26 9 -41 21 -31 24 -176
99 -193 99 -6 0 -25 11 -41 25 -17 14 -40 25 -53 26 -13 0 -37 9 -54 19 -58
36 -144 70 -179 70 -10 0 -30 8 -44 19 -15 10 -38 22 -52 26 -14 4 -34 14 -45
21 -11 8 -29 14 -40 14 -12 0 -30 7 -41 15 -10 8 -29 15 -42 15 -12 0 -41 9
-63 20 -22 12 -44 18 -48 16 -5 -3 -19 3 -32 13 -13 10 -39 22 -58 26 -18 4
-54 16 -80 28 -25 11 -62 24 -81 28 -19 4 -93 28 -164 53 -71 25 -158 51 -195
57 -36 5 -73 16 -81 24 -9 8 -40 21 -70 29 -30 8 -77 21 -105 29 -59 18 -293
76 -350 87 -22 4 -58 15 -80 25 -22 9 -66 21 -98 25 -32 5 -82 18 -110 29 -55
21 -321 85 -347 83 -8 0 -42 5 -75 13 -120 26 -212 43 -290 55 -104 16 -108
17 -172 35 -30 9 -65 15 -77 14 -11 -1 -29 1 -38 5 -9 4 -22 5 -28 1 -6 -4
-16 -2 -23 3 -7 5 -30 12 -52 15 -22 3 -69 10 -105 16 -36 6 -126 18 -200 27
-74 9 -164 21 -200 25 -36 5 -157 12 -270 15 -112 3 -212 10 -222 15 -9 5 -39
9 -65 9 -27 0 -53 4 -58 9 -13 12 -94 20 -275 26 -80 3 -170 9 -200 14 -30 5
-80 9 -110 10 -73 0 -203 10 -320 22 -52 6 -155 8 -228 6 -130 -4 -133 -4
-130 17 5 37 -26 28 -78 -25z m465 -35 c21 -7 243 -23 426 -30 98 -4 170 -12
185 -19 15 -8 32 -10 40 -5 8 4 40 4 70 -1 30 -5 80 -10 110 -10 30 0 96 -7
145 -14 50 -8 137 -17 195 -20 58 -3 132 -8 165 -9 33 -2 92 -9 130 -15 89
-14 234 -33 260 -33 11 0 36 -4 55 -9 19 -4 60 -11 92 -13 31 -3 76 -10 100
-16 23 -6 62 -11 85 -10 23 0 50 -3 60 -9 10 -5 77 -18 148 -29 72 -11 155
-27 185 -35 30 -8 70 -15 88 -15 44 -1 194 -32 206 -43 6 -5 30 -9 54 -9 24 0
52 -5 62 -10 10 -6 31 -12 47 -14 15 -2 35 -6 43 -9 8 -3 51 -13 95 -23 44 -9
98 -24 120 -32 22 -8 60 -18 85 -23 103 -19 115 -22 125 -29 6 -5 44 -17 85
-28 41 -12 93 -27 115 -36 22 -8 52 -15 67 -16 15 0 66 -13 115 -29 48 -16
104 -32 123 -36 19 -4 48 -13 65 -20 16 -8 60 -23 98 -34 37 -12 75 -25 85
-30 20 -10 143 -46 222 -65 30 -8 69 -21 85 -30 17 -9 35 -16 42 -16 6 0 28
-8 50 -19 101 -49 135 -62 173 -67 23 -3 55 -14 73 -24 18 -11 42 -20 53 -20
12 0 27 -6 33 -14 7 -8 27 -18 44 -22 18 -3 41 -13 52 -20 11 -8 29 -14 42
-14 12 0 57 -18 100 -40 43 -22 83 -40 90 -40 7 0 45 -17 85 -37 40 -21 91
-46 113 -56 64 -29 206 -104 218 -116 6 -6 19 -11 29 -11 10 0 35 -11 56 -24
20 -12 47 -26 59 -30 12 -4 38 -20 58 -36 21 -17 41 -30 46 -30 8 0 57 -30
108 -67 14 -9 58 -34 98 -55 40 -21 89 -53 108 -73 20 -19 41 -35 49 -35 7 0
39 -20 70 -45 32 -25 62 -45 66 -45 5 0 26 -15 49 -32 85 -69 140 -108 149
-108 5 0 16 -7 23 -16 8 -9 30 -27 50 -40 21 -13 52 -38 71 -57 18 -19 38 -36
45 -38 13 -4 226 -183 287 -241 21 -21 43 -38 47 -38 10 0 44 -30 221 -194
223 -205 382 -370 488 -505 28 -36 60 -74 71 -85 38 -40 122 -141 147 -178 13
-21 29 -38 33 -38 5 0 26 -26 46 -57 20 -31 52 -75 73 -97 35 -39 100 -131
100 -142 0 -3 19 -27 42 -54 23 -27 52 -65 63 -84 11 -19 50 -86 88 -149 37
-63 67 -119 67 -124 0 -6 9 -21 19 -35 11 -13 39 -62 64 -109 58 -109 85 -158
106 -189 10 -14 26 -52 36 -85 10 -33 23 -67 30 -75 13 -15 85 -162 85 -173 0
-3 16 -32 35 -64 19 -32 35 -63 35 -70 0 -7 11 -36 24 -65 26 -58 51 -130 117
-338 23 -74 46 -140 50 -145 4 -6 11 -35 15 -65 3 -30 15 -70 26 -88 11 -18
17 -39 14 -47 -3 -8 -1 -27 5 -42 20 -53 62 -219 70 -273 8 -62 45 -215 58
-245 11 -23 26 -106 41 -225 6 -47 23 -155 37 -240 13 -85 24 -172 24 -192 -1
-21 5 -50 12 -65 11 -21 14 -61 12 -153 -1 -71 2 -134 8 -145 10 -19 11 -510
2 -526 -3 -3 -5 -53 -6 -110 -1 -57 -5 -108 -8 -114 -3 -5 -6 -23 -7 -40 -3
-57 -32 -241 -50 -321 -8 -33 -14 -76 -14 -96 0 -39 -33 -176 -50 -209 -7 -11
-9 -23 -6 -26 3 -3 -1 -21 -9 -39 -7 -18 -17 -55 -20 -81 -10 -69 -33 -155
-45 -167 -5 -5 -10 -21 -10 -33 0 -13 -6 -36 -14 -51 -7 -15 -17 -45 -20 -67
-4 -22 -16 -58 -26 -80 -10 -22 -25 -62 -34 -90 -27 -88 -49 -149 -73 -203
-13 -29 -23 -57 -23 -62 0 -18 -49 -152 -61 -166 -6 -7 -15 -28 -19 -46 -13
-53 -48 -139 -63 -157 -8 -9 -18 -30 -22 -48 -3 -17 -12 -36 -19 -42 -7 -6
-19 -30 -27 -53 -7 -24 -28 -72 -46 -107 -18 -35 -33 -69 -33 -76 0 -8 -16
-42 -35 -77 -19 -34 -49 -92 -65 -128 -17 -36 -39 -83 -50 -105 -114 -242
-152 -330 -166 -390 -3 -16 -17 -48 -30 -71 -12 -22 -24 -52 -26 -67 -2 -14
-7 -29 -11 -33 -4 -4 -7 -22 -7 -40 0 -18 -7 -59 -16 -91 -28 -101 -35 -137
-40 -188 -2 -27 -11 -87 -18 -133 -8 -46 -17 -150 -21 -231 -3 -81 -10 -163
-15 -181 -6 -23 -6 -38 1 -46 6 -7 12 -39 14 -71 12 -195 31 -328 66 -458 5
-22 15 -60 20 -84 5 -25 14 -59 19 -75 52 -165 72 -224 79 -241 16 -37 36 -90
37 -102 1 -7 11 -25 22 -40 11 -15 23 -39 27 -52 4 -13 20 -45 34 -70 15 -26
31 -65 34 -87 6 -39 4 -43 -36 -81 -51 -48 -60 -50 -237 -58 -137 -7 -215 -12
-215 -15 0 -1 -27 -3 -60 -4 -33 -1 -66 -5 -73 -9 -7 -5 -19 -6 -27 -3 -8 3
-15 2 -15 -3 0 -4 -13 -7 -30 -6 -16 1 -30 -2 -30 -7 0 -5 -4 -7 -9 -4 -5 3
-53 -7 -107 -23 -55 -16 -130 -37 -169 -46 -72 -18 -118 -37 -146 -62 -9 -7
-54 -28 -100 -44 -46 -17 -102 -38 -124 -46 -22 -8 -49 -23 -60 -32 -11 -10
-51 -35 -90 -56 -38 -21 -92 -59 -120 -85 -27 -26 -66 -57 -85 -70 -50 -33
-108 -83 -206 -175 -80 -75 -109 -109 -195 -228 -19 -26 -50 -69 -70 -95 -20
-26 -45 -63 -55 -83 -11 -20 -37 -59 -59 -87 -43 -55 -102 -148 -124 -196 -7
-17 -33 -74 -58 -126 -25 -52 -47 -103 -49 -114 -2 -10 -9 -25 -16 -33 -15
-18 -29 -55 -74 -188 -18 -55 -38 -108 -44 -117 -5 -10 -10 -31 -10 -47 0 -17
-5 -33 -10 -36 -5 -3 -10 -21 -10 -39 0 -19 -7 -49 -14 -68 -8 -19 -13 -44
-10 -55 3 -12 -1 -32 -10 -45 -8 -13 -15 -37 -14 -53 2 -36 -11 -155 -18 -167
-3 -5 -7 -41 -10 -81 -2 -40 -6 -88 -9 -107 -6 -38 -14 -197 -21 -455 -4 -111
-9 -169 -19 -189 -12 -22 -14 -57 -10 -155 3 -69 7 -137 10 -151 3 -14 7 -119
10 -235 8 -360 15 -477 30 -509 16 -37 39 -185 37 -243 -1 -23 2 -45 8 -48 5
-3 10 -16 10 -28 0 -13 6 -31 14 -42 7 -11 19 -58 26 -105 7 -47 18 -95 26
-107 7 -12 15 -36 18 -55 7 -57 27 -142 39 -168 6 -14 17 -59 24 -100 19 -120
25 -144 35 -157 6 -7 7 -20 4 -29 -4 -9 -1 -23 5 -30 6 -8 9 -20 6 -29 -4 -8
-2 -17 3 -20 6 -4 10 -16 10 -28 0 -12 9 -47 20 -77 11 -30 20 -65 20 -78 0
-12 6 -25 13 -27 6 -3 13 -25 14 -49 1 -24 8 -57 15 -72 8 -16 15 -45 17 -64
1 -19 7 -44 15 -55 11 -18 20 -46 46 -155 17 -74 53 -187 70 -223 10 -21 22
-52 25 -70 4 -18 20 -61 36 -96 16 -35 29 -69 29 -76 0 -6 9 -20 20 -30 11
-10 20 -24 20 -30 0 -12 76 -170 163 -340 22 -44 53 -106 69 -137 15 -32 43
-78 61 -102 17 -24 46 -67 62 -96 65 -115 84 -145 119 -188 20 -25 36 -49 36
-54 0 -5 16 -28 35 -51 19 -23 68 -82 108 -132 71 -86 132 -147 228 -227 89
-74 134 -108 145 -108 6 0 24 -10 40 -23 81 -65 269 -156 524 -255 30 -12 87
-29 125 -38 39 -8 85 -22 103 -30 18 -8 37 -12 42 -9 5 3 21 0 36 -5 15 -6 50
-13 78 -15 28 -3 101 -9 161 -14 135 -12 464 -12 514 1 20 5 81 9 136 10 81 1
105 5 128 21 24 16 35 18 70 10 39 -9 100 -6 257 12 51 6 58 4 98 -25 29 -22
42 -39 42 -56 0 -14 -23 -69 -51 -122 -47 -90 -129 -284 -129 -305 0 -5 -6
-23 -14 -40 -8 -18 -21 -61 -30 -97 -9 -36 -21 -83 -27 -105 -6 -22 -17 -87
-24 -145 -7 -58 -22 -143 -32 -190 -33 -158 -20 -347 52 -705 9 -44 23 -116
31 -159 8 -44 26 -98 40 -122 14 -23 24 -46 22 -50 -4 -15 18 -74 58 -158 8
-16 14 -38 14 -48 0 -10 6 -31 14 -46 7 -15 19 -51 25 -79 9 -46 25 -81 78
-176 7 -12 13 -30 13 -40 0 -10 16 -51 35 -91 19 -40 35 -76 35 -80 0 -3 11
-28 24 -55 13 -27 26 -61 30 -75 3 -14 17 -42 31 -62 14 -20 25 -45 25 -54 0
-10 7 -23 15 -30 8 -7 21 -34 29 -60 8 -26 19 -56 25 -66 5 -11 17 -37 26 -59
9 -22 29 -67 45 -100 15 -33 49 -107 75 -165 62 -137 57 -127 96 -200 36 -68
79 -159 79 -168 0 -5 14 -38 31 -73 30 -64 40 -82 118 -217 23 -40 55 -107 71
-150 37 -100 69 -173 85 -192 7 -8 15 -27 19 -43 4 -15 19 -49 35 -75 16 -26
41 -83 56 -127 15 -44 34 -87 41 -96 8 -8 14 -19 14 -23 0 -5 7 -24 16 -44 36
-83 64 -163 64 -185 0 -9 9 -26 20 -37 11 -11 20 -31 20 -45 0 -14 5 -34 10
-45 6 -11 15 -29 20 -40 6 -11 10 -25 10 -30 0 -6 9 -30 19 -53 11 -23 22 -60
26 -82 5 -22 18 -62 31 -89 13 -28 24 -60 24 -73 0 -13 9 -43 20 -65 11 -23
20 -50 20 -59 0 -10 13 -55 30 -101 16 -46 35 -105 40 -133 6 -27 16 -68 21
-90 6 -22 13 -53 15 -70 3 -16 9 -39 13 -50 19 -48 51 -177 51 -208 0 -18 4
-37 9 -43 13 -14 41 -133 51 -221 5 -43 16 -105 25 -138 9 -33 20 -87 25 -120
4 -33 13 -78 19 -100 6 -22 18 -87 26 -145 7 -58 21 -145 29 -195 8 -49 22
-180 31 -290 9 -110 21 -222 26 -249 5 -27 9 -117 10 -200 0 -83 1 -207 2
-276 2 -69 -3 -165 -10 -215 -7 -49 -15 -130 -18 -180 -5 -86 -26 -283 -46
-430 -5 -38 -11 -95 -14 -125 -10 -115 -17 -166 -31 -198 -15 -36 -34 -167
-33 -222 0 -19 -4 -57 -10 -85 -6 -27 -17 -81 -26 -120 -8 -38 -15 -85 -15
-104 0 -19 -4 -48 -10 -65 -18 -58 -52 -201 -61 -256 -5 -30 -22 -98 -38 -150
-17 -52 -42 -135 -57 -185 -15 -49 -31 -97 -35 -105 -26 -55 -69 -163 -69
-176 0 -8 -11 -30 -24 -47 -14 -18 -28 -45 -32 -62 -3 -16 -17 -50 -29 -75
-13 -25 -28 -56 -33 -70 -6 -14 -17 -41 -25 -60 -8 -19 -22 -61 -32 -92 -9
-32 -21 -60 -25 -63 -13 -8 -80 -137 -80 -155 0 -8 -12 -33 -25 -55 -14 -22
-25 -47 -25 -56 0 -9 -7 -22 -15 -29 -8 -7 -15 -19 -15 -27 0 -8 -9 -26 -20
-40 -11 -14 -20 -33 -20 -43 0 -9 -11 -34 -25 -54 -14 -20 -25 -45 -25 -56 0
-10 -13 -38 -29 -62 -16 -24 -32 -54 -36 -68 -4 -14 -20 -42 -34 -64 -33 -50
-88 -144 -101 -174 -6 -13 -21 -38 -35 -56 -14 -18 -25 -37 -25 -42 0 -6 -5
-15 -12 -22 -13 -13 -66 -103 -95 -162 -9 -19 -24 -43 -32 -53 -9 -11 -27 -38
-41 -62 -47 -80 -140 -212 -183 -259 -43 -47 -72 -86 -110 -145 -51 -80 -129
-181 -209 -267 -31 -34 -68 -80 -82 -102 -14 -22 -30 -43 -36 -47 -7 -4 -20
-21 -30 -37 -10 -16 -42 -55 -71 -86 -30 -31 -81 -90 -114 -130 -32 -39 -62
-72 -66 -72 -4 0 -22 -15 -40 -34 -40 -39 -290 -268 -340 -310 -19 -16 -60
-47 -91 -68 -32 -22 -60 -44 -63 -48 -10 -16 -148 -124 -201 -158 -28 -18 -60
-42 -70 -53 -10 -12 -50 -41 -88 -66 -38 -25 -92 -62 -120 -84 -55 -43 -158
-112 -223 -150 -22 -13 -88 -55 -146 -94 -58 -38 -129 -83 -158 -100 -28 -16
-71 -45 -95 -62 -24 -18 -48 -33 -53 -33 -5 0 -11 -6 -14 -13 -2 -6 -27 -20
-55 -30 -27 -10 -58 -27 -68 -38 -9 -10 -23 -19 -29 -19 -20 0 -107 -41 -152
-71 -23 -16 -45 -29 -48 -29 -4 0 -26 -13 -50 -29 -24 -16 -53 -32 -65 -36
-11 -4 -48 -24 -80 -46 -33 -21 -63 -39 -69 -39 -21 0 -139 -60 -175 -89 -21
-17 -47 -31 -56 -31 -9 0 -33 -11 -53 -24 -19 -13 -61 -32 -93 -41 -33 -9 -78
-25 -101 -36 -23 -10 -45 -19 -48 -19 -4 0 -21 -10 -37 -22 -17 -11 -47 -25
-67 -29 -36 -7 -179 -58 -281 -98 -30 -13 -80 -28 -110 -36 -30 -7 -86 -23
-125 -35 -38 -12 -97 -28 -130 -37 -33 -9 -64 -19 -70 -22 -5 -4 -30 -13 -55
-20 -25 -7 -58 -16 -75 -21 -16 -5 -47 -12 -68 -16 -20 -3 -40 -10 -43 -15 -3
-5 -18 -9 -34 -9 -17 0 -53 -9 -82 -20 -29 -11 -69 -20 -88 -20 -20 0 -41 -5
-48 -12 -6 -6 -30 -15 -54 -19 -44 -8 -140 -29 -258 -56 -36 -8 -112 -23 -170
-34 -58 -11 -125 -26 -149 -34 -25 -8 -52 -15 -62 -15 -9 0 -22 -6 -28 -14 -7
-8 -20 -12 -30 -9 -10 3 -56 -2 -102 -10 -46 -9 -106 -18 -134 -22 -27 -4 -69
-13 -92 -21 -42 -13 -71 -18 -208 -29 -38 -4 -98 -13 -132 -21 -34 -8 -90 -17
-125 -19 -35 -3 -90 -9 -123 -15 -33 -5 -100 -16 -150 -24 -49 -8 -101 -17
-115 -20 -23 -6 -203 -32 -277 -40 -17 -2 -53 -7 -80 -10 -60 -8 -102 -12
-283 -26 -79 -6 -149 -14 -154 -17 -13 -8 -330 -32 -431 -33 -62 0 -87 -5
-110 -20 -26 -17 -49 -19 -240 -20 -115 -1 -257 0 -315 1 -158 3 -471 -5 -660
-17 -47 -3 -107 -5 -135 -5 -298 1 -374 -1 -398 -11 -21 -8 -42 -8 -82 2 -42
10 -66 10 -113 1 -33 -6 -98 -12 -144 -12 -45 0 -103 -1 -128 -1 -25 -1 -126
4 -225 10 -183 11 -608 19 -1575 27 -294 3 -555 7 -580 10 -25 3 -97 7 -160 9
-64 3 -127 9 -140 14 -24 9 -164 22 -295 28 -33 1 -94 5 -135 9 -222 19 -327
27 -435 33 -66 4 -124 10 -130 14 -5 3 -75 13 -155 23 -80 9 -184 23 -232 31
-171 28 -264 42 -378 60 -63 9 -119 21 -125 25 -5 5 -24 9 -42 9 -18 0 -52 4
-75 10 -149 34 -186 41 -279 55 -57 9 -126 22 -154 30 -27 7 -111 26 -185 40
-194 38 -218 43 -290 61 -36 9 -90 22 -120 29 -30 8 -80 21 -110 30 -30 10
-85 23 -122 30 -37 7 -78 19 -90 27 -13 8 -47 18 -77 22 -30 4 -67 14 -84 22
-16 9 -55 22 -86 30 -31 8 -80 26 -108 39 -29 13 -53 22 -53 20 0 -3 -25 6
-55 20 -31 13 -79 28 -108 34 -29 5 -75 21 -102 34 -28 14 -66 28 -86 31 -21
4 -42 13 -48 20 -7 8 -24 17 -39 21 -25 6 -91 33 -222 93 -30 13 -72 30 -93
38 -21 7 -79 33 -130 57 -147 71 -205 97 -215 97 -5 0 -20 9 -34 19 -13 11
-38 23 -54 27 -28 6 -166 67 -229 100 -16 9 -41 22 -55 29 -14 7 -72 36 -130
64 -58 28 -136 68 -175 89 -38 20 -119 61 -180 90 -139 68 -338 184 -530 311
-115 76 -132 87 -161 100 -11 5 -27 15 -35 23 -8 7 -45 36 -84 63 -56 39 -357
274 -425 332 -8 7 -42 35 -75 63 -33 27 -91 79 -130 114 -38 35 -90 81 -115
101 -25 21 -52 48 -60 60 -8 12 -80 87 -160 166 -136 135 -161 163 -233 257
-16 20 -52 62 -81 92 -29 30 -65 73 -81 95 -16 22 -45 58 -66 80 -52 56 -156
187 -214 270 -27 39 -63 86 -79 105 -33 37 -150 207 -201 290 -89 145 -128
208 -145 230 -25 35 -152 254 -186 322 -16 32 -68 136 -117 232 -48 96 -87
178 -87 182 0 5 -11 31 -24 59 -66 135 -139 319 -201 500 -18 55 -49 145 -69
200 -19 55 -37 112 -39 125 -3 14 -12 42 -20 63 -9 20 -21 65 -27 100 -7 34
-25 109 -41 167 -42 156 -79 314 -79 342 0 13 -9 64 -20 114 -27 117 -70 400
-105 689 -32 265 -45 484 -48 760 -2 268 -1 284 17 304 20 22 20 22 -2 28 -21
5 -22 9 -17 97 2 50 7 145 10 211 3 66 12 181 21 255 8 74 23 214 34 310 11
96 24 207 29 245 5 39 15 115 21 170 6 55 15 109 20 120 5 11 11 34 14 50 12
70 26 156 42 250 9 55 20 107 25 116 4 8 10 33 13 55 2 21 9 52 15 67 6 16 11
39 11 53 0 14 6 35 14 47 7 12 22 63 31 112 10 50 22 98 28 109 5 10 10 28 12
40 2 11 12 45 24 74 11 30 25 77 31 106 6 28 18 65 27 81 9 17 19 50 24 75 10
61 21 99 81 275 11 33 26 80 33 105 12 38 41 122 105 300 7 19 21 53 31 75 18
41 44 110 75 200 9 28 20 57 23 65 2 8 5 20 6 25 0 6 15 34 33 63 17 29 32 63
32 76 0 13 7 29 15 36 8 7 15 16 15 21 0 5 11 32 25 60 13 28 31 75 40 104 8
30 19 57 24 60 13 7 61 110 61 128 0 8 9 22 20 32 11 10 20 23 20 29 0 6 11
28 25 48 14 20 25 41 25 46 0 6 17 39 38 73 21 35 44 79 50 97 6 18 21 47 33
63 20 28 88 159 204 391 24 47 48 89 54 93 6 3 11 14 11 23 0 10 16 41 35 71
19 29 35 59 35 66 0 8 4 16 9 20 6 3 16 18 24 33 8 15 24 45 35 67 12 22 35
69 51 105 16 36 36 71 44 78 8 7 18 29 22 48 3 20 16 52 27 72 19 33 51 113
80 197 5 17 16 44 24 62 8 17 14 39 14 48 0 10 8 34 19 54 10 20 24 56 31 81
7 25 23 77 36 115 22 66 53 235 74 400 22 172 27 312 20 515 -6 178 -12 233
-33 320 -28 115 -79 283 -101 333 -28 65 -39 98 -32 104 3 3 -5 25 -19 49 -14
23 -25 52 -25 64 0 12 -13 34 -29 49 -17 16 -33 41 -37 57 -4 16 -18 43 -31
60 -32 42 -31 93 3 133 30 36 37 37 87 11 20 -11 46 -20 58 -20 11 0 33 -13
47 -30 15 -17 32 -30 39 -30 6 0 16 -8 22 -17 9 -17 10 -17 29 0 17 16 25 16
98 3 43 -8 131 -18 194 -23 136 -9 472 -10 550 -1 133 16 168 21 220 34 30 8
70 14 89 14 45 0 234 45 341 81 47 16 92 29 99 29 22 0 278 128 351 175 36 23
88 55 115 71 28 16 73 46 100 67 28 21 73 56 100 77 72 55 415 415 415 436 0
4 27 38 60 75 33 37 60 71 60 77 0 5 9 17 20 27 12 11 28 35 37 54 9 20 31 54
48 76 17 22 46 69 64 105 34 68 41 82 77 140 11 19 24 51 28 71 3 21 13 42 21
49 7 6 23 39 35 73 11 34 34 80 50 102 16 22 36 56 45 75 54 116 65 142 65
155 0 13 61 208 140 445 12 36 27 92 35 125 24 107 73 289 89 334 9 24 16 55
16 70 0 14 9 60 20 101 11 41 25 102 31 135 6 33 15 78 19 100 23 106 41 207
50 290 10 87 17 134 40 260 5 33 15 94 21 135 6 41 12 86 14 100 2 14 9 48 14
75 14 71 32 261 36 395 2 63 6 122 10 130 10 28 20 579 14 755 -11 285 -38
506 -84 695 -8 30 -17 78 -20 105 -4 28 -20 91 -36 140 -16 50 -29 97 -29 105
-1 8 -9 33 -20 55 -11 22 -19 44 -20 49 0 5 -9 27 -19 50 -10 23 -26 61 -36
86 -9 25 -29 72 -45 105 -53 113 -80 174 -80 183 0 5 -9 17 -20 27 -10 9 -24
34 -31 54 -6 20 -27 61 -45 92 -19 31 -34 61 -34 66 0 5 -14 22 -31 39 -16 16
-38 47 -48 70 -34 76 -175 257 -296 380 -121 123 -258 244 -277 244 -5 0 -30
18 -55 40 -25 21 -66 49 -91 61 -26 12 -56 30 -67 39 -67 56 -289 167 -370
185 -16 4 -41 10 -55 15 -122 40 -250 68 -350 75 -30 3 -71 9 -90 15 -19 5
-63 10 -97 10 -34 0 -64 4 -67 9 -3 4 -20 11 -38 14 -43 7 -128 55 -128 72 0
9 -16 15 -47 17 -40 3 -48 6 -48 23 0 13 8 21 23 23 17 3 21 8 17 21 -3 10 1
24 10 31 14 12 13 15 -5 32 -11 10 -20 27 -20 37 0 19 22 81 40 113 20 35 93
268 87 275 -3 2 -1 21 4 41 33 135 54 321 58 512 2 88 6 119 18 132 15 16 15
20 0 36 -12 13 -17 37 -17 83 0 69 -23 260 -39 319 -5 19 -17 80 -26 135 -9
55 -21 118 -26 140 -6 22 -16 65 -24 95 -7 30 -18 71 -25 90 -6 19 -22 76 -34
125 -24 92 -51 167 -87 242 -11 23 -18 47 -15 52 3 5 -1 22 -9 37 -8 16 -15
35 -15 42 0 7 -7 27 -17 45 -9 18 -20 46 -24 62 -13 53 -28 91 -82 215 -13 30
-28 68 -31 85 -4 16 -16 50 -27 75 -11 25 -24 54 -28 65 -17 41 -50 151 -57
190 -4 22 -18 59 -30 83 -13 24 -26 60 -29 80 -4 21 -12 53 -20 72 -7 19 -21
62 -30 95 -9 33 -23 76 -30 97 -8 20 -23 83 -35 140 -11 56 -27 124 -36 150
-8 26 -16 57 -16 70 -1 13 -12 65 -25 117 -12 52 -25 118 -29 145 -8 70 -22
146 -44 241 -10 44 -19 108 -19 143 0 35 -4 68 -7 74 -21 34 -47 260 -59 517
-4 68 -8 138 -11 155 -7 53 -4 418 5 486 5 36 5 106 1 155 -4 50 -4 117 1 150
7 51 36 407 44 540 1 22 7 65 14 95 6 30 16 96 22 145 6 50 17 133 24 185 7
52 20 145 28 205 8 61 22 128 31 150 9 21 19 62 21 90 3 27 14 84 26 125 11
41 24 94 28 117 4 23 13 48 19 55 6 8 16 43 21 78 6 36 27 110 47 165 20 55
43 123 51 150 8 28 23 67 34 88 10 22 19 44 19 51 0 7 9 31 20 54 11 22 20 45
20 50 0 4 11 23 25 42 14 19 25 44 25 56 0 12 15 44 33 70 17 27 47 79 65 115
17 37 39 72 47 79 8 7 15 19 15 27 0 9 14 31 30 50 17 18 30 42 30 53 0 10 5
22 11 26 6 3 19 25 30 48 19 41 64 109 113 175 14 19 26 40 26 46 0 7 9 20 20
30 11 10 20 24 20 31 0 7 24 44 52 83 29 38 69 95 88 127 19 31 50 73 69 93
18 20 41 47 49 61 20 31 94 120 189 226 40 45 73 85 73 90 0 4 25 33 54 63
227 232 381 383 429 421 31 25 87 71 124 103 182 155 443 347 472 347 5 0 35
24 68 53 87 75 132 109 183 136 25 13 62 39 83 57 20 19 41 34 46 34 4 0 20
12 34 26 14 14 33 27 41 28 9 1 26 11 38 22 46 40 144 94 173 94 7 0 19 10 28
23 8 12 37 33 63 47 48 24 104 59 114 71 7 8 89 56 120 70 14 6 33 15 42 20
10 5 25 9 33 9 9 0 18 7 21 15 4 8 15 15 26 15 11 0 22 8 25 20 3 11 13 20 23
20 9 0 28 8 41 18 38 27 67 42 84 42 8 0 20 9 27 20 7 11 20 20 28 20 8 0 28
7 44 15 15 8 36 15 45 16 30 1 76 35 76 56 0 12 3 25 8 29 4 4 7 -3 7 -15 0
-31 19 -26 163 43 61 29 130 59 152 66 22 7 49 19 60 26 11 8 31 14 45 14 14
0 33 7 43 15 11 7 25 11 31 9 7 -3 19 2 26 11 7 8 22 15 34 15 11 0 48 12 81
26 33 14 78 32 100 39 22 7 56 20 75 28 19 9 48 18 63 22 16 3 39 17 53 30 13
13 26 20 29 16 2 -5 28 0 57 10 29 10 67 18 83 19 17 0 39 6 50 14 11 7 36 16
56 20 20 3 54 15 76 26 22 10 63 22 92 26 33 4 56 13 65 25 9 13 29 20 72 23
66 6 106 14 244 50 56 15 123 26 163 26 46 0 80 6 105 19 20 10 69 21 107 24
39 4 86 11 105 17 19 5 49 10 66 10 17 0 34 3 37 7 4 3 17 8 30 9 94 13 158
24 192 34 22 7 56 14 75 16 19 2 53 6 75 9 22 3 80 10 129 15 49 6 114 17 145
25 57 14 214 34 306 39 28 2 50 4 50 6 0 1 20 4 44 6 24 2 49 9 56 14 7 6 80
15 162 21 81 5 155 12 163 14 26 8 191 24 305 30 61 3 121 9 135 12 28 7 29 7
165 22 113 13 202 19 356 26 59 2 119 9 134 15 72 27 394 54 490 41 55 -8 63
-12 105 -58 42 -47 47 -49 73 -38 15 6 46 30 70 53 l42 41 125 14 c116 12 296
13 329 1z"/>
</g>
</svg>
