<?xml version="1.0" ?>
<svg baseProfile="full" height="600px" version="1.1" viewBox="-148.15682669 -425.432250397 292.313976051 464.431092758" width="378px" xmlns="http://www.w3.org/2000/svg" xmlns:ev="http://www.w3.org/2001/xml-events" xmlns:xlink="http://www.w3.org/1999/xlink">
	<defs/>
	<path d="M -3.0636243945,-386.417476523 C -2.9936243945,-386.337476523 -2.9036243945,-386.287476523 -2.8636243945,-386.317476523 C -2.8136243945,-386.347476523 -2.7536243945,-386.277476523 -2.7136243945,-386.167476523 C -2.6836243945,-386.057476523 -2.5436243945,-385.887476523 -2.4136243945,-385.787476523 C -2.2036243945,-385.617476523 -2.1036243945,-385.607476523 -1.5936243945,-385.697476523 M -1.5936243945,-385.697476523 C -1.2736243945,-385.747476523 -0.923624394503,-385.877476523 -0.803624394503,-385.977476523 M -0.803624394503,-385.977476523 C -0.633624394503,-386.137476523 -0.423624394503,-386.167476523 0.446375605497,-386.187476523 C 1.7663756055,-386.207476523 3.0563756055,-386.117476523 3.6363756055,-385.967476523 M 3.6363756055,-385.967476523 C 4.9463756055,-385.627476523 7.3963756055,-385.287476523 8.6863756055,-385.267476523 M 8.6863756055,-385.267476523 C 9.6263756055,-385.247476523 11.5463756055,-385.037476523 11.7163756055,-384.927476523 M 11.7163756055,-384.927476523 C 11.7763756055,-384.897476523 12.5963756055,-384.817476523 13.5563756055,-384.767476523 C 14.5063756055,-384.717476523 15.6263756055,-384.627476523 16.0363756055,-384.567476523 C 16.4463756055,-384.517476523 17.0763756055,-384.447476523 17.4363756055,-384.417476523 C 17.7963756055,-384.387476523 18.3763756055,-384.337476523 18.7363756055,-384.317476523 C 19.0963756055,-384.287476523 19.5663756055,-384.207476523 19.7863756055,-384.147476523 C 20.0063756055,-384.097476523 20.5263756055,-384.007476523 20.9363756055,-383.967476523 M 20.9363756055,-383.967476523 C 21.3463756055,-383.917476523 22.1563756055,-383.817476523 22.7363756055,-383.727476523 C 23.3163756055,-383.647476523 24.3263756055,-383.527476523 24.9863756055,-383.467476523 C 26.1663756055,-383.357476523 26.7563756055,-383.277476523 27.8363756055,-383.067476523 M 27.8363756055,-383.067476523 C 28.1363756055,-383.007476523 28.7263756055,-382.917476523 29.1363756055,-382.857476523 M 29.1363756055,-382.857476523 C 29.5463756055,-382.807476523 30.1763756055,-382.677476523 30.5363756055,-382.567476523 C 30.8963756055,-382.467476523 31.7763756055,-382.327476523 32.4963756055,-382.277476523 C 33.5163756055,-382.197476523 34.0463756055,-382.097476523 34.9263756055,-381.817476523 C 35.7263756055,-381.567476523 36.2363756055,-381.467476523 36.6963756055,-381.467476523 C 37.0663756055,-381.467476523 37.4963756055,-381.397476523 37.7163756055,-381.307476523 M 37.7163756055,-381.307476523 C 37.9163756055,-381.217476523 38.3963756055,-381.067476523 38.7863756055,-380.967476523 M 38.7863756055,-380.967476523 C 39.1663756055,-380.867476523 39.6663756055,-380.697476523 39.8863756055,-380.587476523 C 40.1063756055,-380.477476523 40.4263756055,-380.357476523 40.6063756055,-380.317476523 C 40.7863756055,-380.287476523 41.1063756055,-380.167476523 41.3163756055,-380.067476523 C 41.5363756055,-379.957476523 41.9063756055,-379.847476523 42.1463756055,-379.807476523 M 42.1463756055,-379.807476523 C 42.3863756055,-379.767476523 42.6563756055,-379.707476523 42.7463756055,-379.657476523 M 42.7463756055,-379.657476523 C 42.8363756055,-379.617476523 43.2163756055,-379.527476523 43.5963756055,-379.467476523 M 43.5963756055,-379.467476523 C 44.2063756055,-379.367476523 44.7663756055,-379.207476523 45.7863756055,-378.847476523 M 45.7863756055,-378.847476523 C 45.9463756055,-378.787476523 46.3963756055,-378.637476523 46.7863756055,-378.497476523 C 47.1663756055,-378.367476523 47.6863756055,-378.127476523 47.9363756055,-377.967476523 M 47.9363756055,-377.967476523 C 48.1863756055,-377.817476523 48.7263756055,-377.597476523 49.1363756055,-377.477476523 M 49.1363756055,-377.477476523 C 50.9563756055,-376.947476523 51.3163756055,-376.827476523 51.7363756055,-376.617476523 C 51.9863756055,-376.487476523 52.5463756055,-376.237476523 52.9863756055,-376.057476523 C 53.4263756055,-375.877476523 53.9563756055,-375.617476523 54.1663756055,-375.487476523 C 54.3863756055,-375.357476523 54.7563756055,-375.147476523 54.9963756055,-375.007476523 C 55.2363756055,-374.877476523 55.6363756055,-374.657476523 55.8763756055,-374.527476523 C 56.1263756055,-374.387476523 56.5463756055,-374.217476523 56.8163756055,-374.137476523 C 57.0863756055,-374.047476523 57.4463756055,-373.917476523 57.6163756055,-373.827476523 M 57.6163756055,-373.827476523 C 57.7863756055,-373.737476523 58.0063756055,-373.667476523 58.0963756055,-373.667476523 M 58.0963756055,-373.667476523 C 58.1863756055,-373.667476523 58.4163756055,-373.557476523 58.5963756055,-373.417476523 C 58.7763756055,-373.277476523 58.9763756055,-373.167476523 59.0463756055,-373.167476523 C 59.1063756055,-373.167476523 59.5063756055,-372.857476523 59.9263756055,-372.477476523 M 59.9263756055,-372.477476523 C 60.3463756055,-372.107476523 60.8563756055,-371.747476523 61.0563756055,-371.677476523 C 61.2563756055,-371.607476523 61.4763756055,-371.487476523 61.5363756055,-371.407476523 M 61.5363756055,-371.407476523 C 61.6063756055,-371.337476523 61.7163756055,-371.267476523 61.7763756055,-371.267476523 M 61.7763756055,-371.267476523 C 61.8363756055,-371.267476523 62.0663756055,-371.127476523 62.2763756055,-370.967476523 C 62.4963756055,-370.797476523 62.7463756055,-370.667476523 62.8263756055,-370.667476523 M 62.8263756055,-370.667476523 C 62.9163756055,-370.667476523 63.0363756055,-370.567476523 63.0863756055,-370.447476523 M 63.0863756055,-370.447476523 C 63.1463756055,-370.317476523 63.4363756055,-370.077476523 63.7363756055,-369.897476523 C 64.0363756055,-369.717476523 64.5563756055,-369.377476523 64.8763756055,-369.147476523 C 65.2063756055,-368.907476523 65.5863756055,-368.667476523 65.7263756055,-368.607476523 M 65.7263756055,-368.607476523 C 65.8663756055,-368.547476523 66.1163756055,-368.377476523 66.2663756055,-368.227476523 C 66.4163756055,-368.087476523 66.5963756055,-367.967476523 66.6663756055,-367.967476523 M 66.6663756055,-367.967476523 C 66.7363756055,-367.967476523 67.0563756055,-367.767476523 67.3863756055,-367.517476523 C 67.7163756055,-367.267476523 68.0363756055,-367.067476523 68.1063756055,-367.067476523 C 68.1763756055,-367.067476523 68.2763756055,-366.977476523 68.3363756055,-366.867476523 M 68.3363756055,-366.867476523 C 68.3963756055,-366.757476523 68.5063756055,-366.667476523 68.5763756055,-366.667476523 M 68.5763756055,-366.667476523 C 68.6463756055,-366.667476523 68.7863756055,-366.567476523 68.8963756055,-366.457476523 M 68.8963756055,-366.457476523 C 68.9963756055,-366.337476523 69.2463756055,-366.137476523 69.4363756055,-366.017476523 C 69.6263756055,-365.887476523 69.9363756055,-365.647476523 70.1063756055,-365.487476523 C 70.2863756055,-365.317476523 70.5263756055,-365.157476523 70.6363756055,-365.117476523 C 70.7463756055,-365.087476523 70.8363756055,-365.017476523 70.8363756055,-364.967476523 M 70.8363756055,-364.967476523 C 70.8363756055,-364.927476523 71.0963756055,-364.737476523 71.4063756055,-364.567476523 M 71.4063756055,-364.567476523 C 71.7263756055,-364.387476523 72.1963756055,-364.057476523 72.4463756055,-363.827476523 C 72.7063756055,-363.607476523 73.0663756055,-363.297476523 73.2463756055,-363.147476523 C 73.4363756055,-362.987476523 73.8063756055,-362.687476523 74.0863756055,-362.467476523 M 74.0863756055,-362.467476523 C 74.3563756055,-362.237476523 75.3463756055,-361.327476523 76.2663756055,-360.437476523 C 77.1963756055,-359.547476523 78.0663756055,-358.747476523 78.1963756055,-358.667476523 C 78.3263756055,-358.587476523 78.4363756055,-358.477476523 78.4363756055,-358.417476523 C 78.4363756055,-358.357476523 78.7163756055,-358.007476523 79.0563756055,-357.647476523 M 79.0563756055,-357.647476523 C 80.1263756055,-356.507476523 80.8463756055,-355.687476523 81.5263756055,-354.827476523 C 81.8863756055,-354.367476523 82.5263756055,-353.577476523 82.9463756055,-353.057476523 C 83.3663756055,-352.537476523 83.8263756055,-351.917476523 83.9863756055,-351.667476523 M 83.9863756055,-351.667476523 C 84.1363756055,-351.417476523 84.3463756055,-351.127476523 84.4463756055,-351.017476523 M 84.4463756055,-351.017476523 C 84.5463756055,-350.907476523 84.6863756055,-350.707476523 84.7563756055,-350.567476523 M 84.7563756055,-350.567476523 C 84.8263756055,-350.427476523 85.1463756055,-349.927476523 85.4663756055,-349.447476523 M 85.4663756055,-349.447476523 C 85.7763756055,-348.967476523 86.0363756055,-348.537476523 86.0363756055,-348.507476523 C 86.0363756055,-348.467476523 86.1463756055,-348.287476523 86.2763756055,-348.117476523 M 86.2763756055,-348.117476523 C 86.4163756055,-347.937476523 86.6663756055,-347.507476523 86.8463756055,-347.157476523 C 87.0263756055,-346.807476523 87.3063756055,-346.307476523 87.4763756055,-346.057476523 C 87.8063756055,-345.567476523 88.0363756055,-345.187476523 88.4263756055,-344.527476523 M 88.4263756055,-344.527476523 C 88.6663756055,-344.117476523 89.5763756055,-342.287476523 89.7363756055,-341.917476523 M 89.7363756055,-341.917476523 C 89.7763756055,-341.807476523 89.9063756055,-341.517476523 90.0263756055,-341.267476523 M 90.0263756055,-341.267476523 C 90.1363756055,-341.017476523 90.3663756055,-340.417476523 90.5263756055,-339.917476523 M 90.5263756055,-339.917476523 C 90.6963756055,-339.427476523 90.9663756055,-338.757476523 91.1363756055,-338.437476523 C 91.2963756055,-338.117476523 91.5063756055,-337.527476523 91.5863756055,-337.137476523 M 91.5863756055,-337.137476523 C 91.6663756055,-336.737476523 91.8263756055,-336.167476523 91.9363756055,-335.867476523 M 91.9363756055,-335.867476523 C 92.0563756055,-335.567476523 92.2263756055,-334.957476523 92.3363756055,-334.517476523 M 92.3363756055,-334.517476523 C 92.4363756055,-334.077476523 92.6363756055,-333.337476523 92.7763756055,-332.867476523 M 92.7763756055,-332.867476523 C 92.9163756055,-332.397476523 93.0363756055,-331.897476523 93.0363756055,-331.737476523 M 93.0363756055,-331.737476523 C 93.0363756055,-331.587476523 93.0963756055,-331.207476523 93.1763756055,-330.887476523 C 93.2563756055,-330.577476523 93.3763756055,-329.917476523 93.4463756055,-329.417476523 M 93.4463756055,-329.417476523 C 93.5863756055,-328.337476523 93.8063756055,-326.907476523 93.8863756055,-326.567476523 M 93.8863756055,-326.567476523 C 94.0363756055,-325.937476523 94.2563756055,-324.317476523 94.3363756055,-323.317476523 C 94.3863756055,-322.717476523 94.4463756055,-321.967476523 94.4763756055,-321.667476523 M 94.4763756055,-321.667476523 C 94.5063756055,-321.367476523 94.5563756055,-320.667476523 94.5863756055,-320.127476523 M 94.5863756055,-320.127476523 C 94.6163756055,-319.577476523 94.6563756055,-319.107476523 94.6763756055,-319.077476523 M 94.6763756055,-319.077476523 C 94.7363756055,-318.987476523 94.8663756055,-312.077476523 94.8363756055,-310.717476523 M 94.8363756055,-310.717476523 C 94.8063756055,-308.927476523 94.6863756055,-307.247476523 94.3963756055,-304.527476523 M 94.3963756055,-304.527476523 C 94.3563756055,-304.207476523 94.3163756055,-303.907476523 94.2963756055,-303.877476523 M 94.2963756055,-303.877476523 C 94.1963756055,-303.727476523 93.9363756055,-302.237476523 93.8863756055,-301.567476523 C 93.8563756055,-301.157476523 93.7863756055,-300.777476523 93.7363756055,-300.727476523 C 93.6763756055,-300.667476523 93.6363756055,-300.407476523 93.6363756055,-300.137476523 C 93.6363756055,-299.527476523 93.2763756055,-297.627476523 93.0763756055,-297.197476523 C 92.9963756055,-297.017476523 92.9363756055,-296.807476523 92.9463756055,-296.747476523 M 92.9463756055,-296.747476523 C 92.9763756055,-296.557476523 92.8363756055,-295.857476523 92.7163756055,-295.567476523 C 92.6563756055,-295.427476523 92.5963756055,-295.247476523 92.5863756055,-295.167476523 M 92.5863756055,-295.167476523 C 92.4863756055,-294.337476523 92.2763756055,-293.357476523 92.0363756055,-292.617476523 C 91.8763756055,-292.127476523 91.7163756055,-291.537476523 91.6763756055,-291.317476523 C 91.6363756055,-291.097476523 91.5863756055,-290.847476523 91.5763756055,-290.767476523 M 91.5763756055,-290.767476523 C 91.5563756055,-290.687476523 91.4263756055,-290.327476523 91.2863756055,-289.977476523 C 91.1463756055,-289.617476523 91.0363756055,-289.277476523 91.0363756055,-289.207476523 C 91.0363756055,-289.147476523 90.9063756055,-288.757476523 90.7463756055,-288.357476523 M 90.7463756055,-288.357476523 C 90.5963756055,-287.947476523 90.2663756055,-287.007476523 90.0363756055,-286.267476523 M 90.0363756055,-286.267476523 C 89.7963756055,-285.527476523 89.4863756055,-284.667476523 89.3463756055,-284.367476523 M 89.3463756055,-284.367476523 C 89.2063756055,-284.067476523 89.0963756055,-283.767476523 89.1163756055,-283.697476523 M 89.1163756055,-283.697476523 C 89.1263756055,-283.627476523 89.0363756055,-283.357476523 88.8963756055,-283.087476523 C 88.7563756055,-282.817476523 88.5563756055,-282.307476523 88.4363756055,-281.957476523 C 88.3263756055,-281.607476523 88.1863756055,-281.227476523 88.1363756055,-281.117476523 M 88.1363756055,-281.117476523 C 87.9863756055,-280.767476523 87.6263756055,-279.737476523 87.4363756055,-279.117476523 C 87.3363756055,-278.787476523 87.0963756055,-278.087476523 86.8963756055,-277.557476523 C 86.6963756055,-277.027476523 86.5363756055,-276.507476523 86.5363756055,-276.407476523 C 86.5363756055,-276.297476523 86.4663756055,-275.997476523 86.3863756055,-275.717476523 M 86.3863756055,-275.717476523 C 86.2963756055,-275.447476523 86.2063756055,-275.067476523 86.1763756055,-274.877476523 M 86.1763756055,-274.877476523 C 86.1463756055,-274.697476523 86.0363756055,-274.267476523 85.9263756055,-273.937476523 C 85.7463756055,-273.377476523 85.5763756055,-272.507476523 85.1663756055,-270.067476523 M 85.1663756055,-270.067476523 C 85.0363756055,-269.337476523 84.9963756055,-268.417476523 84.9963756055,-266.167476523 C 84.9963756055,-263.157476523 85.0463756055,-262.627476523 85.4963756055,-260.267476523 C 85.5763756055,-259.857476523 85.6663756055,-259.387476523 85.6963756055,-259.217476523 C 85.7263756055,-259.057476523 85.7863756055,-258.827476523 85.8363756055,-258.717476523 M 85.8363756055,-258.717476523 C 85.8763756055,-258.607476523 86.0163756055,-258.207476523 86.1363756055,-257.817476523 M 86.1363756055,-257.817476523 C 86.3363756055,-257.177476523 86.6863756055,-256.387476523 87.1063756055,-255.617476523 C 87.3763756055,-255.137476523 87.4563756055,-254.367476523 87.2763756055,-254.097476523 M 87.2763756055,-254.097476523 C 87.1963756055,-253.967476523 87.1563756055,-253.807476523 87.1963756055,-253.747476523 C 87.2463756055,-253.667476523 87.2163756055,-253.657476523 87.0963756055,-253.697476523 M 87.0963756055,-253.697476523 C 86.9063756055,-253.777476523 85.7463756055,-253.227476523 85.6963756055,-253.037476523 M 85.6963756055,-253.037476523 C 85.5463756055,-252.547476523 85.5563756055,-252.547476523 85.3163756055,-252.707476523 M 85.3163756055,-252.707476523 C 85.1163756055,-252.837476523 85.0563756055,-252.837476523 84.8963756055,-252.707476523 C 84.7863756055,-252.627476523 84.5363756055,-252.567476523 84.3463756055,-252.567476523 C 84.1463756055,-252.567476523 83.6363756055,-252.497476523 83.2163756055,-252.417476523 C 82.7963756055,-252.337476523 82.0063756055,-252.247476523 81.4663756055,-252.217476523 C 80.9363756055,-252.187476523 80.4463756055,-252.117476523 80.3963756055,-252.067476523 M 80.3963756055,-252.067476523 C 80.3363756055,-252.007476523 80.1363756055,-251.967476523 79.9463756055,-251.967476523 M 79.9463756055,-251.967476523 C 79.6163756055,-251.967476523 78.6963756055,-251.737476523 78.2863756055,-251.547476523 M 78.2863756055,-251.547476523 C 78.1763756055,-251.497476523 77.9763756055,-251.447476523 77.8363756055,-251.427476523 C 77.6963756055,-251.417476523 77.4763756055,-251.327476523 77.3363756055,-251.237476523 C 77.1963756055,-251.147476523 76.7263756055,-250.967476523 76.2763756055,-250.827476523 M 76.2763756055,-250.827476523 C 75.8363756055,-250.687476523 75.3163756055,-250.457476523 75.1263756055,-250.317476523 C 74.9363756055,-250.187476523 74.6963756055,-250.027476523 74.5863756055,-249.977476523 C 74.4763756055,-249.927476523 74.2963756055,-249.797476523 74.1963756055,-249.677476523 M 74.1963756055,-249.677476523 C 74.0863756055,-249.567476523 73.9463756055,-249.467476523 73.8863756055,-249.467476523 M 73.8863756055,-249.467476523 C 73.8163756055,-249.467476523 73.2963756055,-249.147476523 72.7263756055,-248.757476523 M 72.7263756055,-248.757476523 C 72.1563756055,-248.377476523 71.4563756055,-247.907476523 71.1863756055,-247.727476523 M 71.1863756055,-247.727476523 C 70.5763756055,-247.317476523 68.4363756055,-245.227476523 67.9763756055,-244.587476523 M 67.9763756055,-244.587476523 C 67.7863756055,-244.327476523 67.4463756055,-243.847476523 67.2163756055,-243.517476523 M 67.2163756055,-243.517476523 C 66.9863756055,-243.187476523 66.7763756055,-242.897476523 66.7363756055,-242.867476523 C 66.6463756055,-242.797476523 66.0163756055,-241.787476523 65.8363756055,-241.417476523 C 65.7563756055,-241.257476523 65.5963756055,-240.987476523 65.4763756055,-240.817476523 C 65.3663756055,-240.657476523 65.0163756055,-240.047476523 64.7163756055,-239.467476523 M 64.7163756055,-239.467476523 C 64.4063756055,-238.887476523 64.0863756055,-238.287476523 63.9963756055,-238.117476523 M 63.9963756055,-238.117476523 C 63.6463756055,-237.467476523 62.9363756055,-235.867476523 62.9363756055,-235.717476523 M 62.9363756055,-235.717476523 C 62.9363756055,-235.557476523 62.6163756055,-234.687476523 62.4163756055,-234.317476523 C 62.2463756055,-234.017476523 61.8363756055,-232.767476523 61.7263756055,-232.267476523 M 61.7263756055,-232.267476523 C 61.6763756055,-232.017476523 61.5463756055,-231.597476523 61.4463756055,-231.317476523 C 61.3363756055,-231.047476523 61.2063756055,-230.527476523 61.1363756055,-230.167476523 C 61.0763756055,-229.807476523 60.9863756055,-229.337476523 60.9363756055,-229.117476523 M 60.9363756055,-229.117476523 C 60.8863756055,-228.897476523 60.8163756055,-228.377476523 60.7863756055,-227.967476523 M 60.7863756055,-227.967476523 C 60.7563756055,-227.557476523 60.6863756055,-226.817476523 60.6263756055,-226.317476523 M 60.6263756055,-226.317476523 C 60.5763756055,-225.827476523 60.5063756055,-225.167476523 60.4863756055,-224.867476523 M 60.4863756055,-224.867476523 C 60.4563756055,-224.567476523 60.4163756055,-224.147476523 60.3863756055,-223.947476523 C 60.3563756055,-223.747476523 60.3063756055,-222.707476523 60.2763756055,-221.657476523 C 60.2163756055,-219.917476523 60.2363756055,-219.717476523 60.3863756055,-219.607476523 C 60.5263756055,-219.497476523 60.5363756055,-219.427476523 60.4463756055,-219.147476523 C 60.3163756055,-218.727476523 60.3063756055,-217.447476523 60.4363756055,-215.917476523 C 60.4963756055,-215.257476523 60.5863756055,-214.197476523 60.6363756055,-213.567476523 M 60.6363756055,-213.567476523 C 60.7863756055,-211.677476523 61.0963756055,-209.247476523 61.3963756055,-207.517476523 M 61.3963756055,-207.517476523 C 61.4763756055,-207.027476523 61.5863756055,-206.397476523 61.6363756055,-206.117476523 M 61.6363756055,-206.117476523 C 61.6763756055,-205.847476523 61.7663756055,-205.497476523 61.8263756055,-205.347476523 M 61.8263756055,-205.347476523 C 61.8763756055,-205.197476523 61.9763756055,-204.677476523 62.0363756055,-204.197476523 C 62.1063756055,-203.717476523 62.3063756055,-202.557476523 62.5063756055,-201.617476523 C 62.6963756055,-200.687476523 62.9063756055,-199.647476523 62.9663756055,-199.317476523 M 62.9663756055,-199.317476523 C 63.0663756055,-198.827476523 63.1263756055,-198.717476523 63.2863756055,-198.717476523 C 63.4263756055,-198.717476523 63.4763756055,-198.657476523 63.4563756055,-198.517476523 M 63.4563756055,-198.517476523 C 63.3363756055,-197.717476523 63.3463756055,-197.307476523 63.4963756055,-196.797476523 C 63.5863756055,-196.477476523 63.6963756055,-195.967476523 63.7563756055,-195.667476523 M 63.7563756055,-195.667476523 C 63.8763756055,-194.967476523 64.0163756055,-194.457476523 64.2563756055,-193.767476523 C 64.3663756055,-193.467476523 64.5363756055,-192.927476523 64.6363756055,-192.567476523 M 64.6363756055,-192.567476523 C 64.7263756055,-192.207476523 65.1263756055,-190.987476523 65.5263756055,-189.847476523 C 66.2163756055,-187.807476523 66.6563756055,-186.767476523 66.8163756055,-186.767476523 M 66.8163756055,-186.767476523 C 66.9263756055,-186.767476523 67.0463756055,-186.517476523 67.4863756055,-185.367476523 C 67.9263756055,-184.227476523 69.0363756055,-182.097476523 69.4763756055,-181.547476523 C 69.5863756055,-181.407476523 69.9763756055,-180.867476523 70.3363756055,-180.347476523 C 72.5663756055,-177.107476523 75.4963756055,-174.057476523 77.3963756055,-172.957476523 M 77.3963756055,-172.957476523 C 77.8963756055,-172.667476523 79.1963756055,-171.897476523 79.5363756055,-171.677476523 C 80.0463756055,-171.357476523 81.9263756055,-170.477476523 82.3963756055,-170.327476523 C 82.6663756055,-170.247476523 83.2563756055,-170.067476523 83.7163756055,-169.927476523 M 83.7163756055,-169.927476523 C 84.1763756055,-169.787476523 84.6363756055,-169.667476523 84.7363756055,-169.667476523 C 84.8363756055,-169.667476523 84.9463756055,-169.627476523 84.9763756055,-169.577476523 C 85.0063756055,-169.527476523 85.2063756055,-169.457476523 85.4063756055,-169.427476523 C 85.6163756055,-169.397476523 85.8763756055,-169.347476523 85.9863756055,-169.327476523 C 86.0963756055,-169.297476523 86.4963756055,-169.237476523 86.8863756055,-169.177476523 C 87.2663756055,-169.127476523 87.8563756055,-169.027476523 88.1863756055,-168.977476523 C 90.0563756055,-168.647476523 92.3563756055,-168.547476523 94.9863756055,-168.707476523 C 97.0163756055,-168.817476523 97.7663756055,-168.937476523 97.9363756055,-169.167476523 C 98.0363756055,-169.287476523 98.1363756055,-169.337476523 98.2163756055,-169.277476523 M 98.2163756055,-169.277476523 C 98.3463756055,-169.197476523 99.0463756055,-169.367476523 100.186375605,-169.757476523 M 100.186375605,-169.757476523 C 100.516375605,-169.867476523 100.856375605,-169.967476523 100.946375605,-169.967476523 C 101.226375605,-169.967476523 101.966375605,-168.677476523 101.826375605,-168.447476523 C 101.776375605,-168.377476523 101.686375605,-168.067476523 101.626375605,-167.777476523 M 101.626375605,-167.777476523 C 101.566375605,-167.477476523 101.396375605,-167.067476523 101.246375605,-166.877476523 M 101.246375605,-166.877476523 C 100.876375605,-166.387476523 100.126375605,-164.667476523 99.6763756055,-163.267476523 M 99.6763756055,-163.267476523 C 99.4763756055,-162.637476523 99.2763756055,-162.027476523 99.2263756055,-161.917476523 C 99.1463756055,-161.707476523 99.0163756055,-161.107476523 98.8463756055,-160.117476523 C 98.6663756055,-159.057476523 98.5063756055,-156.647476523 98.5663756055,-155.717476523 M 98.5663756055,-155.717476523 C 98.7163756055,-153.317476523 98.9663756055,-151.177476523 99.1863756055,-150.467476523 C 99.2163756055,-150.387476523 99.2763756055,-150.047476523 99.3263756055,-149.717476523 C 99.3663756055,-149.387476523 99.5663756055,-148.577476523 99.7663756055,-147.917476523 C 100.196375605,-146.447476523 100.276375605,-146.137476523 100.256375605,-146.047476523 C 100.246375605,-146.007476523 100.336375605,-145.777476523 100.466375605,-145.547476523 M 100.466375605,-145.547476523 C 100.586375605,-145.307476523 100.776375605,-144.897476523 100.876375605,-144.617476523 C 101.086375605,-144.027476523 101.136375605,-143.907476523 101.516375605,-143.067476523 M 101.516375605,-143.067476523 C 101.676375605,-142.707476523 101.886375605,-142.237476523 101.986375605,-142.017476523 C 102.146375605,-141.627476523 102.416375605,-141.077476523 102.626375605,-140.697476523 C 102.676375605,-140.597476523 102.846375605,-140.247476523 102.996375605,-139.917476523 C 103.136375605,-139.597476523 103.416375605,-139.107476523 103.596375605,-138.837476523 C 103.786375605,-138.567476523 103.936375605,-138.287476523 103.936375605,-138.217476523 M 103.936375605,-138.217476523 C 103.936375605,-138.147476523 104.016375605,-137.987476523 104.116375605,-137.857476523 M 104.116375605,-137.857476523 C 104.216375605,-137.727476523 104.376375605,-137.407476523 104.476375605,-137.147476523 C 104.566375605,-136.887476523 104.756375605,-136.517476523 104.886375605,-136.327476523 M 104.886375605,-136.327476523 C 105.016375605,-136.147476523 105.146375605,-135.877476523 105.186375605,-135.757476523 C 105.236375605,-135.627476523 105.366375605,-135.387476523 105.476375605,-135.217476523 M 105.476375605,-135.217476523 C 105.596375605,-135.057476523 105.746375605,-134.807476523 105.806375605,-134.667476523 M 105.806375605,-134.667476523 C 106.286375605,-133.567476523 106.806375605,-132.567476523 107.036375605,-132.317476523 M 107.036375605,-132.317476523 C 107.186375605,-132.157476523 107.356375605,-131.827476523 107.426375605,-131.597476523 C 107.486375605,-131.367476523 107.646375605,-131.047476523 107.766375605,-130.897476523 M 107.766375605,-130.897476523 C 107.996375605,-130.607476523 108.336375605,-129.937476523 108.336375605,-129.757476523 M 108.336375605,-129.757476523 C 108.336375605,-129.697476523 108.446375605,-129.507476523 108.586375605,-129.327476523 C 108.726375605,-129.147476523 108.836375605,-128.967476523 108.836375605,-128.927476523 C 108.836375605,-128.897476523 108.966375605,-128.677476523 109.136375605,-128.447476523 C 109.296375605,-128.227476523 109.436375605,-127.977476523 109.436375605,-127.907476523 C 109.436375605,-127.837476523 109.546375605,-127.557476523 109.686375605,-127.287476523 C 109.826375605,-127.007476523 109.936375605,-126.717476523 109.936375605,-126.627476523 M 109.936375605,-126.627476523 C 109.936375605,-126.537476523 110.046375605,-126.297476523 110.176375605,-126.087476523 M 110.176375605,-126.087476523 C 110.306375605,-125.887476523 110.476375605,-125.537476523 110.536375605,-125.317476523 M 110.536375605,-125.317476523 C 110.606375605,-125.097476523 110.736375605,-124.817476523 110.816375605,-124.697476523 M 110.816375605,-124.697476523 C 110.886375605,-124.567476523 110.956375605,-124.297476523 110.956375605,-124.097476523 M 110.956375605,-124.097476523 C 110.956375605,-123.707476523 111.096375605,-123.427476523 111.236375605,-123.517476523 C 111.366375605,-123.597476523 111.736375605,-122.727476523 111.736375605,-122.337476523 M 111.736375605,-122.337476523 C 111.736375605,-122.137476523 111.786375605,-121.947476523 111.836375605,-121.917476523 M 111.836375605,-121.917476523 C 111.896375605,-121.887476523 111.936375605,-121.777476523 111.936375605,-121.687476523 C 111.936375605,-121.597476523 112.026375605,-121.407476523 112.136375605,-121.267476523 C 112.246375605,-121.127476523 112.336375605,-120.957476523 112.336375605,-120.887476523 C 112.336375605,-120.767476523 112.556375605,-120.227476523 113.086375605,-119.017476523 C 113.286375605,-118.557476523 113.366375605,-118.247476523 113.356375605,-117.947476523 C 113.356375605,-117.807476523 113.406375605,-117.657476523 113.476375605,-117.637476523 M 113.476375605,-117.637476523 C 113.546375605,-117.607476523 113.666375605,-117.307476523 113.736375605,-116.977476523 C 113.806375605,-116.637476523 113.906375605,-116.337476523 113.946375605,-116.307476523 M 113.946375605,-116.307476523 C 113.996375605,-116.277476523 114.036375605,-116.127476523 114.036375605,-115.967476523 M 114.036375605,-115.967476523 C 114.036375605,-115.807476523 114.076375605,-115.657476523 114.126375605,-115.627476523 C 114.196375605,-115.577476523 114.356375605,-115.087476523 114.376375605,-114.817476523 C 114.386375605,-114.767476523 114.446375605,-114.677476523 114.506375605,-114.617476523 M 114.506375605,-114.617476523 C 114.576375605,-114.567476523 114.706375605,-114.137476523 114.796375605,-113.667476523 C 114.876375605,-113.197476523 115.016375605,-112.687476523 115.096375605,-112.527476523 C 115.176375605,-112.367476523 115.236375605,-112.197476523 115.236375605,-112.137476523 C 115.236375605,-112.087476523 115.296375605,-111.907476523 115.376375605,-111.737476523 C 115.506375605,-111.447476523 115.606375605,-111.097476523 115.696375605,-110.667476523 M 115.696375605,-110.667476523 C 115.766375605,-110.307476523 115.926375605,-109.697476523 116.016375605,-109.397476523 C 116.076375605,-109.217476523 116.106375605,-109.067476523 116.076375605,-109.067476523 M 116.076375605,-109.067476523 C 116.056375605,-109.067476523 116.136375605,-108.877476523 116.256375605,-108.637476523 M 116.256375605,-108.637476523 C 116.376375605,-108.407476523 116.466375605,-108.147476523 116.446375605,-108.047476523 M 116.446375605,-108.047476523 C 116.436375605,-107.957476523 116.476375605,-107.857476523 116.536375605,-107.817476523 M 116.536375605,-107.817476523 C 116.596375605,-107.787476523 116.616375605,-107.707476523 116.576375605,-107.657476523 C 116.546375605,-107.607476523 116.566375605,-107.497476523 116.636375605,-107.417476523 C 116.696375605,-107.347476523 116.786375605,-107.047476523 116.846375605,-106.747476523 C 117.096375605,-105.427476523 117.296375605,-104.627476523 117.436375605,-104.417476523 C 117.476375605,-104.367476523 117.516375605,-104.097476523 117.526375605,-103.817476523 M 117.526375605,-103.817476523 C 117.536375605,-103.547476523 117.606375605,-103.117476523 117.676375605,-102.867476523 M 117.676375605,-102.867476523 C 117.876375605,-102.237476523 118.026375605,-101.497476523 118.076375605,-100.967476523 C 118.096375605,-100.717476523 118.186375605,-100.337476523 118.256375605,-100.117476523 M 118.256375605,-100.117476523 C 118.336375605,-99.8774765226 118.366375605,-99.5874765226 118.326375605,-99.3974765226 M 118.326375605,-99.3974765226 C 118.256375605,-99.0274765226 118.296375605,-98.4574765226 118.416375605,-98.3774765226 M 118.416375605,-98.3774765226 C 118.456375605,-98.3474765226 118.496375605,-98.0274765226 118.516375605,-97.6774765226 C 118.536375605,-97.3274765226 118.616375605,-96.8274765226 118.706375605,-96.5774765226 C 118.806375605,-96.2774765226 118.876375605,-95.6474765226 118.896375605,-94.7674765226 C 118.936375605,-93.1774765226 118.986375605,-92.6474765226 119.116375605,-92.3974765226 M 119.116375605,-92.3974765226 C 119.166375605,-92.2974765226 119.216375605,-91.5474765226 119.226375605,-90.7374765226 M 119.226375605,-90.7374765226 C 119.226375605,-89.9174765226 119.256375605,-89.2174765226 119.286375605,-89.1674765226 C 119.316375605,-89.1274765226 119.356375605,-88.7374765226 119.386375605,-88.3074765226 M 119.386375605,-88.3074765226 C 119.416375605,-87.8674765226 119.486375605,-87.0474765226 119.546375605,-86.4674765226 C 119.656375605,-85.2574765226 119.656375605,-85.4374765226 119.596375605,-83.1674765226 C 119.556375605,-81.2274765226 119.456375605,-79.2774765226 119.386375605,-78.8174765226 C 119.356375605,-78.6574765226 119.316375605,-78.2074765226 119.286375605,-77.8174765226 M 119.286375605,-77.8174765226 C 119.236375605,-77.1574765226 118.956375605,-74.6074765226 118.876375605,-74.0674765226 C 118.856375605,-73.9274765226 118.816375605,-73.5674765226 118.786375605,-73.2674765226 C 118.756375605,-72.9674765226 118.666375605,-72.2474765226 118.586375605,-71.6674765226 M 118.586375605,-71.6674765226 C 118.506375605,-71.0874765226 118.416375605,-70.4574765226 118.396375605,-70.2674765226 M 118.396375605,-70.2674765226 C 118.246375605,-69.1274765226 117.926375605,-67.4374765226 117.786375605,-67.0174765226 C 117.696375605,-66.7574765226 117.606375605,-66.3774765226 117.586375605,-66.1774765226 M 117.586375605,-66.1774765226 C 117.566375605,-65.9774765226 117.536375605,-65.7474765226 117.506375605,-65.6674765226 M 117.506375605,-65.6674765226 C 117.476375605,-65.5874765226 117.426375605,-65.3874765226 117.396375605,-65.2174765226 M 117.396375605,-65.2174765226 C 117.356375605,-64.9374765226 117.296375605,-64.6874765226 117.026375605,-63.6174765226 M 117.026375605,-63.6174765226 C 116.976375605,-63.3974765226 116.906375605,-63.0574765226 116.876375605,-62.8674765226 C 116.846375605,-62.6774765226 116.786375605,-62.4774765226 116.746375605,-62.4174765226 M 116.746375605,-62.4174765226 C 116.696375605,-62.3674765226 116.636375605,-62.1374765226 116.606375605,-61.9074765226 C 116.566375605,-61.6874765226 116.376375605,-61.0074765226 116.176375605,-60.4074765226 C 115.976375605,-59.8074765226 115.736375605,-58.9374765226 115.636375605,-58.4674765226 M 115.636375605,-58.4674765226 C 115.546375605,-57.9974765226 115.346375605,-57.4074765226 115.196375605,-57.1474765226 C 115.056375605,-56.8874765226 114.936375605,-56.5774765226 114.936375605,-56.4474765226 M 114.936375605,-56.4474765226 C 114.936375605,-56.3174765226 114.856375605,-56.0474765226 114.746375605,-55.8374765226 C 114.646375605,-55.6374765226 114.526375605,-55.3074765226 114.486375605,-55.1074765226 M 114.486375605,-55.1074765226 C 114.456375605,-54.9074765226 114.376375605,-54.6674765226 114.326375605,-54.5774765226 C 114.276375605,-54.4874765226 114.196375605,-54.3074765226 114.136375605,-54.1674765226 C 114.086375605,-54.0274765226 113.996375605,-53.8474765226 113.946375605,-53.7674765226 C 113.826375605,-53.5774765226 113.536375605,-52.9074765226 113.536375605,-52.8274765226 M 113.536375605,-52.8274765226 C 113.536375605,-52.7674765226 113.226375605,-52.1074765226 112.276375605,-50.1074765226 M 112.276375605,-50.1074765226 C 112.086375605,-49.7174765226 111.936375605,-49.3374765226 111.936375605,-49.2774765226 C 111.936375605,-49.2074765226 111.846375605,-49.0374765226 111.736375605,-48.8974765226 C 111.626375605,-48.7574765226 111.536375605,-48.5574765226 111.536375605,-48.4674765226 C 111.536375605,-48.2274765226 111.286375605,-47.7674765226 110.626375605,-46.7974765226 C 110.466375605,-46.5674765226 110.336375605,-46.3574765226 110.336375605,-46.3174765226 M 110.336375605,-46.3174765226 C 110.336375605,-46.2874765226 110.226375605,-46.1074765226 110.086375605,-45.9274765226 C 109.946375605,-45.7474765226 109.836375605,-45.5474765226 109.836375605,-45.4974765226 C 109.836375605,-45.3374765226 109.616375605,-44.9474765226 109.276375605,-44.5174765226 C 109.106375605,-44.2974765226 108.746375605,-43.7374765226 108.466375605,-43.2674765226 C 108.186375605,-42.7974765226 107.746375605,-42.0674765226 107.496375605,-41.6374765226 C 107.236375605,-41.2074765226 106.936375605,-40.7674765226 106.826375605,-40.6574765226 M 106.826375605,-40.6574765226 C 106.716375605,-40.5474765226 106.546375605,-40.2874765226 106.456375605,-40.0774765226 C 106.356375605,-39.8774765226 106.176375605,-39.5974765226 106.046375605,-39.4674765226 C 105.916375605,-39.3274765226 105.706375605,-39.0574765226 105.576375605,-38.8674765226 C 105.446375605,-38.6774765226 105.176375605,-38.3174765226 104.986375605,-38.0674765226 C 104.796375605,-37.8174765226 104.636375605,-37.5774765226 104.636375605,-37.5174765226 C 104.636375605,-37.4674765226 104.496375605,-37.2874765226 104.326375605,-37.1174765226 M 104.326375605,-37.1174765226 C 104.156375605,-36.9574765226 103.856375605,-36.5674765226 103.666375605,-36.2674765226 M 103.666375605,-36.2674765226 C 103.476375605,-35.9674765226 103.126375605,-35.5374765226 102.896375605,-35.3174765226 M 102.896375605,-35.3174765226 C 102.666375605,-35.0974765226 102.366375605,-34.7574765226 102.236375605,-34.5674765226 C 102.016375605,-34.2574765226 101.406375605,-33.5474765226 100.636375605,-32.7174765226 C 100.486375605,-32.5574765226 100.266375605,-32.2674765226 100.156375605,-32.0774765226 C 100.046375605,-31.8874765226 99.6063756055,-31.3674765226 99.1763756055,-30.9274765226 C 97.0363756055,-28.6874765226 95.9563756055,-27.5974765226 95.6363756055,-27.3774765226 M 95.6363756055,-27.3774765226 C 95.4463756055,-27.2474765226 95.2463756055,-27.0874765226 95.1863756055,-27.0174765226 C 95.1363756055,-26.9574765226 94.7463756055,-26.6174765226 94.3363756055,-26.2774765226 C 93.4263756055,-25.5274765226 93.5163756055,-25.6074765226 93.0763756055,-25.0674765226 C 92.8763756055,-24.8174765226 92.5763756055,-24.5574765226 92.4063756055,-24.4774765226 C 92.2263756055,-24.4074765226 91.9063756055,-24.1874765226 91.6763756055,-23.9774765226 C 91.4563756055,-23.7774765226 91.0163756055,-23.4374765226 90.7063756055,-23.2174765226 C 90.3863756055,-22.9974765226 90.1363756055,-22.7874765226 90.1363756055,-22.7474765226 C 90.1363756055,-22.7074765226 90.0963756055,-22.6674765226 90.0363756055,-22.6674765226 M 90.0363756055,-22.6674765226 C 89.9163756055,-22.6674765226 89.3263756055,-22.2674765226 88.8563756055,-21.8674765226 M 88.8563756055,-21.8674765226 C 88.1563756055,-21.2774765226 87.4863756055,-20.7674765226 87.4063756055,-20.7674765226 C 87.3663756055,-20.7674765226 87.2763756055,-20.7174765226 87.2063756055,-20.6674765226 C 87.0963756055,-20.5774765226 86.0763756055,-19.8874765226 85.6463756055,-19.6174765226 M 85.6463756055,-19.6174765226 C 85.5563756055,-19.5674765226 85.3363756055,-19.4174765226 85.1663756055,-19.2974765226 M 85.1663756055,-19.2974765226 C 84.9963756055,-19.1674765226 84.8163756055,-19.0674765226 84.7763756055,-19.0674765226 C 84.7363756055,-19.0674765226 84.6263756055,-18.9974765226 84.5363756055,-18.9174765226 M 84.5363756055,-18.9174765226 C 84.4363756055,-18.8274765226 84.1763756055,-18.6574765226 83.9563756055,-18.5374765226 C 83.5963756055,-18.3474765226 82.9663756055,-17.9374765226 82.1163756055,-17.3574765226 C 81.9663756055,-17.2474765226 81.7963756055,-17.1674765226 81.7363756055,-17.1674765226 C 81.6763756055,-17.1674765226 81.1263756055,-16.8774765226 80.5063756055,-16.5274765226 M 80.5063756055,-16.5274765226 C 79.8863756055,-16.1774765226 79.2763756055,-15.8574765226 79.1363756055,-15.8174765226 M 79.1363756055,-15.8174765226 C 78.9963756055,-15.7774765226 78.8163756055,-15.6874765226 78.7363756055,-15.6274765226 M 78.7363756055,-15.6274765226 C 78.6563756055,-15.5574765226 78.4063756055,-15.4274765226 78.1863756055,-15.3274765226 M 78.1863756055,-15.3274765226 C 77.9663756055,-15.2174765226 77.7163756055,-15.0974765226 77.6363756055,-15.0574765226 M 77.6363756055,-15.0574765226 C 77.5563756055,-15.0074765226 77.3763756055,-14.9174765226 77.2363756055,-14.8574765226 C 77.0963756055,-14.7974765226 76.9063756055,-14.6774765226 76.8063756055,-14.5974765226 M 76.8063756055,-14.5974765226 C 76.5563756055,-14.3574765226 76.1863756055,-14.1574765226 75.4363756055,-13.8374765226 C 75.2963756055,-13.7774765226 75.1163756055,-13.6774765226 75.0363756055,-13.6174765226 C 74.9563756055,-13.5574765226 74.5463756055,-13.3574765226 74.1363756055,-13.1674765226 M 74.1363756055,-13.1674765226 C 73.7263756055,-12.9774765226 73.2163756055,-12.7174765226 73.0163756055,-12.5974765226 C 72.8063756055,-12.4674765226 72.5863756055,-12.3674765226 72.5163756055,-12.3674765226 C 72.4463756055,-12.3674765226 71.8063756055,-12.0674765226 71.0863756055,-11.7174765226 C 70.3763756055,-11.3574765226 69.7163756055,-11.0674765226 69.6163756055,-11.0674765226 C 69.4063756055,-11.0674765226 69.1763756055,-10.9774765226 67.9363756055,-10.3874765226 M 67.9363756055,-10.3874765226 C 66.9363756055,-9.91747652262 66.0063756055,-9.57747652262 65.7063756055,-9.56747652262 M 65.7063756055,-9.56747652262 C 65.6163756055,-9.56747652262 65.5363756055,-9.52747652262 65.5363756055,-9.47747652262 C 65.5363756055,-9.42747652262 65.4363756055,-9.34747652262 65.3063756055,-9.30747652262 M 65.3063756055,-9.30747652262 C 65.1863756055,-9.27747652262 65.0163756055,-9.18747652262 64.9363756055,-9.12747652262 C 64.8563756055,-9.05747652262 64.5863756055,-8.94747652262 64.3363756055,-8.87747652262 M 64.3363756055,-8.87747652262 C 64.0863756055,-8.80747652262 63.7963756055,-8.69747652262 63.6863756055,-8.61747652262 M 63.6863756055,-8.61747652262 C 63.5763756055,-8.54747652262 63.3363756055,-8.45747652262 63.1663756055,-8.42747652262 C 62.9963756055,-8.38747652262 62.7963756055,-8.28747652262 62.7263756055,-8.20747652262 M 62.7263756055,-8.20747652262 C 62.6663756055,-8.12747652262 62.4763756055,-8.06747652262 62.3163756055,-8.06747652262 M 62.3163756055,-8.06747652262 C 62.1563756055,-8.06747652262 61.9063756055,-7.97747652262 61.7663756055,-7.86747652262 M 61.7663756055,-7.86747652262 C 61.6263756055,-7.75747652262 61.3563756055,-7.66747652262 61.1763756055,-7.66747652262 M 61.1763756055,-7.66747652262 C 60.9963756055,-7.66747652262 60.6463756055,-7.55747652262 60.4063756055,-7.43747652262 M 60.4063756055,-7.43747652262 C 60.1663756055,-7.30747652262 59.8063756055,-7.17747652262 59.6163756055,-7.13747652262 C 59.4263756055,-7.10747652262 59.0763756055,-6.99747652262 58.8263756055,-6.88747652262 C 58.0663756055,-6.54747652262 56.8463756055,-6.14747652262 56.7363756055,-6.21747652262 C 56.6863756055,-6.24747652262 56.5163756055,-6.21747652262 56.3663756055,-6.13747652262 C 55.9963756055,-5.93747652262 54.6263756055,-5.56747652262 54.2663756055,-5.56747652262 M 54.2663756055,-5.56747652262 C 54.1163756055,-5.56747652262 53.8563756055,-5.49747652262 53.6963756055,-5.41747652262 C 53.5463756055,-5.33747652262 53.3363756055,-5.26747652262 53.2463756055,-5.26747652262 C 53.1563756055,-5.26747652262 52.6363756055,-5.14747652262 52.0863756055,-5.00747652262 M 52.0863756055,-5.00747652262 C 50.7363756055,-4.66747652262 50.2963756055,-4.57747652262 49.5363756055,-4.46747652262 M 49.5363756055,-4.46747652262 C 49.1763756055,-4.41747652262 48.7063756055,-4.32747652262 48.4863756055,-4.27747652262 M 48.4863756055,-4.27747652262 C 48.2663756055,-4.21747652262 47.9463756055,-4.14747652262 47.7863756055,-4.11747652262 C 47.6163756055,-4.07747652262 47.3963756055,-4.01747652262 47.2863756055,-3.96747652262 C 47.1763756055,-3.91747652262 46.9063756055,-3.85747652262 46.6863756055,-3.82747652262 M 46.6863756055,-3.82747652262 C 46.4663756055,-3.80747652262 46.0563756055,-3.72747652262 45.7863756055,-3.66747652262 M 45.7863756055,-3.66747652262 C 45.5063756055,-3.60747652262 45.0363756055,-3.51747652262 44.7363756055,-3.46747652262 C 44.4363756055,-3.42747652262 43.8463756055,-3.29747652262 43.4263756055,-3.18747652262 M 43.4263756055,-3.18747652262 C 43.0063756055,-3.06747652262 42.3263756055,-2.92747652262 41.9263756055,-2.86747652262 M 41.9263756055,-2.86747652262 C 41.5163756055,-2.80747652262 40.8463756055,-2.68747652262 40.4363756055,-2.60747652262 M 40.4363756055,-2.60747652262 C 40.0263756055,-2.51747652262 39.3963756055,-2.43747652262 39.0363756055,-2.40747652262 M 39.0363756055,-2.40747652262 C 38.6763756055,-2.38747652262 38.1363756055,-2.30747652262 37.8363756055,-2.22747652262 M 37.8363756055,-2.22747652262 C 37.1363756055,-2.03747652262 35.6663756055,-1.79747652262 34.4363756055,-1.67747652262 M 34.4363756055,-1.67747652262 C 33.9163756055,-1.62747652262 33.3463756055,-1.55747652262 33.1863756055,-1.52747652262 C 33.0163756055,-1.49747652262 32.4763756055,-1.44747652262 31.9863756055,-1.41747652262 C 31.4863756055,-1.38747652262 30.6763756055,-1.31747652262 30.1863756055,-1.26747652262 M 30.1863756055,-1.26747652262 C 28.5963756055,-1.09747652262 28.0063756055,-1.04747652262 27.4363756055,-1.00747652262 M 27.4363756055,-1.00747652262 C 26.2163756055,-0.917476522615 24.4663756055,-0.767476522615 24.1363756055,-0.717476522615 C 23.3863756055,-0.597476522615 23.1363756055,-0.577476522615 21.5363756055,-0.477476522615 M 21.5363756055,-0.477476522615 C 20.6263756055,-0.417476522615 19.7063756055,-0.347476522615 19.4863756055,-0.317476522615 C 18.8763756055,-0.247476522615 16.0063756055,-0.237476522615 15.8363756055,-0.307476522615 C 15.7463756055,-0.347476522615 15.4563756055,-0.347476522615 15.1863756055,-0.317476522615 M 15.1863756055,-0.317476522615 C 14.9063756055,-0.277476522615 13.3063756055,-0.237476522615 11.6163756055,-0.217476522615 C 9.9263756055,-0.197476522615 8.4963756055,-0.157476522615 8.4463756055,-0.117476522615 M 8.4463756055,-0.117476522615 C 8.3863756055,-0.0874765226155 8.2563756055,-0.0974765226155 8.1663756055,-0.147476522615 C 8.0663756055,-0.187476522615 7.3563756055,-0.217476522615 6.5863756055,-0.197476522615 C 5.8163756055,-0.187476522615 3.9263756055,-0.157476522615 2.3863756055,-0.137476522615 C 0.846375605497,-0.127476522615 -0.483624394503,-0.0674765226155 -0.563624394503,-0.0174765226155 M -0.563624394503,-0.0174765226155 C -0.733624394503,0.0825234773845 -1.1436243945,0.102523477385 -4.1336243945,0.132523477385 M -4.1336243945,0.132523477385 C -5.3536243945,0.142523477385 -6.4036243945,0.122523477385 -6.4536243945,0.0925234773845 M -6.4536243945,0.0925234773845 C -6.5836243945,0.0125234773845 -10.0936243945,-0.257476522615 -10.1936243945,-0.197476522615 M -10.1936243945,-0.197476522615 C -10.2736243945,-0.147476522615 -13.5636243945,-0.167476522615 -14.7136243945,-0.217476522615 M -14.7136243945,-0.217476522615 C -17.2936243945,-0.337476522615 -18.4936243945,-0.377476522615 -21.9836243945,-0.417476522615 C -25.3836243945,-0.447476522615 -25.9936243945,-0.477476522615 -26.2636243945,-0.617476522615 M -26.2636243945,-0.617476522615 C -26.4536243945,-0.717476522615 -26.6836243945,-0.757476522615 -26.8436243945,-0.727476522615 M -26.8436243945,-0.727476522615 C -26.9936243945,-0.687476522615 -27.2736243945,-0.707476522615 -27.4636243945,-0.767476522615 C -27.6536243945,-0.827476522615 -28.6036243945,-0.897476522615 -29.5536243945,-0.927476522615 C -30.5136243945,-0.957476522615 -31.3436243945,-1.00747652262 -31.4036243945,-1.03747652262 M -31.4036243945,-1.03747652262 C -31.4536243945,-1.06747652262 -31.8336243945,-1.11747652262 -32.2536243945,-1.12747652262 C -32.6736243945,-1.14747652262 -33.3036243945,-1.20747652262 -33.6636243945,-1.26747652262 C -34.0236243945,-1.32747652262 -34.8536243945,-1.38747652262 -35.5136243945,-1.41747652262 M -35.5136243945,-1.41747652262 C -36.1736243945,-1.44747652262 -36.9136243945,-1.51747652262 -37.1636243945,-1.57747652262 C -37.4136243945,-1.63747652262 -37.9936243945,-1.72747652262 -38.4636243945,-1.77747652262 M -38.4636243945,-1.77747652262 C -38.9336243945,-1.83747652262 -39.5436243945,-1.93747652262 -39.8136243945,-2.01747652262 M -39.8136243945,-2.01747652262 C -40.0936243945,-2.09747652262 -40.5636243945,-2.18747652262 -40.8636243945,-2.21747652262 M -40.8636243945,-2.21747652262 C -44.7036243945,-2.58747652262 -45.6136243945,-2.70747652262 -45.8136243945,-2.86747652262 M -45.8136243945,-2.86747652262 C -45.8736243945,-2.91747652262 -46.1736243945,-2.95747652262 -46.4736243945,-2.94747652262 C -46.9836243945,-2.93747652262 -47.8536243945,-3.07747652262 -48.5136243945,-3.26747652262 M -48.5136243945,-3.26747652262 C -48.6836243945,-3.31747652262 -49.2336243945,-3.40747652262 -49.7536243945,-3.45747652262 C -50.2736243945,-3.51747652262 -50.7436243945,-3.60747652262 -50.8036243945,-3.66747652262 C -50.8536243945,-3.71747652262 -51.0736243945,-3.76747652262 -51.2836243945,-3.76747652262 M -51.2836243945,-3.76747652262 C -51.4936243945,-3.76747652262 -51.7436243945,-3.80747652262 -51.8436243945,-3.86747652262 M -51.8436243945,-3.86747652262 C -52.1436243945,-4.03747652262 -53.1936243945,-4.27747652262 -53.7636243945,-4.30747652262 M -53.7636243945,-4.30747652262 C -54.4736243945,-4.34747652262 -55.2636243945,-4.51747652262 -55.6836243945,-4.70747652262 C -55.9536243945,-4.82747652262 -56.6536243945,-4.95747652262 -57.3136243945,-5.00747652262 C -57.3736243945,-5.01747652262 -57.5536243945,-5.06747652262 -57.7136243945,-5.13747652262 C -57.8836243945,-5.19747652262 -58.2236243945,-5.27747652262 -58.4836243945,-5.31747652262 M -58.4836243945,-5.31747652262 C -58.7436243945,-5.34747652262 -58.9836243945,-5.41747652262 -59.0136243945,-5.47747652262 M -59.0136243945,-5.47747652262 C -59.0536243945,-5.52747652262 -59.2436243945,-5.56747652262 -59.4436243945,-5.56747652262 M -59.4436243945,-5.56747652262 C -59.6436243945,-5.57747652262 -59.9936243945,-5.64747652262 -60.2136243945,-5.72747652262 M -60.2136243945,-5.72747652262 C -60.4336243945,-5.80747652262 -60.8436243945,-5.94747652262 -61.1136243945,-6.02747652262 M -61.1136243945,-6.02747652262 C -61.3936243945,-6.10747652262 -61.7036243945,-6.21747652262 -61.8136243945,-6.26747652262 M -61.8136243945,-6.26747652262 C -61.9236243945,-6.31747652262 -62.1536243945,-6.37747652262 -62.3136243945,-6.39747652262 M -62.3136243945,-6.39747652262 C -62.4836243945,-6.41747652262 -63.0036243945,-6.55747652262 -63.4936243945,-6.70747652262 C -63.9736243945,-6.84747652262 -64.4736243945,-6.96747652262 -64.5936243945,-6.96747652262 C -64.7236243945,-6.96747652262 -64.9136243945,-7.03747652262 -65.0236243945,-7.11747652262 C -65.1236243945,-7.19747652262 -65.3236243945,-7.26747652262 -65.4636243945,-7.26747652262 M -65.4636243945,-7.26747652262 C -65.6036243945,-7.26747652262 -65.8236243945,-7.33747652262 -65.9636243945,-7.41747652262 C -66.1036243945,-7.49747652262 -66.3136243945,-7.55747652262 -66.4436243945,-7.56747652262 C -66.6536243945,-7.56747652262 -66.7436243945,-7.59747652262 -67.2236243945,-7.84747652262 M -67.2236243945,-7.84747652262 C -67.3436243945,-7.90747652262 -67.5336243945,-7.92747652262 -67.6536243945,-7.89747652262 M -67.6536243945,-7.89747652262 C -67.7736243945,-7.86747652262 -67.9236243945,-7.89747652262 -68.0036243945,-7.95747652262 M -68.0036243945,-7.95747652262 C -68.0736243945,-8.01747652262 -68.2136243945,-8.04747652262 -68.3036243945,-8.00747652262 M -68.3036243945,-8.00747652262 C -68.4036243945,-7.96747652262 -68.5936243945,-8.05747652262 -68.8136243945,-8.25747652262 M -68.8136243945,-8.25747652262 C -69.0136243945,-8.42747652262 -69.2536243945,-8.56747652262 -69.3436243945,-8.56747652262 C -69.4436243945,-8.56747652262 -69.5636243945,-8.60747652262 -69.6136243945,-8.65747652262 M -69.6136243945,-8.65747652262 C -69.7336243945,-8.77747652262 -70.4736243945,-9.04747652262 -71.0136243945,-9.17747652262 M -71.0136243945,-9.17747652262 C -71.2336243945,-9.22747652262 -72.0236243945,-9.54747652262 -72.7736243945,-9.86747652262 C -73.5236243945,-10.1974765226 -74.1936243945,-10.4674765226 -74.2636243945,-10.4674765226 M -74.2636243945,-10.4674765226 C -74.3336243945,-10.4674765226 -74.5436243945,-10.5774765226 -74.7236243945,-10.7174765226 M -74.7236243945,-10.7174765226 C -74.9036243945,-10.8574765226 -75.1336243945,-10.9674765226 -75.2436243945,-10.9674765226 C -75.3536243945,-10.9674765226 -75.5436243945,-11.0474765226 -75.6736243945,-11.1474765226 M -75.6736243945,-11.1474765226 C -75.8036243945,-11.2574765226 -76.4136243945,-11.5774765226 -77.0136243945,-11.8674765226 C -77.6236243945,-12.1674765226 -78.2736243945,-12.5274765226 -78.4636243945,-12.6674765226 C -78.6536243945,-12.8174765226 -79.0636243945,-13.0574765226 -79.3636243945,-13.2074765226 M -79.3636243945,-13.2074765226 C -79.6636243945,-13.3474765226 -79.9836243945,-13.5074765226 -80.0636243945,-13.5474765226 M -80.0636243945,-13.5474765226 C -80.1436243945,-13.5974765226 -80.3736243945,-13.7174765226 -80.5636243945,-13.8074765226 C -80.7536243945,-13.9074765226 -81.0236243945,-14.0474765226 -81.1636243945,-14.1174765226 M -81.1636243945,-14.1174765226 C -81.3036243945,-14.1874765226 -81.5936243945,-14.3174765226 -81.8136243945,-14.4174765226 M -81.8136243945,-14.4174765226 C -82.4036243945,-14.6674765226 -84.0136243945,-15.6874765226 -84.2136243945,-15.9274765226 C -84.3436243945,-16.0774765226 -85.9436243945,-17.0674765226 -86.0736243945,-17.0674765226 C -86.1236243945,-17.0674765226 -86.4136243945,-17.2374765226 -86.7236243945,-17.4374765226 C -87.0436243945,-17.6474765226 -87.4736243945,-17.9174765226 -87.6936243945,-18.0474765226 C -87.9236243945,-18.1674765226 -88.1736243945,-18.3374765226 -88.2636243945,-18.4174765226 M -88.2636243945,-18.4174765226 C -88.3536243945,-18.4974765226 -88.4736243945,-18.5674765226 -88.5236243945,-18.5674765226 M -88.5236243945,-18.5674765226 C -88.5736243945,-18.5674765226 -88.7536243945,-18.7074765226 -88.9136243945,-18.8674765226 C -89.0836243945,-19.0374765226 -89.5136243945,-19.3674765226 -89.8836243945,-19.6074765226 C -90.2436243945,-19.8374765226 -90.7136243945,-20.1674765226 -90.9336243945,-20.3274765226 C -91.3736243945,-20.6574765226 -91.5136243945,-20.7474765226 -92.2636243945,-21.1674765226 C -92.5636243945,-21.3374765226 -93.0336243945,-21.6374765226 -93.3036243945,-21.8474765226 C -93.5736243945,-22.0474765226 -93.8836243945,-22.2674765226 -94.0036243945,-22.3374765226 M -94.0036243945,-22.3374765226 C -94.1136243945,-22.4074765226 -94.3736243945,-22.6374765226 -94.5636243945,-22.8574765226 M -94.5636243945,-22.8574765226 C -94.9236243945,-23.2574765226 -95.3536243945,-23.6274765226 -95.9136243945,-24.0174765226 M -95.9136243945,-24.0174765226 C -96.0736243945,-24.1274765226 -96.3536243945,-24.3574765226 -96.5336243945,-24.5374765226 M -96.5336243945,-24.5374765226 C -96.7136243945,-24.7074765226 -96.9936243945,-24.9274765226 -97.1536243945,-25.0374765226 C -97.3136243945,-25.1374765226 -97.7236243945,-25.4674765226 -98.0736243945,-25.7774765226 M -98.0736243945,-25.7774765226 C -98.4236243945,-26.0874765226 -99.0836243945,-26.6574765226 -99.5336243945,-27.0574765226 M -99.5336243945,-27.0574765226 C -99.9836243945,-27.4474765226 -100.483624395,-27.9374765226 -100.633624395,-28.1374765226 M -100.633624395,-28.1374765226 C -100.793624395,-28.3474765226 -101.133624395,-28.7374765226 -101.403624395,-29.0074765226 M -101.403624395,-29.0074765226 C -101.663624395,-29.2874765226 -101.923624395,-29.6174765226 -101.973624395,-29.7374765226 M -101.973624395,-29.7374765226 C -102.023624395,-29.8674765226 -102.163624395,-30.0174765226 -102.283624395,-30.0774765226 M -102.283624395,-30.0774765226 C -102.543624395,-30.2074765226 -103.733624395,-31.5574765226 -104.013624395,-32.0474765226 C -104.123624395,-32.2174765226 -104.243624395,-32.3674765226 -104.283624395,-32.3674765226 C -104.323624395,-32.3674765226 -104.423624395,-32.4874765226 -104.503624395,-32.6374765226 M -104.503624395,-32.6374765226 C -104.633624395,-32.8774765226 -105.223624395,-33.5674765226 -105.943624395,-34.3174765226 C -106.053624395,-34.4274765226 -106.223624395,-34.6774765226 -106.333624395,-34.8674765226 C -106.673624395,-35.5074765226 -107.043624395,-36.0174765226 -107.353624395,-36.2974765226 C -107.523624395,-36.4574765226 -107.663624395,-36.6274765226 -107.663624395,-36.6874765226 C -107.663624395,-36.7474765226 -107.903624395,-37.0374765226 -108.203624395,-37.3374765226 M -108.203624395,-37.3374765226 C -108.503624395,-37.6374765226 -108.913624395,-38.1574765226 -109.123624395,-38.4974765226 M -109.123624395,-38.4974765226 C -109.323624395,-38.8374765226 -109.613624395,-39.2774765226 -109.763624395,-39.4674765226 C -109.913624395,-39.6574765226 -110.093624395,-39.9374765226 -110.173624395,-40.0774765226 C -110.253624395,-40.2274765226 -110.513624395,-40.6874765226 -110.763624395,-41.1074765226 C -111.013624395,-41.5374765226 -111.273624395,-41.9974765226 -111.353624395,-42.1474765226 C -111.433624395,-42.2974765226 -111.643624395,-42.5974765226 -111.833624395,-42.8074765226 M -111.833624395,-42.8074765226 C -112.013624395,-43.0274765226 -112.163624395,-43.2674765226 -112.163624395,-43.3374765226 C -112.163624395,-43.4874765226 -112.733624395,-44.6774765226 -112.843624395,-44.7674765226 M -112.843624395,-44.7674765226 C -112.883624395,-44.7974765226 -112.973624395,-44.9574765226 -113.053624395,-45.1174765226 M -113.053624395,-45.1174765226 C -113.123624395,-45.2874765226 -113.223624395,-45.4874765226 -113.273624395,-45.5674765226 C -113.323624395,-45.6474765226 -113.403624395,-45.8174765226 -113.453624395,-45.9374765226 M -113.453624395,-45.9374765226 C -113.513624395,-46.0474765226 -113.593624395,-46.1774765226 -113.653624395,-46.2074765226 C -113.713624395,-46.2474765226 -113.843624395,-46.4674765226 -113.953624395,-46.6974765226 C -114.063624395,-46.9274765226 -114.203624395,-47.1874765226 -114.253624395,-47.2674765226 M -114.253624395,-47.2674765226 C -114.503624395,-47.6674765226 -115.263624395,-49.3474765226 -115.263624395,-49.4974765226 M -115.263624395,-49.4974765226 C -115.263624395,-49.5874765226 -115.303624395,-49.6674765226 -115.353624395,-49.6674765226 C -115.403624395,-49.6674765226 -115.523624395,-49.8774765226 -115.613624395,-50.1374765226 C -115.713624395,-50.4074765226 -115.823624395,-50.7074765226 -115.863624395,-50.8174765226 C -115.943624395,-51.0274765226 -116.733624395,-52.7174765226 -117.083624395,-53.4374765226 C -117.193624395,-53.6674765226 -117.263624395,-53.9574765226 -117.233624395,-54.0674765226 M -117.233624395,-54.0674765226 C -117.203624395,-54.1774765226 -117.223624395,-54.2674765226 -117.273624395,-54.2674765226 C -117.423624395,-54.2674765226 -117.663624395,-54.8274765226 -117.553624395,-54.9474765226 C -117.503624395,-55.0174765226 -117.493624395,-55.0474765226 -117.533624395,-55.0174765226 M -117.533624395,-55.0174765226 C -117.583624395,-54.9774765226 -118.043624395,-55.7374765226 -118.213624395,-56.1674765226 C -118.253624395,-56.2474765226 -118.313624395,-56.3874765226 -118.363624395,-56.4674765226 C -118.833624395,-57.2774765226 -119.463624395,-58.7774765226 -119.463624395,-59.0674765226 C -119.463624395,-59.1674765226 -119.533624395,-59.2974765226 -119.613624395,-59.3674765226 C -119.693624395,-59.4374765226 -119.763624395,-59.5774765226 -119.763624395,-59.6874765226 M -119.763624395,-59.6874765226 C -119.763624395,-59.7874765226 -119.823624395,-59.9974765226 -119.903624395,-60.1474765226 C -119.983624395,-60.2974765226 -120.133624395,-60.7974765226 -120.253624395,-61.2674765226 M -120.253624395,-61.2674765226 C -120.373624395,-61.7374765226 -120.533624395,-62.3174765226 -120.613624395,-62.5674765226 C -120.693624395,-62.8174765226 -120.733624395,-63.1074765226 -120.713624395,-63.2174765226 C -120.683624395,-63.3274765226 -120.743624395,-63.5974765226 -120.853624395,-63.8074765226 C -120.963624395,-64.0174765226 -121.033624395,-64.2274765226 -121.013624395,-64.2774765226 M -121.013624395,-64.2774765226 C -120.983624395,-64.3174765226 -121.053624395,-64.5674765226 -121.163624395,-64.8274765226 M -121.163624395,-64.8274765226 C -121.273624395,-65.0874765226 -121.353624395,-65.3474765226 -121.333624395,-65.4074765226 C -121.313624395,-65.4674765226 -121.333624395,-65.6274765226 -121.383624395,-65.7674765226 C -121.433624395,-65.9074765226 -121.493624395,-66.2874765226 -121.523624395,-66.6174765226 C -121.543624395,-66.9474765226 -121.663624395,-67.5974765226 -121.773624395,-68.0674765226 C -121.883624395,-68.5374765226 -122.013624395,-69.4174765226 -122.073624395,-70.0174765226 C -122.123624395,-70.6274765226 -122.223624395,-71.4074765226 -122.303624395,-71.7574765226 C -122.383624395,-72.1074765226 -122.433624395,-72.5074765226 -122.413624395,-72.6574765226 C -122.393624395,-72.7974765226 -122.423624395,-72.9974765226 -122.483624395,-73.0974765226 C -122.533624395,-73.1974765226 -122.613624395,-73.6274765226 -122.663624395,-74.0474765226 C -122.703624395,-74.4674765226 -122.793624395,-75.1374765226 -122.853624395,-75.5174765226 C -122.903624395,-75.9074765226 -123.003624395,-76.6674765226 -123.073624395,-77.2174765226 C -123.133624395,-77.7674765226 -123.193624395,-78.3274765226 -123.213624395,-78.4674765226 C -123.233624395,-78.6074765226 -123.273624395,-79.1374765226 -123.313624395,-79.6474765226 M -123.313624395,-79.6474765226 C -123.353624395,-80.1674765226 -123.443624395,-80.7974765226 -123.523624395,-81.0574765226 M -123.523624395,-81.0574765226 C -123.633624395,-81.4274765226 -123.653624395,-82.1974765226 -123.623624395,-84.7674765226 M -123.623624395,-84.7674765226 C -123.583624395,-87.8174765226 -123.513624395,-89.0674765226 -123.253624395,-91.0174765226 M -123.253624395,-91.0174765226 C -123.193624395,-91.4574765226 -123.113624395,-92.2074765226 -123.063624395,-92.6774765226 M -123.063624395,-92.6774765226 C -123.023624395,-93.1474765226 -122.943624395,-93.6274765226 -122.883624395,-93.7274765226 M -122.883624395,-93.7274765226 C -122.783624395,-93.9274765226 -122.633624395,-95.4374765226 -122.643624395,-96.1574765226 M -122.643624395,-96.1574765226 C -122.653624395,-96.3974765226 -122.593624395,-96.7074765226 -122.523624395,-96.8574765226 C -122.453624395,-96.9974765226 -122.363624395,-97.3874765226 -122.323624395,-97.7174765226 C -122.213624395,-98.7674765226 -122.163624395,-99.1074765226 -122.053624395,-99.4274765226 C -121.913624395,-99.8674765226 -121.643624395,-101.277476523 -121.523624395,-102.177476523 C -121.503624395,-102.317476523 -121.443624395,-102.527476523 -121.383624395,-102.627476523 C -121.333624395,-102.737476523 -121.253624395,-103.047476523 -121.213624395,-103.317476523 C -121.183624395,-103.597476523 -121.093624395,-104.017476523 -121.013624395,-104.267476523 C -120.943624395,-104.517476523 -120.833624395,-104.967476523 -120.773624395,-105.267476523 C -120.713624395,-105.567476523 -120.553624395,-106.227476523 -120.413624395,-106.717476523 C -120.263624395,-107.217476523 -120.133624395,-107.717476523 -120.113624395,-107.827476523 C -120.103624395,-107.947476523 -120.033624395,-108.137476523 -119.973624395,-108.257476523 C -119.903624395,-108.377476523 -119.863624395,-108.527476523 -119.873624395,-108.597476523 M -119.873624395,-108.597476523 C -119.903624395,-108.767476523 -119.673624395,-109.567476523 -119.503624395,-109.867476523 M -119.503624395,-109.867476523 C -119.383624395,-110.087476523 -118.933624395,-111.527476523 -118.793624395,-112.147476523 M -118.793624395,-112.147476523 C -118.763624395,-112.267476523 -118.703624395,-112.397476523 -118.653624395,-112.427476523 M -118.653624395,-112.427476523 C -118.603624395,-112.457476523 -118.563624395,-112.597476523 -118.563624395,-112.737476523 C -118.563624395,-112.877476523 -118.493624395,-113.147476523 -118.403624395,-113.347476523 C -118.193624395,-113.827476523 -118.153624395,-113.927476523 -117.713624395,-115.117476523 M -117.713624395,-115.117476523 C -117.513624395,-115.667476523 -117.303624395,-116.207476523 -117.263624395,-116.317476523 M -117.263624395,-116.317476523 C -117.213624395,-116.427476523 -117.103624395,-116.717476523 -117.023624395,-116.967476523 C -116.833624395,-117.547476523 -116.363624395,-118.687476523 -116.263624395,-118.817476523 C -116.223624395,-118.877476523 -116.163624395,-119.057476523 -116.123624395,-119.217476523 C -116.083624395,-119.387476523 -115.973624395,-119.697476523 -115.863624395,-119.917476523 M -115.863624395,-119.917476523 C -115.583624395,-120.537476523 -114.873624395,-122.047476523 -114.563624395,-122.717476523 M -114.563624395,-122.717476523 C -114.413624395,-123.047476523 -114.143624395,-123.637476523 -113.963624395,-124.017476523 C -113.613624395,-124.787476523 -112.643624395,-126.747476523 -112.373624395,-127.217476523 C -112.283624395,-127.387476523 -112.143624395,-127.677476523 -112.063624395,-127.867476523 C -111.993624395,-128.057476523 -111.453624395,-129.207476523 -110.863624395,-130.417476523 M -110.863624395,-130.417476523 C -109.953624395,-132.287476523 -108.673624395,-135.077476523 -108.123624395,-136.367476523 M -108.123624395,-136.367476523 C -108.043624395,-136.557476523 -107.953624395,-136.747476523 -107.913624395,-136.787476523 M -107.913624395,-136.787476523 C -107.813624395,-136.877476523 -106.693624395,-139.417476523 -106.553624395,-139.857476523 C -106.493624395,-140.057476523 -106.363624395,-140.377476523 -106.263624395,-140.567476523 C -105.793624395,-141.497476523 -105.113624395,-143.197476523 -104.693624395,-144.497476523 C -104.503624395,-145.087476523 -104.163624395,-146.057476523 -103.923624395,-146.647476523 M -103.923624395,-146.647476523 C -103.693624395,-147.237476523 -103.463624395,-147.927476523 -103.423624395,-148.167476523 C -103.383624395,-148.417476523 -103.293624395,-148.797476523 -103.223624395,-149.017476523 M -103.223624395,-149.017476523 C -103.023624395,-149.607476523 -102.683624395,-151.727476523 -102.553624395,-153.247476523 M -102.553624395,-153.247476523 C -102.453624395,-154.367476523 -102.463624395,-155.057476523 -102.573624395,-156.467476523 C -102.693624395,-157.947476523 -102.903624395,-159.387476523 -103.103624395,-160.067476523 C -103.243624395,-160.537476523 -103.363624395,-161.007476523 -103.363624395,-161.117476523 M -103.363624395,-161.117476523 C -103.363624395,-161.227476523 -103.423624395,-161.407476523 -103.503624395,-161.517476523 C -103.573624395,-161.627476523 -103.663624395,-161.927476523 -103.693624395,-162.187476523 M -103.693624395,-162.187476523 C -103.733624395,-162.437476523 -103.933624395,-163.027476523 -104.143624395,-163.487476523 M -104.143624395,-163.487476523 C -104.363624395,-163.937476523 -104.563624395,-164.437476523 -104.593624395,-164.577476523 M -104.593624395,-164.577476523 C -104.633624395,-164.727476523 -104.933624395,-165.247476523 -105.263624395,-165.737476523 L -105.863624395,-166.637476523 M -105.863624395,-166.637476523 L -105.693624395,-167.127476523 C -105.603624395,-167.397476523 -105.473624395,-167.697476523 -105.413624395,-167.797476523 C -105.243624395,-168.047476523 -104.613624395,-168.347476523 -104.113624395,-168.427476523 C -103.713624395,-168.477476523 -102.453624395,-168.287476523 -101.703624395,-168.057476523 M -101.703624395,-168.057476523 C -101.493624395,-167.997476523 -101.303624395,-167.997476523 -101.123624395,-168.067476523 M -101.123624395,-168.067476523 C -100.913624395,-168.147476523 -100.713624395,-168.127476523 -100.343624395,-168.017476523 C -98.3736243945,-167.437476523 -92.5236243945,-167.467476523 -90.2136243945,-168.077476523 C -89.7736243945,-168.197476523 -89.2236243945,-168.327476523 -89.0036243945,-168.377476523 C -87.9936243945,-168.577476523 -85.5036243945,-169.547476523 -84.1136243945,-170.287476523 C -83.8936243945,-170.397476523 -83.5336243945,-170.577476523 -83.3136243945,-170.687476523 M -83.3136243945,-170.687476523 C -83.0936243945,-170.787476523 -82.8636243945,-170.907476523 -82.7936243945,-170.947476523 C -82.5336243945,-171.097476523 -80.9136243945,-172.217476523 -80.8636243945,-172.267476523 M -80.8636243945,-172.267476523 C -80.8336243945,-172.297476523 -80.5836243945,-172.497476523 -80.2936243945,-172.697476523 M -80.2936243945,-172.697476523 C -80.0136243945,-172.907476523 -79.2636243945,-173.647476523 -78.6336243945,-174.347476523 C -77.2336243945,-175.897476523 -76.9536243945,-176.237476523 -76.4936243945,-177.007476523 C -76.2936243945,-177.347476523 -76.0236243945,-177.737476523 -75.9036243945,-177.887476523 C -75.5236243945,-178.347476523 -74.4936243945,-180.057476523 -73.7836243945,-181.367476523 C -73.6236243945,-181.667476523 -73.3636243945,-182.167476523 -73.2036243945,-182.467476523 M -73.2036243945,-182.467476523 C -72.9336243945,-182.957476523 -72.7036243945,-183.447476523 -71.8236243945,-185.377476523 C -71.6836243945,-185.687476523 -71.5036243945,-185.997476523 -71.4136243945,-186.067476523 C -71.3336243945,-186.137476523 -71.2636243945,-186.237476523 -71.2636243945,-186.297476523 C -71.2636243945,-186.347476523 -71.1736243945,-186.577476523 -71.0736243945,-186.807476523 C -70.7336243945,-187.517476523 -70.4436243945,-188.497476523 -70.3636243945,-189.217476523 M -70.3636243945,-189.217476523 C -70.3136243945,-189.607476523 -70.2036243945,-190.167476523 -70.1136243945,-190.467476523 C -70.0236243945,-190.767476523 -69.9036243945,-191.207476523 -69.8536243945,-191.437476523 C -69.8136243945,-191.667476523 -69.6836243945,-192.027476523 -69.5836243945,-192.237476523 M -69.5836243945,-192.237476523 C -69.4736243945,-192.447476523 -69.3536243945,-192.807476523 -69.3136243945,-193.037476523 M -69.3136243945,-193.037476523 C -69.2736243945,-193.277476523 -69.2036243945,-193.487476523 -69.1536243945,-193.527476523 C -69.1036243945,-193.557476523 -69.0636243945,-193.677476523 -69.0636243945,-193.797476523 M -69.0636243945,-193.797476523 C -69.0636243945,-194.037476523 -68.8436243945,-194.727476523 -68.7336243945,-194.827476523 C -68.6936243945,-194.867476523 -68.6636243945,-195.047476523 -68.6636243945,-195.217476523 M -68.6636243945,-195.217476523 C -68.6636243945,-195.397476523 -68.6236243945,-195.667476523 -68.5736243945,-195.827476523 M -68.5736243945,-195.827476523 C -68.5236243945,-195.987476523 -68.4136243945,-196.477476523 -68.3136243945,-196.917476523 C -68.2236243945,-197.357476523 -68.0836243945,-197.897476523 -68.0036243945,-198.117476523 C -67.9236243945,-198.347476523 -67.8636243945,-198.637476523 -67.8636243945,-198.777476523 M -67.8636243945,-198.777476523 C -67.8636243945,-198.917476523 -67.8236243945,-199.067476523 -67.7736243945,-199.117476523 M -67.7736243945,-199.117476523 C -67.7336243945,-199.177476523 -67.6336243945,-199.507476523 -67.5736243945,-199.867476523 C -67.3936243945,-200.857476523 -67.0536243945,-202.297476523 -66.9536243945,-202.517476523 C -66.9036243945,-202.627476523 -66.8236243945,-202.947476523 -66.7736243945,-203.217476523 M -66.7736243945,-203.217476523 C -66.4536243945,-205.067476523 -66.3236243945,-205.667476523 -66.1536243945,-206.057476523 M -66.1536243945,-206.057476523 C -66.0536243945,-206.297476523 -65.9636243945,-206.587476523 -65.9636243945,-206.697476523 M -65.9636243945,-206.697476523 C -65.9636243945,-206.807476523 -65.9236243945,-207.057476523 -65.8736243945,-207.257476523 C -65.7436243945,-207.757476523 -65.5736243945,-208.987476523 -65.5136243945,-209.817476523 C -65.4836243945,-210.207476523 -65.4136243945,-211.057476523 -65.3636243945,-211.717476523 C -65.2536243945,-213.207476523 -65.2136243945,-217.677476523 -65.3036243945,-220.217476523 C -65.3636243945,-222.187476523 -65.6436243945,-226.557476523 -65.7136243945,-226.667476523 M -65.7136243945,-226.667476523 C -65.7336243945,-226.707476523 -65.8436243945,-227.447476523 -65.9636243945,-228.327476523 C -66.3436243945,-231.257476523 -67.2536243945,-234.247476523 -68.5036243945,-236.667476523 M -68.5036243945,-236.667476523 C -69.6736243945,-238.927476523 -69.7836243945,-239.127476523 -70.3236243945,-239.867476523 M -70.3236243945,-239.867476523 C -70.6236243945,-240.277476523 -71.1136243945,-240.977476523 -71.4136243945,-241.417476523 C -72.7936243945,-243.417476523 -74.0236243945,-244.767476523 -75.8536243945,-246.277476523 C -77.9036243945,-247.957476523 -79.1136243945,-248.697476523 -80.7636243945,-249.317476523 C -81.0136243945,-249.407476523 -81.4336243945,-249.597476523 -81.7136243945,-249.737476523 C -82.2836243945,-250.027476523 -83.8036243945,-250.557476523 -85.1036243945,-250.907476523 M -85.1036243945,-250.907476523 C -86.5336243945,-251.287476523 -88.0536243945,-251.467476523 -90.3236243945,-251.527476523 C -92.2836243945,-251.587476523 -92.4436243945,-251.607476523 -92.8236243945,-251.827476523 M -92.8236243945,-251.827476523 C -93.2436243945,-252.067476523 -93.8636243945,-252.697476523 -93.8636243945,-252.877476523 C -93.8636243945,-252.937476523 -93.7836243945,-253.107476523 -93.6836243945,-253.247476523 C -93.5836243945,-253.397476523 -93.4436243945,-253.707476523 -93.3836243945,-253.927476523 M -93.3836243945,-253.927476523 C -93.3136243945,-254.157476523 -93.1936243945,-254.397476523 -93.1136243945,-254.467476523 M -93.1136243945,-254.467476523 C -93.0336243945,-254.537476523 -92.9636243945,-254.657476523 -92.9636243945,-254.727476523 C -92.9636243945,-254.807476523 -92.8136243945,-255.177476523 -92.6236243945,-255.547476523 C -91.8936243945,-257.007476523 -90.7636243945,-261.037476523 -90.5036243945,-263.117476523 M -90.5036243945,-263.117476523 C -90.3836243945,-264.127476523 -90.3036243945,-265.267476523 -90.3336243945,-265.567476523 C -90.3536243945,-265.757476523 -90.3836243945,-266.567476523 -90.4036243945,-267.367476523 C -90.4436243945,-268.877476523 -90.6036243945,-270.917476523 -90.7736243945,-271.867476523 C -90.8236243945,-272.167476523 -90.8836243945,-272.557476523 -90.9036243945,-272.717476523 C -90.9436243945,-273.007476523 -91.2436243945,-274.267476523 -91.4736243945,-275.117476523 M -91.4736243945,-275.117476523 C -91.5336243945,-275.337476523 -91.6736243945,-275.677476523 -91.7736243945,-275.877476523 C -91.8836243945,-276.077476523 -91.9636243945,-276.347476523 -91.9636243945,-276.477476523 C -91.9636243945,-276.607476523 -92.0736243945,-276.927476523 -92.2136243945,-277.187476523 C -92.3536243945,-277.447476523 -92.4636243945,-277.737476523 -92.4636243945,-277.837476523 M -92.4636243945,-277.837476523 C -92.4636243945,-277.937476523 -92.5836243945,-278.197476523 -92.7136243945,-278.417476523 C -92.8536243945,-278.637476523 -92.9636243945,-278.887476523 -92.9636243945,-278.967476523 C -92.9636243945,-279.087476523 -93.4036243945,-280.037476523 -94.2136243945,-281.667476523 C -94.3336243945,-281.917476523 -94.4936243945,-282.357476523 -94.5636243945,-282.647476523 C -94.6336243945,-282.927476523 -94.7536243945,-283.207476523 -94.8336243945,-283.257476523 M -94.8336243945,-283.257476523 C -94.9836243945,-283.337476523 -95.3236243945,-284.137476523 -95.4436243945,-284.667476523 C -95.4736243945,-284.807476523 -95.6636243945,-285.147476523 -95.8836243945,-285.427476523 C -96.0936243945,-285.707476523 -96.2636243945,-286.007476523 -96.2636243945,-286.097476523 C -96.2636243945,-286.187476523 -96.4436243945,-286.607476523 -96.6636243945,-287.037476523 C -96.8836243945,-287.467476523 -97.0636243945,-287.877476523 -97.0636243945,-287.947476523 M -97.0636243945,-287.947476523 C -97.0636243945,-288.077476523 -97.4936243945,-289.187476523 -97.6636243945,-289.487476523 M -97.6636243945,-289.487476523 C -97.7236243945,-289.587476523 -97.7636243945,-289.817476523 -97.7636243945,-290.007476523 C -97.7636243945,-290.187476523 -97.8536243945,-290.457476523 -97.9636243945,-290.597476523 M -97.9636243945,-290.597476523 C -98.0736243945,-290.737476523 -98.1636243945,-290.927476523 -98.1636243945,-291.037476523 C -98.1636243945,-291.137476523 -98.2536243945,-291.397476523 -98.3536243945,-291.617476523 C -98.7936243945,-292.517476523 -98.9536243945,-292.977476523 -99.1036243945,-293.677476523 C -99.3136243945,-294.727476523 -99.5736243945,-295.697476523 -99.6736243945,-295.817476523 C -99.7236243945,-295.867476523 -99.7636243945,-296.037476523 -99.7636243945,-296.187476523 C -99.7636243945,-296.337476523 -99.7936243945,-296.467476523 -99.8436243945,-296.467476523 M -99.8436243945,-296.467476523 C -99.9236243945,-296.467476523 -100.143624395,-297.277476523 -100.263624395,-298.017476523 C -100.333624395,-298.507476523 -100.573624395,-299.307476523 -100.763624395,-299.717476523 C -100.973624395,-300.177476523 -101.163624395,-301.087476523 -101.163624395,-301.637476523 C -101.173624395,-301.957476523 -101.213624395,-302.417476523 -101.273624395,-302.667476523 C -101.323624395,-302.917476523 -101.443624395,-303.547476523 -101.523624395,-304.067476523 C -101.613624395,-304.587476523 -101.743624395,-305.337476523 -101.813624395,-305.717476523 M -101.813624395,-305.717476523 C -101.893624395,-306.107476523 -101.983624395,-306.827476523 -102.013624395,-307.337476523 C -102.053624395,-307.837476523 -102.093624395,-308.447476523 -102.113624395,-308.687476523 M -102.113624395,-308.687476523 C -102.133624395,-308.917476523 -102.173624395,-309.727476523 -102.203624395,-310.467476523 M -102.203624395,-310.467476523 C -102.243624395,-311.207476523 -102.293624395,-312.007476523 -102.313624395,-312.237476523 C -102.343624395,-312.477476523 -102.303624395,-313.197476523 -102.223624395,-313.837476523 M -102.223624395,-313.837476523 C -102.143624395,-314.487476523 -102.073624395,-315.397476523 -102.073624395,-315.867476523 C -102.063624395,-316.337476523 -102.013624395,-317.057476523 -101.963624395,-317.467476523 C -101.733624395,-319.137476523 -101.653624395,-319.637476523 -101.553624395,-320.067476523 M -101.553624395,-320.067476523 C -101.453624395,-320.477476523 -101.273624395,-321.477476523 -101.063624395,-322.717476523 M -101.063624395,-322.717476523 C -100.923624395,-323.527476523 -100.513624395,-325.247476523 -100.353624395,-325.717476523 M -100.353624395,-325.717476523 C -100.293624395,-325.887476523 -100.183624395,-326.397476523 -100.103624395,-326.867476523 C -99.8836243945,-328.227476523 -99.8436243945,-328.407476523 -99.7636243945,-328.517476523 M -99.7636243945,-328.517476523 C -99.6836243945,-328.627476523 -99.5436243945,-329.107476523 -99.5036243945,-329.367476523 M -99.5036243945,-329.367476523 C -99.4836243945,-329.587476523 -98.9636243945,-331.667476523 -98.8636243945,-331.967476523 M -98.8636243945,-331.967476523 C -98.7736243945,-332.257476523 -98.7336243945,-332.347476523 -98.3636243945,-333.367476523 M -98.3636243945,-333.367476523 C -98.2136243945,-333.777476523 -97.9836243945,-334.367476523 -97.8636243945,-334.667476523 C -97.7436243945,-334.967476523 -97.6136243945,-335.357476523 -97.5636243945,-335.517476523 M -97.5636243945,-335.517476523 C -97.5236243945,-335.687476523 -97.3036243945,-336.227476523 -97.0736243945,-336.727476523 M -97.0736243945,-336.727476523 C -96.8536243945,-337.237476523 -96.6636243945,-337.737476523 -96.6636243945,-337.847476523 C -96.6636243945,-337.947476523 -96.5736243945,-338.157476523 -96.4636243945,-338.297476523 C -96.3536243945,-338.437476523 -96.1036243945,-338.947476523 -95.9136243945,-339.417476523 C -95.7136243945,-339.897476523 -95.4536243945,-340.427476523 -95.3136243945,-340.607476523 M -95.3136243945,-340.607476523 C -95.1736243945,-340.787476523 -95.0636243945,-340.987476523 -95.0636243945,-341.047476523 C -95.0636243945,-341.267476523 -94.0536243945,-343.387476523 -93.8136243945,-343.667476523 C -93.7436243945,-343.747476523 -93.4036243945,-344.377476523 -93.0536243945,-345.067476523 M -93.0536243945,-345.067476523 C -92.7036243945,-345.757476523 -92.2736243945,-346.527476523 -92.0936243945,-346.787476523 M -92.0936243945,-346.787476523 C -91.9136243945,-347.047476523 -91.7636243945,-347.307476523 -91.7636243945,-347.357476523 C -91.7636243945,-347.407476523 -91.6036243945,-347.637476523 -91.4136243945,-347.867476523 C -91.2236243945,-348.097476523 -91.0636243945,-348.327476523 -91.0636243945,-348.387476523 M -91.0636243945,-348.387476523 C -91.0636243945,-348.477476523 -90.9436243945,-348.647476523 -89.9436243945,-349.907476523 M -89.9436243945,-349.907476523 C -89.6736243945,-350.237476523 -89.4636243945,-350.557476523 -89.4636243945,-350.617476523 C -89.4636243945,-350.677476523 -89.2636243945,-350.927476523 -89.0136243945,-351.177476523 C -88.7736243945,-351.417476523 -88.5636243945,-351.657476523 -88.5636243945,-351.707476523 C -88.5636243945,-351.787476523 -88.0436243945,-352.477476523 -87.6436243945,-352.917476523 M -87.6436243945,-352.917476523 C -87.2036243945,-353.407476523 -86.7736243945,-353.947476523 -86.5436243945,-354.317476523 C -86.4036243945,-354.537476523 -85.9636243945,-355.047476523 -85.5736243945,-355.447476523 C -85.1836243945,-355.847476523 -84.8636243945,-356.197476523 -84.8636243945,-356.217476523 C -84.8636243945,-356.347476523 -83.9936243945,-357.367476523 -83.8936243945,-357.367476523 M -83.8936243945,-357.367476523 C -83.8236243945,-357.367476523 -83.7636243945,-357.427476523 -83.7636243945,-357.507476523 C -83.7636243945,-357.587476523 -83.6836243945,-357.677476523 -83.5936243945,-357.707476523 C -83.4936243945,-357.747476523 -83.2836243945,-357.947476523 -83.1336243945,-358.167476523 M -83.1336243945,-358.167476523 C -82.9736243945,-358.387476523 -82.7936243945,-358.567476523 -82.7136243945,-358.567476523 C -82.6436243945,-358.567476523 -82.5436243945,-358.657476523 -82.5136243945,-358.767476523 C -82.4836243945,-358.877476523 -82.3636243945,-359.017476523 -82.2536243945,-359.077476523 M -82.2536243945,-359.077476523 C -82.0536243945,-359.177476523 -80.8236243945,-360.307476523 -80.4236243945,-360.747476523 M -80.4236243945,-360.747476523 C -79.9636243945,-361.267476523 -79.0136243945,-362.167476523 -78.9436243945,-362.167476523 M -78.9436243945,-362.167476523 C -78.8936243945,-362.167476523 -78.6336243945,-362.397476523 -78.3636243945,-362.667476523 C -78.0936243945,-362.947476523 -77.8236243945,-363.167476523 -77.7736243945,-363.167476523 C -77.7236243945,-363.167476523 -77.4136243945,-363.417476523 -77.1036243945,-363.717476523 M -77.1036243945,-363.717476523 C -76.7836243945,-364.017476523 -76.4636243945,-364.267476523 -76.4036243945,-364.267476523 C -76.3336243945,-364.267476523 -76.1736243945,-364.397476523 -76.0436243945,-364.557476523 C -75.9136243945,-364.717476523 -75.3836243945,-365.177476523 -74.8636243945,-365.577476523 M -74.8636243945,-365.577476523 C -74.3436243945,-365.967476523 -73.8936243945,-366.327476523 -73.8636243945,-366.367476523 C -73.7836243945,-366.487476523 -72.9736243945,-367.087476523 -72.3136243945,-367.517476523 M -72.3136243945,-367.517476523 C -71.9836243945,-367.727476523 -71.5336243945,-368.057476523 -71.3036243945,-368.237476523 M -71.3036243945,-368.237476523 C -71.0736243945,-368.417476523 -70.8436243945,-368.567476523 -70.7836243945,-368.567476523 M -70.7836243945,-368.567476523 C -70.7236243945,-368.567476523 -70.6136243945,-368.647476523 -70.5436243945,-368.747476523 C -70.4736243945,-368.847476523 -70.2236243945,-369.017476523 -69.9836243945,-369.137476523 C -69.7536243945,-369.247476523 -69.4636243945,-369.457476523 -69.3536243945,-369.607476523 C -69.2436243945,-369.747476523 -69.0836243945,-369.867476523 -69.0136243945,-369.867476523 C -68.9436243945,-369.867476523 -68.7536243945,-369.967476523 -68.5936243945,-370.097476523 C -68.4436243945,-370.217476523 -68.1236243945,-370.427476523 -67.8836243945,-370.557476523 C -67.6436243945,-370.687476523 -67.2136243945,-370.937476523 -66.9336243945,-371.127476523 C -66.6536243945,-371.317476523 -66.3736243945,-371.467476523 -66.3236243945,-371.467476523 C -66.2736243945,-371.467476523 -66.1336243945,-371.547476523 -66.0236243945,-371.647476523 C -65.7436243945,-371.897476523 -64.3836243945,-372.667476523 -64.2136243945,-372.667476523 M -64.2136243945,-372.667476523 C -64.1436243945,-372.667476523 -64.0336243945,-372.727476523 -63.9736243945,-372.807476523 C -63.9036243945,-372.887476523 -63.7436243945,-372.977476523 -63.6036243945,-373.007476523 C -63.2936243945,-373.087476523 -62.4436243945,-373.497476523 -61.9136243945,-373.817476523 M -61.9136243945,-373.817476523 C -61.5236243945,-374.057476523 -61.3536243945,-374.137476523 -60.6636243945,-374.437476523 C -60.4736243945,-374.517476523 -60.2036243945,-374.647476523 -60.0636243945,-374.727476523 M -60.0636243945,-374.727476523 C -59.9236243945,-374.797476523 -59.6136243945,-374.957476523 -59.3636243945,-375.067476523 C -59.1136243945,-375.187476523 -58.6936243945,-375.377476523 -58.4136243945,-375.507476523 C -58.1436243945,-375.637476523 -57.7136243945,-375.797476523 -57.4636243945,-375.867476523 M -57.4636243945,-375.867476523 C -57.0636243945,-375.977476523 -56.4436243945,-376.237476523 -55.6436243945,-376.637476523 C -55.5036243945,-376.707476523 -55.2936243945,-376.767476523 -55.1936243945,-376.767476523 C -55.0836243945,-376.767476523 -54.9136243945,-376.837476523 -54.8036243945,-376.917476523 M -54.8036243945,-376.917476523 C -54.7036243945,-376.997476523 -54.5136243945,-377.067476523 -54.3836243945,-377.067476523 M -54.3836243945,-377.067476523 C -54.2536243945,-377.067476523 -53.9836243945,-377.157476523 -53.7836243945,-377.257476523 C -53.5836243945,-377.357476523 -53.2336243945,-377.507476523 -53.0136243945,-377.567476523 C -52.7936243945,-377.637476523 -52.4336243945,-377.777476523 -52.2136243945,-377.867476523 C -51.5536243945,-378.157476523 -50.3336243945,-378.587476523 -50.0136243945,-378.637476523 C -49.8536243945,-378.667476523 -49.5336243945,-378.767476523 -49.3136243945,-378.867476523 M -49.3136243945,-378.867476523 C -48.8836243945,-379.057476523 -47.4536243945,-379.467476523 -47.2136243945,-379.467476523 M -47.2136243945,-379.467476523 C -47.1336243945,-379.467476523 -46.8736243945,-379.547476523 -46.6336243945,-379.657476523 M -46.6336243945,-379.657476523 C -45.8236243945,-380.017476523 -44.4336243945,-380.397476523 -41.6136243945,-381.037476523 M -41.6136243945,-381.037476523 C -41.2336243945,-381.117476523 -40.7336243945,-381.277476523 -40.5036243945,-381.377476523 C -40.2736243945,-381.487476523 -39.9536243945,-381.567476523 -39.7936243945,-381.567476523 C -39.6236243945,-381.567476523 -39.1536243945,-381.677476523 -38.7436243945,-381.807476523 C -37.4536243945,-382.227476523 -35.9236243945,-382.587476523 -33.3636243945,-383.067476523 C -32.7836243945,-383.177476523 -31.9736243945,-383.327476523 -31.5636243945,-383.407476523 M -31.5636243945,-383.407476523 C -31.1536243945,-383.477476523 -30.6336243945,-383.567476523 -30.4136243945,-383.607476523 C -30.1936243945,-383.637476523 -29.5636243945,-383.757476523 -29.0136243945,-383.867476523 M -29.0136243945,-383.867476523 C -28.4636243945,-383.987476523 -27.7236243945,-384.117476523 -27.3636243945,-384.167476523 C -27.0036243945,-384.217476523 -26.2636243945,-384.327476523 -25.7136243945,-384.417476523 M -25.7136243945,-384.417476523 C -24.7636243945,-384.557476523 -24.1536243945,-384.637476523 -22.1436243945,-384.867476523 M -22.1436243945,-384.867476523 C -21.6636243945,-384.927476523 -20.6536243945,-384.997476523 -19.8936243945,-385.027476523 M -19.8936243945,-385.027476523 C -17.8336243945,-385.107476523 -16.1136243945,-385.267476523 -15.7636243945,-385.397476523 M -15.7636243945,-385.397476523 C -15.6836243945,-385.437476523 -15.3636243945,-385.477476523 -15.0636243945,-385.507476523 C -14.7636243945,-385.527476523 -14.3336243945,-385.577476523 -14.1136243945,-385.607476523 C -13.8936243945,-385.637476523 -13.1336243945,-385.697476523 -12.4136243945,-385.727476523 M -12.4136243945,-385.727476523 C -11.7036243945,-385.767476523 -10.8036243945,-385.807476523 -10.4136243945,-385.827476523 M -10.4136243945,-385.827476523 C -10.0336243945,-385.847476523 -9.3136243945,-385.877476523 -8.8136243945,-385.907476523 M -8.8136243945,-385.907476523 C -8.3236243945,-385.927476523 -7.7936243945,-385.977476523 -7.6536243945,-386.017476523 M -7.6536243945,-386.017476523 C -7.5136243945,-386.047476523 -6.5036243945,-386.087476523 -5.4036243945,-386.097476523 M -5.4036243945,-386.097476523 L -3.4136243945,-386.117476523 L -3.4436243945,-386.347476523 C -3.4836243945,-386.607476523 -3.2536243945,-386.647476523 -3.0636243945,-386.417476523" fill="none" stroke="green" stroke-width="0.386703657583"/>
</svg>
