<?xml version="1.0" ?>
<svg baseProfile="full" height="600px" version="1.1" viewBox="-1162.0773756 -3006.6318883 29231.3976051 46443.1092758" width="378px" xmlns="http://www.w3.org/2000/svg" xmlns:ev="http://www.w3.org/2001/xml-events" xmlns:xlink="http://www.w3.org/1999/xlink">
	<defs/>
	<path d="M 13560.0,39535.0 C 13553.0,39527.0 13544.0,39522.0 13540.0,39525.0 C 13535.0,39528.0 13529.0,39521.0 13525.0,39510.0 C 13522.0,39499.0 13508.0,39482.0 13495.0,39472.0 C 13474.0,39455.0 13464.0,39454.0 13413.0,39463.0 C 13381.0,39468.0 13346.0,39481.0 13334.0,39491.0 C 13317.0,39507.0 13296.0,39510.0 13209.0,39512.0 C 13077.0,39514.0 12948.0,39505.0 12890.0,39490.0 C 12759.0,39456.0 12514.0,39422.0 12385.0,39420.0 C 12291.0,39418.0 12099.0,39397.0 12082.0,39386.0 C 12076.0,39383.0 11994.0,39375.0 11898.0,39370.0 C 11803.0,39365.0 11691.0,39356.0 11650.0,39350.0 C 11609.0,39345.0 11546.0,39338.0 11510.0,39335.0 C 11474.0,39332.0 11416.0,39327.0 11380.0,39325.0 C 11344.0,39322.0 11297.0,39314.0 11275.0,39308.0 C 11253.0,39303.0 11201.0,39294.0 11160.0,39290.0 C 11119.0,39285.0 11038.0,39275.0 10980.0,39266.0 C 10922.0,39258.0 10821.0,39246.0 10755.0,39240.0 C 10637.0,39229.0 10578.0,39221.0 10470.0,39200.0 C 10440.0,39194.0 10381.0,39185.0 10340.0,39179.0 C 10299.0,39174.0 10236.0,39161.0 10200.0,39150.0 C 10164.0,39140.0 10076.0,39126.0 10004.0,39121.0 C 9902.0,39113.0 9849.0,39103.0 9761.0,39075.0 C 9681.0,39050.0 9630.0,39040.0 9584.0,39040.0 C 9547.0,39040.0 9504.0,39033.0 9482.0,39024.0 C 9462.0,39015.0 9414.0,39000.0 9375.0,38990.0 C 9337.0,38980.0 9287.0,38963.0 9265.0,38952.0 C 9243.0,38941.0 9211.0,38929.0 9193.0,38925.0 C 9175.0,38922.0 9143.0,38910.0 9122.0,38900.0 C 9100.0,38889.0 9063.0,38878.0 9039.0,38874.0 C 9015.0,38870.0 8988.0,38864.0 8979.0,38859.0 C 8970.0,38855.0 8932.0,38846.0 8894.0,38840.0 C 8833.0,38830.0 8777.0,38814.0 8675.0,38778.0 C 8659.0,38772.0 8614.0,38757.0 8575.0,38743.0 C 8537.0,38730.0 8485.0,38706.0 8460.0,38690.0 C 8435.0,38675.0 8381.0,38653.0 8340.0,38641.0 C 8158.0,38588.0 8122.0,38576.0 8080.0,38555.0 C 8055.0,38542.0 7999.0,38517.0 7955.0,38499.0 C 7911.0,38481.0 7858.0,38455.0 7837.0,38442.0 C 7815.0,38429.0 7778.0,38408.0 7754.0,38394.0 C 7730.0,38381.0 7690.0,38359.0 7666.0,38346.0 C 7641.0,38332.0 7599.0,38315.0 7572.0,38307.0 C 7545.0,38298.0 7509.0,38285.0 7492.0,38276.0 C 7475.0,38267.0 7453.0,38260.0 7444.0,38260.0 C 7435.0,38260.0 7412.0,38249.0 7394.0,38235.0 C 7376.0,38221.0 7356.0,38210.0 7349.0,38210.0 C 7343.0,38210.0 7303.0,38179.0 7261.0,38141.0 C 7219.0,38104.0 7168.0,38068.0 7148.0,38061.0 C 7128.0,38054.0 7106.0,38042.0 7100.0,38034.0 C 7093.0,38027.0 7082.0,38020.0 7076.0,38020.0 C 7070.0,38020.0 7047.0,38006.0 7026.0,37990.0 C 7004.0,37973.0 6979.0,37960.0 6971.0,37960.0 C 6962.0,37960.0 6950.0,37950.0 6945.0,37938.0 C 6939.0,37925.0 6910.0,37901.0 6880.0,37883.0 C 6850.0,37865.0 6798.0,37831.0 6766.0,37808.0 C 6733.0,37784.0 6695.0,37760.0 6681.0,37754.0 C 6667.0,37748.0 6642.0,37731.0 6627.0,37716.0 C 6612.0,37702.0 6594.0,37690.0 6587.0,37690.0 C 6580.0,37690.0 6548.0,37670.0 6515.0,37645.0 C 6482.0,37620.0 6450.0,37600.0 6443.0,37600.0 C 6436.0,37600.0 6426.0,37591.0 6420.0,37580.0 C 6414.0,37569.0 6403.0,37560.0 6396.0,37560.0 C 6389.0,37560.0 6375.0,37550.0 6364.0,37539.0 C 6354.0,37527.0 6329.0,37507.0 6310.0,37495.0 C 6291.0,37482.0 6260.0,37458.0 6243.0,37442.0 C 6225.0,37425.0 6201.0,37409.0 6190.0,37405.0 C 6179.0,37402.0 6170.0,37395.0 6170.0,37390.0 C 6170.0,37386.0 6144.0,37367.0 6113.0,37350.0 C 6081.0,37332.0 6034.0,37299.0 6009.0,37276.0 C 5983.0,37254.0 5947.0,37223.0 5929.0,37208.0 C 5910.0,37192.0 5873.0,37162.0 5845.0,37140.0 C 5818.0,37117.0 5719.0,37026.0 5627.0,36937.0 C 5534.0,36848.0 5447.0,36768.0 5434.0,36760.0 C 5421.0,36752.0 5410.0,36741.0 5410.0,36735.0 C 5410.0,36729.0 5382.0,36694.0 5348.0,36658.0 C 5241.0,36544.0 5169.0,36462.0 5101.0,36376.0 C 5065.0,36330.0 5001.0,36251.0 4959.0,36199.0 C 4917.0,36147.0 4871.0,36085.0 4855.0,36060.0 C 4840.0,36035.0 4819.0,36006.0 4809.0,35995.0 C 4799.0,35984.0 4785.0,35964.0 4778.0,35950.0 C 4771.0,35936.0 4739.0,35886.0 4707.0,35838.0 C 4676.0,35790.0 4650.0,35747.0 4650.0,35744.0 C 4650.0,35740.0 4639.0,35722.0 4626.0,35705.0 C 4612.0,35687.0 4587.0,35644.0 4569.0,35609.0 C 4551.0,35574.0 4523.0,35524.0 4506.0,35499.0 C 4473.0,35450.0 4450.0,35412.0 4411.0,35346.0 C 4387.0,35305.0 4296.0,35122.0 4280.0,35085.0 C 4276.0,35074.0 4263.0,35045.0 4251.0,35020.0 C 4240.0,34995.0 4217.0,34935.0 4201.0,34885.0 C 4184.0,34836.0 4157.0,34769.0 4140.0,34737.0 C 4124.0,34705.0 4103.0,34646.0 4095.0,34607.0 C 4087.0,34567.0 4071.0,34510.0 4060.0,34480.0 C 4048.0,34450.0 4031.0,34389.0 4020.0,34345.0 C 4010.0,34301.0 3990.0,34227.0 3976.0,34180.0 C 3962.0,34133.0 3950.0,34083.0 3950.0,34067.0 C 3950.0,34052.0 3944.0,34014.0 3936.0,33982.0 C 3928.0,33951.0 3916.0,33885.0 3909.0,33835.0 C 3895.0,33727.0 3873.0,33584.0 3865.0,33550.0 C 3850.0,33487.0 3828.0,33325.0 3820.0,33225.0 C 3815.0,33165.0 3809.0,33090.0 3806.0,33060.0 C 3803.0,33030.0 3798.0,32960.0 3795.0,32906.0 C 3792.0,32851.0 3788.0,32804.0 3786.0,32801.0 C 3780.0,32792.0 3767.0,32101.0 3770.0,31965.0 C 3773.0,31786.0 3785.0,31618.0 3814.0,31346.0 C 3818.0,31314.0 3822.0,31284.0 3824.0,31281.0 C 3834.0,31266.0 3860.0,31117.0 3865.0,31050.0 C 3868.0,31009.0 3875.0,30971.0 3880.0,30966.0 C 3886.0,30960.0 3890.0,30934.0 3890.0,30907.0 C 3890.0,30846.0 3926.0,30656.0 3946.0,30613.0 C 3954.0,30595.0 3960.0,30574.0 3959.0,30568.0 C 3956.0,30549.0 3970.0,30479.0 3982.0,30450.0 C 3988.0,30436.0 3994.0,30418.0 3995.0,30410.0 C 4005.0,30327.0 4026.0,30229.0 4050.0,30155.0 C 4066.0,30106.0 4082.0,30047.0 4086.0,30025.0 C 4090.0,30003.0 4095.0,29978.0 4096.0,29970.0 C 4098.0,29962.0 4111.0,29926.0 4125.0,29891.0 C 4139.0,29855.0 4150.0,29821.0 4150.0,29814.0 C 4150.0,29808.0 4163.0,29769.0 4179.0,29729.0 C 4194.0,29688.0 4227.0,29594.0 4250.0,29520.0 C 4274.0,29446.0 4305.0,29360.0 4319.0,29330.0 C 4333.0,29300.0 4344.0,29270.0 4342.0,29263.0 C 4341.0,29256.0 4350.0,29229.0 4364.0,29202.0 C 4378.0,29175.0 4398.0,29124.0 4410.0,29089.0 C 4421.0,29054.0 4435.0,29016.0 4440.0,29005.0 C 4455.0,28970.0 4491.0,28867.0 4510.0,28805.0 C 4520.0,28772.0 4544.0,28702.0 4564.0,28649.0 C 4584.0,28596.0 4600.0,28544.0 4600.0,28534.0 C 4600.0,28523.0 4607.0,28493.0 4615.0,28465.0 C 4624.0,28438.0 4633.0,28400.0 4636.0,28381.0 C 4639.0,28363.0 4650.0,28320.0 4661.0,28287.0 C 4679.0,28231.0 4696.0,28144.0 4737.0,27900.0 C 4750.0,27827.0 4754.0,27735.0 4754.0,27510.0 C 4754.0,27209.0 4749.0,27156.0 4704.0,26920.0 C 4696.0,26879.0 4687.0,26832.0 4684.0,26815.0 C 4681.0,26799.0 4675.0,26776.0 4670.0,26765.0 C 4666.0,26754.0 4652.0,26714.0 4640.0,26675.0 C 4620.0,26611.0 4585.0,26532.0 4543.0,26455.0 C 4516.0,26407.0 4508.0,26330.0 4526.0,26303.0 C 4534.0,26290.0 4538.0,26274.0 4534.0,26268.0 C 4529.0,26260.0 4532.0,26259.0 4544.0,26263.0 C 4563.0,26271.0 4679.0,26216.0 4684.0,26197.0 C 4699.0,26148.0 4698.0,26148.0 4722.0,26164.0 C 4742.0,26177.0 4748.0,26177.0 4764.0,26164.0 C 4775.0,26156.0 4800.0,26150.0 4819.0,26150.0 C 4839.0,26150.0 4890.0,26143.0 4932.0,26135.0 C 4974.0,26127.0 5053.0,26118.0 5107.0,26115.0 C 5160.0,26112.0 5209.0,26105.0 5214.0,26100.0 C 5220.0,26094.0 5240.0,26090.0 5259.0,26090.0 C 5292.0,26090.0 5384.0,26067.0 5425.0,26048.0 C 5436.0,26043.0 5456.0,26038.0 5470.0,26036.0 C 5484.0,26035.0 5506.0,26026.0 5520.0,26017.0 C 5534.0,26008.0 5581.0,25990.0 5626.0,25976.0 C 5670.0,25962.0 5722.0,25939.0 5741.0,25925.0 C 5760.0,25912.0 5784.0,25896.0 5795.0,25891.0 C 5806.0,25886.0 5824.0,25873.0 5834.0,25861.0 C 5845.0,25850.0 5859.0,25840.0 5865.0,25840.0 C 5872.0,25840.0 5924.0,25808.0 5981.0,25769.0 C 6038.0,25731.0 6108.0,25684.0 6135.0,25666.0 C 6196.0,25625.0 6410.0,25416.0 6456.0,25352.0 C 6475.0,25326.0 6509.0,25278.0 6532.0,25245.0 C 6555.0,25212.0 6576.0,25183.0 6580.0,25180.0 C 6589.0,25173.0 6652.0,25072.0 6670.0,25035.0 C 6678.0,25019.0 6694.0,24992.0 6706.0,24975.0 C 6717.0,24959.0 6752.0,24898.0 6782.0,24840.0 C 6813.0,24782.0 6845.0,24722.0 6854.0,24705.0 C 6889.0,24640.0 6960.0,24480.0 6960.0,24465.0 C 6960.0,24449.0 6992.0,24362.0 7012.0,24325.0 C 7029.0,24295.0 7070.0,24170.0 7081.0,24120.0 C 7086.0,24095.0 7099.0,24053.0 7109.0,24025.0 C 7120.0,23998.0 7133.0,23946.0 7140.0,23910.0 C 7146.0,23874.0 7155.0,23827.0 7160.0,23805.0 C 7165.0,23783.0 7172.0,23731.0 7175.0,23690.0 C 7178.0,23649.0 7185.0,23575.0 7191.0,23525.0 C 7196.0,23476.0 7203.0,23410.0 7205.0,23380.0 C 7208.0,23350.0 7212.0,23308.0 7215.0,23288.0 C 7218.0,23268.0 7223.0,23164.0 7226.0,23059.0 C 7232.0,22885.0 7230.0,22865.0 7215.0,22854.0 C 7201.0,22843.0 7200.0,22836.0 7209.0,22808.0 C 7222.0,22766.0 7223.0,22638.0 7210.0,22485.0 C 7204.0,22419.0 7195.0,22313.0 7190.0,22250.0 C 7175.0,22061.0 7144.0,21818.0 7114.0,21645.0 C 7106.0,21596.0 7095.0,21533.0 7090.0,21505.0 C 7086.0,21478.0 7077.0,21443.0 7071.0,21428.0 C 7066.0,21413.0 7056.0,21361.0 7050.0,21313.0 C 7043.0,21265.0 7023.0,21149.0 7003.0,21055.0 C 6984.0,20962.0 6963.0,20858.0 6957.0,20825.0 C 6947.0,20776.0 6941.0,20765.0 6925.0,20765.0 C 6911.0,20765.0 6906.0,20759.0 6908.0,20745.0 C 6920.0,20665.0 6919.0,20624.0 6904.0,20573.0 C 6895.0,20541.0 6884.0,20490.0 6878.0,20460.0 C 6866.0,20390.0 6852.0,20339.0 6828.0,20270.0 C 6817.0,20240.0 6800.0,20186.0 6790.0,20150.0 C 6781.0,20114.0 6741.0,19992.0 6701.0,19878.0 C 6632.0,19674.0 6588.0,19570.0 6572.0,19570.0 C 6561.0,19570.0 6549.0,19545.0 6505.0,19430.0 C 6461.0,19316.0 6350.0,19103.0 6306.0,19048.0 C 6295.0,19034.0 6256.0,18980.0 6220.0,18928.0 C 5997.0,18604.0 5704.0,18299.0 5514.0,18189.0 C 5464.0,18160.0 5334.0,18083.0 5300.0,18061.0 C 5249.0,18029.0 5061.0,17941.0 5014.0,17926.0 C 4987.0,17918.0 4928.0,17900.0 4882.0,17886.0 C 4836.0,17872.0 4790.0,17860.0 4780.0,17860.0 C 4770.0,17860.0 4759.0,17856.0 4756.0,17851.0 C 4753.0,17846.0 4733.0,17839.0 4713.0,17836.0 C 4692.0,17833.0 4666.0,17828.0 4655.0,17826.0 C 4644.0,17823.0 4604.0,17817.0 4565.0,17811.0 C 4527.0,17806.0 4468.0,17796.0 4435.0,17791.0 C 4248.0,17758.0 4018.0,17748.0 3755.0,17764.0 C 3552.0,17775.0 3477.0,17787.0 3460.0,17810.0 C 3450.0,17822.0 3440.0,17827.0 3432.0,17821.0 C 3419.0,17813.0 3349.0,17830.0 3235.0,17869.0 C 3202.0,17880.0 3168.0,17890.0 3159.0,17890.0 C 3131.0,17890.0 3057.0,17761.0 3071.0,17738.0 C 3076.0,17731.0 3085.0,17700.0 3091.0,17671.0 C 3097.0,17641.0 3114.0,17600.0 3129.0,17581.0 C 3166.0,17532.0 3241.0,17360.0 3286.0,17220.0 C 3306.0,17157.0 3326.0,17096.0 3331.0,17085.0 C 3339.0,17064.0 3352.0,17004.0 3369.0,16905.0 C 3387.0,16799.0 3403.0,16558.0 3397.0,16465.0 C 3382.0,16225.0 3357.0,16011.0 3335.0,15940.0 C 3332.0,15932.0 3326.0,15898.0 3321.0,15865.0 C 3317.0,15832.0 3297.0,15751.0 3277.0,15685.0 C 3234.0,15538.0 3226.0,15507.0 3228.0,15498.0 C 3229.0,15494.0 3220.0,15471.0 3207.0,15448.0 C 3195.0,15424.0 3176.0,15383.0 3166.0,15355.0 C 3145.0,15296.0 3140.0,15284.0 3102.0,15200.0 C 3086.0,15164.0 3065.0,15117.0 3055.0,15095.0 C 3039.0,15056.0 3012.0,15001.0 2991.0,14963.0 C 2986.0,14953.0 2969.0,14918.0 2954.0,14885.0 C 2940.0,14853.0 2912.0,14804.0 2894.0,14777.0 C 2875.0,14750.0 2860.0,14722.0 2860.0,14715.0 C 2860.0,14708.0 2852.0,14692.0 2842.0,14679.0 C 2832.0,14666.0 2816.0,14634.0 2806.0,14608.0 C 2797.0,14582.0 2778.0,14545.0 2765.0,14526.0 C 2752.0,14508.0 2739.0,14481.0 2735.0,14469.0 C 2730.0,14456.0 2717.0,14432.0 2706.0,14415.0 C 2694.0,14399.0 2679.0,14374.0 2673.0,14360.0 C 2625.0,14250.0 2573.0,14150.0 2550.0,14125.0 C 2535.0,14109.0 2518.0,14076.0 2511.0,14053.0 C 2505.0,14030.0 2489.0,13998.0 2477.0,13983.0 C 2454.0,13954.0 2420.0,13887.0 2420.0,13869.0 C 2420.0,13863.0 2409.0,13844.0 2395.0,13826.0 C 2381.0,13808.0 2370.0,13790.0 2370.0,13786.0 C 2370.0,13783.0 2357.0,13761.0 2340.0,13738.0 C 2324.0,13716.0 2310.0,13691.0 2310.0,13684.0 C 2310.0,13677.0 2299.0,13649.0 2285.0,13622.0 C 2271.0,13594.0 2260.0,13565.0 2260.0,13556.0 C 2260.0,13547.0 2249.0,13523.0 2236.0,13502.0 C 2223.0,13482.0 2206.0,13447.0 2200.0,13425.0 C 2193.0,13403.0 2180.0,13375.0 2172.0,13363.0 C 2165.0,13350.0 2158.0,13323.0 2158.0,13303.0 C 2158.0,13264.0 2144.0,13236.0 2130.0,13245.0 C 2117.0,13253.0 2080.0,13166.0 2080.0,13127.0 C 2080.0,13107.0 2075.0,13088.0 2070.0,13085.0 C 2064.0,13082.0 2060.0,13071.0 2060.0,13062.0 C 2060.0,13053.0 2051.0,13034.0 2040.0,13020.0 C 2029.0,13006.0 2020.0,12989.0 2020.0,12982.0 C 2020.0,12970.0 1998.0,12916.0 1945.0,12795.0 C 1925.0,12749.0 1917.0,12718.0 1918.0,12688.0 C 1918.0,12674.0 1913.0,12659.0 1906.0,12657.0 C 1899.0,12654.0 1887.0,12624.0 1880.0,12591.0 C 1873.0,12557.0 1863.0,12527.0 1859.0,12524.0 C 1854.0,12521.0 1850.0,12506.0 1850.0,12490.0 C 1850.0,12474.0 1846.0,12459.0 1841.0,12456.0 C 1834.0,12451.0 1818.0,12402.0 1816.0,12375.0 C 1815.0,12370.0 1809.0,12361.0 1803.0,12355.0 C 1796.0,12350.0 1783.0,12307.0 1774.0,12260.0 C 1766.0,12213.0 1752.0,12162.0 1744.0,12146.0 C 1736.0,12130.0 1730.0,12113.0 1730.0,12107.0 C 1730.0,12102.0 1724.0,12084.0 1716.0,12067.0 C 1703.0,12038.0 1693.0,12003.0 1684.0,11960.0 C 1677.0,11924.0 1661.0,11863.0 1652.0,11833.0 C 1646.0,11815.0 1643.0,11800.0 1646.0,11800.0 C 1648.0,11800.0 1640.0,11781.0 1628.0,11757.0 C 1616.0,11734.0 1607.0,11708.0 1609.0,11698.0 C 1610.0,11689.0 1606.0,11679.0 1600.0,11675.0 C 1594.0,11672.0 1592.0,11664.0 1596.0,11659.0 C 1599.0,11654.0 1597.0,11643.0 1590.0,11635.0 C 1584.0,11628.0 1575.0,11598.0 1569.0,11568.0 C 1544.0,11436.0 1524.0,11356.0 1510.0,11335.0 C 1506.0,11330.0 1502.0,11303.0 1501.0,11275.0 C 1500.0,11248.0 1493.0,11205.0 1486.0,11180.0 C 1466.0,11117.0 1451.0,11043.0 1446.0,10990.0 C 1444.0,10965.0 1435.0,10927.0 1428.0,10905.0 C 1420.0,10881.0 1417.0,10852.0 1421.0,10833.0 C 1428.0,10796.0 1424.0,10739.0 1412.0,10731.0 C 1408.0,10728.0 1404.0,10696.0 1402.0,10661.0 C 1400.0,10626.0 1392.0,10576.0 1383.0,10551.0 C 1373.0,10521.0 1366.0,10458.0 1364.0,10370.0 C 1360.0,10211.0 1355.0,10158.0 1342.0,10133.0 C 1337.0,10123.0 1332.0,10048.0 1331.0,9967.0 C 1331.0,9885.0 1328.0,9815.0 1325.0,9810.0 C 1322.0,9806.0 1318.0,9767.0 1315.0,9724.0 C 1312.0,9680.0 1305.0,9598.0 1299.0,9540.0 C 1288.0,9419.0 1288.0,9437.0 1294.0,9210.0 C 1298.0,9016.0 1308.0,8821.0 1315.0,8775.0 C 1318.0,8759.0 1322.0,8714.0 1325.0,8675.0 C 1330.0,8609.0 1358.0,8354.0 1366.0,8300.0 C 1368.0,8286.0 1372.0,8250.0 1375.0,8220.0 C 1378.0,8190.0 1387.0,8118.0 1395.0,8060.0 C 1403.0,8002.0 1412.0,7939.0 1414.0,7920.0 C 1429.0,7806.0 1461.0,7637.0 1475.0,7595.0 C 1484.0,7569.0 1493.0,7531.0 1495.0,7511.0 C 1497.0,7491.0 1500.0,7468.0 1503.0,7460.0 C 1506.0,7452.0 1511.0,7432.0 1514.0,7415.0 C 1518.0,7387.0 1524.0,7362.0 1551.0,7255.0 C 1556.0,7233.0 1563.0,7199.0 1566.0,7180.0 C 1569.0,7161.0 1575.0,7141.0 1579.0,7135.0 C 1584.0,7130.0 1590.0,7107.0 1593.0,7084.0 C 1597.0,7062.0 1616.0,6994.0 1636.0,6934.0 C 1656.0,6874.0 1680.0,6787.0 1690.0,6740.0 C 1699.0,6693.0 1719.0,6634.0 1734.0,6608.0 C 1748.0,6582.0 1760.0,6551.0 1760.0,6538.0 C 1760.0,6525.0 1768.0,6498.0 1779.0,6477.0 C 1789.0,6457.0 1801.0,6424.0 1805.0,6404.0 C 1808.0,6384.0 1816.0,6360.0 1821.0,6351.0 C 1826.0,6342.0 1834.0,6324.0 1840.0,6310.0 C 1845.0,6296.0 1854.0,6278.0 1859.0,6270.0 C 1871.0,6251.0 1900.0,6184.0 1900.0,6176.0 C 1900.0,6170.0 1931.0,6104.0 2026.0,5904.0 C 2045.0,5865.0 2060.0,5827.0 2060.0,5821.0 C 2060.0,5814.0 2069.0,5797.0 2080.0,5783.0 C 2091.0,5769.0 2100.0,5749.0 2100.0,5740.0 C 2100.0,5716.0 2125.0,5670.0 2191.0,5573.0 C 2207.0,5550.0 2220.0,5529.0 2220.0,5525.0 C 2220.0,5522.0 2231.0,5504.0 2245.0,5486.0 C 2259.0,5468.0 2270.0,5448.0 2270.0,5443.0 C 2270.0,5427.0 2292.0,5388.0 2326.0,5345.0 C 2343.0,5323.0 2379.0,5267.0 2407.0,5220.0 C 2435.0,5173.0 2479.0,5100.0 2504.0,5057.0 C 2530.0,5014.0 2560.0,4970.0 2571.0,4959.0 C 2582.0,4948.0 2599.0,4922.0 2608.0,4901.0 C 2618.0,4881.0 2636.0,4853.0 2649.0,4840.0 C 2662.0,4826.0 2683.0,4799.0 2696.0,4780.0 C 2709.0,4761.0 2736.0,4725.0 2755.0,4700.0 C 2774.0,4675.0 2790.0,4651.0 2790.0,4645.0 C 2790.0,4640.0 2804.0,4622.0 2821.0,4605.0 C 2838.0,4589.0 2868.0,4550.0 2887.0,4520.0 C 2906.0,4490.0 2941.0,4447.0 2964.0,4425.0 C 2987.0,4403.0 3017.0,4369.0 3030.0,4350.0 C 3052.0,4319.0 3113.0,4248.0 3190.0,4165.0 C 3205.0,4149.0 3227.0,4120.0 3238.0,4101.0 C 3249.0,4082.0 3293.0,4030.0 3336.0,3986.0 C 3550.0,3762.0 3658.0,3653.0 3690.0,3631.0 C 3709.0,3618.0 3729.0,3602.0 3735.0,3595.0 C 3740.0,3589.0 3779.0,3555.0 3820.0,3521.0 C 3911.0,3446.0 3902.0,3454.0 3946.0,3400.0 C 3966.0,3375.0 3996.0,3349.0 4013.0,3341.0 C 4031.0,3334.0 4063.0,3312.0 4086.0,3291.0 C 4108.0,3271.0 4152.0,3237.0 4183.0,3215.0 C 4215.0,3193.0 4240.0,3172.0 4240.0,3168.0 C 4240.0,3164.0 4244.0,3160.0 4250.0,3160.0 C 4262.0,3160.0 4321.0,3120.0 4368.0,3080.0 C 4438.0,3021.0 4505.0,2970.0 4513.0,2970.0 C 4517.0,2970.0 4526.0,2965.0 4533.0,2960.0 C 4544.0,2951.0 4646.0,2882.0 4689.0,2855.0 C 4698.0,2850.0 4720.0,2835.0 4737.0,2823.0 C 4754.0,2810.0 4772.0,2800.0 4776.0,2800.0 C 4780.0,2800.0 4791.0,2793.0 4800.0,2785.0 C 4810.0,2776.0 4836.0,2759.0 4858.0,2747.0 C 4894.0,2728.0 4957.0,2687.0 5042.0,2629.0 C 5057.0,2618.0 5074.0,2610.0 5080.0,2610.0 C 5086.0,2610.0 5141.0,2581.0 5203.0,2546.0 C 5265.0,2511.0 5326.0,2479.0 5340.0,2475.0 C 5354.0,2471.0 5372.0,2462.0 5380.0,2456.0 C 5388.0,2449.0 5413.0,2436.0 5435.0,2426.0 C 5457.0,2415.0 5482.0,2403.0 5490.0,2399.0 C 5498.0,2394.0 5516.0,2385.0 5530.0,2379.0 C 5544.0,2373.0 5563.0,2361.0 5573.0,2353.0 C 5598.0,2329.0 5635.0,2309.0 5710.0,2277.0 C 5724.0,2271.0 5742.0,2261.0 5750.0,2255.0 C 5758.0,2249.0 5799.0,2229.0 5840.0,2210.0 C 5881.0,2191.0 5932.0,2165.0 5952.0,2153.0 C 5973.0,2140.0 5995.0,2130.0 6002.0,2130.0 C 6009.0,2130.0 6073.0,2100.0 6145.0,2065.0 C 6216.0,2029.0 6282.0,2000.0 6292.0,2000.0 C 6313.0,2000.0 6336.0,1991.0 6460.0,1932.0 C 6560.0,1885.0 6653.0,1851.0 6683.0,1850.0 C 6692.0,1850.0 6700.0,1846.0 6700.0,1841.0 C 6700.0,1836.0 6710.0,1828.0 6723.0,1824.0 C 6735.0,1821.0 6752.0,1812.0 6760.0,1806.0 C 6768.0,1799.0 6795.0,1788.0 6820.0,1781.0 C 6845.0,1774.0 6874.0,1763.0 6885.0,1755.0 C 6896.0,1748.0 6920.0,1739.0 6937.0,1736.0 C 6954.0,1732.0 6974.0,1722.0 6981.0,1714.0 C 6987.0,1706.0 7006.0,1700.0 7022.0,1700.0 C 7038.0,1700.0 7063.0,1691.0 7077.0,1680.0 C 7091.0,1669.0 7118.0,1660.0 7136.0,1660.0 C 7154.0,1660.0 7189.0,1649.0 7213.0,1637.0 C 7237.0,1624.0 7273.0,1611.0 7292.0,1607.0 C 7311.0,1604.0 7346.0,1593.0 7371.0,1582.0 C 7447.0,1548.0 7569.0,1508.0 7580.0,1515.0 C 7585.0,1518.0 7602.0,1515.0 7617.0,1507.0 C 7654.0,1487.0 7791.0,1450.0 7827.0,1450.0 C 7842.0,1450.0 7868.0,1443.0 7884.0,1435.0 C 7899.0,1427.0 7920.0,1420.0 7929.0,1420.0 C 7938.0,1420.0 7990.0,1408.0 8045.0,1394.0 C 8180.0,1360.0 8224.0,1351.0 8300.0,1340.0 C 8336.0,1335.0 8383.0,1326.0 8405.0,1321.0 C 8427.0,1315.0 8459.0,1308.0 8475.0,1305.0 C 8492.0,1301.0 8514.0,1295.0 8525.0,1290.0 C 8536.0,1285.0 8563.0,1279.0 8585.0,1276.0 C 8607.0,1274.0 8648.0,1266.0 8675.0,1260.0 C 8703.0,1254.0 8750.0,1245.0 8780.0,1240.0 C 8810.0,1236.0 8869.0,1223.0 8911.0,1212.0 C 8953.0,1200.0 9021.0,1186.0 9061.0,1180.0 C 9102.0,1174.0 9169.0,1162.0 9210.0,1154.0 C 9251.0,1145.0 9314.0,1137.0 9350.0,1134.0 C 9386.0,1132.0 9440.0,1124.0 9470.0,1116.0 C 9540.0,1097.0 9687.0,1073.0 9810.0,1061.0 C 9862.0,1056.0 9919.0,1049.0 9935.0,1046.0 C 9952.0,1043.0 10006.0,1038.0 10055.0,1035.0 C 10105.0,1032.0 10186.0,1025.0 10235.0,1020.0 C 10394.0,1003.0 10453.0,998.0 10510.0,994.0 C 10632.0,985.0 10807.0,970.0 10840.0,965.0 C 10915.0,953.0 10940.0,951.0 11100.0,941.0 C 11191.0,935.0 11283.0,928.0 11305.0,925.0 C 11366.0,918.0 11653.0,917.0 11670.0,924.0 C 11679.0,928.0 11708.0,928.0 11735.0,925.0 C 11763.0,921.0 11923.0,917.0 12092.0,915.0 C 12261.0,913.0 12404.0,909.0 12409.0,905.0 C 12415.0,902.0 12428.0,903.0 12437.0,908.0 C 12447.0,912.0 12518.0,915.0 12595.0,913.0 C 12672.0,912.0 12861.0,909.0 13015.0,907.0 C 13169.0,906.0 13302.0,900.0 13310.0,895.0 C 13327.0,885.0 13368.0,883.0 13667.0,880.0 C 13789.0,879.0 13894.0,881.0 13899.0,884.0 C 13912.0,892.0 14263.0,919.0 14273.0,913.0 C 14281.0,908.0 14610.0,910.0 14725.0,915.0 C 14983.0,927.0 15103.0,931.0 15452.0,935.0 C 15792.0,938.0 15853.0,941.0 15880.0,955.0 C 15899.0,965.0 15922.0,969.0 15938.0,966.0 C 15953.0,962.0 15981.0,964.0 16000.0,970.0 C 16019.0,976.0 16114.0,983.0 16209.0,986.0 C 16305.0,989.0 16388.0,994.0 16394.0,997.0 C 16399.0,1000.0 16437.0,1005.0 16479.0,1006.0 C 16521.0,1008.0 16584.0,1014.0 16620.0,1020.0 C 16656.0,1026.0 16739.0,1032.0 16805.0,1035.0 C 16871.0,1038.0 16945.0,1045.0 16970.0,1051.0 C 16995.0,1057.0 17053.0,1066.0 17100.0,1071.0 C 17147.0,1077.0 17208.0,1087.0 17235.0,1095.0 C 17263.0,1103.0 17310.0,1112.0 17340.0,1115.0 C 17724.0,1152.0 17815.0,1164.0 17835.0,1180.0 C 17841.0,1185.0 17871.0,1189.0 17901.0,1188.0 C 17952.0,1187.0 18039.0,1201.0 18105.0,1220.0 C 18122.0,1225.0 18177.0,1234.0 18229.0,1239.0 C 18281.0,1245.0 18328.0,1254.0 18334.0,1260.0 C 18339.0,1265.0 18361.0,1270.0 18382.0,1270.0 C 18403.0,1270.0 18428.0,1274.0 18438.0,1280.0 C 18468.0,1297.0 18573.0,1321.0 18630.0,1324.0 C 18701.0,1328.0 18780.0,1345.0 18822.0,1364.0 C 18849.0,1376.0 18919.0,1389.0 18985.0,1394.0 C 18991.0,1395.0 19009.0,1400.0 19025.0,1407.0 C 19042.0,1413.0 19076.0,1421.0 19102.0,1425.0 C 19128.0,1428.0 19152.0,1435.0 19155.0,1441.0 C 19159.0,1446.0 19178.0,1450.0 19198.0,1450.0 C 19218.0,1451.0 19253.0,1458.0 19275.0,1466.0 C 19297.0,1474.0 19338.0,1488.0 19365.0,1496.0 C 19393.0,1504.0 19424.0,1515.0 19435.0,1520.0 C 19446.0,1525.0 19469.0,1531.0 19485.0,1533.0 C 19502.0,1535.0 19554.0,1549.0 19603.0,1564.0 C 19651.0,1578.0 19701.0,1590.0 19713.0,1590.0 C 19726.0,1590.0 19745.0,1597.0 19756.0,1605.0 C 19766.0,1613.0 19786.0,1620.0 19800.0,1620.0 C 19814.0,1620.0 19836.0,1627.0 19850.0,1635.0 C 19864.0,1643.0 19885.0,1649.0 19898.0,1650.0 C 19919.0,1650.0 19928.0,1653.0 19976.0,1678.0 C 19988.0,1684.0 20007.0,1686.0 20019.0,1683.0 C 20031.0,1680.0 20046.0,1683.0 20054.0,1689.0 C 20061.0,1695.0 20075.0,1698.0 20084.0,1694.0 C 20094.0,1690.0 20113.0,1699.0 20135.0,1719.0 C 20155.0,1736.0 20179.0,1750.0 20188.0,1750.0 C 20198.0,1750.0 20210.0,1754.0 20215.0,1759.0 C 20227.0,1771.0 20301.0,1798.0 20355.0,1811.0 C 20377.0,1816.0 20456.0,1848.0 20531.0,1880.0 C 20606.0,1913.0 20673.0,1940.0 20680.0,1940.0 C 20687.0,1940.0 20708.0,1951.0 20726.0,1965.0 C 20744.0,1979.0 20767.0,1990.0 20778.0,1990.0 C 20789.0,1990.0 20808.0,1998.0 20821.0,2008.0 C 20834.0,2019.0 20895.0,2051.0 20955.0,2080.0 C 21016.0,2110.0 21081.0,2146.0 21100.0,2160.0 C 21119.0,2175.0 21160.0,2199.0 21190.0,2214.0 C 21220.0,2228.0 21252.0,2244.0 21260.0,2248.0 C 21268.0,2253.0 21291.0,2265.0 21310.0,2274.0 C 21329.0,2284.0 21356.0,2298.0 21370.0,2305.0 C 21384.0,2312.0 21413.0,2325.0 21435.0,2335.0 C 21494.0,2360.0 21655.0,2462.0 21675.0,2486.0 C 21688.0,2501.0 21848.0,2600.0 21861.0,2600.0 C 21866.0,2600.0 21895.0,2617.0 21926.0,2637.0 C 21958.0,2658.0 22001.0,2685.0 22023.0,2698.0 C 22046.0,2710.0 22071.0,2727.0 22080.0,2735.0 C 22089.0,2743.0 22101.0,2750.0 22106.0,2750.0 C 22111.0,2750.0 22129.0,2764.0 22145.0,2780.0 C 22162.0,2797.0 22205.0,2830.0 22242.0,2854.0 C 22278.0,2877.0 22325.0,2910.0 22347.0,2926.0 C 22391.0,2959.0 22405.0,2968.0 22480.0,3010.0 C 22510.0,3027.0 22557.0,3057.0 22584.0,3078.0 C 22611.0,3098.0 22642.0,3120.0 22654.0,3127.0 C 22665.0,3134.0 22691.0,3157.0 22710.0,3179.0 C 22746.0,3219.0 22789.0,3256.0 22845.0,3295.0 C 22861.0,3306.0 22889.0,3329.0 22907.0,3347.0 C 22925.0,3364.0 22953.0,3386.0 22969.0,3397.0 C 22985.0,3407.0 23026.0,3440.0 23061.0,3471.0 C 23096.0,3502.0 23162.0,3559.0 23207.0,3599.0 C 23252.0,3638.0 23302.0,3687.0 23317.0,3707.0 C 23333.0,3728.0 23367.0,3767.0 23394.0,3794.0 C 23420.0,3822.0 23446.0,3855.0 23451.0,3867.0 C 23456.0,3880.0 23470.0,3895.0 23482.0,3901.0 C 23508.0,3914.0 23627.0,4049.0 23655.0,4098.0 C 23666.0,4115.0 23678.0,4130.0 23682.0,4130.0 C 23686.0,4130.0 23696.0,4142.0 23704.0,4157.0 C 23717.0,4181.0 23776.0,4250.0 23848.0,4325.0 C 23859.0,4336.0 23876.0,4361.0 23887.0,4380.0 C 23921.0,4444.0 23958.0,4495.0 23989.0,4523.0 C 24006.0,4539.0 24020.0,4556.0 24020.0,4562.0 C 24020.0,4568.0 24044.0,4597.0 24074.0,4627.0 C 24104.0,4657.0 24145.0,4709.0 24166.0,4743.0 C 24186.0,4777.0 24215.0,4821.0 24230.0,4840.0 C 24245.0,4859.0 24263.0,4887.0 24271.0,4901.0 C 24279.0,4916.0 24305.0,4962.0 24330.0,5004.0 C 24355.0,5047.0 24381.0,5093.0 24389.0,5108.0 C 24397.0,5123.0 24418.0,5153.0 24437.0,5174.0 C 24455.0,5196.0 24470.0,5220.0 24470.0,5227.0 C 24470.0,5242.0 24527.0,5361.0 24538.0,5370.0 C 24542.0,5373.0 24551.0,5389.0 24559.0,5405.0 C 24566.0,5422.0 24576.0,5442.0 24581.0,5450.0 C 24586.0,5458.0 24594.0,5475.0 24599.0,5487.0 C 24605.0,5498.0 24613.0,5511.0 24619.0,5514.0 C 24625.0,5518.0 24638.0,5540.0 24649.0,5563.0 C 24660.0,5586.0 24674.0,5612.0 24679.0,5620.0 C 24704.0,5660.0 24780.0,5828.0 24780.0,5843.0 C 24780.0,5852.0 24784.0,5860.0 24789.0,5860.0 C 24794.0,5860.0 24806.0,5881.0 24815.0,5907.0 C 24825.0,5934.0 24836.0,5964.0 24840.0,5975.0 C 24848.0,5996.0 24927.0,6165.0 24962.0,6237.0 C 24973.0,6260.0 24980.0,6289.0 24977.0,6300.0 C 24974.0,6311.0 24976.0,6320.0 24981.0,6320.0 C 24996.0,6320.0 25020.0,6376.0 25009.0,6388.0 C 25004.0,6395.0 25003.0,6398.0 25007.0,6395.0 C 25012.0,6391.0 25058.0,6467.0 25075.0,6510.0 C 25079.0,6518.0 25085.0,6532.0 25090.0,6540.0 C 25137.0,6621.0 25200.0,6771.0 25200.0,6800.0 C 25200.0,6810.0 25207.0,6823.0 25215.0,6830.0 C 25223.0,6837.0 25230.0,6851.0 25230.0,6862.0 C 25230.0,6872.0 25236.0,6893.0 25244.0,6908.0 C 25252.0,6923.0 25267.0,6973.0 25279.0,7020.0 C 25291.0,7067.0 25307.0,7125.0 25315.0,7150.0 C 25323.0,7175.0 25327.0,7204.0 25325.0,7215.0 C 25322.0,7226.0 25328.0,7253.0 25339.0,7274.0 C 25350.0,7295.0 25357.0,7316.0 25355.0,7321.0 C 25352.0,7325.0 25359.0,7350.0 25370.0,7376.0 C 25381.0,7402.0 25389.0,7428.0 25387.0,7434.0 C 25385.0,7440.0 25387.0,7456.0 25392.0,7470.0 C 25397.0,7484.0 25403.0,7522.0 25406.0,7555.0 C 25408.0,7588.0 25420.0,7653.0 25431.0,7700.0 C 25442.0,7747.0 25455.0,7835.0 25461.0,7895.0 C 25466.0,7956.0 25476.0,8034.0 25484.0,8069.0 C 25492.0,8104.0 25497.0,8144.0 25495.0,8159.0 C 25493.0,8173.0 25496.0,8193.0 25502.0,8203.0 C 25507.0,8213.0 25515.0,8256.0 25520.0,8298.0 C 25524.0,8340.0 25533.0,8407.0 25539.0,8445.0 C 25544.0,8484.0 25554.0,8560.0 25561.0,8615.0 C 25567.0,8670.0 25573.0,8726.0 25575.0,8740.0 C 25577.0,8754.0 25581.0,8807.0 25585.0,8858.0 C 25589.0,8910.0 25598.0,8973.0 25606.0,8999.0 C 25617.0,9036.0 25619.0,9113.0 25616.0,9370.0 C 25612.0,9675.0 25605.0,9800.0 25579.0,9995.0 C 25573.0,10039.0 25565.0,10114.0 25560.0,10161.0 C 25556.0,10208.0 25548.0,10256.0 25542.0,10266.0 C 25532.0,10286.0 25517.0,10437.0 25518.0,10509.0 C 25519.0,10533.0 25513.0,10564.0 25506.0,10579.0 C 25499.0,10593.0 25490.0,10632.0 25486.0,10665.0 C 25475.0,10770.0 25470.0,10804.0 25459.0,10836.0 C 25445.0,10880.0 25418.0,11021.0 25406.0,11111.0 C 25404.0,11125.0 25398.0,11146.0 25392.0,11156.0 C 25387.0,11167.0 25379.0,11198.0 25375.0,11225.0 C 25372.0,11253.0 25363.0,11295.0 25355.0,11320.0 C 25348.0,11345.0 25337.0,11390.0 25331.0,11420.0 C 25325.0,11450.0 25309.0,11516.0 25295.0,11565.0 C 25280.0,11615.0 25267.0,11665.0 25265.0,11676.0 C 25264.0,11688.0 25257.0,11707.0 25251.0,11719.0 C 25244.0,11731.0 25240.0,11746.0 25241.0,11753.0 C 25244.0,11770.0 25221.0,11850.0 25204.0,11880.0 C 25192.0,11902.0 25147.0,12046.0 25133.0,12108.0 C 25130.0,12120.0 25124.0,12133.0 25119.0,12136.0 C 25114.0,12139.0 25110.0,12153.0 25110.0,12167.0 C 25110.0,12181.0 25103.0,12208.0 25094.0,12228.0 C 25073.0,12276.0 25069.0,12286.0 25025.0,12405.0 C 25005.0,12460.0 24984.0,12514.0 24980.0,12525.0 C 24975.0,12536.0 24964.0,12565.0 24956.0,12590.0 C 24937.0,12648.0 24890.0,12762.0 24880.0,12775.0 C 24876.0,12781.0 24870.0,12799.0 24866.0,12815.0 C 24862.0,12832.0 24851.0,12863.0 24840.0,12885.0 C 24812.0,12947.0 24741.0,13098.0 24710.0,13165.0 C 24695.0,13198.0 24668.0,13257.0 24650.0,13295.0 C 24615.0,13372.0 24518.0,13568.0 24491.0,13615.0 C 24482.0,13632.0 24468.0,13661.0 24460.0,13680.0 C 24453.0,13699.0 24399.0,13814.0 24340.0,13935.0 C 24249.0,14122.0 24121.0,14401.0 24066.0,14530.0 C 24058.0,14549.0 24049.0,14568.0 24045.0,14572.0 C 24035.0,14581.0 23923.0,14835.0 23909.0,14879.0 C 23903.0,14899.0 23890.0,14931.0 23880.0,14950.0 C 23833.0,15043.0 23765.0,15213.0 23723.0,15343.0 C 23704.0,15402.0 23670.0,15499.0 23646.0,15558.0 C 23623.0,15617.0 23600.0,15686.0 23596.0,15710.0 C 23592.0,15735.0 23583.0,15773.0 23576.0,15795.0 C 23556.0,15854.0 23522.0,16066.0 23509.0,16218.0 C 23499.0,16330.0 23500.0,16399.0 23511.0,16540.0 C 23523.0,16688.0 23544.0,16832.0 23564.0,16900.0 C 23578.0,16947.0 23590.0,16994.0 23590.0,17005.0 C 23590.0,17016.0 23596.0,17034.0 23604.0,17045.0 C 23611.0,17056.0 23620.0,17086.0 23623.0,17112.0 C 23627.0,17137.0 23647.0,17196.0 23668.0,17242.0 C 23690.0,17287.0 23710.0,17337.0 23713.0,17351.0 C 23717.0,17366.0 23747.0,17418.0 23780.0,17467.0 L 23840.0,17557.0 L 23823.0,17606.0 C 23814.0,17633.0 23801.0,17663.0 23795.0,17673.0 C 23778.0,17698.0 23715.0,17728.0 23665.0,17736.0 C 23625.0,17741.0 23499.0,17722.0 23424.0,17699.0 C 23403.0,17693.0 23384.0,17693.0 23366.0,17700.0 C 23345.0,17708.0 23325.0,17706.0 23288.0,17695.0 C 23091.0,17637.0 22506.0,17640.0 22275.0,17701.0 C 22231.0,17713.0 22176.0,17726.0 22154.0,17731.0 C 22053.0,17751.0 21804.0,17848.0 21665.0,17922.0 C 21643.0,17933.0 21607.0,17951.0 21585.0,17962.0 C 21563.0,17972.0 21540.0,17984.0 21533.0,17988.0 C 21507.0,18003.0 21345.0,18115.0 21340.0,18120.0 C 21337.0,18123.0 21312.0,18143.0 21283.0,18163.0 C 21255.0,18184.0 21180.0,18258.0 21117.0,18328.0 C 20977.0,18483.0 20949.0,18517.0 20903.0,18594.0 C 20883.0,18628.0 20856.0,18667.0 20844.0,18682.0 C 20806.0,18728.0 20703.0,18899.0 20632.0,19030.0 C 20616.0,19060.0 20590.0,19110.0 20574.0,19140.0 C 20547.0,19189.0 20524.0,19238.0 20436.0,19431.0 C 20422.0,19462.0 20404.0,19493.0 20395.0,19500.0 C 20387.0,19507.0 20380.0,19517.0 20380.0,19523.0 C 20380.0,19528.0 20371.0,19551.0 20361.0,19574.0 C 20327.0,19645.0 20298.0,19743.0 20290.0,19815.0 C 20285.0,19854.0 20274.0,19910.0 20265.0,19940.0 C 20256.0,19970.0 20244.0,20014.0 20239.0,20037.0 C 20235.0,20060.0 20222.0,20096.0 20212.0,20117.0 C 20201.0,20138.0 20189.0,20174.0 20185.0,20197.0 C 20181.0,20221.0 20174.0,20242.0 20169.0,20246.0 C 20164.0,20249.0 20160.0,20261.0 20160.0,20273.0 C 20160.0,20297.0 20138.0,20366.0 20127.0,20376.0 C 20123.0,20380.0 20120.0,20398.0 20120.0,20415.0 C 20120.0,20433.0 20116.0,20460.0 20111.0,20476.0 C 20106.0,20492.0 20095.0,20541.0 20085.0,20585.0 C 20076.0,20629.0 20062.0,20683.0 20054.0,20705.0 C 20046.0,20728.0 20040.0,20757.0 20040.0,20771.0 C 20040.0,20785.0 20036.0,20800.0 20031.0,20805.0 C 20027.0,20811.0 20017.0,20844.0 20011.0,20880.0 C 19993.0,20979.0 19959.0,21123.0 19949.0,21145.0 C 19944.0,21156.0 19936.0,21188.0 19931.0,21215.0 C 19899.0,21400.0 19886.0,21460.0 19869.0,21499.0 C 19859.0,21523.0 19850.0,21552.0 19850.0,21563.0 C 19850.0,21574.0 19846.0,21599.0 19841.0,21619.0 C 19828.0,21669.0 19811.0,21792.0 19805.0,21875.0 C 19802.0,21914.0 19795.0,21999.0 19790.0,22065.0 C 19779.0,22214.0 19775.0,22661.0 19784.0,22915.0 C 19790.0,23112.0 19818.0,23549.0 19825.0,23560.0 C 19827.0,23564.0 19838.0,23638.0 19850.0,23726.0 C 19888.0,24019.0 19979.0,24318.0 20104.0,24560.0 C 20221.0,24786.0 20232.0,24806.0 20286.0,24880.0 C 20316.0,24921.0 20365.0,24991.0 20395.0,25035.0 C 20533.0,25235.0 20656.0,25370.0 20839.0,25521.0 C 21044.0,25689.0 21165.0,25763.0 21330.0,25825.0 C 21355.0,25834.0 21397.0,25853.0 21425.0,25867.0 C 21482.0,25896.0 21634.0,25949.0 21764.0,25984.0 C 21907.0,26022.0 22059.0,26040.0 22286.0,26046.0 C 22482.0,26052.0 22498.0,26054.0 22536.0,26076.0 C 22578.0,26100.0 22640.0,26163.0 22640.0,26181.0 C 22640.0,26187.0 22632.0,26204.0 22622.0,26218.0 C 22612.0,26233.0 22598.0,26264.0 22592.0,26286.0 C 22585.0,26309.0 22573.0,26333.0 22565.0,26340.0 C 22557.0,26347.0 22550.0,26359.0 22550.0,26366.0 C 22550.0,26374.0 22535.0,26411.0 22516.0,26448.0 C 22443.0,26594.0 22330.0,26997.0 22304.0,27205.0 C 22292.0,27306.0 22284.0,27420.0 22287.0,27450.0 C 22289.0,27469.0 22292.0,27550.0 22294.0,27630.0 C 22298.0,27781.0 22314.0,27985.0 22331.0,28080.0 C 22336.0,28110.0 22342.0,28149.0 22344.0,28165.0 C 22348.0,28194.0 22378.0,28320.0 22401.0,28405.0 C 22407.0,28427.0 22421.0,28461.0 22431.0,28481.0 C 22442.0,28501.0 22450.0,28528.0 22450.0,28541.0 C 22450.0,28554.0 22461.0,28586.0 22475.0,28612.0 C 22489.0,28638.0 22500.0,28667.0 22500.0,28677.0 C 22500.0,28687.0 22512.0,28713.0 22525.0,28735.0 C 22539.0,28757.0 22550.0,28782.0 22550.0,28790.0 C 22550.0,28802.0 22594.0,28897.0 22675.0,29060.0 C 22687.0,29085.0 22703.0,29129.0 22710.0,29158.0 C 22717.0,29186.0 22729.0,29214.0 22737.0,29219.0 C 22752.0,29227.0 22786.0,29307.0 22798.0,29360.0 C 22801.0,29374.0 22820.0,29408.0 22842.0,29436.0 C 22863.0,29464.0 22880.0,29494.0 22880.0,29503.0 C 22880.0,29512.0 22898.0,29554.0 22920.0,29597.0 C 22942.0,29640.0 22960.0,29681.0 22960.0,29688.0 C 22960.0,29701.0 23003.0,29812.0 23020.0,29842.0 C 23026.0,29852.0 23030.0,29875.0 23030.0,29894.0 C 23030.0,29912.0 23039.0,29939.0 23050.0,29953.0 C 23061.0,29967.0 23070.0,29986.0 23070.0,29997.0 C 23070.0,30007.0 23079.0,30033.0 23089.0,30055.0 C 23133.0,30145.0 23149.0,30191.0 23164.0,30261.0 C 23185.0,30366.0 23211.0,30463.0 23221.0,30475.0 C 23226.0,30480.0 23230.0,30497.0 23230.0,30512.0 C 23230.0,30527.0 23233.0,30540.0 23238.0,30540.0 C 23246.0,30540.0 23268.0,30621.0 23280.0,30695.0 C 23287.0,30744.0 23311.0,30824.0 23330.0,30865.0 C 23351.0,30911.0 23370.0,31002.0 23370.0,31057.0 C 23371.0,31089.0 23375.0,31135.0 23381.0,31160.0 C 23386.0,31185.0 23398.0,31248.0 23406.0,31300.0 C 23415.0,31352.0 23428.0,31427.0 23435.0,31465.0 C 23443.0,31504.0 23452.0,31576.0 23455.0,31627.0 C 23459.0,31677.0 23463.0,31738.0 23465.0,31762.0 C 23467.0,31785.0 23471.0,31866.0 23474.0,31940.0 C 23478.0,32014.0 23483.0,32094.0 23485.0,32117.0 C 23488.0,32141.0 23484.0,32213.0 23476.0,32277.0 C 23468.0,32342.0 23461.0,32433.0 23461.0,32480.0 C 23460.0,32527.0 23455.0,32599.0 23450.0,32640.0 C 23427.0,32807.0 23419.0,32857.0 23409.0,32900.0 C 23399.0,32941.0 23381.0,33041.0 23360.0,33165.0 C 23346.0,33246.0 23305.0,33418.0 23289.0,33465.0 C 23283.0,33482.0 23272.0,33533.0 23264.0,33580.0 C 23242.0,33716.0 23238.0,33734.0 23230.0,33745.0 C 23222.0,33756.0 23208.0,33804.0 23204.0,33830.0 C 23202.0,33852.0 23150.0,34060.0 23140.0,34090.0 C 23131.0,34119.0 23127.0,34128.0 23090.0,34230.0 C 23075.0,34271.0 23052.0,34330.0 23040.0,34360.0 C 23028.0,34390.0 23015.0,34429.0 23010.0,34445.0 C 23006.0,34462.0 22984.0,34516.0 22961.0,34566.0 C 22939.0,34617.0 22920.0,34667.0 22920.0,34678.0 C 22920.0,34688.0 22911.0,34709.0 22900.0,34723.0 C 22889.0,34737.0 22864.0,34788.0 22845.0,34835.0 C 22825.0,34883.0 22799.0,34936.0 22785.0,34954.0 C 22771.0,34972.0 22760.0,34992.0 22760.0,34998.0 C 22760.0,35020.0 22659.0,35232.0 22635.0,35260.0 C 22628.0,35268.0 22594.0,35331.0 22559.0,35400.0 C 22524.0,35469.0 22481.0,35546.0 22463.0,35572.0 C 22445.0,35598.0 22430.0,35624.0 22430.0,35629.0 C 22430.0,35634.0 22414.0,35657.0 22395.0,35680.0 C 22376.0,35703.0 22360.0,35726.0 22360.0,35732.0 C 22360.0,35741.0 22348.0,35758.0 22248.0,35884.0 C 22221.0,35917.0 22200.0,35949.0 22200.0,35955.0 C 22200.0,35961.0 22180.0,35986.0 22155.0,36011.0 C 22131.0,36035.0 22110.0,36059.0 22110.0,36064.0 C 22110.0,36072.0 22058.0,36141.0 22018.0,36185.0 C 21974.0,36234.0 21931.0,36288.0 21908.0,36325.0 C 21894.0,36347.0 21850.0,36398.0 21811.0,36438.0 C 21772.0,36478.0 21740.0,36513.0 21740.0,36515.0 C 21740.0,36528.0 21653.0,36630.0 21643.0,36630.0 C 21636.0,36630.0 21630.0,36636.0 21630.0,36644.0 C 21630.0,36652.0 21622.0,36661.0 21613.0,36664.0 C 21603.0,36668.0 21582.0,36688.0 21567.0,36710.0 C 21551.0,36732.0 21533.0,36750.0 21525.0,36750.0 C 21518.0,36750.0 21508.0,36759.0 21505.0,36770.0 C 21502.0,36781.0 21490.0,36795.0 21479.0,36801.0 C 21459.0,36811.0 21336.0,36924.0 21296.0,36968.0 C 21250.0,37020.0 21155.0,37110.0 21148.0,37110.0 C 21143.0,37110.0 21117.0,37133.0 21090.0,37160.0 C 21063.0,37188.0 21036.0,37210.0 21031.0,37210.0 C 21026.0,37210.0 20995.0,37235.0 20964.0,37265.0 C 20932.0,37295.0 20900.0,37320.0 20894.0,37320.0 C 20887.0,37320.0 20871.0,37333.0 20858.0,37349.0 C 20845.0,37365.0 20792.0,37411.0 20740.0,37451.0 C 20688.0,37490.0 20643.0,37526.0 20640.0,37530.0 C 20632.0,37542.0 20551.0,37602.0 20485.0,37645.0 C 20452.0,37666.0 20407.0,37699.0 20384.0,37717.0 C 20361.0,37735.0 20338.0,37750.0 20332.0,37750.0 C 20326.0,37750.0 20315.0,37758.0 20308.0,37768.0 C 20301.0,37778.0 20276.0,37795.0 20252.0,37807.0 C 20229.0,37818.0 20200.0,37839.0 20189.0,37854.0 C 20178.0,37868.0 20162.0,37880.0 20155.0,37880.0 C 20148.0,37880.0 20129.0,37890.0 20113.0,37903.0 C 20098.0,37915.0 20066.0,37936.0 20042.0,37949.0 C 20018.0,37962.0 19975.0,37987.0 19947.0,38006.0 C 19919.0,38025.0 19891.0,38040.0 19886.0,38040.0 C 19881.0,38040.0 19867.0,38048.0 19856.0,38058.0 C 19828.0,38083.0 19692.0,38160.0 19675.0,38160.0 C 19668.0,38160.0 19657.0,38166.0 19651.0,38174.0 C 19644.0,38182.0 19628.0,38191.0 19614.0,38194.0 C 19583.0,38202.0 19498.0,38243.0 19445.0,38275.0 C 19406.0,38299.0 19389.0,38307.0 19320.0,38337.0 C 19301.0,38345.0 19274.0,38358.0 19260.0,38366.0 C 19246.0,38373.0 19215.0,38389.0 19190.0,38400.0 C 19165.0,38412.0 19123.0,38431.0 19095.0,38444.0 C 19068.0,38457.0 19025.0,38473.0 19000.0,38480.0 C 18960.0,38491.0 18898.0,38517.0 18818.0,38557.0 C 18804.0,38564.0 18783.0,38570.0 18773.0,38570.0 C 18762.0,38570.0 18745.0,38577.0 18734.0,38585.0 C 18724.0,38593.0 18705.0,38600.0 18692.0,38600.0 C 18679.0,38600.0 18652.0,38609.0 18632.0,38619.0 C 18612.0,38629.0 18577.0,38644.0 18555.0,38650.0 C 18533.0,38657.0 18497.0,38671.0 18475.0,38680.0 C 18409.0,38709.0 18287.0,38752.0 18255.0,38757.0 C 18239.0,38760.0 18207.0,38770.0 18185.0,38780.0 C 18142.0,38799.0 17999.0,38840.0 17975.0,38840.0 C 17967.0,38840.0 17941.0,38848.0 17917.0,38859.0 C 17836.0,38895.0 17697.0,38933.0 17415.0,38997.0 C 17377.0,39005.0 17327.0,39021.0 17304.0,39031.0 C 17281.0,39042.0 17249.0,39050.0 17233.0,39050.0 C 17216.0,39050.0 17169.0,39061.0 17128.0,39074.0 C 16999.0,39116.0 16846.0,39152.0 16590.0,39200.0 C 16532.0,39211.0 16451.0,39226.0 16410.0,39234.0 C 16369.0,39241.0 16317.0,39250.0 16295.0,39254.0 C 16273.0,39257.0 16210.0,39269.0 16155.0,39280.0 C 16100.0,39292.0 16026.0,39305.0 15990.0,39310.0 C 15954.0,39315.0 15880.0,39326.0 15825.0,39335.0 C 15730.0,39349.0 15669.0,39357.0 15468.0,39380.0 C 15420.0,39386.0 15319.0,39393.0 15243.0,39396.0 C 15037.0,39404.0 14865.0,39420.0 14830.0,39433.0 C 14822.0,39437.0 14790.0,39441.0 14760.0,39444.0 C 14730.0,39446.0 14687.0,39451.0 14665.0,39454.0 C 14643.0,39457.0 14567.0,39463.0 14495.0,39466.0 C 14424.0,39470.0 14334.0,39474.0 14295.0,39476.0 C 14257.0,39478.0 14185.0,39481.0 14135.0,39484.0 C 14086.0,39486.0 14033.0,39491.0 14019.0,39495.0 C 14005.0,39498.0 13904.0,39502.0 13794.0,39503.0 L 13595.0,39505.0 L 13598.0,39528.0 C 13602.0,39554.0 13579.0,39558.0 13560.0,39535.0 M 13990.0,39465.0 C 14022.0,39455.0 14242.0,39439.0 14405.0,39434.0 C 14521.0,39430.0 14583.0,39424.0 14602.0,39414.0 C 14620.0,39405.0 14631.0,39403.0 14635.0,39411.0 C 14639.0,39416.0 14654.0,39419.0 14668.0,39416.0 C 14683.0,39413.0 14742.0,39405.0 14800.0,39399.0 C 14858.0,39393.0 14919.0,39386.0 14935.0,39384.0 C 14952.0,39381.0 15048.0,39375.0 15150.0,39369.0 C 15252.0,39364.0 15371.0,39353.0 15415.0,39345.0 C 15459.0,39337.0 15540.0,39325.0 15595.0,39320.0 C 15650.0,39314.0 15718.0,39307.0 15745.0,39304.0 C 15773.0,39302.0 15810.0,39295.0 15827.0,39289.0 C 15845.0,39283.0 15864.0,39282.0 15870.0,39285.0 C 15876.0,39289.0 15887.0,39287.0 15894.0,39281.0 C 15901.0,39275.0 15943.0,39267.0 15986.0,39265.0 C 16029.0,39262.0 16085.0,39255.0 16110.0,39250.0 C 16135.0,39245.0 16209.0,39231.0 16274.0,39220.0 C 16340.0,39209.0 16410.0,39195.0 16430.0,39190.0 C 16451.0,39184.0 16483.0,39178.0 16501.0,39175.0 C 16520.0,39172.0 16546.0,39167.0 16560.0,39165.0 C 16574.0,39163.0 16603.0,39159.0 16625.0,39155.0 C 16661.0,39150.0 16711.0,39139.0 16835.0,39110.0 C 16890.0,39096.0 16930.0,39089.0 16961.0,39086.0 C 16975.0,39085.0 16991.0,39081.0 16997.0,39077.0 C 17006.0,39071.0 17162.0,39028.0 17240.0,39010.0 C 17283.0,38999.0 17320.0,38989.0 17435.0,38955.0 C 17485.0,38940.0 17581.0,38913.0 17650.0,38895.0 C 17719.0,38877.0 17795.0,38855.0 17820.0,38847.0 C 17845.0,38838.0 17926.0,38812.0 18000.0,38790.0 C 18074.0,38767.0 18158.0,38741.0 18185.0,38731.0 C 18236.0,38712.0 18281.0,38699.0 18357.0,38680.0 C 18380.0,38674.0 18402.0,38665.0 18405.0,38660.0 C 18408.0,38654.0 18420.0,38650.0 18431.0,38650.0 C 18442.0,38650.0 18471.0,38639.0 18496.0,38625.0 C 18521.0,38611.0 18546.0,38600.0 18553.0,38600.0 C 18560.0,38600.0 18588.0,38589.0 18615.0,38575.0 C 18643.0,38562.0 18677.0,38550.0 18692.0,38550.0 C 18707.0,38550.0 18741.0,38540.0 18767.0,38529.0 C 18794.0,38517.0 18824.0,38503.0 18835.0,38499.0 C 18846.0,38494.0 18881.0,38479.0 18914.0,38465.0 C 18946.0,38451.0 18980.0,38440.0 18989.0,38440.0 C 18998.0,38440.0 19016.0,38433.0 19030.0,38425.0 C 19079.0,38398.0 19139.0,38370.0 19150.0,38370.0 C 19160.0,38370.0 19480.0,38213.0 19575.0,38163.0 C 19586.0,38157.0 19631.0,38135.0 19675.0,38114.0 C 19719.0,38093.0 19783.0,38057.0 19816.0,38034.0 C 19850.0,38011.0 19896.0,37982.0 19919.0,37971.0 C 19941.0,37959.0 19960.0,37945.0 19960.0,37940.0 C 19960.0,37934.0 19969.0,37930.0 19979.0,37930.0 C 19990.0,37930.0 20001.0,37926.0 20004.0,37921.0 C 20007.0,37916.0 20029.0,37903.0 20052.0,37892.0 C 20076.0,37881.0 20107.0,37861.0 20123.0,37846.0 C 20138.0,37832.0 20172.0,37809.0 20198.0,37794.0 C 20224.0,37779.0 20256.0,37757.0 20270.0,37745.0 C 20284.0,37733.0 20315.0,37711.0 20340.0,37696.0 C 20365.0,37682.0 20412.0,37647.0 20445.0,37620.0 C 20478.0,37592.0 20512.0,37567.0 20520.0,37563.0 C 20528.0,37560.0 20549.0,37545.0 20567.0,37531.0 C 20635.0,37477.0 20659.0,37460.0 20669.0,37460.0 C 20675.0,37460.0 20680.0,37456.0 20680.0,37450.0 C 20680.0,37445.0 20704.0,37423.0 20733.0,37401.0 C 20763.0,37379.0 20795.0,37354.0 20804.0,37345.0 C 20813.0,37336.0 20853.0,37301.0 20893.0,37269.0 C 20932.0,37236.0 20985.0,37192.0 21010.0,37170.0 C 21035.0,37148.0 21078.0,37111.0 21106.0,37088.0 C 21293.0,36932.0 21612.0,36613.0 21764.0,36430.0 C 21794.0,36394.0 21826.0,36357.0 21836.0,36348.0 C 21847.0,36339.0 21871.0,36310.0 21890.0,36284.0 C 21909.0,36259.0 21948.0,36211.0 21975.0,36178.0 C 22003.0,36145.0 22044.0,36090.0 22068.0,36056.0 C 22092.0,36023.0 22124.0,35982.0 22140.0,35965.0 C 22155.0,35949.0 22184.0,35910.0 22203.0,35880.0 C 22222.0,35849.0 22246.0,35818.0 22255.0,35810.0 C 22284.0,35786.0 22353.0,35676.0 22467.0,35471.0 C 22499.0,35414.0 22537.0,35347.0 22552.0,35321.0 C 22566.0,35296.0 22586.0,35260.0 22594.0,35241.0 C 22603.0,35222.0 22628.0,35178.0 22650.0,35144.0 C 22672.0,35110.0 22701.0,35049.0 22714.0,35010.0 C 22728.0,34970.0 22752.0,34917.0 22768.0,34892.0 C 22783.0,34866.0 22802.0,34829.0 22810.0,34810.0 C 22818.0,34791.0 22841.0,34743.0 22862.0,34703.0 C 22883.0,34664.0 22900.0,34627.0 22900.0,34621.0 C 22900.0,34614.0 22915.0,34577.0 22934.0,34537.0 C 22952.0,34497.0 22982.0,34416.0 23000.0,34355.0 C 23034.0,34237.0 23047.0,34197.0 23061.0,34165.0 C 23079.0,34124.0 23099.0,34054.0 23106.0,34010.0 C 23110.0,33985.0 23121.0,33948.0 23131.0,33928.0 C 23142.0,33907.0 23150.0,33877.0 23150.0,33861.0 C 23150.0,33844.0 23156.0,33816.0 23164.0,33798.0 C 23172.0,33780.0 23186.0,33729.0 23195.0,33685.0 C 23230.0,33516.0 23273.0,33334.0 23282.0,33316.0 C 23288.0,33306.0 23294.0,33285.0 23295.0,33271.0 C 23304.0,33198.0 23375.0,32728.0 23392.0,32635.0 C 23398.0,32602.0 23404.0,32516.0 23405.0,32445.0 C 23406.0,32373.0 23412.0,32305.0 23417.0,32295.0 C 23422.0,32284.0 23426.0,32250.0 23424.0,32220.0 C 23423.0,32190.0 23420.0,32075.0 23419.0,31965.0 C 23414.0,31615.0 23392.0,31380.0 23345.0,31184.0 C 23337.0,31151.0 23330.0,31108.0 23330.0,31088.0 C 23330.0,31054.0 23297.0,30909.0 23284.0,30889.0 C 23276.0,30875.0 23240.0,30722.0 23240.0,30698.0 C 23240.0,30676.0 23204.0,30553.0 23158.0,30420.0 C 23142.0,30373.0 23116.0,30297.0 23100.0,30250.0 C 23084.0,30203.0 23059.0,30134.0 23044.0,30095.0 C 23030.0,30057.0 23002.0,29980.0 22983.0,29925.0 C 22965.0,29870.0 22943.0,29816.0 22935.0,29803.0 C 22927.0,29791.0 22920.0,29772.0 22920.0,29761.0 C 22920.0,29750.0 22916.0,29739.0 22911.0,29736.0 C 22906.0,29733.0 22899.0,29718.0 22895.0,29703.0 C 22889.0,29675.0 22875.0,29644.0 22815.0,29515.0 C 22734.0,29344.0 22710.0,29290.0 22710.0,29280.0 C 22710.0,29274.0 22699.0,29252.0 22685.0,29230.0 C 22671.0,29208.0 22660.0,29184.0 22660.0,29176.0 C 22660.0,29168.0 22656.0,29159.0 22651.0,29155.0 C 22642.0,29150.0 22621.0,29108.0 22565.0,28985.0 C 22524.0,28895.0 22510.0,28865.0 22500.0,28850.0 C 22481.0,28819.0 22441.0,28722.0 22416.0,28645.0 C 22401.0,28601.0 22378.0,28541.0 22364.0,28512.0 C 22351.0,28483.0 22340.0,28451.0 22340.0,28440.0 C 22340.0,28430.0 22336.0,28418.0 22330.0,28415.0 C 22325.0,28412.0 22320.0,28392.0 22320.0,28372.0 C 22320.0,28335.0 22306.0,28271.0 22290.0,28235.0 C 22279.0,28210.0 22268.0,28148.0 22264.0,28090.0 C 22262.0,28065.0 22256.0,28020.0 22251.0,27990.0 C 22247.0,27960.0 22237.0,27859.0 22231.0,27765.0 C 22224.0,27672.0 22215.0,27580.0 22210.0,27561.0 C 22204.0,27537.0 22205.0,27522.0 22215.0,27506.0 C 22227.0,27488.0 22249.0,27263.0 22242.0,27237.0 C 22238.0,27223.0 22278.0,27012.0 22289.0,26993.0 C 22294.0,26983.0 22304.0,26946.0 22310.0,26910.0 C 22322.0,26848.0 22368.0,26698.0 22405.0,26600.0 C 22452.0,26475.0 22482.0,26403.0 22501.0,26370.0 C 22529.0,26321.0 22559.0,26250.0 22564.0,26220.0 C 22571.0,26181.0 22563.0,26168.0 22510.0,26128.0 C 22473.0,26101.0 22426.0,26094.0 22090.0,26074.0 C 22038.0,26071.0 21982.0,26066.0 21965.0,26064.0 C 21949.0,26061.0 21927.0,26059.0 21918.0,26059.0 C 21908.0,26059.0 21900.0,26056.0 21900.0,26052.0 C 21900.0,26048.0 21883.0,26045.0 21863.0,26046.0 C 21842.0,26046.0 21809.0,26041.0 21790.0,26034.0 C 21756.0,26021.0 21609.0,25979.0 21521.0,25958.0 C 21496.0,25952.0 21456.0,25935.0 21430.0,25919.0 C 21404.0,25903.0 21352.0,25879.0 21314.0,25865.0 C 21276.0,25851.0 21231.0,25833.0 21213.0,25825.0 C 21196.0,25817.0 21178.0,25810.0 21172.0,25810.0 C 21167.0,25810.0 21150.0,25800.0 21135.0,25788.0 C 21106.0,25765.0 21081.0,25750.0 21001.0,25708.0 C 20977.0,25695.0 20936.0,25665.0 20909.0,25640.0 C 20860.0,25593.0 20776.0,25525.0 20710.0,25478.0 C 20615.0,25409.0 20387.0,25134.0 20312.0,24997.0 C 20299.0,24974.0 20278.0,24944.0 20266.0,24930.0 C 20222.0,24882.0 20110.0,24701.0 20110.0,24678.0 C 20110.0,24672.0 20088.0,24623.0 20060.0,24569.0 C 20033.0,24515.0 20010.0,24465.0 20010.0,24457.0 C 20010.0,24449.0 20003.0,24437.0 19995.0,24430.0 C 19987.0,24423.0 19980.0,24411.0 19980.0,24403.0 C 19980.0,24395.0 19971.0,24370.0 19961.0,24347.0 C 19950.0,24324.0 19934.0,24278.0 19925.0,24246.0 C 19915.0,24213.0 19901.0,24171.0 19892.0,24151.0 C 19883.0,24131.0 19875.0,24106.0 19874.0,24095.0 C 19871.0,24061.0 19852.0,23976.0 19841.0,23947.0 C 19835.0,23931.0 19830.0,23905.0 19830.0,23889.0 C 19830.0,23873.0 19826.0,23852.0 19821.0,23842.0 C 19808.0,23818.0 19776.0,23550.0 19765.0,23370.0 C 19756.0,23217.0 19750.0,23070.0 19750.0,22970.0 C 19750.0,22883.0 19745.0,22841.0 19730.0,22800.0 C 19711.0,22744.0 19710.0,22700.0 19725.0,22495.0 C 19728.0,22451.0 19733.0,22336.0 19735.0,22240.0 C 19741.0,22016.0 19757.0,21752.0 19766.0,21738.0 C 19774.0,21726.0 19797.0,21601.0 19810.0,21505.0 C 19821.0,21425.0 19826.0,21402.0 19844.0,21354.0 C 19852.0,21332.0 19863.0,21285.0 19869.0,21249.0 C 19874.0,21214.0 19888.0,21158.0 19900.0,21126.0 C 19912.0,21093.0 19923.0,21055.0 19925.0,21041.0 C 19930.0,21004.0 19940.0,20961.0 19955.0,20915.0 C 19962.0,20893.0 19974.0,20835.0 19981.0,20787.0 C 19988.0,20739.0 19997.0,20697.0 20002.0,20694.0 C 20006.0,20691.0 20010.0,20676.0 20010.0,20661.0 C 20010.0,20645.0 20021.0,20590.0 20035.0,20539.0 C 20049.0,20487.0 20065.0,20429.0 20070.0,20410.0 C 20075.0,20391.0 20084.0,20374.0 20089.0,20372.0 C 20095.0,20370.0 20100.0,20346.0 20100.0,20319.0 C 20100.0,20292.0 20106.0,20259.0 20114.0,20247.0 C 20122.0,20235.0 20131.0,20205.0 20135.0,20180.0 C 20139.0,20156.0 20146.0,20129.0 20151.0,20120.0 C 20158.0,20107.0 20183.0,20014.0 20221.0,19865.0 C 20228.0,19838.0 20239.0,19806.0 20246.0,19795.0 C 20253.0,19784.0 20266.0,19750.0 20275.0,19719.0 C 20297.0,19639.0 20354.0,19503.0 20374.0,19481.0 C 20383.0,19472.0 20390.0,19460.0 20390.0,19456.0 C 20390.0,19451.0 20417.0,19393.0 20449.0,19326.0 C 20482.0,19260.0 20522.0,19176.0 20539.0,19140.0 C 20575.0,19062.0 20653.0,18918.0 20679.0,18881.0 C 20689.0,18867.0 20726.0,18808.0 20761.0,18750.0 C 20826.0,18642.0 20888.0,18550.0 20936.0,18491.0 C 20951.0,18473.0 20981.0,18433.0 21003.0,18401.0 C 21048.0,18337.0 21165.0,18211.0 21225.0,18162.0 C 21305.0,18097.0 21316.0,18088.0 21366.0,18049.0 C 21395.0,18028.0 21421.0,18010.0 21425.0,18010.0 C 21428.0,18010.0 21446.0,17999.0 21463.0,17986.0 C 21481.0,17973.0 21531.0,17943.0 21574.0,17921.0 C 21618.0,17898.0 21658.0,17876.0 21664.0,17871.0 C 21685.0,17855.0 21926.0,17758.0 22015.0,17730.0 C 22147.0,17688.0 22240.0,17663.0 22285.0,17655.0 C 22307.0,17652.0 22352.0,17644.0 22385.0,17639.0 C 22418.0,17633.0 22490.0,17626.0 22545.0,17623.0 C 22671.0,17617.0 23020.0,17619.0 23032.0,17626.0 C 23037.0,17629.0 23092.0,17633.0 23154.0,17635.0 C 23241.0,17637.0 23274.0,17642.0 23294.0,17655.0 C 23314.0,17668.0 23332.0,17671.0 23368.0,17667.0 C 23394.0,17664.0 23477.0,17666.0 23552.0,17672.0 L 23689.0,17683.0 L 23729.0,17656.0 C 23751.0,17641.0 23771.0,17621.0 23774.0,17613.0 C 23778.0,17604.0 23754.0,17544.0 23719.0,17477.0 C 23603.0,17245.0 23520.0,16984.0 23490.0,16755.0 C 23485.0,16717.0 23473.0,16640.0 23464.0,16585.0 C 23455.0,16530.0 23447.0,16469.0 23446.0,16450.0 C 23445.0,16380.0 23461.0,16179.0 23470.0,16154.0 C 23476.0,16140.0 23480.0,16113.0 23480.0,16094.0 C 23480.0,16074.0 23489.0,16020.0 23499.0,15972.0 C 23510.0,15924.0 23524.0,15858.0 23530.0,15825.0 C 23548.0,15728.0 23572.0,15636.0 23580.0,15625.0 C 23585.0,15619.0 23605.0,15568.0 23625.0,15510.0 C 23646.0,15452.0 23675.0,15369.0 23691.0,15325.0 C 23706.0,15281.0 23719.0,15236.0 23720.0,15224.0 C 23720.0,15202.0 23765.0,15105.0 23786.0,15080.0 C 23793.0,15071.0 23804.0,15042.0 23810.0,15015.0 C 23816.0,14987.0 23831.0,14947.0 23844.0,14925.0 C 23856.0,14903.0 23884.0,14840.0 23905.0,14785.0 C 23927.0,14730.0 23951.0,14674.0 23960.0,14660.0 C 23969.0,14646.0 23983.0,14619.0 23990.0,14600.0 C 23998.0,14581.0 24012.0,14552.0 24022.0,14535.0 C 24032.0,14519.0 24040.0,14499.0 24040.0,14492.0 C 24040.0,14485.0 24063.0,14431.0 24091.0,14372.0 C 24119.0,14313.0 24151.0,14243.0 24161.0,14216.0 C 24172.0,14190.0 24196.0,14138.0 24215.0,14102.0 C 24234.0,14066.0 24250.0,14031.0 24250.0,14023.0 C 24250.0,14016.0 24260.0,13993.0 24273.0,13972.0 C 24286.0,13952.0 24304.0,13917.0 24314.0,13895.0 C 24359.0,13796.0 24371.0,13768.0 24425.0,13660.0 C 24456.0,13597.0 24496.0,13518.0 24515.0,13485.0 C 24564.0,13398.0 24580.0,13362.0 24630.0,13235.0 C 24651.0,13182.0 24683.0,13120.0 24691.0,13114.0 C 24696.0,13111.0 24698.0,13105.0 24695.0,13100.0 C 24690.0,13092.0 24730.0,13010.0 24764.0,12958.0 C 24774.0,12943.0 24786.0,12913.0 24791.0,12893.0 C 24799.0,12855.0 24821.0,12799.0 24840.0,12770.0 C 24845.0,12762.0 24856.0,12737.0 24865.0,12715.0 C 24874.0,12693.0 24885.0,12668.0 24890.0,12660.0 C 24894.0,12651.0 24901.0,12629.0 24905.0,12610.0 C 24909.0,12591.0 24916.0,12569.0 24920.0,12560.0 C 24924.0,12552.0 24937.0,12525.0 24948.0,12500.0 C 24960.0,12475.0 24970.0,12445.0 24970.0,12433.0 C 24970.0,12421.0 24974.0,12408.0 24980.0,12405.0 C 24985.0,12402.0 24995.0,12380.0 25001.0,12357.0 C 25007.0,12334.0 25021.0,12296.0 25031.0,12273.0 C 25041.0,12250.0 25056.0,12206.0 25064.0,12176.0 C 25072.0,12146.0 25085.0,12106.0 25094.0,12088.0 C 25102.0,12070.0 25111.0,12040.0 25115.0,12022.0 C 25119.0,12004.0 25143.0,11923.0 25169.0,11842.0 C 25196.0,11761.0 25222.0,11670.0 25229.0,11640.0 C 25243.0,11574.0 25277.0,11437.0 25290.0,11395.0 C 25295.0,11379.0 25301.0,11354.0 25304.0,11340.0 C 25315.0,11284.0 25329.0,11222.0 25343.0,11170.0 C 25377.0,11048.0 25390.0,10989.0 25390.0,10963.0 C 25390.0,10948.0 25408.0,10845.0 25429.0,10735.0 C 25476.0,10492.0 25520.0,10219.0 25520.0,10166.0 C 25520.0,10127.0 25542.0,9913.0 25560.0,9770.0 C 25565.0,9729.0 25570.0,9567.0 25571.0,9410.0 C 25573.0,9126.0 25569.0,9064.0 25524.0,8670.0 C 25516.0,8596.0 25508.0,8507.0 25506.0,8472.0 C 25504.0,8437.0 25499.0,8406.0 25496.0,8403.0 C 25493.0,8399.0 25490.0,8378.0 25490.0,8356.0 C 25490.0,8300.0 25474.0,8200.0 25450.0,8110.0 C 25440.0,8069.0 25426.0,7986.0 25420.0,7925.0 C 25414.0,7865.0 25405.0,7793.0 25400.0,7765.0 C 25394.0,7738.0 25383.0,7675.0 25374.0,7625.0 C 25346.0,7463.0 25342.0,7443.0 25321.0,7374.0 C 25310.0,7336.0 25298.0,7280.0 25294.0,7250.0 C 25290.0,7220.0 25280.0,7182.0 25272.0,7165.0 C 25264.0,7149.0 25249.0,7101.0 25240.0,7060.0 C 25216.0,6957.0 25146.0,6768.0 25079.0,6623.0 C 25063.0,6589.0 25050.0,6557.0 25050.0,6551.0 C 25050.0,6546.0 25032.0,6507.0 25010.0,6466.0 C 24988.0,6425.0 24970.0,6382.0 24970.0,6371.0 C 24970.0,6360.0 24966.0,6349.0 24961.0,6346.0 C 24956.0,6342.0 24944.0,6314.0 24934.0,6282.0 C 24917.0,6225.0 24895.0,6178.0 24874.0,6150.0 C 24867.0,6142.0 24851.0,6108.0 24837.0,6075.0 C 24796.0,5976.0 24720.0,5821.0 24711.0,5816.0 C 24706.0,5813.0 24699.0,5795.0 24696.0,5776.0 C 24692.0,5758.0 24681.0,5735.0 24670.0,5725.0 C 24660.0,5716.0 24648.0,5694.0 24644.0,5677.0 C 24641.0,5660.0 24627.0,5630.0 24615.0,5610.0 C 24603.0,5591.0 24589.0,5564.0 24585.0,5550.0 C 24581.0,5536.0 24563.0,5503.0 24545.0,5475.0 C 24527.0,5448.0 24494.0,5391.0 24472.0,5350.0 C 24450.0,5308.0 24420.0,5257.0 24405.0,5235.0 C 24390.0,5213.0 24363.0,5168.0 24344.0,5135.0 C 24294.0,5049.0 24289.0,5041.0 24253.0,4983.0 C 24235.0,4954.0 24220.0,4926.0 24220.0,4921.0 C 24220.0,4915.0 24207.0,4896.0 24191.0,4878.0 C 24176.0,4860.0 24143.0,4814.0 24120.0,4775.0 C 24097.0,4737.0 24053.0,4679.0 24023.0,4647.0 C 23978.0,4597.0 23929.0,4531.0 23885.0,4460.0 C 23873.0,4441.0 23703.0,4231.0 23626.0,4140.0 C 23595.0,4104.0 23566.0,4066.0 23561.0,4054.0 C 23556.0,4042.0 23526.0,4009.0 23496.0,3979.0 C 23465.0,3949.0 23440.0,3922.0 23440.0,3917.0 C 23440.0,3906.0 23329.0,3776.0 23314.0,3770.0 C 23308.0,3767.0 23278.0,3742.0 23249.0,3714.0 C 23112.0,3583.0 23079.0,3552.0 22985.0,3471.0 C 22930.0,3423.0 22869.0,3373.0 22850.0,3360.0 C 22831.0,3346.0 22769.0,3299.0 22714.0,3255.0 C 22587.0,3155.0 22494.0,3085.0 22427.0,3040.0 C 22398.0,3021.0 22341.0,2979.0 22299.0,2947.0 C 22257.0,2916.0 22219.0,2890.0 22216.0,2890.0 C 22212.0,2890.0 22189.0,2875.0 22165.0,2858.0 C 22141.0,2840.0 22078.0,2798.0 22024.0,2765.0 C 21971.0,2732.0 21913.0,2693.0 21895.0,2678.0 C 21877.0,2662.0 21859.0,2650.0 21854.0,2650.0 C 21841.0,2650.0 21681.0,2551.0 21635.0,2515.0 C 21613.0,2497.0 21579.0,2477.0 21560.0,2470.0 C 21541.0,2463.0 21521.0,2453.0 21515.0,2449.0 C 21510.0,2445.0 21456.0,2416.0 21395.0,2385.0 C 21231.0,2300.0 21231.0,2299.0 21225.0,2289.0 C 21221.0,2284.0 21198.0,2270.0 21172.0,2259.0 C 21146.0,2247.0 21097.0,2220.0 21062.0,2199.0 C 21027.0,2177.0 20994.0,2160.0 20989.0,2160.0 C 20970.0,2160.0 20844.0,2092.0 20826.0,2072.0 C 20816.0,2060.0 20794.0,2048.0 20776.0,2045.0 C 20759.0,2041.0 20729.0,2028.0 20710.0,2016.0 C 20691.0,2003.0 20644.0,1983.0 20605.0,1971.0 C 20567.0,1958.0 20499.0,1931.0 20455.0,1909.0 C 20410.0,1888.0 20365.0,1870.0 20355.0,1870.0 C 20344.0,1870.0 20321.0,1861.0 20304.0,1851.0 C 20287.0,1841.0 20254.0,1829.0 20231.0,1825.0 C 20208.0,1821.0 20170.0,1808.0 20146.0,1795.0 C 20122.0,1782.0 20031.0,1752.0 19944.0,1727.0 C 19856.0,1702.0 19740.0,1668.0 19685.0,1650.0 C 19630.0,1633.0 19554.0,1611.0 19515.0,1600.0 C 19253.0,1528.0 19138.0,1499.0 19087.0,1490.0 C 19054.0,1484.0 19009.0,1473.0 18987.0,1465.0 C 18964.0,1457.0 18936.0,1450.0 18924.0,1450.0 C 18913.0,1450.0 18868.0,1441.0 18824.0,1430.0 C 18781.0,1418.0 18700.0,1401.0 18645.0,1390.0 C 18488.0,1360.0 18465.0,1354.0 18440.0,1337.0 C 18428.0,1329.0 18412.0,1324.0 18404.0,1327.0 C 18388.0,1333.0 18142.0,1293.0 18085.0,1276.0 C 18063.0,1269.0 17991.0,1257.0 17925.0,1251.0 C 17859.0,1244.0 17794.0,1234.0 17780.0,1229.0 C 17766.0,1225.0 17702.0,1216.0 17638.0,1210.0 C 17573.0,1204.0 17506.0,1195.0 17488.0,1189.0 C 17470.0,1184.0 17401.0,1173.0 17335.0,1164.0 C 17269.0,1156.0 17181.0,1142.0 17140.0,1133.0 C 17099.0,1125.0 17049.0,1116.0 17030.0,1114.0 C 16863.0,1098.0 16677.0,1078.0 16535.0,1061.0 C 16442.0,1050.0 16266.0,1036.0 16145.0,1029.0 C 15963.0,1019.0 15920.0,1014.0 15894.0,999.0 C 15865.0,981.0 15836.0,980.0 15489.0,981.0 C 15087.0,982.0 14770.0,975.0 14737.0,964.0 C 14726.0,961.0 14588.0,956.0 14431.0,954.0 C 14274.0,951.0 14127.0,949.0 14105.0,948.0 C 14083.0,948.0 14043.0,948.0 14015.0,949.0 C 13988.0,950.0 13913.0,947.0 13850.0,944.0 C 13689.0,935.0 13632.0,936.0 13270.0,955.0 C 13240.0,957.0 12927.0,961.0 12575.0,965.0 C 12223.0,968.0 11874.0,974.0 11800.0,978.0 C 11726.0,982.0 11607.0,983.0 11535.0,980.0 C 11464.0,977.0 11375.0,978.0 11338.0,982.0 C 11302.0,986.0 11230.0,989.0 11178.0,991.0 C 11090.0,993.0 10903.0,1014.0 10870.0,1026.0 C 10862.0,1029.0 10806.0,1033.0 10745.0,1036.0 C 10685.0,1038.0 10604.0,1043.0 10565.0,1046.0 C 10527.0,1049.0 10461.0,1053.0 10420.0,1055.0 C 10310.0,1060.0 10033.0,1087.0 9996.0,1095.0 C 9984.0,1098.0 9950.0,1102.0 9920.0,1105.0 C 9846.0,1110.0 9517.0,1159.0 9340.0,1190.0 C 9315.0,1194.0 9255.0,1203.0 9205.0,1210.0 C 9156.0,1217.0 9111.0,1226.0 9105.0,1231.0 C 9100.0,1236.0 9084.0,1240.0 9069.0,1240.0 C 9055.0,1240.0 9030.0,1244.0 9014.0,1249.0 C 8998.0,1255.0 8967.0,1261.0 8945.0,1264.0 C 8923.0,1267.0 8873.0,1276.0 8834.0,1284.0 C 8795.0,1292.0 8716.0,1307.0 8659.0,1316.0 C 8602.0,1325.0 8551.0,1335.0 8545.0,1340.0 C 8540.0,1344.0 8517.0,1350.0 8495.0,1353.0 C 8460.0,1359.0 8342.0,1382.0 8130.0,1425.0 C 8094.0,1432.0 8040.0,1445.0 8010.0,1454.0 C 7980.0,1463.0 7926.0,1477.0 7890.0,1485.0 C 7854.0,1494.0 7814.0,1505.0 7800.0,1511.0 C 7786.0,1517.0 7753.0,1526.0 7725.0,1530.0 C 7698.0,1534.0 7662.0,1543.0 7645.0,1549.0 C 7629.0,1554.0 7548.0,1580.0 7465.0,1606.0 C 7383.0,1631.0 7302.0,1658.0 7285.0,1665.0 C 7213.0,1696.0 7090.0,1738.0 7046.0,1746.0 C 7033.0,1748.0 6998.0,1761.0 6968.0,1775.0 C 6939.0,1789.0 6909.0,1800.0 6901.0,1800.0 C 6893.0,1800.0 6869.0,1809.0 6846.0,1820.0 C 6777.0,1853.0 6549.0,1951.0 6483.0,1976.0 C 6449.0,1989.0 6399.0,2010.0 6373.0,2024.0 C 6347.0,2037.0 6298.0,2060.0 6265.0,2075.0 C 6232.0,2090.0 6164.0,2122.0 6114.0,2146.0 C 6064.0,2170.0 6018.0,2190.0 6013.0,2190.0 C 5998.0,2190.0 5833.0,2268.0 5788.0,2297.0 C 5767.0,2309.0 5743.0,2320.0 5733.0,2320.0 C 5724.0,2320.0 5709.0,2326.0 5701.0,2333.0 C 5692.0,2340.0 5656.0,2359.0 5620.0,2375.0 C 5584.0,2390.0 5544.0,2411.0 5530.0,2420.0 C 5516.0,2430.0 5424.0,2478.0 5325.0,2527.0 C 5151.0,2613.0 5039.0,2676.0 4898.0,2767.0 C 4861.0,2791.0 4828.0,2810.0 4825.0,2810.0 C 4822.0,2810.0 4796.0,2827.0 4767.0,2848.0 C 4738.0,2869.0 4679.0,2908.0 4635.0,2935.0 C 4520.0,3005.0 4437.0,3066.0 4247.0,3220.0 C 4155.0,3294.0 4062.0,3369.0 4041.0,3385.0 C 3941.0,3464.0 3892.0,3506.0 3799.0,3592.0 C 3743.0,3643.0 3677.0,3707.0 3651.0,3734.0 C 3626.0,3761.0 3549.0,3841.0 3480.0,3910.0 C 3363.0,4029.0 3228.0,4182.0 3110.0,4329.0 C 3082.0,4364.0 3035.0,4420.0 3005.0,4454.0 C 2957.0,4509.0 2853.0,4644.0 2808.0,4710.0 C 2798.0,4724.0 2762.0,4772.0 2728.0,4817.0 C 2613.0,4968.0 2303.0,5461.0 2233.0,5605.0 C 2217.0,5638.0 2191.0,5683.0 2177.0,5704.0 C 2162.0,5725.0 2150.0,5747.0 2150.0,5752.0 C 2150.0,5757.0 2120.0,5823.0 2084.0,5898.0 C 2048.0,5973.0 2013.0,6049.0 2006.0,6065.0 C 1999.0,6082.0 1988.0,6106.0 1982.0,6120.0 C 1976.0,6134.0 1955.0,6181.0 1935.0,6225.0 C 1914.0,6269.0 1885.0,6341.0 1870.0,6385.0 C 1854.0,6429.0 1820.0,6524.0 1795.0,6595.0 C 1704.0,6850.0 1648.0,7031.0 1614.0,7180.0 C 1600.0,7243.0 1584.0,7306.0 1579.0,7320.0 C 1568.0,7351.0 1538.0,7492.0 1504.0,7670.0 C 1407.0,8182.0 1342.0,8800.0 1340.0,9229.0 C 1339.0,9384.0 1345.0,9438.0 1365.0,9461.0 C 1382.0,9479.0 1370.0,9497.0 1350.0,9485.0 C 1338.0,9477.0 1337.0,9466.0 1355.0,9766.0 C 1369.0,10000.0 1377.0,10090.0 1415.0,10405.0 C 1423.0,10471.0 1434.0,10572.0 1440.0,10630.0 C 1446.0,10688.0 1455.0,10751.0 1461.0,10770.0 C 1467.0,10789.0 1473.0,10823.0 1474.0,10845.0 C 1475.0,10867.0 1479.0,10892.0 1482.0,10900.0 C 1485.0,10908.0 1493.0,10947.0 1500.0,10985.0 C 1548.0,11269.0 1579.0,11415.0 1620.0,11545.0 C 1631.0,11578.0 1642.0,11623.0 1645.0,11645.0 C 1649.0,11667.0 1669.0,11744.0 1691.0,11815.0 C 1713.0,11887.0 1738.0,11968.0 1746.0,11995.0 C 1754.0,12023.0 1767.0,12061.0 1774.0,12080.0 C 1782.0,12099.0 1794.0,12142.0 1801.0,12175.0 C 1808.0,12208.0 1820.0,12251.0 1828.0,12270.0 C 1836.0,12289.0 1849.0,12329.0 1856.0,12359.0 C 1864.0,12389.0 1877.0,12427.0 1884.0,12444.0 C 1892.0,12461.0 1908.0,12509.0 1920.0,12550.0 C 1931.0,12591.0 1947.0,12639.0 1955.0,12655.0 C 1962.0,12672.0 1975.0,12705.0 1983.0,12730.0 C 1991.0,12755.0 2025.0,12845.0 2059.0,12929.0 C 2092.0,13014.0 2120.0,13093.0 2120.0,13104.0 C 2120.0,13116.0 2127.0,13134.0 2135.0,13144.0 C 2143.0,13155.0 2150.0,13172.0 2150.0,13183.0 C 2150.0,13193.0 2161.0,13215.0 2175.0,13232.0 C 2189.0,13248.0 2203.0,13274.0 2206.0,13288.0 C 2211.0,13312.0 2248.0,13398.0 2286.0,13473.0 C 2294.0,13489.0 2300.0,13509.0 2300.0,13518.0 C 2300.0,13528.0 2311.0,13555.0 2325.0,13580.0 C 2339.0,13605.0 2357.0,13641.0 2366.0,13660.0 C 2374.0,13679.0 2388.0,13706.0 2395.0,13720.0 C 2403.0,13734.0 2417.0,13761.0 2426.0,13780.0 C 2435.0,13799.0 2451.0,13825.0 2461.0,13839.0 C 2471.0,13852.0 2480.0,13869.0 2480.0,13877.0 C 2480.0,13885.0 2490.0,13906.0 2503.0,13923.0 C 2515.0,13940.0 2546.0,13995.0 2571.0,14045.0 C 2596.0,14094.0 2650.0,14198.0 2690.0,14275.0 C 2730.0,14352.0 2779.0,14447.0 2798.0,14485.0 C 2818.0,14524.0 2842.0,14566.0 2852.0,14579.0 C 2862.0,14592.0 2870.0,14611.0 2870.0,14620.0 C 2870.0,14630.0 2877.0,14643.0 2885.0,14650.0 C 2893.0,14657.0 2900.0,14671.0 2900.0,14681.0 C 2900.0,14692.0 2905.0,14700.0 2911.0,14700.0 C 2916.0,14700.0 2928.0,14715.0 2936.0,14733.0 C 2944.0,14750.0 2954.0,14772.0 2959.0,14780.0 C 2963.0,14788.0 2974.0,14809.0 2984.0,14825.0 C 3044.0,14933.0 3200.0,15271.0 3200.0,15293.0 C 3200.0,15299.0 3207.0,15318.0 3215.0,15334.0 C 3223.0,15350.0 3241.0,15399.0 3255.0,15444.0 C 3269.0,15489.0 3287.0,15535.0 3295.0,15546.0 C 3303.0,15556.0 3310.0,15573.0 3310.0,15582.0 C 3310.0,15592.0 3323.0,15639.0 3339.0,15687.0 C 3366.0,15766.0 3382.0,15838.0 3420.0,16048.0 C 3449.0,16210.0 3462.0,16581.0 3445.0,16765.0 C 3436.0,16868.0 3412.0,16993.0 3384.0,17090.0 C 3355.0,17188.0 3303.0,17337.0 3289.0,17362.0 C 3284.0,17372.0 3280.0,17391.0 3280.0,17406.0 C 3280.0,17420.0 3271.0,17443.0 3260.0,17457.0 C 3249.0,17471.0 3240.0,17495.0 3240.0,17509.0 C 3240.0,17526.0 3229.0,17545.0 3211.0,17561.0 C 3194.0,17576.0 3178.0,17600.0 3174.0,17616.0 C 3170.0,17632.0 3156.0,17659.0 3143.0,17676.0 C 3111.0,17719.0 3112.0,17779.0 3146.0,17819.0 C 3171.0,17849.0 3172.0,17850.0 3208.0,17834.0 C 3228.0,17825.0 3265.0,17812.0 3290.0,17803.0 C 3315.0,17794.0 3345.0,17778.0 3357.0,17766.0 C 3418.0,17707.0 3417.0,17708.0 3424.0,17726.0 C 3429.0,17739.0 3439.0,17741.0 3478.0,17736.0 C 3735.0,17704.0 4197.0,17695.0 4350.0,17719.0 C 4654.0,17767.0 4808.0,17799.0 4944.0,17845.0 C 4985.0,17859.0 5023.0,17870.0 5029.0,17870.0 C 5042.0,17870.0 5269.0,17981.0 5322.0,18013.0 C 5541.0,18146.0 5567.0,18163.0 5636.0,18220.0 C 5673.0,18250.0 5708.0,18280.0 5714.0,18285.0 C 5720.0,18291.0 5744.0,18311.0 5766.0,18331.0 C 5845.0,18401.0 6160.0,18758.0 6220.0,18846.0 C 6302.0,18967.0 6359.0,19057.0 6390.0,19115.0 C 6410.0,19154.0 6438.0,19206.0 6453.0,19233.0 C 6467.0,19259.0 6484.0,19297.0 6491.0,19318.0 C 6497.0,19338.0 6508.0,19362.0 6514.0,19370.0 C 6532.0,19395.0 6550.0,19429.0 6550.0,19440.0 C 6550.0,19459.0 6589.0,19537.0 6613.0,19566.0 C 6635.0,19594.0 6710.0,19758.0 6710.0,19780.0 C 6710.0,19785.0 6736.0,19870.0 6768.0,19968.0 C 6830.0,20156.0 6880.0,20323.0 6906.0,20430.0 C 6950.0,20610.0 6957.0,20637.0 6968.0,20663.0 C 6975.0,20679.0 6980.0,20698.0 6980.0,20707.0 C 6980.0,20723.0 7052.0,21062.0 7070.0,21130.0 C 7075.0,21149.0 7082.0,21192.0 7085.0,21225.0 C 7088.0,21258.0 7095.0,21301.0 7100.0,21320.0 C 7105.0,21339.0 7114.0,21404.0 7120.0,21465.0 C 7127.0,21525.0 7136.0,21584.0 7140.0,21595.0 C 7151.0,21623.0 7168.0,21732.0 7175.0,21814.0 C 7178.0,21852.0 7185.0,21890.0 7189.0,21899.0 C 7205.0,21929.0 7227.0,22162.0 7235.0,22385.0 C 7241.0,22538.0 7247.0,22622.0 7255.0,22675.0 C 7266.0,22743.0 7258.0,23313.0 7245.0,23395.0 C 7243.0,23412.0 7238.0,23461.0 7235.0,23505.0 C 7225.0,23654.0 7219.0,23705.0 7205.0,23773.0 C 7188.0,23851.0 7166.0,23952.0 7149.0,24030.0 C 7127.0,24134.0 7047.0,24393.0 7030.0,24415.0 C 7026.0,24421.0 7010.0,24457.0 6995.0,24495.0 C 6980.0,24534.0 6954.0,24591.0 6939.0,24624.0 C 6923.0,24656.0 6910.0,24687.0 6910.0,24692.0 C 6910.0,24710.0 6730.0,25043.0 6706.0,25070.0 C 6694.0,25084.0 6662.0,25131.0 6636.0,25175.0 C 6573.0,25281.0 6400.0,25496.0 6325.0,25561.0 C 6292.0,25589.0 6264.0,25616.0 6262.0,25621.0 C 6258.0,25630.0 6113.0,25751.0 6089.0,25765.0 C 6079.0,25771.0 6038.0,25798.0 5997.0,25825.0 C 5721.0,26009.0 5621.0,26056.0 5355.0,26131.0 C 5333.0,26137.0 5302.0,26147.0 5287.0,26153.0 C 5272.0,26158.0 5257.0,26160.0 5254.0,26157.0 C 5251.0,26154.0 5236.0,26156.0 5222.0,26161.0 C 5208.0,26166.0 5169.0,26173.0 5136.0,26176.0 C 5102.0,26179.0 5059.0,26182.0 5039.0,26184.0 C 5019.0,26186.0 4997.0,26191.0 4989.0,26195.0 C 4982.0,26200.0 4959.0,26203.0 4939.0,26201.0 C 4858.0,26195.0 4687.0,26261.0 4677.0,26302.0 C 4672.0,26319.0 4666.0,26321.0 4640.0,26315.0 C 4621.0,26311.0 4604.0,26313.0 4595.0,26320.0 C 4571.0,26340.0 4577.0,26360.0 4606.0,26360.0 C 4626.0,26360.0 4631.0,26364.0 4626.0,26376.0 C 4622.0,26386.0 4627.0,26401.0 4637.0,26412.0 C 4653.0,26430.0 4652.0,26431.0 4632.0,26446.0 C 4604.0,26466.0 4604.0,26487.0 4636.0,26563.0 C 4677.0,26661.0 4731.0,26831.0 4736.0,26875.0 C 4738.0,26897.0 4745.0,26935.0 4750.0,26960.0 C 4775.0,27078.0 4791.0,27215.0 4796.0,27368.0 C 4801.0,27489.0 4806.0,27541.0 4817.0,27558.0 C 4830.0,27579.0 4830.0,27583.0 4817.0,27593.0 C 4806.0,27602.0 4801.0,27638.0 4796.0,27726.0 C 4793.0,27793.0 4783.0,27878.0 4774.0,27916.0 C 4765.0,27954.0 4750.0,28035.0 4740.0,28095.0 C 4718.0,28227.0 4678.0,28393.0 4650.0,28474.0 C 4639.0,28507.0 4630.0,28541.0 4630.0,28551.0 C 4630.0,28576.0 4577.0,28732.0 4542.0,28810.0 C 4536.0,28824.0 4522.0,28864.0 4511.0,28900.0 C 4493.0,28960.0 4457.0,29065.0 4443.0,29100.0 C 4440.0,29108.0 4427.0,29142.0 4415.0,29175.0 C 4403.0,29208.0 4381.0,29264.0 4366.0,29300.0 C 4351.0,29336.0 4330.0,29390.0 4319.0,29420.0 C 4308.0,29450.0 4295.0,29484.0 4290.0,29495.0 C 4271.0,29543.0 4250.0,29609.0 4237.0,29665.0 C 4229.0,29698.0 4213.0,29748.0 4202.0,29775.0 C 4190.0,29803.0 4171.0,29859.0 4159.0,29900.0 C 4147.0,29941.0 4128.0,30000.0 4117.0,30030.0 C 4107.0,30060.0 4084.0,30141.0 4068.0,30210.0 C 3986.0,30556.0 3973.0,30620.0 3940.0,30815.0 C 3928.0,30881.0 3915.0,30955.0 3909.0,30980.0 C 3904.0,31005.0 3895.0,31061.0 3890.0,31105.0 C 3885.0,31149.0 3876.0,31205.0 3871.0,31230.0 C 3823.0,31438.0 3790.0,32166.0 3820.0,32368.0 C 3825.0,32403.0 3827.0,32437.0 3825.0,32443.0 C 3813.0,32481.0 3811.0,32575.0 3820.0,32673.0 C 3826.0,32734.0 3831.0,32800.0 3831.0,32820.0 C 3831.0,32839.0 3835.0,32884.0 3840.0,32920.0 C 3849.0,32985.0 3857.0,33076.0 3866.0,33222.0 C 3868.0,33264.0 3877.0,33318.0 3885.0,33341.0 C 3893.0,33364.0 3900.0,33401.0 3900.0,33424.0 C 3900.0,33464.0 3907.0,33522.0 3946.0,33785.0 C 3955.0,33846.0 3972.0,33938.0 3985.0,33990.0 C 3998.0,34042.0 4014.0,34114.0 4020.0,34150.0 C 4026.0,34186.0 4035.0,34229.0 4041.0,34245.0 C 4046.0,34262.0 4061.0,34310.0 4075.0,34353.0 C 4089.0,34395.0 4100.0,34440.0 4100.0,34453.0 C 4100.0,34478.0 4120.0,34543.0 4160.0,34645.0 C 4175.0,34684.0 4193.0,34737.0 4199.0,34764.0 C 4206.0,34791.0 4220.0,34831.0 4231.0,34854.0 C 4241.0,34876.0 4250.0,34898.0 4250.0,34903.0 C 4250.0,34909.0 4270.0,34954.0 4294.0,35004.0 C 4318.0,35054.0 4343.0,35111.0 4351.0,35130.0 C 4358.0,35149.0 4374.0,35179.0 4385.0,35195.0 C 4397.0,35212.0 4410.0,35232.0 4413.0,35240.0 C 4417.0,35248.0 4433.0,35278.0 4450.0,35305.0 C 4466.0,35333.0 4486.0,35369.0 4495.0,35387.0 C 4503.0,35404.0 4514.0,35422.0 4520.0,35425.0 C 4526.0,35429.0 4545.0,35462.0 4562.0,35498.0 C 4579.0,35535.0 4605.0,35581.0 4619.0,35600.0 C 4633.0,35619.0 4654.0,35651.0 4664.0,35670.0 C 4674.0,35689.0 4693.0,35716.0 4705.0,35730.0 C 4717.0,35744.0 4734.0,35767.0 4741.0,35781.0 C 4786.0,35866.0 4807.0,35900.0 4841.0,35941.0 C 4863.0,35966.0 4880.0,35990.0 4880.0,35994.0 C 4880.0,36006.0 4964.0,36123.0 5003.0,36165.0 C 5023.0,36187.0 5040.0,36210.0 5040.0,36215.0 C 5040.0,36221.0 5057.0,36244.0 5077.0,36267.0 C 5163.0,36361.0 5286.0,36504.0 5297.0,36524.0 C 5304.0,36535.0 5358.0,36595.0 5417.0,36657.0 C 5476.0,36718.0 5562.0,36807.0 5608.0,36854.0 C 5653.0,36902.0 5707.0,36951.0 5728.0,36964.0 C 5748.0,36977.0 5794.0,37015.0 5829.0,37049.0 C 5864.0,37082.0 5897.0,37110.0 5902.0,37110.0 C 5907.0,37110.0 5935.0,37132.0 5963.0,37158.0 C 6079.0,37266.0 6186.0,37344.0 6385.0,37468.0 C 6413.0,37485.0 6441.0,37508.0 6447.0,37519.0 C 6454.0,37530.0 6485.0,37556.0 6517.0,37577.0 C 6548.0,37598.0 6585.0,37623.0 6599.0,37632.0 C 6613.0,37642.0 6634.0,37654.0 6645.0,37659.0 C 6656.0,37664.0 6699.0,37695.0 6740.0,37729.0 C 6781.0,37762.0 6820.0,37790.0 6827.0,37790.0 C 6834.0,37790.0 6847.0,37799.0 6857.0,37809.0 C 6883.0,37836.0 7011.0,37910.0 7033.0,37910.0 C 7038.0,37910.0 7058.0,37924.0 7078.0,37941.0 C 7098.0,37958.0 7130.0,37979.0 7149.0,37987.0 C 7169.0,37995.0 7194.0,38010.0 7205.0,38020.0 C 7226.0,38039.0 7282.0,38074.0 7315.0,38089.0 C 7327.0,38094.0 7342.0,38105.0 7349.0,38114.0 C 7356.0,38123.0 7369.0,38130.0 7378.0,38130.0 C 7399.0,38130.0 7470.0,38162.0 7470.0,38172.0 C 7470.0,38176.0 7477.0,38180.0 7485.0,38180.0 C 7493.0,38180.0 7504.0,38188.0 7509.0,38199.0 C 7515.0,38209.0 7531.0,38221.0 7546.0,38224.0 C 7561.0,38228.0 7587.0,38242.0 7605.0,38256.0 C 7622.0,38269.0 7646.0,38280.0 7658.0,38280.0 C 7670.0,38280.0 7684.0,38289.0 7690.0,38300.0 C 7696.0,38311.0 7711.0,38320.0 7723.0,38320.0 C 7735.0,38320.0 7756.0,38327.0 7768.0,38336.0 C 7780.0,38344.0 7799.0,38353.0 7810.0,38355.0 C 7843.0,38361.0 7883.0,38384.0 7888.0,38399.0 C 7891.0,38409.0 7888.0,38411.0 7876.0,38407.0 C 7867.0,38403.0 7860.0,38405.0 7860.0,38410.0 C 7860.0,38416.0 7862.0,38420.0 7864.0,38420.0 C 7866.0,38420.0 7875.0,38423.0 7884.0,38426.0 C 7895.0,38430.0 7900.0,38427.0 7900.0,38416.0 C 7900.0,38407.0 7904.0,38400.0 7909.0,38400.0 C 7919.0,38400.0 8007.0,38436.0 8035.0,38452.0 C 8096.0,38487.0 8178.0,38521.0 8280.0,38555.0 C 8343.0,38575.0 8402.0,38598.0 8411.0,38606.0 C 8419.0,38614.0 8438.0,38620.0 8453.0,38620.0 C 8467.0,38620.0 8482.0,38625.0 8485.0,38630.0 C 8488.0,38636.0 8500.0,38640.0 8510.0,38640.0 C 8520.0,38640.0 8551.0,38651.0 8578.0,38665.0 C 8606.0,38679.0 8635.0,38690.0 8644.0,38690.0 C 8653.0,38690.0 8677.0,38699.0 8697.0,38710.0 C 8718.0,38721.0 8740.0,38730.0 8747.0,38730.0 C 8764.0,38730.0 8824.0,38763.0 8833.0,38778.0 C 8837.0,38784.0 8846.0,38790.0 8853.0,38790.0 C 8860.0,38790.0 8859.0,38786.0 8850.0,38779.0 C 8839.0,38772.0 8844.0,38771.0 8870.0,38776.0 C 8889.0,38779.0 8912.0,38788.0 8921.0,38796.0 C 8929.0,38804.0 8956.0,38810.0 8979.0,38810.0 C 9002.0,38810.0 9033.0,38816.0 9048.0,38824.0 C 9085.0,38843.0 9223.0,38889.0 9282.0,38901.0 C 9309.0,38907.0 9334.0,38918.0 9336.0,38924.0 C 9339.0,38931.0 9360.0,38937.0 9383.0,38938.0 C 9428.0,38940.0 9498.0,38954.0 9570.0,38977.0 C 9595.0,38985.0 9637.0,38994.0 9663.0,38997.0 C 9689.0,39000.0 9713.0,39007.0 9716.0,39011.0 C 9719.0,39016.0 9749.0,39020.0 9783.0,39020.0 C 9817.0,39020.0 9861.0,39025.0 9880.0,39030.0 C 9923.0,39043.0 10041.0,39067.0 10135.0,39081.0 C 10174.0,39086.0 10213.0,39096.0 10223.0,39101.0 C 10233.0,39106.0 10245.0,39108.0 10249.0,39106.0 C 10257.0,39101.0 10334.0,39115.0 10462.0,39145.0 C 10496.0,39153.0 10527.0,39157.0 10530.0,39155.0 C 10534.0,39152.0 10573.0,39157.0 10615.0,39165.0 C 10658.0,39174.0 10721.0,39183.0 10754.0,39186.0 C 10788.0,39189.0 10832.0,39196.0 10854.0,39201.0 C 10875.0,39207.0 10932.0,39216.0 10979.0,39222.0 C 11097.0,39236.0 11103.0,39237.0 11120.0,39243.0 C 11128.0,39247.0 11146.0,39249.0 11160.0,39248.0 C 11198.0,39246.0 11293.0,39259.0 11363.0,39275.0 C 11397.0,39283.0 11450.0,39290.0 11481.0,39290.0 C 11512.0,39290.0 11559.0,39294.0 11586.0,39299.0 C 11637.0,39309.0 11835.0,39326.0 11977.0,39334.0 C 12022.0,39337.0 12076.0,39343.0 12097.0,39349.0 C 12118.0,39354.0 12164.0,39361.0 12200.0,39364.0 C 12236.0,39367.0 12292.0,39372.0 12325.0,39375.0 C 12383.0,39381.0 12470.0,39386.0 12635.0,39395.0 C 12679.0,39397.0 12731.0,39404.0 12750.0,39410.0 C 12785.0,39421.0 12974.0,39446.0 13105.0,39456.0 C 13144.0,39460.0 13202.0,39457.0 13235.0,39451.0 C 13285.0,39442.0 13302.0,39433.0 13341.0,39394.0 C 13395.0,39341.0 13412.0,39341.0 13470.0,39395.0 C 13524.0,39446.0 13547.0,39454.0 13660.0,39466.0 C 13758.0,39475.0 13956.0,39475.0 13990.0,39465.0" fill="none" stroke="green" stroke-width="38.6703657583"/>
</svg>
