<?xml version="1.0" standalone="no"?>
<!DOCTYPE svg PUBLIC "-//W3C//DTD SVG 20010904//EN"
 "http://www.w3.org/TR/2001/REC-SVG-20010904/DTD/svg10.dtd">
<svg version="1.0" xmlns="http://www.w3.org/2000/svg"
 width="2739.000000pt" height="3981.000000pt" viewBox="0 0 2739.000000 3981.000000"
 preserveAspectRatio="xMidYMid meet">
<metadata>
Created by potrace 1.15, written by Peter Selinger 2001-2017
</metadata>
<g transform="translate(0.000000,3981.000000) scale(0.100000,-0.100000)"
fill="#000000" stroke="none">
<path d="M13560 39535 c-7 -8 -16 -13 -20 -10 -5 3 -11 -4 -15 -15 -3 -11 -17
-28 -30 -38 -21 -17 -31 -18 -82 -9 -32 5 -67 18 -79 28 -17 16 -38 19 -125
21 -132 2 -261 -7 -319 -22 -131 -34 -376 -68 -505 -70 -94 -2 -286 -23 -303
-34 -6 -3 -88 -11 -184 -16 -95 -5 -207 -14 -248 -20 -41 -5 -104 -12 -140
-15 -36 -3 -94 -8 -130 -10 -36 -3 -83 -11 -105 -17 -22 -5 -74 -14 -115 -18
-41 -5 -122 -15 -180 -24 -58 -8 -159 -20 -225 -26 -118 -11 -177 -19 -285
-40 -30 -6 -89 -15 -130 -21 -41 -5 -104 -18 -140 -29 -36 -10 -124 -24 -196
-29 -102 -8 -155 -18 -243 -46 -80 -25 -131 -35 -177 -35 -37 0 -80 -7 -102
-16 -20 -9 -68 -24 -107 -34 -38 -10 -88 -27 -110 -38 -22 -11 -54 -23 -72
-27 -18 -3 -50 -15 -71 -25 -22 -11 -59 -22 -83 -26 -24 -4 -51 -10 -60 -15
-9 -4 -47 -13 -85 -19 -61 -10 -117 -26 -219 -62 -16 -6 -61 -21 -100 -35 -38
-13 -90 -37 -115 -53 -25 -15 -79 -37 -120 -49 -182 -53 -218 -65 -260 -86
-25 -13 -81 -38 -125 -56 -44 -18 -97 -44 -118 -57 -22 -13 -59 -34 -83 -48
-24 -13 -64 -35 -88 -48 -25 -14 -67 -31 -94 -39 -27 -9 -63 -22 -80 -31 -17
-9 -39 -16 -48 -16 -9 0 -32 -11 -50 -25 -18 -14 -38 -25 -45 -25 -6 0 -46
-31 -88 -69 -42 -37 -93 -73 -113 -80 -20 -7 -42 -19 -48 -27 -7 -7 -18 -14
-24 -14 -6 0 -29 -14 -50 -30 -22 -17 -47 -30 -55 -30 -9 0 -21 -10 -26 -22
-6 -13 -35 -37 -65 -55 -30 -18 -82 -52 -114 -75 -33 -24 -71 -48 -85 -54 -14
-6 -39 -23 -54 -38 -15 -14 -33 -26 -40 -26 -7 0 -39 -20 -72 -45 -33 -25 -65
-45 -72 -45 -7 0 -17 -9 -23 -20 -6 -11 -17 -20 -24 -20 -7 0 -21 -10 -32 -21
-10 -12 -35 -32 -54 -44 -19 -13 -50 -37 -67 -53 -18 -17 -42 -33 -53 -37 -11
-3 -20 -10 -20 -15 0 -4 -26 -23 -57 -40 -32 -18 -79 -51 -104 -74 -26 -22
-62 -53 -80 -68 -19 -16 -56 -46 -84 -68 -27 -23 -126 -114 -218 -203 -93 -89
-180 -169 -193 -177 -13 -8 -24 -19 -24 -25 0 -6 -28 -41 -62 -77 -107 -114
-179 -196 -247 -282 -36 -46 -100 -125 -142 -177 -42 -52 -88 -114 -104 -139
-15 -25 -36 -54 -46 -65 -10 -11 -24 -31 -31 -45 -7 -14 -39 -64 -71 -112 -31
-48 -57 -91 -57 -94 0 -4 -11 -22 -24 -39 -14 -18 -39 -61 -57 -96 -18 -35
-46 -85 -63 -110 -33 -49 -56 -87 -95 -153 -24 -41 -115 -224 -131 -261 -4
-11 -17 -40 -29 -65 -11 -25 -34 -85 -50 -135 -17 -49 -44 -116 -61 -148 -16
-32 -37 -91 -45 -130 -8 -40 -24 -97 -35 -127 -12 -30 -29 -91 -40 -135 -10
-44 -30 -118 -44 -165 -14 -47 -26 -97 -26 -113 0 -15 -6 -53 -14 -85 -8 -31
-20 -97 -27 -147 -14 -108 -36 -251 -44 -285 -15 -63 -37 -225 -45 -325 -5
-60 -11 -135 -14 -165 -3 -30 -8 -100 -11 -154 -3 -55 -7 -102 -9 -105 -6 -9
-19 -700 -16 -836 3 -179 15 -347 44 -619 4 -32 8 -62 10 -65 10 -15 36 -164
41 -231 3 -41 10 -79 15 -84 6 -6 10 -32 10 -59 0 -61 36 -251 56 -294 8 -18
14 -39 13 -45 -3 -19 11 -89 23 -118 6 -14 12 -32 13 -40 10 -83 31 -181 55
-255 16 -49 32 -108 36 -130 4 -22 9 -47 10 -55 2 -8 15 -44 29 -79 14 -36 25
-70 25 -77 0 -6 13 -45 29 -85 15 -41 48 -135 71 -209 24 -74 55 -160 69 -190
14 -30 25 -60 23 -67 -1 -7 8 -34 22 -61 14 -27 34 -78 46 -113 11 -35 25 -73
30 -84 15 -35 51 -138 70 -200 10 -33 34 -103 54 -156 20 -53 36 -105 36 -115
0 -11 7 -41 15 -69 9 -27 18 -65 21 -84 3 -18 14 -61 25 -94 18 -56 35 -143
76 -387 13 -73 17 -165 17 -390 0 -301 -5 -354 -50 -590 -8 -41 -17 -88 -20
-105 -3 -16 -9 -39 -14 -50 -4 -11 -18 -51 -30 -90 -20 -64 -55 -143 -97 -220
-27 -48 -35 -125 -17 -152 8 -13 12 -29 8 -35 -5 -8 -2 -9 10 -5 19 8 135 -47
140 -66 15 -49 14 -49 38 -33 20 13 26 13 42 0 11 -8 36 -14 55 -14 20 0 71
-7 113 -15 42 -8 121 -17 175 -20 53 -3 102 -10 107 -15 6 -6 26 -10 45 -10
33 0 125 -23 166 -42 11 -5 31 -10 45 -12 14 -1 36 -10 50 -19 14 -9 61 -27
106 -41 44 -14 96 -37 115 -51 19 -13 43 -29 54 -34 11 -5 29 -18 39 -30 11
-11 25 -21 31 -21 7 0 59 -32 116 -71 57 -38 127 -85 154 -103 61 -41 275
-250 321 -314 19 -26 53 -74 76 -107 23 -33 44 -62 48 -65 9 -7 72 -108 90
-145 8 -16 24 -43 36 -60 11 -16 46 -77 76 -135 31 -58 63 -118 72 -135 35
-65 106 -225 106 -240 0 -16 32 -103 52 -140 17 -30 58 -155 69 -205 5 -25 18
-67 28 -95 11 -27 24 -79 31 -115 6 -36 15 -83 20 -105 5 -22 12 -74 15 -115
3 -41 10 -115 16 -165 5 -49 12 -115 14 -145 3 -30 7 -72 10 -92 3 -20 8 -124
11 -229 6 -174 4 -194 -11 -205 -14 -11 -15 -18 -6 -46 13 -42 14 -170 1 -323
-6 -66 -15 -172 -20 -235 -15 -189 -46 -432 -76 -605 -8 -49 -19 -112 -24
-140 -4 -27 -13 -62 -19 -77 -5 -15 -15 -67 -21 -115 -7 -48 -27 -164 -47
-258 -19 -93 -40 -197 -46 -230 -10 -49 -16 -60 -32 -60 -14 0 -19 -6 -17 -20
12 -80 11 -121 -4 -172 -9 -32 -20 -83 -26 -113 -12 -70 -26 -121 -50 -190
-11 -30 -28 -84 -38 -120 -9 -36 -49 -158 -89 -272 -69 -204 -113 -308 -129
-308 -11 0 -23 -25 -67 -140 -44 -114 -155 -327 -199 -382 -11 -14 -50 -68
-86 -120 -223 -324 -516 -629 -706 -739 -50 -29 -180 -106 -214 -128 -51 -32
-239 -120 -286 -135 -27 -8 -86 -26 -132 -40 -46 -14 -92 -26 -102 -26 -10 0
-21 -4 -24 -9 -3 -5 -23 -12 -43 -15 -21 -3 -47 -8 -58 -10 -11 -3 -51 -9 -90
-15 -38 -5 -97 -15 -130 -20 -187 -33 -417 -43 -680 -27 -203 11 -278 23 -295
46 -10 12 -20 17 -28 11 -13 -8 -83 9 -197 48 -33 11 -67 21 -76 21 -28 0
-102 -129 -88 -152 5 -7 14 -38 20 -67 6 -30 23 -71 38 -90 37 -49 112 -221
157 -361 20 -63 40 -124 45 -135 8 -21 21 -81 38 -180 18 -106 34 -347 28
-440 -15 -240 -40 -454 -62 -525 -3 -8 -9 -42 -14 -75 -4 -33 -24 -114 -44
-180 -43 -147 -51 -178 -49 -187 1 -4 -8 -27 -21 -50 -12 -24 -31 -65 -41 -93
-21 -59 -26 -71 -64 -155 -16 -36 -37 -83 -47 -105 -16 -39 -43 -94 -64 -132
-5 -10 -22 -45 -37 -78 -14 -32 -42 -81 -60 -108 -19 -27 -34 -55 -34 -62 0
-7 -8 -23 -18 -36 -10 -13 -26 -45 -36 -71 -9 -26 -28 -63 -41 -82 -13 -18
-26 -45 -30 -57 -5 -13 -18 -37 -29 -54 -12 -16 -27 -41 -33 -55 -48 -110
-100 -210 -123 -235 -15 -16 -32 -49 -39 -72 -6 -23 -22 -55 -34 -70 -23 -29
-57 -96 -57 -114 0 -6 -11 -25 -25 -43 -14 -18 -25 -36 -25 -40 0 -3 -13 -25
-30 -48 -16 -22 -30 -47 -30 -54 0 -7 -11 -35 -25 -62 -14 -28 -25 -57 -25
-66 0 -9 -11 -33 -24 -54 -13 -20 -30 -55 -36 -77 -7 -22 -20 -50 -28 -62 -7
-13 -14 -40 -14 -60 0 -39 -14 -67 -28 -58 -13 8 -50 -79 -50 -118 0 -20 -5
-39 -10 -42 -6 -3 -10 -14 -10 -23 0 -9 -9 -28 -20 -42 -11 -14 -20 -31 -20
-38 0 -12 -22 -66 -75 -187 -20 -46 -28 -77 -27 -107 0 -14 -5 -29 -12 -31 -7
-3 -19 -33 -26 -66 -7 -34 -17 -64 -21 -67 -5 -3 -9 -18 -9 -34 0 -16 -4 -31
-9 -34 -7 -5 -23 -54 -25 -81 -1 -5 -7 -14 -13 -20 -7 -5 -20 -48 -29 -95 -8
-47 -22 -98 -30 -114 -8 -16 -14 -33 -14 -39 0 -5 -6 -23 -14 -40 -13 -29 -23
-64 -32 -107 -7 -36 -23 -97 -32 -127 -6 -18 -9 -33 -6 -33 2 0 -6 -19 -18
-43 -12 -23 -21 -49 -19 -59 1 -9 -3 -19 -9 -23 -6 -3 -8 -11 -4 -16 3 -5 1
-16 -6 -24 -6 -7 -15 -37 -21 -67 -25 -132 -45 -212 -59 -233 -4 -5 -8 -32 -9
-60 -1 -27 -8 -70 -15 -95 -20 -63 -35 -137 -40 -190 -2 -25 -11 -63 -18 -85
-8 -24 -11 -53 -7 -72 7 -37 3 -94 -9 -102 -4 -3 -8 -35 -10 -70 -2 -35 -10
-85 -19 -110 -10 -30 -17 -93 -19 -181 -4 -159 -9 -212 -22 -237 -5 -10 -10
-85 -11 -166 0 -82 -3 -152 -6 -157 -3 -4 -7 -43 -10 -86 -3 -44 -10 -126 -16
-184 -11 -121 -11 -103 -5 -330 4 -194 14 -389 21 -435 3 -16 7 -61 10 -100 5
-66 33 -321 41 -375 2 -14 6 -50 9 -80 3 -30 12 -102 20 -160 8 -58 17 -121
19 -140 15 -114 47 -283 61 -325 9 -26 18 -64 20 -84 2 -20 5 -43 8 -51 3 -8
8 -28 11 -45 4 -28 10 -53 37 -160 5 -22 12 -56 15 -75 3 -19 9 -39 13 -45 5
-5 11 -28 14 -51 4 -22 23 -90 43 -150 20 -60 44 -147 54 -194 9 -47 29 -106
44 -132 14 -26 26 -57 26 -70 0 -13 8 -40 19 -61 10 -20 22 -53 26 -73 3 -20
11 -44 16 -53 5 -9 13 -27 19 -41 5 -14 14 -32 19 -40 12 -19 41 -86 41 -94 0
-6 31 -72 126 -272 19 -39 34 -77 34 -83 0 -7 9 -24 20 -38 11 -14 20 -34 20
-43 0 -24 25 -70 91 -167 16 -23 29 -44 29 -48 0 -3 11 -21 25 -39 14 -18 25
-38 25 -43 0 -16 22 -55 56 -98 17 -22 53 -78 81 -125 28 -47 72 -120 97 -163
26 -43 56 -87 67 -98 11 -11 28 -37 37 -58 10 -20 28 -48 41 -61 13 -14 34
-41 47 -60 13 -19 40 -55 59 -80 19 -25 35 -49 35 -55 0 -5 14 -23 31 -40 17
-16 47 -55 66 -85 19 -30 54 -73 77 -95 23 -22 53 -56 66 -75 22 -31 83 -102
160 -185 15 -16 37 -45 48 -64 11 -19 55 -71 98 -115 214 -224 322 -333 354
-355 19 -13 39 -29 45 -36 5 -6 44 -40 85 -74 91 -75 82 -67 126 -121 20 -25
50 -51 67 -59 18 -7 50 -29 73 -50 22 -20 66 -54 97 -76 32 -22 57 -43 57 -47
0 -4 4 -8 10 -8 12 0 71 -40 118 -80 70 -59 137 -110 145 -110 4 0 13 -5 20
-10 11 -9 113 -78 156 -105 9 -5 31 -20 48 -32 17 -13 35 -23 39 -23 4 0 15
-7 24 -15 10 -9 36 -26 58 -38 36 -19 99 -60 184 -118 15 -11 32 -19 38 -19 6
0 61 -29 123 -64 62 -35 123 -67 137 -71 14 -4 32 -13 40 -19 8 -7 33 -20 55
-30 22 -11 47 -23 55 -27 8 -5 26 -14 40 -20 14 -6 33 -18 43 -26 25 -24 62
-44 137 -76 14 -6 32 -16 40 -22 8 -6 49 -26 90 -45 41 -19 92 -45 112 -57 21
-13 43 -23 50 -23 7 0 71 -30 143 -65 71 -36 137 -65 147 -65 21 0 44 -9 168
-68 100 -47 193 -81 223 -82 9 0 17 -4 17 -9 0 -5 10 -13 23 -17 12 -3 29 -12
37 -18 8 -7 35 -18 60 -25 25 -7 54 -18 65 -26 11 -7 35 -16 52 -19 17 -4 37
-14 44 -22 6 -8 25 -14 41 -14 16 0 41 -9 55 -20 14 -11 41 -20 59 -20 18 0
53 -11 77 -23 24 -13 60 -26 79 -30 19 -3 54 -14 79 -25 76 -34 198 -74 209
-67 5 3 22 0 37 -8 37 -20 174 -57 210 -57 15 0 41 -7 57 -15 15 -8 36 -15 45
-15 9 0 61 -12 116 -26 135 -34 179 -43 255 -54 36 -5 83 -14 105 -19 22 -6
54 -13 70 -16 17 -4 39 -10 50 -15 11 -5 38 -11 60 -14 22 -2 63 -10 90 -16
28 -6 75 -15 105 -20 30 -4 89 -17 131 -28 42 -12 110 -26 150 -32 41 -6 108
-18 149 -26 41 -9 104 -17 140 -20 36 -2 90 -10 120 -18 70 -19 217 -43 340
-55 52 -5 109 -12 125 -15 17 -3 71 -8 120 -11 50 -3 131 -10 180 -15 159 -17
218 -22 275 -26 122 -9 297 -24 330 -29 75 -12 100 -14 260 -24 91 -6 183 -13
205 -16 61 -7 348 -8 365 -1 9 4 38 4 65 1 28 -4 188 -8 357 -10 169 -2 312
-6 317 -10 6 -3 19 -2 28 3 10 4 81 7 158 5 77 -1 266 -4 420 -6 154 -1 287
-7 295 -12 17 -10 58 -12 357 -15 122 -1 227 1 232 4 13 8 364 35 374 29 8 -5
337 -3 452 2 258 12 378 16 727 20 340 3 401 6 428 20 19 10 42 14 58 11 15
-4 43 -2 62 4 19 6 114 13 209 16 96 3 179 8 185 11 5 3 43 8 85 9 42 2 105 8
141 14 36 6 119 12 185 15 66 3 140 10 165 16 25 6 83 15 130 20 47 6 108 16
135 24 28 8 75 17 105 20 384 37 475 49 495 65 6 5 36 9 66 8 51 -1 138 13
204 32 17 5 72 14 124 19 52 6 99 15 105 21 5 5 27 10 48 10 21 0 46 4 56 10
30 17 135 41 192 44 71 4 150 21 192 40 27 12 97 25 163 30 6 1 24 6 40 13 17
6 51 14 77 18 26 3 50 10 53 16 4 5 23 9 43 9 20 1 55 8 77 16 22 8 63 22 90
30 28 8 59 19 70 24 11 5 34 11 50 13 17 2 69 16 118 31 48 14 98 26 110 26
13 0 32 7 43 15 10 8 30 15 44 15 14 0 36 7 50 15 14 8 35 14 48 15 21 0 30 3
78 28 12 6 31 8 43 5 12 -3 27 0 35 6 7 6 21 9 30 5 10 -4 29 5 51 25 20 17
44 31 53 31 10 0 22 4 27 9 12 12 86 39 140 52 22 5 101 37 176 69 75 33 142
60 149 60 7 0 28 11 46 25 18 14 41 25 52 25 11 0 30 8 43 18 13 11 74 43 134
72 61 30 126 66 145 80 19 15 60 39 90 54 30 14 62 30 70 34 8 5 31 17 50 26
19 10 46 24 60 31 14 7 43 20 65 30 59 25 220 127 240 151 13 15 173 114 186
114 5 0 34 17 65 37 32 21 75 48 97 61 23 12 48 29 57 37 9 8 21 15 26 15 5 0
23 14 39 30 17 17 60 50 97 74 36 23 83 56 105 72 44 33 58 42 133 84 30 17
77 47 104 68 27 20 58 42 70 49 11 7 37 30 56 52 36 40 79 77 135 116 16 11
44 34 62 52 18 17 46 39 62 50 16 10 57 43 92 74 35 31 101 88 146 128 45 39
95 88 110 108 16 21 50 60 77 87 26 28 52 61 57 73 5 13 19 28 31 34 26 13
145 148 173 197 11 17 23 32 27 32 4 0 14 12 22 27 13 24 72 93 144 168 11 11
28 36 39 55 34 64 71 115 102 143 17 16 31 33 31 39 0 6 24 35 54 65 30 30 71
82 92 116 20 34 49 78 64 97 15 19 33 47 41 61 8 15 34 61 59 103 25 43 51 89
59 104 8 15 29 45 48 66 18 22 33 46 33 53 0 15 57 134 68 143 4 3 13 19 21
35 7 17 17 37 22 45 5 8 13 25 18 37 6 11 14 24 20 27 6 4 19 26 30 49 11 23
25 49 30 57 25 40 101 208 101 223 0 9 4 17 9 17 5 0 17 21 26 47 10 27 21 57
25 68 8 21 87 190 122 262 11 23 18 52 15 63 -3 11 -1 20 4 20 15 0 39 56 28
68 -5 7 -6 10 -2 7 5 -4 51 72 68 115 4 8 10 22 15 30 47 81 110 231 110 260
0 10 7 23 15 30 8 7 15 21 15 32 0 10 6 31 14 46 8 15 23 65 35 112 12 47 28
105 36 130 8 25 12 54 10 65 -3 11 3 38 14 59 11 21 18 42 16 47 -3 4 4 29 15
55 11 26 19 52 17 58 -2 6 0 22 5 36 5 14 11 52 14 85 2 33 14 98 25 145 11
47 24 135 30 195 5 61 15 139 23 174 8 35 13 75 11 90 -2 14 1 34 7 44 5 10
13 53 18 95 4 42 13 109 19 147 5 39 15 115 22 170 6 55 12 111 14 125 2 14 6
67 10 118 4 52 13 115 21 141 11 37 13 114 10 371 -4 305 -11 430 -37 625 -6
44 -14 119 -19 166 -4 47 -12 95 -18 105 -10 20 -25 171 -24 243 1 24 -5 55
-12 70 -7 14 -16 53 -20 86 -11 105 -16 139 -27 171 -14 44 -41 185 -53 275
-2 14 -8 35 -14 45 -5 11 -13 42 -17 69 -3 28 -12 70 -20 95 -7 25 -18 70 -24
100 -6 30 -22 96 -36 145 -15 50 -28 100 -30 111 -1 12 -8 31 -14 43 -7 12
-11 27 -10 34 3 17 -20 97 -37 127 -12 22 -57 166 -71 228 -3 12 -9 25 -14 28
-5 3 -9 17 -9 31 0 14 -7 41 -16 61 -21 48 -25 58 -69 177 -20 55 -41 109 -45
120 -5 11 -16 40 -24 65 -19 58 -66 172 -76 185 -4 6 -10 24 -14 40 -4 17 -15
48 -26 70 -28 62 -99 213 -130 280 -15 33 -42 92 -60 130 -35 77 -132 273
-159 320 -9 17 -23 46 -31 65 -7 19 -61 134 -120 255 -91 187 -219 466 -274
595 -8 19 -17 38 -21 42 -10 9 -122 263 -136 307 -6 20 -19 52 -29 71 -47 93
-115 263 -157 393 -19 59 -53 156 -77 215 -23 59 -46 128 -50 152 -4 25 -13
63 -20 85 -20 59 -54 271 -67 423 -10 112 -9 181 2 322 12 148 33 292 53 360
14 47 26 94 26 105 0 11 6 29 14 40 7 11 16 41 19 67 4 25 24 84 45 130 22 45
42 95 45 109 4 15 34 67 67 116 l60 90 -17 49 c-9 27 -22 57 -28 67 -17 25
-80 55 -130 63 -40 5 -166 -14 -241 -37 -21 -6 -40 -6 -58 1 -21 8 -41 6 -78
-5 -197 -58 -782 -55 -1013 6 -44 12 -99 25 -121 30 -101 20 -350 117 -489
191 -22 11 -58 29 -80 40 -22 10 -45 22 -52 26 -26 15 -188 127 -193 132 -3 3
-28 23 -57 43 -28 21 -103 95 -166 165 -140 155 -168 189 -214 266 -20 34 -47
73 -59 88 -38 46 -141 217 -212 348 -16 30 -42 80 -58 110 -27 49 -50 98 -138
291 -14 31 -32 62 -41 69 -8 7 -15 17 -15 23 0 5 -9 28 -19 51 -34 71 -63 169
-71 241 -5 39 -16 95 -25 125 -9 30 -21 74 -26 97 -4 23 -17 59 -27 80 -11 21
-23 57 -27 80 -4 24 -11 45 -16 49 -5 3 -9 15 -9 27 0 24 -22 93 -33 103 -4 4
-7 22 -7 39 0 18 -4 45 -9 61 -5 16 -16 65 -26 109 -9 44 -23 98 -31 120 -8
23 -14 52 -14 66 0 14 -4 29 -9 34 -4 6 -14 39 -20 75 -18 99 -52 243 -62 265
-5 11 -13 43 -18 70 -32 185 -45 245 -62 284 -10 24 -19 53 -19 64 0 11 -4 36
-9 56 -13 50 -30 173 -36 256 -3 39 -10 124 -15 190 -11 149 -15 596 -6 850 6
197 34 634 41 645 2 4 13 78 25 166 38 293 129 592 254 834 117 226 128 246
182 320 30 41 79 111 109 155 138 200 261 335 444 486 205 168 326 242 491
304 25 9 67 28 95 42 57 29 209 82 339 117 143 38 295 56 522 62 196 6 212 8
250 30 42 24 104 87 104 105 0 6 -8 23 -18 37 -10 15 -24 46 -30 68 -7 23 -19
47 -27 54 -8 7 -15 19 -15 26 0 8 -15 45 -34 82 -73 146 -186 549 -212 757
-12 101 -20 215 -17 245 2 19 5 100 7 180 4 151 20 355 37 450 5 30 11 69 13
85 4 29 34 155 57 240 6 22 20 56 30 76 11 20 19 47 19 60 0 13 11 45 25 71
14 26 25 55 25 65 0 10 12 36 25 58 14 22 25 47 25 55 0 12 44 107 125 270 12
25 28 69 35 98 7 28 19 56 27 61 15 8 49 88 61 141 3 14 22 48 44 76 21 28 38
58 38 67 0 9 18 51 40 94 22 43 40 84 40 91 0 13 43 124 60 154 6 10 10 33 10
52 0 18 9 45 20 59 11 14 20 33 20 44 0 10 9 36 19 58 44 90 60 136 75 206 21
105 47 202 57 214 5 5 9 22 9 37 0 15 3 28 8 28 8 0 30 81 42 155 7 49 31 129
50 170 21 46 40 137 40 192 1 32 5 78 11 103 5 25 17 88 25 140 9 52 22 127
29 165 8 39 17 111 20 162 4 50 8 111 10 135 2 23 6 104 9 178 4 74 9 154 11
177 3 24 -1 96 -9 160 -8 65 -15 156 -15 203 -1 47 -6 119 -11 160 -23 167
-31 217 -41 260 -10 41 -28 141 -49 265 -14 81 -55 253 -71 300 -6 17 -17 68
-25 115 -22 136 -26 154 -34 165 -8 11 -22 59 -26 85 -2 22 -54 230 -64 260
-9 29 -13 38 -50 140 -15 41 -38 100 -50 130 -12 30 -25 69 -30 85 -4 17 -26
71 -49 121 -22 51 -41 101 -41 112 0 10 -9 31 -20 45 -11 14 -36 65 -55 112
-20 48 -46 101 -60 119 -14 18 -25 38 -25 44 0 22 -101 234 -125 262 -7 8 -41
71 -76 140 -35 69 -78 146 -96 172 -18 26 -33 52 -33 57 0 5 -16 28 -35 51
-19 23 -35 46 -35 52 0 9 -12 26 -112 152 -27 33 -48 65 -48 71 0 6 -20 31
-45 56 -24 24 -45 48 -45 53 0 8 -52 77 -92 121 -44 49 -87 103 -110 140 -14
22 -58 73 -97 113 -39 40 -71 75 -71 77 0 13 -87 115 -97 115 -7 0 -13 6 -13
14 0 8 -8 17 -17 20 -10 4 -31 24 -46 46 -16 22 -34 40 -42 40 -7 0 -17 9 -20
20 -3 11 -15 25 -26 31 -20 10 -143 123 -183 167 -46 52 -141 142 -148 142 -5
0 -31 23 -58 50 -27 28 -54 50 -59 50 -5 0 -36 25 -67 55 -32 30 -64 55 -70
55 -7 0 -23 13 -36 29 -13 16 -66 62 -118 102 -52 39 -97 75 -100 79 -8 12
-89 72 -155 115 -33 21 -78 54 -101 72 -23 18 -46 33 -52 33 -6 0 -17 8 -24
18 -7 10 -32 27 -56 39 -23 11 -52 32 -63 47 -11 14 -27 26 -34 26 -7 0 -26
10 -42 23 -15 12 -47 33 -71 46 -24 13 -67 38 -95 57 -28 19 -56 34 -61 34 -5
0 -19 8 -30 18 -28 25 -164 102 -181 102 -7 0 -18 6 -24 14 -7 8 -23 17 -37
20 -31 8 -116 49 -169 81 -39 24 -56 32 -125 62 -19 8 -46 21 -60 29 -14 7
-45 23 -70 34 -25 12 -67 31 -95 44 -27 13 -70 29 -95 36 -40 11 -102 37 -182
77 -14 7 -35 13 -45 13 -11 0 -28 7 -39 15 -10 8 -29 15 -42 15 -13 0 -40 9
-60 19 -20 10 -55 25 -77 31 -22 7 -58 21 -80 30 -66 29 -188 72 -220 77 -16
3 -48 13 -70 23 -43 19 -186 60 -210 60 -8 0 -34 8 -58 19 -81 36 -220 74
-502 138 -38 8 -88 24 -111 34 -23 11 -55 19 -71 19 -17 0 -64 11 -105 24
-129 42 -282 78 -538 126 -58 11 -139 26 -180 34 -41 7 -93 16 -115 20 -22 3
-85 15 -140 26 -55 12 -129 25 -165 30 -36 5 -110 16 -165 25 -95 14 -156 22
-357 45 -48 6 -149 13 -225 16 -206 8 -378 24 -413 37 -8 4 -40 8 -70 11 -30
2 -73 7 -95 10 -22 3 -98 9 -170 12 -71 4 -161 8 -200 10 -38 2 -110 5 -160 8
-49 2 -102 7 -116 11 -14 3 -115 7 -225 8 l-199 2 3 23 c4 26 -19 30 -38 7z
m430 -70 c32 -10 252 -26 415 -31 116 -4 178 -10 197 -20 18 -9 29 -11 33 -3
4 5 19 8 33 5 15 -3 74 -11 132 -17 58 -6 119 -13 135 -15 17 -3 113 -9 215
-15 102 -5 221 -16 265 -24 44 -8 125 -20 180 -25 55 -6 123 -13 150 -16 28
-2 65 -9 82 -15 18 -6 37 -7 43 -4 6 4 17 2 24 -4 7 -6 49 -14 92 -16 43 -3
99 -10 124 -15 25 -5 99 -19 164 -30 66 -11 136 -25 156 -30 21 -6 53 -12 71
-15 19 -3 45 -8 59 -10 14 -2 43 -6 65 -10 36 -5 86 -16 210 -45 55 -14 95
-21 126 -24 14 -1 30 -5 36 -9 9 -6 165 -49 243 -67 43 -11 80 -21 195 -55 50
-15 146 -42 215 -60 69 -18 145 -40 170 -48 25 -9 106 -35 180 -57 74 -23 158
-49 185 -59 51 -19 96 -32 172 -51 23 -6 45 -15 48 -20 3 -6 15 -10 26 -10 11
0 40 -11 65 -25 25 -14 50 -25 57 -25 7 0 35 -11 62 -25 28 -13 62 -25 77 -25
15 0 49 -10 75 -21 27 -12 57 -26 68 -30 11 -5 46 -20 79 -34 32 -14 66 -25
75 -25 9 0 27 -7 41 -15 49 -27 109 -55 120 -55 10 0 330 -157 425 -207 11 -6
56 -28 100 -49 44 -21 108 -57 141 -80 34 -23 80 -52 103 -63 22 -12 41 -26
41 -31 0 -6 9 -10 19 -10 11 0 22 -4 25 -9 3 -5 25 -18 48 -29 24 -11 55 -31
71 -46 15 -14 49 -37 75 -52 26 -15 58 -37 72 -49 14 -12 45 -34 70 -49 25
-14 72 -49 105 -76 33 -28 67 -53 75 -57 8 -3 29 -18 47 -32 68 -54 92 -71
102 -71 6 0 11 -4 11 -10 0 -5 24 -27 53 -49 30 -22 62 -47 71 -56 9 -9 49
-44 89 -76 39 -33 92 -77 117 -99 25 -22 68 -59 96 -82 187 -156 506 -475 658
-658 30 -36 62 -73 72 -82 11 -9 35 -38 54 -64 19 -25 58 -73 85 -106 28 -33
69 -88 93 -122 24 -33 56 -74 72 -91 15 -16 44 -55 63 -85 19 -31 43 -62 52
-70 29 -24 98 -134 212 -339 32 -57 70 -124 85 -150 14 -25 34 -61 42 -80 9
-19 34 -63 56 -97 22 -34 51 -95 64 -134 14 -40 38 -93 54 -118 15 -26 34 -63
42 -82 8 -19 31 -67 52 -107 21 -39 38 -76 38 -82 0 -7 15 -44 34 -84 18 -40
48 -121 66 -182 34 -118 47 -158 61 -190 18 -41 38 -111 45 -155 4 -25 15 -62
25 -82 11 -21 19 -51 19 -67 0 -17 6 -45 14 -63 8 -18 22 -69 31 -113 35 -169
78 -351 87 -369 6 -10 12 -31 13 -45 9 -73 80 -543 97 -636 6 -33 12 -119 13
-190 1 -72 7 -140 12 -150 5 -11 9 -45 7 -75 -1 -30 -4 -145 -5 -255 -5 -350
-27 -585 -74 -781 -8 -33 -15 -76 -15 -96 0 -34 -33 -179 -46 -199 -8 -14 -44
-167 -44 -191 0 -22 -36 -145 -82 -278 -16 -47 -42 -123 -58 -170 -16 -47 -41
-116 -56 -155 -14 -38 -42 -115 -61 -170 -18 -55 -40 -109 -48 -122 -8 -12
-15 -31 -15 -42 0 -11 -4 -22 -9 -25 -5 -3 -12 -18 -16 -33 -6 -28 -20 -59
-80 -188 -81 -171 -105 -225 -105 -235 0 -6 -11 -28 -25 -50 -14 -22 -25 -46
-25 -54 0 -8 -4 -17 -9 -21 -9 -5 -30 -47 -86 -170 -41 -90 -55 -120 -65 -135
-19 -31 -59 -128 -84 -205 -15 -44 -38 -104 -52 -133 -13 -29 -24 -61 -24 -72
0 -10 -4 -22 -10 -25 -5 -3 -10 -23 -10 -43 0 -37 -14 -101 -30 -137 -11 -25
-22 -87 -26 -145 -2 -25 -8 -70 -13 -100 -4 -30 -14 -131 -20 -225 -7 -93 -16
-185 -21 -204 -6 -24 -5 -39 5 -55 12 -18 34 -243 27 -269 -4 -14 36 -225 47
-244 5 -10 15 -47 21 -83 12 -62 58 -212 95 -310 47 -125 77 -197 96 -230 28
-49 58 -120 63 -150 7 -39 -1 -52 -54 -92 -37 -27 -84 -34 -420 -54 -52 -3
-108 -8 -125 -10 -16 -3 -38 -5 -47 -5 -10 0 -18 -3 -18 -7 0 -4 -17 -7 -37
-6 -21 0 -54 -5 -73 -12 -34 -13 -181 -55 -269 -76 -25 -6 -65 -23 -91 -39
-26 -16 -78 -40 -116 -54 -38 -14 -83 -32 -101 -40 -17 -8 -35 -15 -41 -15 -5
0 -22 -10 -37 -22 -29 -23 -54 -38 -134 -80 -24 -13 -65 -43 -92 -68 -49 -47
-133 -115 -199 -162 -95 -69 -323 -344 -398 -481 -13 -23 -34 -53 -46 -67 -44
-48 -156 -229 -156 -252 0 -6 -22 -55 -50 -109 -27 -54 -50 -104 -50 -112 0
-8 -7 -20 -15 -27 -8 -7 -15 -19 -15 -27 0 -8 -9 -33 -19 -56 -11 -23 -27 -69
-36 -101 -10 -33 -24 -75 -33 -95 -9 -20 -17 -45 -18 -56 -3 -34 -22 -119 -33
-148 -6 -16 -11 -42 -11 -58 0 -16 -4 -37 -9 -47 -13 -24 -45 -292 -56 -472
-9 -153 -15 -300 -15 -400 0 -87 -5 -129 -20 -170 -19 -56 -20 -100 -5 -305 3
-44 8 -159 10 -255 6 -224 22 -488 31 -502 8 -12 31 -137 44 -233 11 -80 16
-103 34 -151 8 -22 19 -69 25 -105 5 -35 19 -91 31 -123 12 -33 23 -71 25 -85
5 -37 15 -80 30 -126 7 -22 19 -80 26 -128 7 -48 16 -90 21 -93 4 -3 8 -18 8
-33 0 -16 11 -71 25 -122 14 -52 30 -110 35 -129 5 -19 14 -36 19 -38 6 -2 11
-26 11 -53 0 -27 6 -60 14 -72 8 -12 17 -42 21 -67 4 -24 11 -51 16 -60 7 -13
32 -106 70 -255 7 -27 18 -59 25 -70 7 -11 20 -45 29 -76 22 -80 79 -216 99
-238 9 -9 16 -21 16 -25 0 -5 27 -63 59 -130 33 -66 73 -150 90 -186 36 -78
114 -222 140 -259 10 -14 47 -73 82 -131 65 -108 127 -200 175 -259 15 -18 45
-58 67 -90 45 -64 162 -190 222 -239 80 -65 91 -74 141 -113 29 -21 55 -39 59
-39 3 0 21 -11 38 -24 18 -13 68 -43 111 -65 44 -23 84 -45 90 -50 21 -16 262
-113 351 -141 132 -42 225 -67 270 -75 22 -3 67 -11 100 -16 33 -6 105 -13
160 -16 126 -6 475 -4 487 3 5 3 60 7 122 9 87 2 120 7 140 20 20 13 38 16 74
12 26 -3 109 -1 184 5 l137 11 40 -27 c22 -15 42 -35 45 -43 4 -9 -20 -69 -55
-136 -116 -232 -199 -493 -229 -722 -5 -38 -17 -115 -26 -170 -9 -55 -17 -116
-18 -135 -1 -70 15 -271 24 -296 6 -14 10 -41 10 -60 0 -20 9 -74 19 -122 11
-48 25 -114 31 -147 18 -97 42 -189 50 -200 5 -6 25 -57 45 -115 21 -58 50
-141 66 -185 15 -44 28 -89 29 -101 0 -22 45 -119 66 -144 7 -9 18 -38 24 -65
6 -28 21 -68 34 -90 12 -22 40 -85 61 -140 22 -55 46 -111 55 -125 9 -14 23
-41 30 -60 8 -19 22 -48 32 -65 10 -16 18 -36 18 -43 0 -7 23 -61 51 -120 28
-59 60 -129 70 -156 11 -26 35 -78 54 -114 19 -36 35 -71 35 -79 0 -7 10 -30
23 -51 13 -20 31 -55 41 -77 45 -99 57 -127 111 -235 31 -63 71 -142 90 -175
49 -87 65 -123 115 -250 21 -53 53 -115 61 -121 5 -3 7 -9 4 -14 -5 -8 35 -90
69 -142 10 -15 22 -45 27 -65 8 -38 30 -94 49 -123 5 -8 16 -33 25 -55 9 -22
20 -47 25 -55 4 -9 11 -31 15 -50 4 -19 11 -41 15 -50 4 -8 17 -35 28 -60 12
-25 22 -55 22 -67 0 -12 4 -25 10 -28 5 -3 15 -25 21 -48 6 -23 20 -61 30 -84
10 -23 25 -67 33 -97 8 -30 21 -70 30 -88 8 -18 17 -48 21 -66 4 -18 28 -99
54 -180 27 -81 53 -172 60 -202 14 -66 48 -203 61 -245 5 -16 11 -41 14 -55
11 -56 25 -118 39 -170 34 -122 47 -181 47 -207 0 -15 18 -118 39 -228 47
-243 91 -516 91 -569 0 -39 22 -253 40 -396 5 -41 10 -203 11 -360 2 -284 -2
-346 -47 -740 -8 -74 -16 -163 -18 -198 -2 -35 -7 -66 -10 -69 -3 -4 -6 -25
-6 -47 0 -56 -16 -156 -40 -246 -10 -41 -24 -124 -30 -185 -6 -60 -15 -132
-20 -160 -6 -27 -17 -90 -26 -140 -28 -162 -32 -182 -53 -251 -11 -38 -23 -94
-27 -124 -4 -30 -14 -68 -22 -85 -8 -16 -23 -64 -32 -105 -24 -103 -94 -292
-161 -437 -16 -34 -29 -66 -29 -72 0 -5 -18 -44 -40 -85 -22 -41 -40 -84 -40
-95 0 -11 -4 -22 -9 -25 -5 -4 -17 -32 -27 -64 -17 -57 -39 -104 -60 -132 -7
-8 -23 -42 -37 -75 -41 -99 -117 -254 -126 -259 -5 -3 -12 -21 -15 -40 -4 -18
-15 -41 -26 -51 -10 -9 -22 -31 -26 -48 -3 -17 -17 -47 -29 -67 -12 -19 -26
-46 -30 -60 -4 -14 -22 -47 -40 -75 -18 -27 -51 -84 -73 -125 -22 -42 -52 -93
-67 -115 -15 -22 -42 -67 -61 -100 -50 -86 -55 -94 -91 -152 -18 -29 -33 -57
-33 -62 0 -6 -13 -25 -29 -43 -15 -18 -48 -64 -71 -103 -23 -38 -67 -96 -97
-128 -45 -50 -94 -116 -138 -187 -12 -19 -182 -229 -259 -320 -31 -36 -60 -74
-65 -86 -5 -12 -35 -45 -65 -75 -31 -30 -56 -57 -56 -62 0 -11 -111 -141 -126
-147 -6 -3 -36 -28 -65 -56 -137 -131 -170 -162 -264 -243 -55 -48 -116 -98
-135 -111 -19 -14 -81 -61 -136 -105 -127 -100 -220 -170 -287 -215 -29 -19
-86 -61 -128 -93 -42 -31 -80 -57 -83 -57 -4 0 -27 -15 -51 -32 -24 -18 -87
-60 -141 -93 -53 -33 -111 -72 -129 -87 -18 -16 -36 -28 -41 -28 -13 0 -173
-99 -219 -135 -22 -18 -56 -38 -75 -45 -19 -7 -39 -17 -45 -21 -5 -4 -59 -33
-120 -64 -164 -85 -164 -86 -170 -96 -4 -5 -27 -19 -53 -30 -26 -12 -75 -39
-110 -60 -35 -22 -68 -39 -73 -39 -19 0 -145 -68 -163 -88 -10 -12 -32 -24
-50 -27 -17 -4 -47 -17 -66 -29 -19 -13 -66 -33 -105 -45 -38 -13 -106 -40
-150 -62 -45 -21 -90 -39 -100 -39 -11 0 -34 -9 -51 -19 -17 -10 -50 -22 -73
-26 -23 -4 -61 -17 -85 -30 -24 -13 -115 -43 -202 -68 -88 -25 -204 -59 -259
-77 -55 -17 -131 -39 -170 -50 -262 -72 -377 -101 -428 -110 -33 -6 -78 -17
-100 -25 -23 -8 -51 -15 -63 -15 -11 0 -56 -9 -100 -20 -43 -12 -124 -29 -179
-40 -157 -30 -180 -36 -205 -53 -12 -8 -28 -13 -36 -10 -16 6 -262 -34 -319
-51 -22 -7 -94 -19 -160 -25 -66 -7 -131 -17 -145 -22 -14 -4 -78 -13 -142
-19 -65 -6 -132 -15 -150 -21 -18 -5 -87 -16 -153 -25 -66 -8 -154 -22 -195
-31 -41 -8 -91 -17 -110 -19 -167 -16 -353 -36 -495 -53 -93 -11 -269 -25
-390 -32 -182 -10 -225 -15 -251 -30 -29 -18 -58 -19 -405 -18 -402 1 -719 -6
-752 -17 -11 -3 -149 -8 -306 -10 -157 -3 -304 -5 -326 -6 -22 0 -62 0 -90 1
-27 1 -102 -2 -165 -5 -161 -9 -218 -8 -580 11 -30 2 -343 6 -695 10 -352 3
-701 9 -775 13 -74 4 -193 5 -265 2 -71 -3 -160 -2 -197 2 -36 4 -108 7 -160
9 -88 2 -275 23 -308 35 -8 3 -64 7 -125 10 -60 2 -141 7 -180 10 -38 3 -104
7 -145 9 -110 5 -387 32 -424 40 -12 3 -46 7 -76 10 -74 5 -403 54 -580 85
-25 4 -85 13 -135 20 -49 7 -94 16 -100 21 -5 5 -21 9 -36 9 -14 0 -39 4 -55
9 -16 6 -47 12 -69 15 -22 3 -72 12 -111 20 -39 8 -118 23 -175 32 -57 9 -108
19 -114 24 -5 4 -28 10 -50 13 -35 6 -153 29 -365 72 -36 7 -90 20 -120 29
-30 9 -84 23 -120 31 -36 9 -76 20 -90 26 -14 6 -47 15 -75 19 -27 4 -63 13
-80 19 -16 5 -97 31 -180 57 -82 25 -163 52 -180 59 -72 31 -195 73 -239 81
-13 2 -48 15 -78 29 -29 14 -59 25 -67 25 -8 0 -32 9 -55 20 -69 33 -297 131
-363 156 -34 13 -84 34 -110 48 -26 13 -75 36 -108 51 -33 15 -101 47 -151 71
-50 24 -96 44 -101 44 -15 0 -180 78 -225 107 -21 12 -45 23 -55 23 -9 0 -24
6 -32 13 -9 7 -45 26 -81 42 -36 15 -76 36 -90 45 -14 10 -106 58 -205 107
-174 86 -286 149 -427 240 -37 24 -70 43 -73 43 -3 0 -29 17 -58 38 -29 21
-88 60 -132 87 -115 70 -198 131 -388 285 -92 74 -185 149 -206 165 -100 79
-149 121 -242 207 -56 51 -122 115 -148 142 -25 27 -102 107 -171 176 -117
119 -252 272 -370 419 -28 35 -75 91 -105 125 -48 55 -152 190 -197 256 -10
14 -46 62 -80 107 -115 151 -425 644 -495 788 -16 33 -42 78 -56 99 -15 21
-27 43 -27 48 0 5 -30 71 -66 146 -36 75 -71 151 -78 167 -7 17 -18 41 -24 55
-6 14 -27 61 -47 105 -21 44 -50 116 -65 160 -16 44 -50 139 -75 210 -91 255
-147 436 -181 585 -14 63 -30 126 -35 140 -11 31 -41 172 -75 350 -97 512
-162 1130 -164 1559 -1 155 5 209 25 232 17 18 5 36 -15 24 -12 -8 -13 -19 5
281 14 234 22 324 60 639 8 66 19 167 25 225 6 58 15 121 21 140 6 19 12 53
13 75 1 22 5 47 8 55 3 8 11 47 18 85 48 284 79 430 120 560 11 33 22 78 25
100 4 22 24 99 46 170 22 72 47 153 55 180 8 28 21 66 28 85 8 19 20 62 27 95
7 33 19 76 27 95 8 19 21 59 28 89 8 30 21 68 28 85 8 17 24 65 36 106 11 41
27 89 35 105 7 17 20 50 28 75 8 25 42 115 76 199 33 85 61 164 61 175 0 12 7
30 15 40 8 11 15 28 15 39 0 10 11 32 25 49 14 16 28 42 31 56 5 24 42 110 80
185 8 16 14 36 14 45 0 10 11 37 25 62 14 25 32 61 41 80 8 19 22 46 29 60 8
14 22 41 31 60 9 19 25 45 35 59 10 13 19 30 19 38 0 8 10 29 23 46 12 17 43
72 68 122 25 49 79 153 119 230 40 77 89 172 108 210 20 39 44 81 54 94 10 13
18 32 18 41 0 10 7 23 15 30 8 7 15 21 15 31 0 11 5 19 11 19 5 0 17 15 25 33
8 17 18 39 23 47 4 8 15 29 25 45 60 108 216 446 216 468 0 6 7 25 15 41 8 16
26 65 40 110 14 45 32 91 40 102 8 10 15 27 15 36 0 10 13 57 29 105 27 79 43
151 81 361 29 162 42 533 25 717 -9 103 -33 228 -61 325 -29 98 -81 247 -95
272 -5 10 -9 29 -9 44 0 14 -9 37 -20 51 -11 14 -20 38 -20 52 0 17 -11 36
-29 52 -17 15 -33 39 -37 55 -4 16 -18 43 -31 60 -32 43 -31 103 3 143 25 30
26 31 62 15 20 -9 57 -22 82 -31 25 -9 55 -25 67 -37 61 -59 60 -58 67 -40 5
13 15 15 54 10 257 -32 719 -41 872 -17 304 48 458 80 594 126 41 14 79 25 85
25 13 0 240 111 293 143 219 133 245 150 314 207 37 30 72 60 78 65 6 6 30 26
52 46 79 70 394 427 454 515 82 121 139 211 170 269 20 39 48 91 63 118 14 26
31 64 38 85 6 20 17 44 23 52 18 25 36 59 36 70 0 19 39 97 63 126 22 28 97
192 97 214 0 5 26 90 58 188 62 188 112 355 138 462 44 180 51 207 62 233 7
16 12 35 12 44 0 16 72 355 90 423 5 19 12 62 15 95 3 33 10 76 15 95 5 19 14
84 20 145 7 60 16 119 20 130 11 28 28 137 35 219 3 38 10 76 14 85 16 30 38
263 46 486 6 153 12 237 20 290 11 68 3 638 -10 720 -2 17 -7 66 -10 110 -10
149 -16 200 -30 268 -17 78 -39 179 -56 257 -22 104 -102 363 -119 385 -4 6
-20 42 -35 80 -15 39 -41 96 -56 129 -16 32 -29 63 -29 68 0 18 -180 351 -204
378 -12 14 -44 61 -70 105 -63 106 -236 321 -311 386 -33 28 -61 55 -63 60 -4
9 -149 130 -173 144 -10 6 -51 33 -92 60 -276 184 -376 231 -642 306 -22 6
-53 16 -68 22 -15 5 -30 7 -33 4 -3 -3 -18 -1 -32 4 -14 5 -53 12 -86 15 -34
3 -77 6 -97 8 -20 2 -42 7 -50 11 -7 5 -30 8 -50 6 -81 -6 -252 60 -262 101
-5 17 -11 19 -37 13 -19 -4 -36 -2 -45 5 -24 20 -18 40 11 40 20 0 25 4 20 16
-4 10 1 25 11 36 16 18 15 19 -5 34 -28 20 -28 41 4 117 41 98 95 268 100 312
2 22 9 60 14 85 25 118 41 255 46 408 5 121 10 173 21 190 13 21 13 25 0 35
-11 9 -16 45 -21 133 -3 67 -13 152 -22 190 -9 38 -24 119 -34 179 -22 132
-62 298 -90 379 -11 33 -20 67 -20 77 0 25 -53 181 -88 259 -6 14 -20 54 -31
90 -18 60 -54 165 -68 200 -3 8 -16 42 -28 75 -12 33 -34 89 -49 125 -15 36
-36 90 -47 120 -11 30 -24 64 -29 75 -19 48 -40 114 -53 170 -8 33 -24 83 -35
110 -12 28 -31 84 -43 125 -12 41 -31 100 -42 130 -10 30 -33 111 -49 180 -82
346 -95 410 -128 605 -12 66 -25 140 -31 165 -5 25 -14 81 -19 125 -5 44 -14
100 -19 125 -48 208 -81 936 -51 1138 5 35 7 69 5 75 -12 38 -14 132 -5 230 6
61 11 127 11 147 0 19 4 64 9 100 9 65 17 156 26 302 2 42 11 96 19 119 8 23
15 60 15 83 0 40 7 98 46 361 9 61 26 153 39 205 13 52 29 124 35 160 6 36 15
79 21 95 5 17 20 65 34 108 14 42 25 87 25 100 0 25 20 90 60 192 15 39 33 92
39 119 7 27 21 67 32 90 10 22 19 44 19 49 0 6 20 51 44 101 24 50 49 107 57
126 7 19 23 49 34 65 12 17 25 37 28 45 4 8 20 38 37 65 16 28 36 64 45 82 8
17 19 35 25 38 6 4 25 37 42 73 17 37 43 83 57 102 14 19 35 51 45 70 10 19
29 46 41 60 12 14 29 37 36 51 45 85 66 119 100 160 22 25 39 49 39 53 0 12
84 129 123 171 20 22 37 45 37 50 0 6 17 29 37 52 86 94 209 237 220 257 7 11
61 71 120 133 59 61 145 150 191 197 45 48 99 97 120 110 20 13 66 51 101 85
35 33 68 61 73 61 5 0 33 22 61 48 116 108 223 186 422 310 28 17 56 40 62 51
7 11 38 37 70 58 31 21 68 46 82 55 14 10 35 22 46 27 11 5 54 36 95 70 41 33
80 61 87 61 7 0 20 9 30 19 26 27 154 101 176 101 5 0 25 14 45 31 20 17 52
38 71 46 20 8 45 23 56 33 21 19 77 54 110 69 12 5 27 16 34 25 7 9 20 16 29
16 21 0 92 32 92 42 0 4 7 8 15 8 8 0 19 8 24 19 6 10 22 22 37 25 15 4 41 18
59 32 17 13 41 24 53 24 12 0 26 9 32 20 6 11 21 20 33 20 12 0 33 7 45 16 12
8 31 17 42 19 33 6 73 29 78 44 3 10 0 12 -12 8 -9 -4 -16 -2 -16 3 0 6 2 10
4 10 2 0 11 3 20 6 11 4 16 1 16 -10 0 -9 4 -16 9 -16 10 0 98 36 126 52 61
35 143 69 245 103 63 20 122 43 131 51 8 8 27 14 42 14 14 0 29 5 32 10 3 6
15 10 25 10 10 0 41 11 68 25 28 14 57 25 66 25 9 0 33 9 53 20 21 11 43 20
50 20 17 0 77 33 86 48 4 6 13 12 20 12 7 0 6 -4 -3 -11 -11 -7 -6 -8 20 -3
19 3 42 12 51 20 8 8 35 14 58 14 23 0 54 6 69 14 37 19 175 65 234 77 27 6
52 17 54 23 3 7 24 13 47 14 45 2 115 16 187 39 25 8 67 17 93 20 26 3 50 10
53 14 3 5 33 9 67 9 34 0 78 5 97 10 43 13 161 37 255 51 39 5 78 15 88 20 10
5 22 7 26 5 8 -5 85 9 213 39 34 8 65 12 68 10 4 -3 43 2 85 10 43 9 106 18
139 21 34 3 78 10 100 15 21 6 78 15 125 21 118 14 124 15 141 21 8 4 26 6 40
5 38 -2 133 11 203 27 34 8 87 15 118 15 31 0 78 4 105 9 51 10 249 27 391 35
45 3 99 9 120 15 21 5 67 12 103 15 36 3 92 8 125 11 58 6 145 11 310 20 44 2
96 9 115 15 35 11 224 36 355 46 39 4 97 1 130 -5 50 -9 67 -18 106 -57 54
-53 71 -53 129 1 54 51 77 59 190 71 98 9 296 9 330 -1z m-6020 -1009 c0 -3
-4 -8 -10 -11 -5 -3 -10 -1 -10 4 0 6 5 11 10 11 6 0 10 -2 10 -4z m-520 -236
c0 -5 -5 -10 -11 -10 -5 0 -7 5 -4 10 3 6 8 10 11 10 2 0 4 -4 4 -10z"/>
<path d="M22750 12920 c0 -5 5 -10 10 -10 6 0 10 5 10 10 0 6 -4 10 -10 10 -5
0 -10 -4 -10 -10z"/>
<path d="M25470 30670 c0 -5 5 -10 10 -10 6 0 10 5 10 10 0 6 -4 10 -10 10 -5
0 -10 -4 -10 -10z"/>
<path d="M4615 27080 c-3 -5 -1 -10 4 -10 6 0 11 5 11 10 0 6 -2 10 -4 10 -3
0 -8 -4 -11 -10z"/>
<path d="M3860 23598 c0 -9 5 -20 11 -23 17 -11 20 0 4 21 -13 17 -14 17 -15
2z"/>
<path d="M2750 22406 c0 -9 5 -16 10 -16 6 0 10 4 10 9 0 6 -4 13 -10 16 -5 3
-10 -1 -10 -9z"/>
<path d="M25420 17624 c0 -17 22 -14 28 4 2 7 -3 12 -12 12 -9 0 -16 -7 -16
-16z"/>
<path d="M24310 16448 c0 -9 5 -20 11 -23 17 -11 20 0 4 21 -13 17 -14 17 -15
2z"/>
<path d="M25240 3940 c0 -5 5 -10 11 -10 5 0 7 5 4 10 -3 6 -8 10 -11 10 -2 0
-4 -4 -4 -10z"/>
</g>
</svg>
